<?xml version="1.0" encoding="UTF-8" standalone="no"?>
<svg
   width="297mm"
   height="210mm"
   version="1.1"
   viewBox="0 0 297 210"
   xml:space="preserve"
   id="svg94"
   xmlns="http://www.w3.org/2000/svg"
   xmlns:svg="http://www.w3.org/2000/svg"><defs
     id="defs94"><marker
       style="overflow:visible"
       id="marker8"
       refX="0"
       refY="0"
       orient="auto-start-reverse"
       markerWidth="1"
       markerHeight="1"
       viewBox="0 0 1 1"
       preserveAspectRatio="xMidYMid"><path
         style="fill:none;stroke:context-stroke;stroke-width:1;stroke-linecap:butt"
         d="M 3,-3 0,0 3,3"
         transform="rotate(180,0.125,0)"
         id="path8" /></marker><marker
       style="overflow:visible"
       id="ArrowWide"
       refX="0"
       refY="0"
       orient="auto-start-reverse"
       markerWidth="1"
       markerHeight="1"
       viewBox="0 0 1 1"
       preserveAspectRatio="xMidYMid"><path
         style="fill:none;stroke:context-stroke;stroke-width:1;stroke-linecap:butt"
         d="M 3,-3 0,0 3,3"
         transform="rotate(180,0.125,0)"
         id="path7" /></marker></defs><rect
     style="fill:#d55d5d;fill-opacity:1;stroke:#000000;stroke-width:0.5;stroke-linecap:round;stroke-linejoin:round;stroke-dasharray:none;stroke-opacity:1"
     id="rect1"
     width="179.50883"
     height="59.508827"
     x="59.002949"
     y="18.298012" /><rect
     style="fill:#80b3ff;fill-opacity:1;stroke:#000000;stroke-width:0.491172;stroke-linecap:round;stroke-linejoin:round;stroke-opacity:1"
     id="rect2"
     width="179.50883"
     height="59.508827"
     x="58.745583"
     y="137.31566" /><rect
     style="fill:#8dd35f;fill-opacity:1;stroke:#000000;stroke-width:0.491172;stroke-linecap:round;stroke-linejoin:round;stroke-opacity:1"
     id="rect4"
     width="179.50883"
     height="59.508827"
     x="58.966808"
     y="77.766876" /><g
     id="g9"
     transform="matrix(-1.0296824,0,0,1.0296824,279.03053,105.10381)"><path
       id="rect57"
       style="fill:none;stroke:#000000;stroke-width:0.2;stroke-linecap:round;stroke-linejoin:round;stroke-dasharray:none;stroke-dashoffset:0;stroke-opacity:1"
       d="m 30.350018,60.878123 a 0.23360548,1.5601902 30 0 0 0.577613,-1.468052 l -4.471127,-2.581407 -0.0229,-0.01322 -0.0053,0.0091 a 0.23360548,1.5601902 30 0 0 -0.954401,1.238353 0.23360548,1.5601902 30 0 0 -0.595081,1.445428 l -0.0054,0.0094 0.0229,0.01322 4.471127,2.581407 a 0.23360548,1.5601902 30 0 0 0.982563,-1.234253 z" /><path
       id="rect58"
       style="fill:none;stroke:#000000;stroke-width:0.2;stroke-linecap:round;stroke-linejoin:round;stroke-dasharray:none;stroke-dashoffset:0;stroke-opacity:1"
       d="m 31.126773,60.517773 -0.411818,-0.237764 a 0.23360548,1.5601902 30 0 1 -0.328718,0.619216 0.23360548,1.5601902 30 0 1 -0.371733,0.594 l 0.411819,0.237764 z" /><path
       id="rect59"
       style="fill:none;stroke:#000000;stroke-width:0.2;stroke-linecap:round;stroke-linejoin:round;stroke-dasharray:none"
       d="m 31.615722,61.425045 -0.159204,0.275749 -0.795682,-0.375995 0.23142,-0.40083 z" /><path
       id="path6"
       style="fill:#1a1a1a;stroke-width:0.209248;stroke-linecap:round;stroke-linejoin:round;stroke-dasharray:0.627742, 0.627742"
       d="m 31.64148,61.640281 c 0,0 0.796674,1.82738 0,1.82738 -0.797754,0 0,-1.82738 0,-1.82738 z" /></g><g
     id="g10"
     transform="rotate(150,261.7117,18.554147)"
     style="fill:none"><path
       id="path9"
       style="fill:none;stroke:#000000;stroke-width:0.306216;stroke-linecap:round;stroke-linejoin:round;stroke-dasharray:0.918647, 0.918647;stroke-dashoffset:0"
       transform="matrix(-0.48985722,-0.8484576,0.84843541,-0.48984441,433.56387,233.7783)"
       d="m 257.35466,-30.479254 30.36601,0.03276 30.36601,-0.03276 -15.21137,26.2813565 -15.15464,26.3141165 -15.15463,-26.3141173 z" /></g><path
     d="m 238.50256,137.40673 4.76733,-8.24726 0.042,-43.307535 -4.79422,-8.290615"
     style="display:inline;fill:none;stroke:#000000;stroke-width:0.308905;stroke-linecap:round;stroke-linejoin:round;stroke-dasharray:0.926714, 0.926714;stroke-dashoffset:0"
     id="path10" /><path
     d="m 54.189507,102.40675 -0.0507,1.05247 -0.27789,0.38009 c 0.0704,0.15969 0.1544,0.32975 0.2518,0.51021 0.16915,0.31777 0.29986,0.66753 0.39319,1.04874 0.13374,-0.40101 0.36075,-0.59378 0.68093,-0.57833 0.23666,0.0114 0.42514,0.12512 0.56543,0.3412 0.14022,0.21612 0.20363,0.46607 0.1899,0.75011 -0.014,0.28954 -0.0861,0.51212 -0.21638,0.66771 -0.13011,0.15287 -0.29832,0.22413 -0.50428,0.21429 -0.33412,-0.0161 -0.57538,-0.22168 -0.72374,-0.61678 l -0.21574,-0.56293 c -0.0396,-0.10518 -0.11117,-0.24255 -0.21416,-0.41241 -0.10614,-0.17252 -0.29366,-0.44953 -0.56276,-0.83086 -0.12944,0.14477 -0.24942,0.28242 -0.35896,0.41392 l -0.36039,0.44314 c -0.0118,0.0105 -0.0498,0.0771 -0.1143,0.19959 -0.25603,0.50676 -0.40831,0.79939 -0.45671,0.87801 -0.0513,0.0785 -0.13834,0.15258 -0.26193,0.2217 -0.12285,0.0673 -0.25443,0.0966 -0.39363,0.0899 -0.19212,-0.009 -0.35118,-0.0965 -0.47717,-0.26162 -0.12857,-0.16806 -0.18628,-0.39126 -0.17283,-0.66971 0.015,-0.31185 0.1054,-0.56564 0.27111,-0.76137 0.16577,-0.19569 0.36411,-0.28808 0.5952,-0.27693 0.3369,0.0162 0.54388,0.2383 0.62093,0.66623 0.2118,-0.57307 0.47853,-1.06951 0.80016,-1.48938 l -1.46811,-2.54475 c -0.0457,-0.0807 -0.11828,-0.22922 -0.21673,-0.44601 -0.10177,-0.21668 -0.17743,-0.45787 -0.22889,-0.72268 -0.0514,-0.264848 -0.0733,-0.47657 -0.0657,-0.635266 0.003,-0.06125 0.0201,-0.09946 0.0516,-0.114858 l 2.28826,3.940564 z m -2.4291,2.54105 c -0.1448,-0.007 -0.271,0.0622 -0.37845,0.2077 -0.11027,0.14542 -0.17161,0.34756 -0.18413,0.60648 -0.008,0.16701 0.0245,0.30258 0.0976,0.40658 0.0735,0.10109 0.16833,0.15467 0.28531,0.16025 0.167,0.008 0.3019,-0.0677 0.40449,-0.22741 0.10021,-0.15959 0.155,-0.34974 0.16561,-0.5697 0.009,-0.18939 -0.0217,-0.33175 -0.0924,-0.42725 -0.0734,-0.0984 -0.17277,-0.1506 -0.29801,-0.15672 z m 3.41132,0.18114 c -0.27843,-0.0134 -0.42618,0.15663 -0.44319,0.51028 -0.0122,0.25335 0.0225,0.45878 0.10426,0.61621 0.0816,0.15747 0.20746,0.24023 0.37735,0.24838 0.1115,0.005 0.2097,-0.0359 0.29486,-0.12387 0.0851,-0.088 0.13224,-0.22526 0.14123,-0.41181 0.0113,-0.23388 -0.0211,-0.4294 -0.0973,-0.58655 -0.0785,-0.16025 -0.20449,-0.2443 -0.37712,-0.25258 z"
     id="text99-2"
     style="font-size:8.31638px;line-height:0.8;font-family:Sans;-inkscape-font-specification:Sans;text-align:center;text-anchor:middle;stroke-width:0.728213;stroke-linecap:round;stroke-linejoin:round"
     aria-label="✁" /><text
     xml:space="preserve"
     style="font-style:normal;font-variant:normal;font-weight:normal;font-stretch:normal;font-size:3.52778px;line-height:0.8;font-family:Helvetica;-inkscape-font-specification:Helvetica;text-align:center;text-anchor:middle;fill:#000000;fill-opacity:1;stroke:none;stroke-width:0.499999;stroke-linecap:round;stroke-linejoin:round;stroke-opacity:1"
     x="267.32025"
     y="166.76152"
     id="text22"><tspan
       id="tspan22"
       style="font-style:normal;font-variant:normal;font-weight:normal;font-stretch:normal;font-size:3.52778px;font-family:Helvetica;-inkscape-font-specification:Helvetica;text-align:center;text-anchor:middle;fill:#000000;fill-opacity:1;stroke:none;stroke-width:0.5"
       x="267.32025"
       y="166.76152">⑤ Glue bases</tspan><tspan
       style="font-style:normal;font-variant:normal;font-weight:normal;font-stretch:normal;font-size:3.52778px;font-family:Helvetica;-inkscape-font-specification:Helvetica;text-align:center;text-anchor:middle;fill:#000000;fill-opacity:1;stroke:none;stroke-width:0.5"
       x="267.32025"
       y="169.72179"
       id="tspan27">to sides</tspan></text><text
     xml:space="preserve"
     style="font-style:normal;font-variant:normal;font-weight:normal;font-stretch:normal;font-size:3.52778px;line-height:0.8;font-family:Helvetica;-inkscape-font-specification:Helvetica;text-align:center;text-anchor:middle;fill:#000000;fill-opacity:1;stroke:none;stroke-width:0.499999;stroke-linecap:round;stroke-linejoin:round;stroke-opacity:1"
     x="35.667889"
     y="102.86137"
     id="text49"><tspan
       style="font-style:normal;font-variant:normal;font-weight:normal;font-stretch:normal;font-size:3.52778px;font-family:Helvetica;-inkscape-font-specification:Helvetica;text-align:center;text-anchor:middle;fill:#000000;fill-opacity:1;stroke:none;stroke-width:0.5"
       x="35.667889"
       y="102.86137"
       id="tspan49">① Cut along the</tspan><tspan
       style="font-style:normal;font-variant:normal;font-weight:normal;font-stretch:normal;font-size:3.52778px;font-family:Helvetica;-inkscape-font-specification:Helvetica;text-align:center;text-anchor:middle;fill:#000000;fill-opacity:1;stroke:none;stroke-width:0.5"
       x="35.667889"
       y="105.82163"
       id="tspan50">dashed lines</tspan></text><g
     id="g59"
     transform="matrix(0.8660254,0.5,0.5,-0.8660254,-200.63776,22.789297)"
     style="fill:none"><path
       id="path59"
       style="fill:none;stroke:#000000;stroke-width:0.306216;stroke-linecap:round;stroke-linejoin:round;stroke-dasharray:0.918647, 0.918647;stroke-dashoffset:0"
       transform="matrix(-0.48985722,-0.8484576,0.84843541,-0.48984441,433.56387,233.7783)"
       d="m 257.35466,-30.479254 30.36601,0.03276 30.36601,-0.03276 -15.21137,26.2813565 -15.15464,26.3141165" /></g><g
     id="g77"
     transform="translate(4.3652447,-28.402801)"><path
       id="path1"
       style="fill:none;stroke:#000000;stroke-width:0.213841;stroke-linecap:round;stroke-linejoin:round"
       d="m 248.99204,136.91361 0.031,-2.07998 -1.10536,-1.53531 h -4.82709 l -1.10536,1.53531 0.0315,2.07998 1.07384,1.71617 h 4.82709 z" /><path
       style="fill:none;stroke:#000000;stroke-width:0.102968;stroke-linecap:round;stroke-linejoin:round;stroke-dasharray:0.308905, 0.308905;stroke-dashoffset:0;stroke-opacity:1"
       d="m 241.98508,134.83373 h 7.03813"
       id="path2" /><path
       style="fill:none;stroke:#000000;stroke-width:0.102968;stroke-linecap:round;stroke-linejoin:round;stroke-dasharray:0.308905, 0.308905;stroke-dashoffset:0;stroke-opacity:1"
       d="m 241.98507,136.88291 h 7.03813"
       id="path2-3" /></g><path
     d="m 238.47565,196.8245 4.76733,-8.24726 0.042,-43.30753 -4.79422,-8.29061"
     style="display:inline;fill:none;stroke:#000000;stroke-width:0.308905;stroke-linecap:round;stroke-linejoin:round;stroke-dasharray:0.926714, 0.926714;stroke-dashoffset:0"
     id="path3" /><path
     d="m 58.975038,137.40673 -4.76733,-8.24726 -0.042,-43.307537 4.79422,-8.290615"
     style="display:inline;fill:none;stroke:#000000;stroke-width:0.308905;stroke-linecap:round;stroke-linejoin:round;stroke-dasharray:0.926714, 0.926714;stroke-dashoffset:0"
     id="path10-7" /><path
     d="m 58.973954,78.148393 -4.76733,-8.24726 -0.042,-43.307534 4.79422,-8.29061"
     style="display:inline;fill:none;stroke:#000000;stroke-width:0.308905;stroke-linecap:round;stroke-linejoin:round;stroke-dasharray:0.926714, 0.926714;stroke-dashoffset:0"
     id="path3-3" /><text
     xml:space="preserve"
     style="font-style:normal;font-variant:normal;font-weight:normal;font-stretch:normal;font-size:3.52778px;line-height:0.8;font-family:Helvetica;-inkscape-font-specification:Helvetica;text-align:center;text-anchor:middle;fill:#000000;fill-opacity:1;stroke:none;stroke-width:0.499999;stroke-linecap:round;stroke-linejoin:round;stroke-opacity:1"
     x="266.14825"
     y="107.33255"
     id="text4"><tspan
       style="font-style:normal;font-variant:normal;font-weight:normal;font-stretch:normal;font-size:3.52778px;font-family:Helvetica;-inkscape-font-specification:Helvetica;text-align:center;text-anchor:middle;fill:#000000;fill-opacity:1;stroke:none;stroke-width:0.5"
       x="266.14825"
       y="107.33255"
       id="tspan4">③ Fold sides</tspan><tspan
       style="font-style:normal;font-variant:normal;font-weight:normal;font-stretch:normal;font-size:3.52778px;font-family:Helvetica;-inkscape-font-specification:Helvetica;text-align:center;text-anchor:middle;fill:#000000;fill-opacity:1;stroke:none;stroke-width:0.5"
       x="266.14825"
       y="110.29281"
       id="tspan5">inward</tspan></text><text
     xml:space="preserve"
     style="font-size:7.05556px;line-height:0.8;font-family:Helvetica;-inkscape-font-specification:Helvetica;text-align:center;text-anchor:middle;fill:#d55d5d;fill-opacity:1;stroke:#80b3ff;stroke-width:2;stroke-linecap:butt;stroke-linejoin:miter;stroke-dasharray:none;stroke-opacity:1"
     x="-48.190231"
     y="71.236946"
     id="text16"
     transform="rotate(-90)"><tspan
       id="tspan16"
       style="font-size:7.05556px;fill:#000000;stroke:none;stroke-width:2"
       x="-48.190231"
       y="71.236946">RED</tspan></text><text
     xml:space="preserve"
     style="font-size:7.05556px;line-height:0.8;font-family:Helvetica;-inkscape-font-specification:Helvetica;text-align:center;text-anchor:middle;fill:#d55d5d;fill-opacity:1;stroke:#80b3ff;stroke-width:2;stroke-linecap:butt;stroke-linejoin:miter;stroke-dasharray:none;stroke-opacity:1"
     x="-107.42138"
     y="71.235222"
     id="text17"
     transform="rotate(-90)"><tspan
       id="tspan17"
       style="font-size:7.05556px;fill:#000000;stroke:none;stroke-width:2"
       x="-107.42138"
       y="71.235222">GREEN</tspan></text><text
     xml:space="preserve"
     style="font-size:7.05556px;line-height:0.8;font-family:Helvetica;-inkscape-font-specification:Helvetica;text-align:center;text-anchor:middle;fill:#d55d5d;fill-opacity:1;stroke:#80b3ff;stroke-width:2;stroke-linecap:butt;stroke-linejoin:miter;stroke-dasharray:none;stroke-opacity:1"
     x="-167.24405"
     y="71.231781"
     id="text18"
     transform="rotate(-90)"><tspan
       id="tspan18"
       style="font-size:7.05556px;fill:#000000;stroke:none;stroke-width:2"
       x="-167.24405"
       y="71.231781">REFACTOR</tspan></text><text
     xml:space="preserve"
     style="font-size:8.46667px;line-height:0.8;font-family:Helvetica;-inkscape-font-specification:Helvetica;text-align:center;text-anchor:middle;fill:#d55d5d;fill-opacity:1;stroke:#80b3ff;stroke-width:2;stroke-linecap:butt;stroke-linejoin:miter;stroke-dasharray:none;stroke-opacity:1"
     x="148.55888"
     y="50.195965"
     id="text23"><tspan
       id="tspan23"
       style="font-weight:bold;font-size:8.46667px;fill:#000000;stroke:none;stroke-width:2"
       x="148.55888"
       y="50.195965">① Write a failing test</tspan></text><text
     xml:space="preserve"
     style="font-size:6.35px;line-height:0.8;font-family:Helvetica;-inkscape-font-specification:Helvetica;text-align:center;text-anchor:middle;fill:#d55d5d;fill-opacity:1;stroke:#80b3ff;stroke-width:2;stroke-linecap:butt;stroke-linejoin:miter;stroke-dasharray:none;stroke-opacity:1"
     x="148.37698"
     y="134.60985"
     id="text24"><tspan
       id="tspan24"
       style="font-size:6.35px;fill:#000000;stroke:none;stroke-width:2"
       x="148.37698"
       y="134.60985">all tests pass</tspan></text><text
     xml:space="preserve"
     style="font-size:8.46667px;line-height:0.8;font-family:Helvetica;-inkscape-font-specification:Helvetica;text-align:center;text-anchor:middle;fill:#d55d5d;fill-opacity:1;stroke:#80b3ff;stroke-width:2;stroke-linecap:butt;stroke-linejoin:miter;stroke-dasharray:none;stroke-opacity:1"
     x="148.51862"
     y="169.30663"
     id="text25"><tspan
       id="tspan25"
       style="font-weight:bold;font-size:8.46667px;fill:#000000;stroke:none;stroke-width:2"
       x="148.51862"
       y="169.30663">③ Optimize the code</tspan></text><text
     xml:space="preserve"
     style="font-size:6.35px;line-height:0.8;font-family:Helvetica;-inkscape-font-specification:Helvetica;text-align:center;text-anchor:middle;fill:#d55d5d;fill-opacity:1;stroke:#80b3ff;stroke-width:2;stroke-linecap:butt;stroke-linejoin:miter;stroke-dasharray:none;stroke-opacity:1"
     x="148.55888"
     y="24.190273"
     id="text26"><tspan
       id="tspan26"
       style="font-size:6.35px;fill:#000000;stroke:none;stroke-width:2"
       x="148.55888"
       y="24.190273">all tests pass </tspan></text><text
     xml:space="preserve"
     style="font-size:6.35px;line-height:0.8;font-family:Helvetica;-inkscape-font-specification:Helvetica;text-align:center;text-anchor:middle;fill:#d55d5d;fill-opacity:1;stroke:#80b3ff;stroke-width:2;stroke-linecap:butt;stroke-linejoin:miter;stroke-dasharray:none;stroke-opacity:1"
     x="148.56715"
     y="75.064774"
     id="text28"><tspan
       id="tspan28"
       style="font-size:6.35px;fill:#000000;stroke:none;stroke-width:2"
       x="148.56715"
       y="75.064774">there is a failing test</tspan></text><text
     xml:space="preserve"
     style="font-size:6.35px;line-height:0.8;font-family:Helvetica;-inkscape-font-specification:Helvetica;text-align:center;text-anchor:middle;fill:#d55d5d;fill-opacity:1;stroke:#80b3ff;stroke-width:2;stroke-linecap:butt;stroke-linejoin:miter;stroke-dasharray:none;stroke-opacity:1"
     x="148.37698"
     y="83.728668"
     id="text29"><tspan
       id="tspan29"
       style="font-size:6.35px;fill:#000000;stroke:none;stroke-width:2"
       x="148.37698"
       y="83.728668">there is a failing test</tspan></text><text
     xml:space="preserve"
     style="font-size:8.46667px;line-height:0.8;font-family:Helvetica;-inkscape-font-specification:Helvetica;text-align:center;text-anchor:middle;fill:#d55d5d;fill-opacity:1;stroke:#80b3ff;stroke-width:2;stroke-linecap:butt;stroke-linejoin:miter;stroke-dasharray:none;stroke-opacity:1"
     x="148.34085"
     y="109.6855"
     id="text30"><tspan
       id="tspan30"
       style="font-weight:bold;font-size:8.46667px;fill:#000000;stroke:none;stroke-width:2"
       x="148.34085"
       y="109.6855">② Make the tests pass</tspan></text><text
     xml:space="preserve"
     style="font-size:6.35px;line-height:0.8;font-family:Helvetica;-inkscape-font-specification:Helvetica;text-align:center;text-anchor:middle;fill:#d55d5d;fill-opacity:1;stroke:#80b3ff;stroke-width:2;stroke-linecap:butt;stroke-linejoin:miter;stroke-dasharray:none;stroke-opacity:1"
     x="148.30464"
     y="143.21231"
     id="text31"><tspan
       id="tspan31"
       style="font-size:6.35px;fill:#000000;stroke:none;stroke-width:2"
       x="148.30464"
       y="143.21231">all tests pass</tspan></text><text
     xml:space="preserve"
     style="font-size:6.35px;line-height:0.8;font-family:Helvetica;-inkscape-font-specification:Helvetica;text-align:center;text-anchor:middle;fill:#d55d5d;fill-opacity:1;stroke:#80b3ff;stroke-width:2;stroke-linecap:butt;stroke-linejoin:miter;stroke-dasharray:none;stroke-opacity:1"
     x="148.59096"
     y="194.15865"
     id="text32"><tspan
       id="tspan32"
       style="font-size:6.35px;fill:#000000;stroke:none;stroke-width:2"
       x="148.59096"
       y="194.15865">all tests pass</tspan></text><g
     id="g13"><path
       id="path41-1"
       style="color:#000000;fill:#80b3ff;stroke:#000000;stroke-width:0.3;stroke-dasharray:none"
       d="m 47.692425,179.1941 c 4.329521,-2.49965 7.000091,-7.12605 7.00009,-12.12535 10e-7,-4.9993 -2.670569,-9.62313 -7.00009,-12.12278 l 0.548804,2.04846 -2.048971,0.54932 c 3.405486,1.96615 5.500441,5.59267 5.50044,9.525 10e-7,3.93231 -2.094954,7.56142 -5.50044,9.52758 l -0.54932,2.04897 z" /><path
       id="path45"
       style="color:#000000;fill:#8dd35f;stroke:#000000;stroke-width:0.3;stroke-linejoin:round;stroke-dasharray:none"
       d="m 29.69249,167.07081 c -1e-6,-3.93231 2.094437,-7.56142 5.499923,-9.52758 3.405485,-1.96616 7.594877,-1.96616 11.000362,0 l -5.17e-4,5.2e-4 2.048971,-0.54932 -0.548804,-2.04846 c -4.32952,-2.49965 -9.670142,-2.49965 -13.999662,0 -4.329072,2.49939 -6.999538,7.12459 -7.00009,12.12329 l 1.49965,-1.49965 1.49965,1.50017 -0.02067,0.001 z m -2.979663,0 -0.02015,-0.001 v 0.001 z" /><path
       id="path43"
       style="color:#000000;fill:#d55d5d;stroke:#000000;stroke-width:0.3;stroke-linejoin:round;stroke-dasharray:none"
       d="m 40.692852,181.06892 c 2.417383,0 4.834453,-0.62523 6.999056,-1.87482 l -2.04897,-0.5488 0.54932,-2.04845 c -3.405374,1.9658 -7.594563,1.96552 -10.999845,-5.2e-4 -3.405486,-1.96616 -5.499924,-5.5932 -5.499923,-9.52552 H 29.6713 l 0.02067,-0.001 -1.49965,-1.50016 -1.500166,1.50016 0.02067,0.001 h -0.02015 c -1e-6,4.9993 2.670569,9.62313 7.00009,12.12278 2.16476,1.24982 4.58248,1.87533 7.000089,1.87533 z m 5.499406,-4.47207 0.0047,0.007 -0.0041,-0.008 h -5.17e-4 z" /></g><g
     id="g80"
     transform="translate(0.25736754,-3.3274886)"><text
       xml:space="preserve"
       style="font-style:normal;font-variant:normal;font-weight:normal;font-stretch:normal;font-size:3.52778px;line-height:0.8;font-family:Helvetica;-inkscape-font-specification:Helvetica;text-align:center;text-anchor:middle;fill:#000000;fill-opacity:1;stroke:none;stroke-width:0.499999;stroke-linecap:round;stroke-linejoin:round;stroke-opacity:1"
       x="280.3031"
       y="72.951805"
       id="text56"><tspan
         style="font-style:normal;font-variant:normal;font-weight:normal;font-stretch:normal;font-size:3.52778px;font-family:Helvetica;-inkscape-font-specification:Helvetica;text-align:center;text-anchor:middle;fill:#000000;fill-opacity:1;stroke:none;stroke-width:0.5"
         x="280.3031"
         y="72.951805"
         id="tspan55">② Fold right</tspan><tspan
         style="font-style:normal;font-variant:normal;font-weight:normal;font-stretch:normal;font-size:3.52778px;font-family:Helvetica;-inkscape-font-specification:Helvetica;text-align:center;text-anchor:middle;fill:#000000;fill-opacity:1;stroke:none;stroke-width:0.5"
         x="280.3031"
         y="75.912064"
         id="tspan56">base inward</tspan></text><g
       id="g63"
       transform="rotate(180,234.96158,40.67018)"><g
         id="g62"
         transform="matrix(-1.0296824,0,0,-1.0296824,231.84701,176.85339)"><g
           id="g61"
           transform="matrix(1,0,0,-1,0,325.66126)"><path
             id="path60"
             style="fill:none;stroke:#000000;stroke-width:0.207677;stroke-linecap:round;stroke-linejoin:round"
             d="m 21.466926,160.56126 -0.03051,2.53369 h 6.835241 l 1.012667,-1.25879 -1.043177,-1.2749 z" /><path
             style="fill:none;stroke:#000000;stroke-width:0.1;stroke-linecap:round;stroke-linejoin:round;stroke-dasharray:0.3, 0.3;stroke-dashoffset:0;stroke-opacity:1"
             d="m 28.241147,160.56126 0.03051,2.53369"
             id="path61" /></g></g></g></g><g
     id="g79"
     transform="translate(0.25736754,7.2558448)"><g
       id="g64"
       transform="translate(-29.556931,127.02605)"><g
         id="g60"
         transform="matrix(-1.0296824,0,0,-1.0296824,87.709455,179.67613)"><g
           id="g57"
           transform="matrix(1,0,0,-1,0,325.66126)"><path
             id="path56"
             style="fill:none;stroke:#000000;stroke-width:0.207677;stroke-linecap:round;stroke-linejoin:round"
             d="m 21.466926,160.56126 -0.03051,2.53369 h 6.835241 l 1.012667,-1.25879 -1.043177,-1.2749 z" /><path
             style="fill:none;stroke:#000000;stroke-width:0.1;stroke-linecap:round;stroke-linejoin:round;stroke-dasharray:0.3, 0.3;stroke-dashoffset:0;stroke-opacity:1"
             d="m 28.241147,160.56126 0.03051,2.53369"
             id="path57" /></g></g></g><text
       xml:space="preserve"
       style="font-style:normal;font-variant:normal;font-weight:normal;font-stretch:normal;font-size:3.52778px;line-height:0.8;font-family:Helvetica;-inkscape-font-specification:Helvetica;text-align:center;text-anchor:middle;fill:#000000;fill-opacity:1;stroke:none;stroke-width:0.499999;stroke-linecap:round;stroke-linejoin:round;stroke-opacity:1"
       x="15.965985"
       y="137.7748"
       id="text65"><tspan
         style="font-style:normal;font-variant:normal;font-weight:normal;font-stretch:normal;font-size:3.52778px;font-family:Helvetica;-inkscape-font-specification:Helvetica;text-align:center;text-anchor:middle;fill:#000000;fill-opacity:1;stroke:none;stroke-width:0.5"
         x="15.965985"
         y="137.7748"
         id="tspan64">② Fold left</tspan><tspan
         style="font-style:normal;font-variant:normal;font-weight:normal;font-stretch:normal;font-size:3.52778px;font-family:Helvetica;-inkscape-font-specification:Helvetica;text-align:center;text-anchor:middle;fill:#000000;fill-opacity:1;stroke:none;stroke-width:0.5"
         x="15.965986"
         y="140.73506"
         id="tspan65">base inward</tspan></text></g><path
     d="m 238.17456,17.893559 -8.24726,-4.76733 -162.480289,-0.042 -8.29061,4.79422"
     style="display:inline;fill:none;stroke:#000000;stroke-width:0.308905;stroke-linecap:round;stroke-linejoin:round;stroke-dasharray:0.926714, 0.926714;stroke-dashoffset:0"
     id="path69" /><g
     id="g78"
     transform="translate(-4.5829392,-181.16758)"><g
       id="g73"
       transform="matrix(1.0296824,0,0,1.0296824,22.544957,135.6986)"><path
         id="path70"
         style="fill:none;stroke:#000000;stroke-width:0.2;stroke-linecap:round;stroke-linejoin:round;stroke-dasharray:none;stroke-dashoffset:0;stroke-opacity:1"
         d="m 30.350018,60.878123 a 0.23360548,1.5601902 30 0 0 0.577613,-1.468052 l -4.471127,-2.581407 -0.0229,-0.01322 -0.0053,0.0091 a 0.23360548,1.5601902 30 0 0 -0.954401,1.238353 0.23360548,1.5601902 30 0 0 -0.595081,1.445428 l -0.0054,0.0094 0.0229,0.01322 4.471127,2.581407 a 0.23360548,1.5601902 30 0 0 0.982563,-1.234253 z" /><path
         id="path71"
         style="fill:none;stroke:#000000;stroke-width:0.2;stroke-linecap:round;stroke-linejoin:round;stroke-dasharray:none;stroke-dashoffset:0;stroke-opacity:1"
         d="m 31.126773,60.517773 -0.411818,-0.237764 a 0.23360548,1.5601902 30 0 1 -0.328718,0.619216 0.23360548,1.5601902 30 0 1 -0.371733,0.594 l 0.411819,0.237764 z" /><path
         id="path72"
         style="fill:none;stroke:#000000;stroke-width:0.2;stroke-linecap:round;stroke-linejoin:round;stroke-dasharray:none"
         d="m 31.615722,61.425045 -0.159204,0.275749 -0.795682,-0.375995 0.23142,-0.40083 z" /><path
         id="path73"
         style="fill:#1a1a1a;stroke-width:0.209248;stroke-linecap:round;stroke-linejoin:round;stroke-dasharray:0.627742, 0.627742"
         d="m 31.64148,61.640281 c 0,0 0.796674,1.82738 0,1.82738 -0.797754,0 0,-1.82738 0,-1.82738 z" /></g><text
       xml:space="preserve"
       style="font-style:normal;font-variant:normal;font-weight:normal;font-stretch:normal;font-size:3.52778px;line-height:0.8;font-family:Helvetica;-inkscape-font-specification:Helvetica;text-align:center;text-anchor:middle;fill:#000000;fill-opacity:1;stroke:none;stroke-width:0.499999;stroke-linecap:round;stroke-linejoin:round;stroke-opacity:1"
       x="34.941418"
       y="197.00146"
       id="text74"><tspan
         style="font-style:normal;font-variant:normal;font-weight:normal;font-stretch:normal;font-size:3.52778px;font-family:Helvetica;-inkscape-font-specification:Helvetica;text-align:center;text-anchor:middle;fill:#000000;fill-opacity:1;stroke:none;stroke-width:0.5"
         x="34.941418"
         y="197.00146"
         id="tspan74">④ Glue sides</tspan><tspan
         style="font-style:normal;font-variant:normal;font-weight:normal;font-stretch:normal;font-size:3.52778px;font-family:Helvetica;-inkscape-font-specification:Helvetica;text-align:center;text-anchor:middle;fill:#000000;fill-opacity:1;stroke:none;stroke-width:0.5"
         x="34.941418"
         y="199.96173"
         id="tspan75">together</tspan></text></g><g
     id="path4"
     transform="translate(-0.03957216)"><path
       style="color:#000000;fill:#000000;-inkscape-stroke:none"
       d="m 67.933999,57.308066 0.02303,19.152871 1.5,0.01758 -0.02303,-19.154825 z"
       id="path20" /><g
       id="g19"><path
         style="color:#000000;fill:#000000;-inkscape-stroke:none"
         d="m 64.789062,71.771484 -1.072265,1.048828 4.974609,5.083985 5.083985,-4.97461 -1.048829,-1.072265 -4.011718,3.925781 z"
         id="path19" /></g></g><g
     id="g24"
     transform="translate(-0.20558716)"><path
       style="color:#000000;fill:#000000;-inkscape-stroke:none"
       d="m 68.162109,122.86239 v 13.0712 h 1.5 v -13.0712 z"
       id="path15" /><g
       id="g14"><path
         style="color:#000000;fill:#000000;-inkscape-stroke:none"
         d="m 64.943359,131.2793 -1.0625,1.06054 5.03125,5.0293 5.03125,-5.0293 -1.0625,-1.06054 -3.96875,3.96875 z"
         id="path14" /></g></g><g
     id="g27"
     transform="translate(0.54437001)"><path
       style="color:#000000;fill:#000000;-inkscape-stroke:none"
       d="m 67.46918,187.4722 -0.05703,7.92562 h 1.5 l 0.05703,-7.92562 z"
       id="path16" /><g
       id="g17"
       transform="translate(-0.74995717,59.464228)"><path
         style="color:#000000;fill:#000000;-inkscape-stroke:none"
         d="m 64.943359,131.2793 -1.0625,1.06054 5.03125,5.0293 5.03125,-5.0293 -1.0625,-1.06054 -3.96875,3.96875 z"
         id="path17" /></g></g><g
     id="g23"
     transform="translate(-0.03957216,-39.041371)"><path
       style="color:#000000;fill:#000000;-inkscape-stroke:none"
       d="m 67.933999,57.308066 0.02303,19.152871 1.5,0.01758 -0.02303,-19.154825 z"
       id="path21" /><g
       id="g22"><path
         style="color:#000000;fill:#000000;-inkscape-stroke:none"
         d="m 64.789062,72.300651 -1.072265,1.048828 4.974609,5.083985 5.083985,-4.97461 -1.048829,-1.072265 -4.011718,3.925781 z"
         id="path22" /></g></g><g
     id="g26"
     transform="translate(-0.20558716,-44.958093)"><path
       style="color:#000000;fill:#000000;-inkscape-stroke:none"
       d="m 68.162109,122.86239 v 14.6587 h 1.5 v -14.6587 z"
       id="path24" /><g
       id="g25"><path
         style="color:#000000;fill:#000000;-inkscape-stroke:none"
         d="m 64.943359,132.70351 -1.0625,1.06054 5.03125,5.0293 5.03125,-5.0293 -1.0625,-1.06054 -3.96875,3.96875 z"
         id="path25" /></g></g><g
     id="g29"
     transform="translate(0.54437001,-48.892782)"><path
       style="color:#000000;fill:#000000;-inkscape-stroke:none"
       d="m 67.46918,186.41387 -0.05703,7.92561 h 1.5 l 0.05703,-7.92561 z"
       id="path27" /><g
       id="g28"
       transform="translate(-0.74995717,59.464228)"><path
         style="color:#000000;fill:#000000;-inkscape-stroke:none"
         d="m 64.943359,130.22097 -1.0625,1.06054 5.03125,5.0293 5.03125,-5.0293 -1.0625,-1.06054 -3.96875,3.96875 z"
         id="path28" /></g></g><g
     id="g30"
     transform="matrix(0.17747308,-0.30739239,-0.30739204,-0.17747287,319.51085,90.20641)"
     style="stroke-width:2.81733"><path
       id="path13"
       style="color:#000000;fill:#80b3ff;stroke:#000000;stroke-width:0.845199;stroke-dasharray:none"
       d="m 47.692425,179.1941 c 4.329521,-2.49965 7.000091,-7.12605 7.00009,-12.12535 10e-7,-4.9993 -2.670569,-9.62313 -7.00009,-12.12278 l 0.548804,2.04846 -2.048971,0.54932 c 3.405486,1.96615 5.500441,5.59267 5.50044,9.525 10e-7,3.93231 -2.094954,7.56142 -5.50044,9.52758 l -0.54932,2.04897 z" /><path
       id="path18"
       style="color:#000000;fill:#8dd35f;stroke:#000000;stroke-width:0.845199;stroke-linejoin:round;stroke-dasharray:none"
       d="m 29.69249,167.07081 c -1e-6,-3.93231 2.094437,-7.56142 5.499923,-9.52758 3.405485,-1.96616 7.594877,-1.96616 11.000362,0 l -5.17e-4,5.2e-4 2.048971,-0.54932 -0.548804,-2.04846 c -4.32952,-2.49965 -9.670142,-2.49965 -13.999662,0 -4.329072,2.49939 -6.999538,7.12459 -7.00009,12.12329 l 1.49965,-1.49965 1.49965,1.50017 -0.02067,0.001 z m -2.979663,0 -0.02015,-0.001 v 0.001 z" /><path
       id="path23"
       style="color:#000000;fill:#d55d5d;stroke:#000000;stroke-width:0.845199;stroke-linejoin:round;stroke-dasharray:none"
       d="m 40.692852,181.06892 c 2.417383,0 4.834453,-0.62523 6.999056,-1.87482 l -2.04897,-0.5488 0.54932,-2.04845 c -3.405374,1.9658 -7.594563,1.96552 -10.999845,-5.2e-4 -3.405486,-1.96616 -5.499924,-5.5932 -5.499923,-9.52552 H 29.6713 l 0.02067,-0.001 -1.49965,-1.50016 -1.500166,1.50016 0.02067,0.001 h -0.02015 c -1e-6,4.9993 2.670569,9.62313 7.00009,12.12278 2.16476,1.24982 4.58248,1.87533 7.000088,1.87533 z m 5.499406,-4.47207 0.0047,0.007 -0.0041,-0.008 h -5.17e-4 z" /></g><g
     id="g113"
     transform="matrix(0.89173112,-0.5148412,0.5148412,0.89173112,44.949745,-105.37971)"
     style="display:inline"><text
       xml:space="preserve"
       style="font-style:normal;font-variant:normal;font-weight:normal;font-stretch:normal;font-size:2.11667px;line-height:0.8;font-family:Helvetica;-inkscape-font-specification:Helvetica;text-align:center;text-anchor:middle;fill:none;fill-opacity:1;stroke:#000000;stroke-width:0.3;stroke-linecap:round;stroke-linejoin:round;stroke-dasharray:none;stroke-dashoffset:0"
       x="112.58516"
       y="244.67793"
       id="text98"><tspan
         id="tspan98"
         style="font-style:normal;font-variant:normal;font-weight:normal;font-stretch:normal;font-size:2.11667px;font-family:Helvetica;-inkscape-font-specification:Helvetica;text-align:end;text-anchor:end;fill:#000000;fill-opacity:1;stroke:none;stroke-width:0.3"
         x="112.58516"
         y="244.67793">© Michael Kutz 2023</tspan><tspan
         style="font-style:normal;font-variant:normal;font-weight:normal;font-stretch:normal;font-size:2.11667px;font-family:Helvetica;-inkscape-font-specification:Helvetica;text-align:end;text-anchor:end;fill:#000000;fill-opacity:1;stroke:none;stroke-width:0.3"
         x="112.58516"
         y="246.37126"
         id="tspan111">michael-kutz.de</tspan></text><text
       xml:space="preserve"
       style="font-size:4.79653px;line-height:0.8;font-family:Helvetica;-inkscape-font-specification:Helvetica;text-align:end;text-anchor:end;fill:#000000;fill-opacity:1;stroke:none;stroke-width:0.291352"
       x="112.60559"
       y="234.59433"
       id="text11"><tspan
         id="tspan11"
         style="stroke-width:0.291352"
         x="112.60559"
         y="234.59433">Test Driven</tspan><tspan
         style="stroke-width:0.291352"
         x="112.60559"
         y="238.43155"
         id="tspan13">Development</tspan><tspan
         style="stroke-width:0.291352"
         x="112.60559"
         y="242.26878"
         id="tspan12">Prism</tspan></text></g></svg>
