<?xml version="1.0" encoding="UTF-8" standalone="no"?>
<!-- Created with Inkscape (http://www.inkscape.org/) -->

<svg
   xmlns:dc="http://purl.org/dc/elements/1.1/"
   xmlns:cc="http://creativecommons.org/ns#"
   xmlns:rdf="http://www.w3.org/1999/02/22-rdf-syntax-ns#"
   xmlns:svg="http://www.w3.org/2000/svg"
   xmlns="http://www.w3.org/2000/svg"
   xmlns:sodipodi="http://sodipodi.sourceforge.net/DTD/sodipodi-0.dtd"
   xmlns:inkscape="http://www.inkscape.org/namespaces/inkscape"
   width="20.937996mm"
   height="21.366171mm"
   viewBox="0 0 20.937996 21.366171"
   version="1.1"
   id="svg13539"
   inkscape:version="0.92.3 (2405546, 2018-03-11)"
   sodipodi:docname="GitHub.svg">
  <defs
     id="defs13533" />
  <sodipodi:namedview
     id="base"
     pagecolor="#ffffff"
     bordercolor="#666666"
     borderopacity="1.0"
     inkscape:pageopacity="0.0"
     inkscape:pageshadow="2"
     inkscape:zoom="0.35"
     inkscape:cx="28.139292"
     inkscape:cy="-99.622979"
     inkscape:document-units="mm"
     inkscape:current-layer="layer1"
     showgrid="false"
     fit-margin-top="0"
     fit-margin-left="0"
     fit-margin-right="0"
     fit-margin-bottom="0"
     inkscape:pagecheckerboard="true"
     inkscape:window-width="1920"
     inkscape:window-height="1025"
     inkscape:window-x="0"
     inkscape:window-y="27"
     inkscape:window-maximized="1" />
  <metadata
     id="metadata13536">
    <rdf:RDF>
      <cc:Work
         rdf:about="">
        <dc:format>image/svg+xml</dc:format>
        <dc:type
           rdf:resource="http://purl.org/dc/dcmitype/StillImage" />
        <dc:title></dc:title>
      </cc:Work>
    </rdf:RDF>
  </metadata>
  <g
     inkscape:label="Ebene 1"
     inkscape:groupmode="layer"
     id="layer1"
     transform="translate(-98.388145,-101.10858)">
    <g
       transform="matrix(0.35277777,0,0,-0.35277777,58.343202,244.62461)"
       id="g13518">
      <g
         transform="translate(-206.8528,-73.778259)"
         id="g13315"
         inkscape:label="WCM0085">
        <path
           d="m 349.49411,476.41837 c 0,0 0.70831,-0.0447 1.06299,-0.0536 0.71643,-0.0179 1.42853,-0.0528 2.14371,-0.11411 2.30212,-0.19726 4.61489,-0.30868 6.77764,-1.21933 0.6142,-0.25863 2.72202,-1.06897 3.4271,-1.42901 1.08951,-0.55637 1.93399,-1.42099 2.88775,-2.16141 0.99799,-0.77472 2.09089,-1.45774 2.95871,-2.39173 0.431,-0.46395 0.67063,-0.88595 1.13382,-1.29333 0.50183,-0.44132 1.11643,-0.83594 1.59452,-1.31101 0.82205,-0.81686 1.37277,-1.88284 2.01965,-2.83462 0.9234,-1.35867 1.96927,-2.56531 2.53348,-4.12796 0.38699,-1.07187 0.85953,-2.34708 1.00982,-3.49017 0.0935,-0.71073 0.0504,-1.60053 0.0709,-2.32087 0.0731,-2.56634 0.002,-5.08828 -0.67322,-7.58264 -0.48367,-1.78698 -1.21704,-2.97738 -1.98425,-4.67721 -0.59348,-1.31485 -1.22602,-2.63282 -2.05515,-3.82672 -0.4342,-0.62528 -0.98059,-1.16007 -1.45273,-1.75397 -0.46585,-0.58597 -0.86764,-1.25443 -1.38192,-1.8071 -0.62961,-0.67664 -1.44794,-1.09558 -2.09055,-1.75391 -1.8681,-1.91378 -3.76019,-3.91446 -6.09033,-5.27841 -0.66556,-0.38959 -1.41965,-0.98544 -2.21872,-1.09955 -0.85669,-0.12231 -2.1207,-0.44629 -2.94092,-0.12405 -1.19461,0.4693 -0.90115,2.12265 -0.91928,3.08267 -0.0389,2.06226 0.12097,4.12302 0.0883,6.18311 -0.0122,0.76959 0.18786,1.68194 -0.14341,2.40945 -0.26144,0.57422 -1.32553,0.96729 -0.99212,1.73624 0.41821,0.96454 2.01059,0.0483 2.72833,0.16519 0.52237,0.085 1.09845,0.15698 1.59448,0.34857 0.61392,0.23709 1.0965,0.71176 1.65018,1.04736 0.58459,0.35431 1.66772,0.95258 2.19434,1.3798 0.8236,0.66818 1.33914,1.73318 1.8591,2.61819 0.74087,1.26114 1.0039,2.6872 1.26892,4.09589 0.20971,1.11502 0.38162,1.64312 0.34442,2.67569 -0.0323,0.89569 -0.34375,1.92022 -0.56693,2.78146 -0.27112,1.04626 -0.68347,2.13297 -1.24014,3.06497 -0.23129,0.38721 -0.60187,0.71826 -0.72641,1.16931 -0.14957,0.54184 0.0632,1.14472 0.072,1.70078 0.0193,1.21359 -0.12115,2.44925 -0.71866,3.5448 -0.009,0.0162 -0.79706,-0.43262 -1.19113,-0.65701 -0.198,-0.11277 -0.40494,-0.20896 -0.60873,-0.31086 -0.52231,-0.26117 -1.36966,-0.3331 -1.91178,-0.55722 -0.6524,-0.26977 -1.05136,-0.99768 -1.78933,-1.08075 -0.61298,-0.069 -1.34571,0.38657 -1.91343,0.54926 -1.03125,0.2955 -2.12316,0.42374 -3.18896,0.49606 -0.48343,0.0328 -0.9325,-0.0483 -1.41733,-0.0355 -1.16568,0.0309 -2.21036,0.23581 -3.38385,0.0355 -0.79269,-0.13534 -1.3327,-0.80398 -2.12597,-0.93603 -0.0177,-0.003 -0.16105,-0.10218 -0.2327,-0.1518 -0.13156,-0.0911 -0.33856,-0.13464 -0.49899,-0.13464 -0.52695,0 -0.9603,0.27573 -1.3718,0.59689 -1.65872,1.29459 -3.23404,2.58994 -5.23181,3.32987 -0.0171,0.006 -0.28549,-0.6594 -0.41971,-0.99225 -0.10989,-0.27249 -0.17108,-0.58573 -0.1604,-0.87943 0.0389,-1.07153 0.0257,-2.03204 0.19214,-3.10034 0.0765,-0.49115 0.34567,-0.97827 0.28232,-1.48822 -0.10157,-0.81735 -0.64185,-1.51776 -0.99894,-2.25992 -0.25839,-0.53705 -0.68646,-1.76574 -0.84359,-2.27548 -0.85028,-2.75818 -0.5214,-5.46457 0.37204,-8.1496 0.21209,-0.63742 0.59427,-1.04907 1.06872,-1.50937 1.63108,-1.58239 3.1077,-2.82742 5.41553,-3.22143 0.53406,-0.0911 1.09934,-0.23087 1.62994,-0.30072 0.93021,-0.1225 2.18659,-0.0756 2.85236,-0.88583 0.61725,-0.75119 -0.21991,-1.37525 -0.67322,-1.89566 -0.936,-1.07462 -1.55328,-2.31135 -3.11813,-2.51575 -2.05603,-0.26859 -4.17914,0.97537 -5.74014,2.17914 -0.61762,0.47631 -1.0669,0.91412 -1.77167,1.26672 -0.0177,0.009 0.095,-0.1611 0.13025,-0.25589 0.0746,-0.20087 0.16202,-0.3985 0.22409,-0.60333 0.18326,-0.60489 0.29077,-1.23023 0.43619,-1.84537 0.23754,-1.00504 0.63201,-2.18689 1.51263,-2.81409 0.6109,-0.43512 1.44037,-0.94613 2.19684,-1.00982 1.71762,-0.14469 4.82193,0.65442 5.63388,-1.54139 0.15558,-0.42077 0.17807,-0.79797 0.22018,-1.24011 0.0357,-0.37497 -0.0283,-0.76239 -0.0983,-1.13247 -0.10614,-0.56104 -0.15696,-1.52768 -0.60025,-2.02109 -0.50672,-0.56403 -1.46518,-0.46558 -2.12601,-0.4766 -0.71796,-0.012 -1.57581,0.21488 -2.26795,0.34919 -0.32217,0.0625 -0.66616,-0.006 -0.99185,0.0388 -0.59936,0.0832 -1.16537,0.4226 -1.6925,0.66421 -1.2753,0.58453 -2.28412,1.06586 -3.57389,1.77902 -0.6925,0.38288 -1.42239,0.70676 -2.0151,1.24176 -1.02478,0.92496 -1.73251,2.10526 -2.6575,3.11814 -1.42911,1.56485 -2.8284,3.03424 -3.63187,5.04919 -0.56894,1.42673 -1.19128,2.93332 -1.47049,4.44687 -0.27286,1.47928 -0.29559,3.00629 -0.46063,4.5 -0.10165,0.92032 -0.20163,1.94516 -0.31891,2.85236 -0.0807,0.62429 -0.28619,1.40551 -0.30118,2.05511 -0.015,0.65143 0.20621,2.49487 0.22138,2.67517 0.10888,1.29566 0.2507,2.71552 0.55816,3.98627 0.17832,0.73694 0.53473,1.28738 0.79898,1.9953 0.56385,1.51022 1.15787,3.03751 2.00022,4.41806 0.38635,0.63318 0.84887,1.1402 1.32635,1.71188 1.72769,2.06873 3.4744,4.04102 5.77799,5.51648 0.47006,0.30109 1.3309,0.79355 1.91339,1.02756 0.70853,0.28461 1.48923,0.3876 2.19684,0.67319 1.23422,0.4981 2.37387,1.32736 3.66732,1.68307 1.00419,0.27619 2.22529,0.5629 3.25986,0.60239 0.55518,0.0212 1.13696,-0.0708 1.70078,-0.0555 1.25418,0.0339 2.42035,0.10534 3.66733,0.0742 l -1.68308,0.0691 z m -0.0709,-1.41779 c 0,0 -1.29923,-0.0999 -1.94882,-0.14993 -0.58707,-0.0451 -1.22943,0.12353 -1.80707,0.0273 -0.92301,-0.15381 -1.92313,-0.26889 -2.81696,-0.53143 -1.45062,-0.42609 -2.72564,-1.38785 -4.17694,-1.83887 -3.49969,-1.08765 -6.0664,-3.4996 -8.33471,-6.29889 -0.51743,-0.63852 -1.06516,-1.17303 -1.48441,-1.8721 -0.98224,-1.63791 -1.72174,-3.5405 -2.40945,-5.31497 -0.35093,-0.9054 -0.45984,-1.96283 -0.56034,-2.92325 -0.1402,-1.33966 -0.41696,-2.75028 -0.37863,-4.0925 0.0318,-1.11441 0.33316,-2.28683 0.43335,-3.40158 0.17108,-1.90326 0.28491,-3.90299 0.62964,-5.77561 0.18838,-1.02328 0.71924,-2.20629 1.06058,-3.10678 0.14883,-0.3927 0.22573,-0.81454 0.39218,-1.19833 0.80295,-1.8515 2.13998,-3.13925 3.45471,-4.60629 0.83829,-0.9354 1.50055,-2.04807 2.44488,-2.88779 0.66565,-0.59192 2.16202,-1.27075 2.63422,-1.52591 0.89508,-0.48361 1.57324,-0.78116 2.48587,-1.16702 0.39542,-0.16718 0.76117,-0.4271 1.16931,-0.5492 0.38056,-0.11383 0.8479,-0.0446 1.22245,-0.0886 1.11764,-0.1311 1.96688,-0.34106 3.10037,-0.28436 0.0177,8.5e-4 0.17911,0.6221 0.21679,0.93985 0.0768,0.64728 0.39097,2.01157 -0.41168,2.40945 -0.36175,0.17936 -0.81643,0.15287 -1.20471,0.1619 -0.71597,0.0167 -2.02045,-0.0349 -2.74606,0.0153 -1.25513,0.0867 -2.71949,0.90988 -3.59647,1.78934 -0.77475,0.77694 -1.19253,2.078 -1.44223,3.11523 -0.14191,0.58945 -0.29584,1.95609 -0.80777,2.58948 -0.69791,0.86352 -1.8063,0.68164 -2.65747,1.27563 -0.56613,0.39508 -0.74438,1.14002 -0.44293,1.75391 0.0852,0.17346 0.20587,0.34762 0.34344,0.48517 1.58139,1.58127 3.25949,-0.99729 4.62311,-1.7034 1.28372,-0.66474 2.21872,-1.66489 3.46652,-2.39591 0.52579,-0.30801 1.26096,-0.57425 1.77964,-0.79153 0.5469,-0.22913 1.37371,-0.34778 1.95855,-0.14746 0.99341,0.34024 1.41162,1.52005 2.11304,2.18454 0.0129,0.0123 -0.32843,0.10672 -0.50082,0.14694 -0.28019,0.0654 -0.59275,0.0645 -0.86814,0.087 -0.91168,0.0744 -1.87771,0.30982 -2.76574,0.53186 -2.3461,0.58655 -4.31784,2.17255 -5.86219,3.99457 -0.59308,0.69965 -0.74087,1.49988 -1.02755,2.33856 -0.88904,2.6009 -1.0015,5.49878 -0.15946,8.1496 0.45865,1.44388 1.14224,2.91077 1.78183,4.27136 0.008,0.0161 -0.0318,0.19321 -0.0515,0.2818 -0.0398,0.17893 -0.10636,0.36515 -0.15772,0.53464 -0.14178,0.46793 -0.19143,1.15042 -0.2453,1.50275 -0.18176,1.18838 -0.10614,2.73028 0.36209,3.83691 0.22116,0.52277 0.3913,1.13861 0.93265,1.42493 0.82733,0.43759 1.87665,-0.22598 2.59415,-0.5257 1.66922,-0.69726 3.14084,-2.16205 4.60199,-3.20215 0.0145,-0.0103 0.30929,0.26944 0.47259,0.38953 0.5358,0.39395 1.06324,0.77051 1.72104,0.92886 2.03537,0.48996 4.36054,0.63849 6.39707,0.18293 0.45822,-0.10251 1.32345,-0.10425 1.58422,-0.62583 0.009,-0.0178 0.5767,-0.14877 0.8606,-0.21429 0.56778,-0.13101 1.11145,-0.35953 1.66476,-0.54196 0.017,-0.006 0.32428,0.26605 0.4889,0.38794 0.34164,0.25311 0.65414,0.48306 1.06598,0.61346 0.43945,0.13919 1.40505,0.35666 1.84594,0.53436 0.89945,0.36246 2.02826,1.67334 3.04727,0.88581 0.44635,-0.34494 0.62934,-0.94928 0.77289,-1.46824 0.33689,-1.21795 0.57462,-1.99682 0.55728,-3.27975 -0.002,-0.15598 -0.1495,-1.30261 -0.09,-1.3819 1.41781,-1.89044 2.01782,-4.20038 2.48031,-6.48428 0.2612,-1.28986 -0.0788,-2.45996 -0.26574,-3.73816 -0.38297,-2.61816 -1.41135,-5.38391 -3.29529,-7.31692 -0.7916,-0.81223 -1.8584,-1.26868 -2.7992,-1.878 -0.54638,-0.35385 -1.0108,-0.77093 -1.61221,-1.02755 -0.83365,-0.35572 -1.76587,-0.45822 -2.65747,-0.5492 0,0 0.13858,-0.44375 0.14441,-0.67321 0.0263,-1.03528 0.0529,-2.06601 0.0828,-3.10041 0.0675,-2.33105 -0.12005,-4.67776 -0.0506,-7.01571 5.1e-4,-0.0177 0.34536,-0.037 0.51306,-0.004 0.32885,0.0646 0.68304,0.1756 1.02878,0.18365 1.12838,0.0263 2.02059,0.68283 2.95867,1.29083 1.95743,1.26871 3.58689,3.0658 5.20868,4.71262 0.49759,0.50528 0.99167,0.77502 1.54132,1.24017 0.74372,0.62934 1.28598,1.48301 1.86676,2.25324 0.43287,0.57403 0.99219,1.07782 1.39307,1.67981 0.28604,0.4295 0.47913,0.91986 0.74414,1.36416 1.74365,2.92307 3.07483,6.03428 3.59641,9.42521 0.22201,1.44326 0.13199,2.95483 0.0738,4.41143 -0.0286,0.7135 0.0289,1.52423 -0.0738,2.23227 -0.38797,2.67575 -1.76969,4.7443 -3.2692,6.89231 -0.63473,0.90918 -1.14908,1.95501 -1.95718,2.72778 -0.63559,0.60779 -1.40186,1.06744 -2.00193,1.71848 -1.09118,1.18392 -2.19705,2.09652 -3.47247,3.0827 -0.91162,0.70489 -1.70346,1.54483 -2.74606,2.07284 -1.3346,0.67588 -2.8888,1.31217 -4.32282,1.75391 -0.62399,0.19223 -1.22903,0.1759 -1.87796,0.30121 -2.11715,0.40875 -4.36688,0.59125 -6.53741,0.56692 -1.00354,-0.0112 -1.86331,-0.16415 -2.83463,-0.14251 l 2.81693,0.14114 z m -16.67127,-34.13837 c 0,0 0.52021,-0.16186 0.78031,-0.24279 0.0169,-0.005 -0.15766,0.10821 -0.24497,0.16497 -0.1278,0.0831 -0.26205,0.15433 -0.39538,0.22837 z"
           style="fill:#000000;fill-opacity:1;fill-rule:evenodd;stroke:none"
           id="path13317"
           inkscape:connector-curvature="0" />
        <path
           d="m 349.33466,480.56396 c 0,0 1.1929,-0.0663 1.78936,-0.0994 0.72181,-0.0401 1.44126,-0.11902 2.16144,-0.18006 1.40045,-0.11868 2.58078,-0.83795 3.84448,-1.34945 0.84034,-0.34015 1.71946,-0.50797 2.62204,-0.60828 0.8458,-0.0939 1.54557,-0.29199 2.37403,-0.45471 0.57663,-0.11328 1.11328,-0.0706 1.68304,-0.21262 0.87915,-0.21914 1.65537,-0.55761 2.44492,-1.00982 1.64322,-0.9412 2.95297,-2.45005 4.42407,-3.6091 1.5481,-1.21979 2.81509,-2.44574 4.07556,-4.02133 1.07623,-1.34534 2.16354,-2.58945 2.73264,-4.23966 0.27707,-0.8035 0.67477,-1.67047 0.86813,-2.49805 0.23792,-1.01837 0.0711,-2.09582 0.24802,-3.1358 0.27322,-1.60672 0.93945,-2.9725 1.08072,-4.62402 0.1285,-1.5022 -0.13544,-3.0499 -0.21259,-4.55316 -0.092,-1.79139 0.007,-3.64917 -0.30124,-5.42127 -0.16928,-0.97226 -0.64358,-1.79135 -0.8858,-2.72833 -0.26499,-1.02503 -0.40689,-2.0239 -0.77951,-3.02954 -0.67011,-1.80835 -1.69174,-3.4476 -2.74607,-5.04923 -0.34509,-0.52423 -0.66815,-1.17752 -1.04525,-1.68307 -0.91059,-1.22055 -2.91434,-2.53455 -3.93964,-3.38654 -2.70114,-2.2446 -5.66101,-4.02923 -8.86948,-5.48941 -0.99527,-0.45294 -2.11053,-0.68963 -3.13684,-1.07446 -0.0167,-0.006 -0.21365,-0.39243 -0.38351,-0.51377 -0.32901,-0.23498 -0.76801,-0.32952 -1.15677,-0.43148 -1.29334,-0.33914 -2.63794,-0.79416 -3.95081,-1.04526 -1.11233,-0.21271 -2.20983,0.0246 -3.31298,0.10632 -1.5448,0.11444 -3.04636,0.29584 -4.5886,0.4606 -0.72488,0.0774 -1.87338,0.10099 -2.67517,0.28348 -1.06796,0.24307 -2.10425,0.70273 -3.07107,1.20029 -1.96878,1.01321 -3.85804,1.96149 -5.64548,3.26428 -1.06894,0.77908 -2.28693,1.50498 -3.15353,2.53348 -1.4238,1.68976 -2.62033,3.53485 -3.91538,5.31494 -2.08075,2.86005 -4.18747,5.82834 -4.96063,9.35434 -0.41913,1.91138 -0.6597,3.92093 -0.56693,5.8819 0.0281,0.59234 0.1565,1.17941 0.19489,1.77163 0.0509,0.78565 -0.0435,1.77967 0.0532,2.60434 0.0525,0.44791 0.21567,0.88196 0.28345,1.32874 0.14749,0.97208 0.10852,2.04727 0.19488,2.99408 0.14493,1.58887 0.31378,1.78375 0.74411,3.41928 0.15781,0.59985 0.25483,1.25561 0.47834,1.84256 0.95544,2.509 2.2319,4.6214 3.70275,6.80313 0.67875,1.00681 1.32471,2.04855 2.17914,2.92322 1.66477,1.70419 3.63721,3.01819 5.63385,4.28741 0.6185,0.39316 1.30664,0.909 1.96653,1.25788 1.66662,0.8811 3.61474,0.87442 5.42355,1.28726 2.36691,0.54022 4.76538,1.26208 7.19064,1.51193 1.58209,0.16303 3.28281,-0.12955 4.85434,-0.26273 l -3.9508,0.27948 z m -0.37204,-1.40026 c 0,0 -0.36719,-0.0255 -0.54923,-0.0515 -0.37445,-0.0536 -0.74213,-0.15265 -1.11612,-0.21167 -1.41119,-0.22281 -2.79803,-0.57074 -4.19992,-0.84823 -1.05258,-0.20832 -2.03717,-0.57282 -3.0993,-0.7649 -0.94437,-0.17077 -1.95255,-0.11483 -2.85236,-0.47833 -1.20206,-0.48556 -2.22458,-1.32974 -3.3277,-1.99954 -1.65533,-1.00507 -3.25387,-2.24738 -4.60931,-3.63434 -0.81723,-0.83627 -1.41574,-1.84653 -2.08081,-2.79816 -1.41776,-2.02835 -2.6449,-4.07928 -3.48218,-6.44986 -0.55148,-1.56137 -0.98843,-3.31753 -1.13388,-4.96063 -0.0801,-0.90481 -0.0442,-1.94308 -0.17715,-2.87008 -0.0658,-0.45865 -0.23252,-0.90451 -0.28345,-1.36417 -0.0861,-0.77728 0.0147,-1.57358 -0.0355,-2.35629 -0.0403,-0.6279 -0.18225,-1.24997 -0.21259,-1.87796 -0.1087,-2.25168 0.16242,-4.75107 0.88584,-6.89173 0.94232,-2.78851 2.67379,-5.14425 4.37597,-7.49411 1.07364,-1.48214 2.05939,-2.96145 3.22748,-4.38208 0.40744,-0.49554 0.70529,-0.99716 1.18393,-1.42895 1.42767,-1.28794 3.35321,-2.59152 5.05557,-3.46817 1.62445,-0.83652 3.54495,-2.03141 5.39719,-2.46686 1.24753,-0.29331 2.60528,-0.27451 3.87994,-0.42993 1.08966,-0.13294 2.14932,-0.21692 3.24213,-0.29642 1.02487,-0.0745 1.49609,-0.2709 2.63974,-0.17718 0.76596,0.0628 1.52496,0.33709 2.25,0.5787 0.0177,0.006 0.38998,0.14563 0.58465,0.17996 0.0177,0.003 0.49619,0.16739 0.74411,0.2125 0.0177,0.003 0.32108,0.16961 0.47278,0.25277 0.2312,0.12683 0.47071,0.23993 0.70618,0.35767 0.74423,0.37216 1.52682,0.69275 2.32696,0.91815 2.44706,0.68933 4.93668,2.05972 7.03592,3.4592 1.93988,1.29327 3.60785,2.79352 5.40952,4.28415 0.48071,0.39773 1.05273,0.75836 1.42856,1.27264 0.32178,0.44028 0.53671,0.95716 0.83267,1.41733 1.25986,1.95886 2.48297,3.87628 3.1181,6.14764 0.15293,0.54688 0.17996,1.10029 0.31891,1.64765 0.22907,0.90243 0.68561,1.71179 0.8504,2.63974 0.16495,0.92889 0.18442,1.88901 0.23032,2.83465 0.0742,1.529 0.10989,3.05887 0.18933,4.58857 0.0411,0.79162 0.15103,1.45922 0.0764,2.25003 -0.13922,1.47632 -0.76023,2.74038 -1.02756,4.18106 -0.20215,1.08926 -0.0222,2.2525 -0.28351,3.31299 -0.11209,0.45498 -0.38083,0.92352 -0.53149,1.36422 -0.22019,0.64426 -0.30597,1.1623 -0.60233,1.77164 -0.54953,1.12994 -1.43274,2.07156 -2.21795,3.03531 -0.76905,0.94379 -1.6716,2.04004 -2.63636,2.86426 -0.37457,0.32 -0.81286,0.56543 -1.18704,0.88583 -1.36465,1.16858 -2.68759,2.63422 -4.26968,3.52564 -0.64048,0.3609 -1.3985,0.70422 -2.12598,0.86807 -0.49768,0.11212 -1.00799,0.0645 -1.50592,0.15948 -0.33765,0.0644 -0.65515,0.23163 -0.99213,0.30118 -1.10904,0.22894 -1.98706,0.18002 -3.1358,0.4606 -1.3837,0.33792 -2.54468,1.15619 -3.9331,1.50589 -2.01615,0.50781 -4.33078,0.57913 -6.37854,0.18387 l 1.52423,0.23972 z m 8.59253,-56.53183 c 0,0 0,0 0,0 z"
           style="fill:#000000;fill-opacity:1;fill-rule:evenodd;stroke:none"
           id="path13319"
           inkscape:connector-curvature="0" />
      </g>
      <path
         style="fill:#0d2636;fill-opacity:1;stroke-width:0.26516503"
         d="m 138.76131,348.25624 c -3.86154,0.393 -4.90755,0.71933 -8.48115,2.64597 -4.11768,2.21996 -5.40054,3.34096 -8.31019,7.26161 -3.67412,4.95075 -5.28593,7.58948 -6.03766,9.88443 -0.56955,1.73876 -0.63811,2.41819 -0.63811,6.3233 0,7.42859 0.85201,12.61811 2.65561,16.17507 1.20814,2.38262 3.79669,5.99957 5.32583,7.44171 1.54422,1.45638 4.69327,3.71057 6.43923,4.60943 0.4935,0.25406 1.56742,0.5631 2.38649,0.68676 0.81907,0.12366 2.82527,0.53245 4.45822,0.90843 5.88776,1.3556 8.82507,1.35228 12.06589,-0.0136 1.50684,-0.6351 2.83171,-0.94335 7.33196,-1.70592 1.76883,-0.29973 3.10343,-1.07522 5.47548,-3.18164 1.02089,-0.90656 2.14686,-1.84147 2.50217,-2.0776 0.3553,-0.23611 1.56403,-1.53777 2.68606,-2.89258 2.18962,-2.64386 3.42964,-5.31833 3.42964,-7.39705 0,-0.56075 0.29342,-2.20452 0.65205,-3.65282 0.62995,-2.54402 0.64367,-2.79434 0.40467,-7.38482 -0.17495,-3.36031 -0.39642,-5.22886 -0.7564,-6.38172 -0.27995,-0.89659 -0.69861,-2.28646 -0.93035,-3.08858 -0.57268,-1.98227 -2.97766,-6.22431 -4.27552,-7.54145 -1.68281,-1.7078 -5.64884,-4.78371 -7.89267,-6.12125 -1.13247,-0.67506 -3.2803,-1.68383 -4.77297,-2.2417 -1.49266,-0.55788 -3.48954,-1.3436 -4.43751,-1.74604 -2.12899,-0.90383 -4.25988,-1.02092 -9.28077,-0.50992 z m 14.18087,3.95466 c 2.44339,1.02091 8.36134,6.12955 11.35351,9.80084 1.97345,2.42136 5.07798,8.58944 5.62038,11.16657 0.23685,1.12531 0.39248,3.33995 0.39527,5.62465 0.004,3.23873 -0.0837,4.04655 -0.62348,5.74635 -1.74976,5.51004 -9.45138,13.58413 -15.41091,16.15623 -3.13248,1.35195 -5.19719,1.73448 -10.49321,1.94406 -5.1879,0.20529 -7.13583,-0.0699 -10.06057,-1.42139 -1.0938,-0.50543 -2.53454,-1.08543 -3.20162,-1.28889 -1.97202,-0.60146 -4.19539,-2.23646 -6.82517,-5.01901 -2.81584,-2.97942 -3.34727,-3.79833 -4.83355,-7.44834 -0.8792,-2.15915 -1.13994,-3.22998 -1.46557,-6.01912 -0.21786,-1.866 -0.33654,-3.48912 -0.26373,-3.60693 0.0728,-0.11782 0.31748,-2.0515 0.54369,-4.29707 0.48114,-4.7759 0.75327,-6.09669 1.75847,-8.53429 0.89313,-2.16588 1.29695,-2.7593 4.12704,-6.06467 2.69913,-3.15243 2.92806,-3.33346 6.32222,-4.99933 2.79508,-1.37184 4.65221,-1.84851 7.21296,-1.85134 1.68584,-0.002 2.08771,0.4617 2.35237,2.71351 0.34816,2.96228 -0.69102,3.91408 -4.27335,3.91408 -3.13737,0 -4.37486,0.92367 -5.19368,3.87661 -0.27259,0.98304 -0.44928,1.83369 -0.39264,1.89032 0.0566,0.0566 0.68148,-0.33932 1.38856,-0.87991 1.81034,-1.38407 3.32174,-1.9702 5.08034,-1.9702 1.49145,0 1.50243,0.006 3.02742,1.63359 1.54907,1.65337 1.87395,2.52427 1.16205,3.11509 -0.20268,0.16821 -1.42575,0.4896 -2.71795,0.71424 -2.90087,0.50427 -4.0478,1.00454 -5.9855,2.61078 -1.79423,1.4873 -2.559,3.17269 -2.78676,6.14144 -0.17268,2.2508 0.18815,3.95366 1.44722,6.82988 0.84011,1.91913 0.88996,2.17735 0.62411,3.2331 -0.4078,1.61955 -0.36236,3.89343 0.0901,4.50789 0.37495,0.50922 0.38948,0.50913 1.35871,-0.009 0.53883,-0.28793 1.82114,-1.15303 2.84957,-1.92245 1.02843,-0.76941 2.09153,-1.39894 2.36243,-1.39894 0.2709,0 1.10086,0.30826 1.84437,0.68503 1.29617,0.65682 1.48458,0.67881 4.5759,0.53439 1.77324,-0.0828 3.81592,-0.33015 4.53928,-0.54957 1.73726,-0.52697 2.30706,-0.50684 3.09023,0.10921 0.35932,0.28264 1.00187,0.59788 1.42788,0.70054 0.42601,0.10265 1.21728,0.40836 1.75837,0.67935 0.5411,0.27098 1.03976,0.4927 1.10816,0.4927 0.28197,0 0.7284,-3.03883 0.57026,-3.88179 -0.13553,-0.72249 -0.008,-1.19655 0.61492,-2.2931 1.26783,-2.23033 1.99284,-5.00035 1.79762,-6.86812 -0.26318,-2.51801 -0.93743,-4.73488 -1.9461,-6.39871 -0.75538,-1.24599 -1.36972,-1.82906 -3.19091,-3.02847 -2.22653,-1.46637 -2.2813,-1.48567 -4.27484,-1.50633 -1.74021,-0.018 -2.0324,-0.0883 -2.11342,-0.50861 -0.0517,-0.26824 0.18053,-0.77995 0.5161,-1.13716 0.59972,-0.63837 0.60882,-0.73781 0.53323,-5.82431 -0.0936,-6.29953 -0.0341,-6.472 2.23383,-6.472 0.80344,0 1.86832,0.17027 2.3664,0.37838 z"
         id="path13439"
         inkscape:connector-curvature="0" />
    </g>
  </g>
</svg>
