<?xml version="1.0" encoding="UTF-8" standalone="no"?>
<!-- Created with Inkscape (http://www.inkscape.org/) -->

<svg
   xmlns:dc="http://purl.org/dc/elements/1.1/"
   xmlns:cc="http://creativecommons.org/ns#"
   xmlns:rdf="http://www.w3.org/1999/02/22-rdf-syntax-ns#"
   xmlns:svg="http://www.w3.org/2000/svg"
   xmlns="http://www.w3.org/2000/svg"
   xmlns:sodipodi="http://sodipodi.sourceforge.net/DTD/sodipodi-0.dtd"
   xmlns:inkscape="http://www.inkscape.org/namespaces/inkscape"
   width="20.141611mm"
   height="20.46591mm"
   viewBox="0 0 20.141611 20.46591"
   version="1.1"
   id="svg3899"
   inkscape:version="0.92.3 (2405546, 2018-03-11)"
   sodipodi:docname="Logo LinkedIn.svg">
  <defs
     id="defs3893" />
  <sodipodi:namedview
     id="base"
     pagecolor="#ffffff"
     bordercolor="#666666"
     borderopacity="1.0"
     inkscape:pageopacity="0.0"
     inkscape:pageshadow="2"
     inkscape:zoom="0.35"
     inkscape:cx="-187.6514"
     inkscape:cy="84.390004"
     inkscape:document-units="mm"
     inkscape:current-layer="layer1"
     showgrid="false"
     fit-margin-top="0"
     fit-margin-left="0"
     fit-margin-right="0"
     fit-margin-bottom="0"
     inkscape:window-width="1920"
     inkscape:window-height="1025"
     inkscape:window-x="0"
     inkscape:window-y="27"
     inkscape:window-maximized="1" />
  <metadata
     id="metadata3896">
    <rdf:RDF>
      <cc:Work
         rdf:about="">
        <dc:format>image/svg+xml</dc:format>
        <dc:type
           rdf:resource="http://purl.org/dc/dcmitype/StillImage" />
        <dc:title></dc:title>
      </cc:Work>
    </rdf:RDF>
  </metadata>
  <g
     inkscape:label="Ebene 1"
     inkscape:groupmode="layer"
     id="layer1"
     transform="translate(-155.48277,-150.69561)">
    <g
       id="g2907"
       transform="matrix(0.35277777,0,0,-0.35277777,58.966168,349.11552)">
      <path
         inkscape:connector-curvature="0"
         id="path16"
         style="fill:#000000;fill-opacity:1;fill-rule:evenodd;stroke:none"
         d="m 289.2756,554.38977 c 0,0 0.27286,-0.0146 0.40751,-0.0362 0.19375,-0.0309 0.3944,-0.10346 0.56692,-0.19416 0.52631,-0.27679 1.11932,-0.88501 1.5144,-1.23925 1.28968,-1.15625 1.8263,-3.03467 1.16077,-4.6958 -0.77386,-1.93152 -3.03641,-3.68549 -5.13779,-3.77356 -1.14276,-0.048 -2.65554,0.46923 -3.64959,1.02752 -0.86664,0.48676 -1.7468,1.55097 -1.89569,2.55121 -0.10855,0.729 0.13556,1.50525 0.30978,2.19452 0.3548,1.40387 0.68616,2.66284 1.97565,3.49249 0.59695,0.38404 1.19568,0.39356 1.87796,0.47834 0.70605,0.0877 1.25714,0.20184 1.98425,0.23028 0.23163,0.009 0.67313,-0.0886 0.92127,-0.0266 l -0.0354,-0.009 z m -0.3189,-1.29468 c 0,0 -0.56693,-0.0411 -0.85041,-0.0618 -0.2204,-0.0161 -0.43744,-0.0614 -0.65548,-0.0968 -0.81736,-0.13256 -1.76578,-0.0513 -2.40946,-0.63733 -0.83429,-0.75958 -0.89392,-1.55212 -1.14566,-2.65985 -0.0954,-0.41986 -0.26974,-0.85101 -0.27167,-1.27325 -0.003,-0.57666 0.68714,-1.33997 1.13388,-1.62988 1.23929,-0.80426 3.03116,-1.1388 4.39368,-0.4961 1.58078,0.74573 3.1359,2.62445 2.53348,4.4823 -0.22571,0.69605 -0.98883,1.24365 -1.48044,1.69885 -0.36911,0.3418 -0.70303,0.53455 -1.17706,0.65302 -0.0177,0.004 -0.62049,-0.0191 -0.92127,-0.041 -0.24417,-0.0178 -0.48483,-0.0691 -0.72638,-0.10828 l 1.57679,0.17004 z" />
      <path
         inkscape:connector-curvature="0"
         id="path18"
         style="fill:#000000;fill-opacity:1;fill-rule:evenodd;stroke:none"
         d="m 289.68307,541.47437 c 0,0 0.4134,0 0.62009,0 0.32147,0 0.68125,-0.0836 0.97443,-0.12623 0.59109,-0.0859 0.99191,-0.41381 1.54132,-0.63555 0.64334,-0.25959 1.29034,-0.27186 1.43503,-1.06299 0.29062,-1.58905 -0.0104,-3.35517 -0.124,-4.94293 -0.16415,-2.29346 -0.0801,-4.63093 -0.4429,-6.90943 -0.16629,-1.04431 -0.4458,-1.88074 -0.51379,-2.92322 -0.0327,-0.50085 0.0164,-0.98639 -0.0355,-1.48822 -0.15015,-1.45465 -0.38037,-2.45947 -0.29019,-3.87994 0.0258,-0.40753 -0.0707,-0.81427 -0.0858,-1.22241 -0.0623,-1.68183 0.0485,-4.51142 -2.15747,-4.81891 -0.7251,-0.10101 -1.35251,0.0726 -2.09055,0.0532 -1.15423,-0.0303 -2.0429,-0.18616 -3.24212,-0.0208 -0.5618,0.0774 -1.38175,0.1051 -1.86023,0.49914 -0.50791,0.41822 -0.52231,1.28247 -0.61914,1.82618 -0.12503,0.70208 -0.16053,1.53869 -0.0979,2.24859 0.10113,1.14606 0.10244,1.78473 0.16778,2.87006 0.0444,0.73791 0.2735,1.80511 0.24802,2.60437 -0.0199,0.6253 -0.23032,1.22998 -0.21259,1.86023 0.0441,1.56634 0.6561,3.05835 0.70868,4.62402 0.0215,0.64136 0.0369,1.77319 0,2.2854 -0.033,0.4585 -0.19531,0.90631 -0.23031,1.36414 -0.0872,1.14117 0.003,2.25268 -0.12949,3.40161 -0.0569,0.49389 -0.043,0.99499 -0.10083,1.48816 -0.0951,0.81189 -0.28094,1.35205 0.0635,2.10974 0.007,0.0162 0.21469,0.63672 0.48572,0.72497 0.43881,0.1427 1.53475,-0.0173 1.7185,-0.0288 1.9902,-0.12439 3.96469,0.24963 5.93506,-0.0369 l -1.66538,0.13654 z m 0.38978,-1.40076 c 0,0 -0.46064,-0.03 -0.69095,-0.0451 -0.41358,-0.027 -0.82685,-0.0599 -1.24015,-0.0903 -1.27603,-0.0937 -2.60781,-0.0217 -3.87994,0.0994 -0.0177,0.002 -0.005,-0.43927 0.0405,-0.65381 0.14746,-0.68805 0.18509,-1.35138 0.27417,-2.05511 0.15243,-1.20435 0.0937,-2.37989 0.19912,-3.57874 0.0603,-0.68542 0.23868,-1.22992 0.22879,-1.91339 -0.0157,-1.08173 0.0214,-2.11298 -0.14019,-3.18903 -0.14508,-0.96606 -0.53311,-2.27136 -0.54923,-3.29522 -0.009,-0.57361 0.19141,-1.17511 0.21259,-1.73621 0.0335,-0.88605 -0.21823,-1.92633 -0.26575,-2.76386 -0.11203,-1.97528 -0.19427,-3.77764 0.0861,-5.74011 0.003,-0.0177 0.36487,-0.12481 0.55173,-0.14349 0.38366,-0.0384 0.76675,-0.0865 1.15158,-0.11139 1.24768,-0.0804 2.44943,0.0811 3.70276,-0.004 0.33706,-0.0228 0.95742,-0.051 1.18704,0.29394 0.24051,0.36145 0.14664,0.90747 0.23111,1.31104 0.34744,1.65997 0.0677,3.31354 0.22949,4.97839 0.0659,0.67719 0.24628,1.3429 0.31891,2.01966 0.10016,0.93347 0.0403,1.82336 0.19488,2.76379 0.23298,1.41748 0.47068,2.06409 0.56693,3.49011 0.21368,3.16614 0.37204,6.33722 0.37204,9.5138 0,0.0178 -0.3783,0.13238 -0.56744,0.18969 -0.34626,0.10498 -0.63935,0.3642 -0.99161,0.45899 -1.07034,0.2882 -2.09729,0.14288 -3.189,0.0626 l 1.96656,0.13794 z" />
      <path
         inkscape:connector-curvature="0"
         id="path20"
         style="fill:#000000;fill-opacity:1;fill-rule:evenodd;stroke:none"
         d="m 314.36191,542.53381 c 0,0 0.54483,-0.11309 0.81723,-0.16967 0.42401,-0.088 0.87353,-0.0353 1.28857,-0.1587 1.49216,-0.4436 3.16373,-1.21081 3.87577,-2.70605 0.51861,-1.08911 1.13003,-2.17493 1.45968,-3.33997 0.81543,-2.88183 1.23169,-5.83343 1.47049,-8.80511 0.18884,-2.35016 -0.0275,-4.70429 -0.0726,-7.05121 -0.006,-0.31262 -0.016,-0.62598 -0.016,-0.93896 0,-1.8606 0.0807,-5.24237 -2.26773,-5.81104 -0.42496,-0.1029 -0.7493,-0.0345 -1.18698,-0.0177 -0.58185,0.0224 -1.13651,-0.0789 -1.71854,-0.0709 -0.37213,0.005 -0.74548,0.11859 -1.11612,0.10632 -0.43439,-0.0143 -0.85449,-0.18603 -1.2933,-0.17438 -0.76801,0.0205 -1.83405,-0.11938 -2.39176,0.58185 -0.6997,0.87982 -0.50152,2.69806 -0.52847,3.6496 -0.0647,2.28491 -0.23172,4.6477 -0.12189,6.92718 0.10193,2.11561 0.2077,4.28711 -0.96182,6.14765 -0.28598,0.45495 -1.09885,1.0086 -1.33521,1.20672 -0.24868,0.20844 -0.60363,0.4488 -0.93252,0.51178 -0.50052,0.0958 -1.21631,-0.35034 -1.52051,-0.72021 -1.29751,-1.57739 -2.06317,-3.42725 -2.11139,-5.49829 -0.0242,-1.03772 0.0482,-1.40784 -0.12399,-2.53345 -0.23831,-1.5581 -0.69095,-3.18786 -0.69095,-4.76575 0,-1.617 0.448,-4.14642 -1.34647,-5.08471 -1.09661,-0.57337 -2.51806,-0.054 -3.66729,-0.0335 -0.7067,0.0126 -1.20456,0.1228 -1.91342,0.15747 -0.39786,0.0195 -0.84571,-0.11072 -1.24015,0.0355 -0.60373,0.22376 -0.68536,0.83667 -0.67041,1.3996 0.0396,1.49286 0.047,2.26715 0.0336,3.75592 -0.0143,1.58514 0.2666,3.06671 0.3888,4.64172 0.11407,1.4701 0.15307,2.97284 0.19488,4.44684 0.0701,2.47205 -0.10742,4.94678 0.0974,7.40552 0.0451,0.5415 -0.0694,1.35889 -0.0908,1.70081 -0.0358,0.57373 -0.0177,1.19458 -0.0233,1.7362 -0.008,0.7395 -0.37088,2.04749 0.72531,2.24677 0.0177,0.003 0.10498,0.19049 0.16653,0.27252 0.0884,0.11792 0.25513,0.23559 0.40036,0.26587 0.63212,0.13171 1.27155,0.0776 1.9134,0.15991 1.29446,0.16589 2.5657,0.17102 3.86221,0.2439 0.35767,0.0201 0.70093,0.16198 1.06302,0.0886 1.33484,-0.27069 0.8374,-2.35645 0.81537,-3.25989 -4.3e-4,-0.0177 0.15222,0.0953 0.23278,0.14545 0.21799,0.13556 0.44025,0.26678 0.65308,0.41095 0.66937,0.45349 1.28641,0.95422 2.04767,1.25445 1.65988,0.65461 3.54483,1.39826 5.32193,1.62616 0.78882,0.1012 1.6918,-0.20239 2.48035,-0.27996 l -1.96686,0.29412 z m -0.19458,-1.41565 c 0,0 -0.28498,-0.0245 -0.42246,-0.0611 -0.37387,-0.0997 -0.74774,-0.19934 -1.12164,-0.29908 -0.75876,-0.20239 -1.59805,-0.45336 -2.35352,-0.70086 -1.42282,-0.46613 -2.44995,-1.26959 -3.70794,-2.03668 -0.44498,-0.27131 -0.95127,-0.89661 -1.5539,-0.86884 -0.53018,0.0244 -0.89929,0.49945 -0.88226,1.00983 0.0291,0.8731 0.2377,1.84887 0.12283,2.71069 -0.002,0.0177 -0.21496,-0.0113 -0.32125,-0.0258 -0.19257,-0.0263 -0.42438,1.3e-4 -0.60239,0.005 -0.49301,0.0137 -0.95731,-0.0233 -1.45273,-0.06 -1.28537,-0.0952 -2.56918,-0.37506 -3.86221,-0.25751 -0.0177,0.002 -0.11924,-0.0947 -0.17877,-0.13049 -0.0161,-0.01 -0.0514,-0.31805 -0.0306,-0.47021 0.0323,-0.23664 0.0694,-0.4726 0.10485,-0.70874 0.0857,-0.57154 0.0761,-1.31 0.0992,-1.77161 0.0808,-1.61603 0.045,-3.18701 0.0594,-4.80115 0.0242,-2.71655 -0.0114,-5.45264 -0.1427,-8.16736 -0.0641,-1.32605 -0.33782,-2.63073 -0.42517,-3.9508 -0.11273,-1.70331 1e-4,-3.46472 -0.0176,-5.17322 -1.6e-4,-0.0177 0.37905,0 0.56674,-0.0218 0.37027,-0.0432 0.74246,-0.11499 1.11615,-0.12146 0.91552,-0.0157 1.79629,-0.15631 2.71066,-0.17389 0.7193,-0.0139 1.38159,-0.0625 1.55905,0.83099 0.25208,1.26923 -0.03,2.60681 0.12403,3.89759 0.21579,1.80847 0.73492,3.65356 0.77951,5.47448 0.0356,1.45362 0.003,2.70789 0.53469,4.08643 0.70591,1.83087 1.91605,4.46625 4.26648,4.5238 0.75977,0.0186 1.42469,-0.40417 2.00553,-0.83984 1.31418,-0.9856 1.80887,-1.80273 2.46744,-3.24341 0.72131,-1.57794 0.384,-3.62573 0.36367,-5.28882 -0.0229,-1.87646 0.17017,-3.75818 0.1409,-5.63391 -0.0162,-1.03503 0.002,-1.72473 0.0332,-2.81689 0.0109,-0.37866 0.007,-0.82373 0.17138,-1.15161 0.009,-0.0177 0.38773,-0.0531 0.57773,-0.0531 0.64621,0 1.26267,0.14172 1.89725,0.14172 0.99286,0 1.97693,-0.0177 2.97284,-0.0177 0.40237,0 0.93423,-0.14575 1.25787,0.21258 0.31659,0.35047 0.53565,1.31745 0.60239,1.57679 0.26617,1.03424 0.13235,2.40179 0.14081,3.40155 0.007,0.85089 0.1072,1.67871 0.1072,2.53186 0,1.11078 0.074,2.1867 0.0313,3.29687 -0.10629,2.76422 -0.47949,5.42285 -1.09432,8.1142 -0.35361,1.54797 -0.60639,2.31213 -1.24967,3.74713 -0.3771,0.84119 -0.69217,1.51996 -1.42554,2.09937 -1.0249,0.80963 -2.68072,1.1347 -3.95077,1.18695 -0.51294,0.0211 -1.26676,-0.28345 -1.63086,-0.38056 l 1.61313,0.37866 z m 0.15945,-26.25402 c 0,0 0,0 0,0 z m -16.94586,25.68896 c 0,0 0.0154,-0.0209 0.0265,-0.0265 0.0177,-0.009 -0.009,0.0178 -0.0221,0.031 l -0.004,-0.004 z" />
      <path
         inkscape:connector-curvature="0"
         id="path22"
         style="fill:#000000;fill-opacity:1;fill-rule:evenodd;stroke:none"
         d="m 279.46063,562.45013 c 0,0 0.3942,0.002 0.58466,-0.0414 0.54992,-0.12567 1.06302,-0.27435 1.61276,-0.43139 0.0172,-0.005 0.5014,0.0363 0.74353,0.0569 0.35205,0.03 0.71182,0.054 1.06299,0.0149 1.41891,-0.15765 2.73056,-0.44891 4.16339,-0.49829 1.45566,-0.0502 2.987,-0.49487 4.41141,-0.62378 1.83487,-0.16601 3.75525,-0.34314 5.59845,-0.37201 1.30453,-0.0204 2.60946,0.0919 3.91534,0.0709 0.88162,-0.0142 1.71369,-0.11768 2.58661,-0.0354 1.21652,0.1145 2.28079,0.37402 3.50787,0.46057 0.66068,0.0466 1.26227,-0.13794 1.9134,-0.14173 0.51358,-0.003 1.02682,0.11512 1.54132,0.14173 1.17343,0.0607 1.8359,-0.0588 2.99411,-0.0886 0.97067,-0.025 1.82354,0.19079 2.81692,0.26574 0.76428,0.0577 1.50336,-0.11126 2.26773,-0.09 2.47006,0.0686 5.14478,0.60168 7.54328,-0.13636 0.65844,-0.20257 1.43313,-0.35656 2.00592,-0.76574 1.21032,-0.86451 1.57611,-2.6908 1.7008,-4.05713 0.13477,-1.47693 0.31903,-2.95935 0.23032,-4.44678 -0.10672,-1.7887 -0.21363,-1.95691 -0.19602,-3.6142 0.005,-0.46948 0.13175,-0.93176 0.16059,-1.39959 0.0536,-0.87024 -0.19236,-1.69373 -0.24805,-2.55115 -0.0479,-0.7384 0.11246,-1.52319 0.0886,-2.25006 -0.0264,-0.80524 -0.12311,-1.9101 -0.17715,-2.65747 -0.0949,-1.31232 -0.18793,-2.63849 -0.28348,-3.95075 -0.0691,-0.94909 -0.30658,-1.95532 -0.30118,-2.92322 0.006,-1.03125 0.19312,-2.1466 0.21262,-3.17126 0.0475,-2.49786 0.12112,-5.00104 0.31888,-7.49414 0.14331,-1.80701 0.26187,-3.25647 0.0973,-5.19092 -0.19092,-2.2431 0.21252,-4.59293 -0.23899,-6.80316 -0.10626,-0.5202 -0.35354,-0.8855 -0.55453,-1.37485 -0.36426,-0.88681 -0.71356,-1.9255 -1.50061,-2.54053 -1.14905,-0.89788 -2.36829,-0.76065 -3.73819,-0.89324 -1.0806,-0.10462 -2.11029,-0.3967 -3.20667,-0.47092 -0.76272,-0.0516 -1.26056,0.10455 -2.07284,0.17715 -2.16889,0.19388 -4.39896,-0.0913 -6.57285,-0.0709 -0.72403,0.007 -1.39667,0.1286 -2.12597,0.10632 -0.69462,-0.0212 -1.37601,-0.16616 -2.07285,-0.15945 -0.80081,0.008 -1.51495,0.3699 -2.30313,0.4252 -1.57916,0.11078 -3.0893,-0.005 -4.67719,-0.0532 -0.81536,-0.0249 -1.42392,0.11356 -2.24997,0.15945 -2.0242,0.11246 -4.05142,0.074 -6.07678,0.21259 -1.04904,0.0718 -2.01495,0.40222 -3.04724,0.49606 -0.64416,0.0586 -1.28784,-0.0488 -1.93112,0.0521 -1.00174,0.15713 -2.32184,0.55536 -3.31299,0.40854 -0.43561,-0.0645 -0.8327,-0.28324 -1.27557,-0.33661 -1.31162,-0.15805 -2.61502,-0.18824 -3.93308,-0.19489 -1.5921,-0.008 -3.23276,0.10123 -4.09253,1.70078 -1.82675,3.39868 -1.84027,7.6806 -1.71493,11.40948 0.0525,1.5625 -0.0779,3.12036 -0.0213,4.67713 0.0257,0.708 0.1723,1.41888 0.21258,2.12597 0.0695,1.21997 -0.003,2.59558 0.0177,3.79138 0.0292,1.65491 0.0218,3.30628 0.0354,4.96064 0.01,1.16986 0.12433,2.26959 0.0709,3.43695 -0.20649,4.50903 -0.33951,9.02472 -0.28345,13.53546 0.0146,1.17267 0.11615,2.35028 0.12475,3.52557 0.018,2.43982 -0.38186,5.95386 2.37326,7.13977 0.69202,0.29785 1.4733,0.34973 2.21457,0.40027 0.79297,0.054 1.38102,0.10107 2.14368,-0.0732 l -1.06299,0.15069 z m 0.33664,-1.41723 c 0,0 -0.35434,-0.0107 -0.53152,-0.0161 -0.35236,-0.0108 -0.72922,-0.0444 -1.06299,-0.0653 -1.01386,-0.0634 -2.09381,-0.33258 -2.56888,-1.31769 -0.72763,-1.50885 -0.43103,-3.70728 -0.44217,-5.27954 -0.0165,-2.31989 -0.14752,-4.62628 -0.17792,-6.94489 -0.0152,-1.15496 0.10495,-1.97686 0.15946,-3.08264 0.10672,-2.16534 0.0939,-4.33893 0.19488,-6.50195 0.0559,-1.19885 -0.0609,-2.30731 -0.0709,-3.50794 -0.0375,-4.51599 -0.19589,-9.03064 -0.17715,-13.5354 0.0113,-2.72912 -0.15125,-5.36139 0.17715,-8.07873 0.19037,-1.5751 0.54047,-3.33328 1.34647,-4.73035 0.63904,-1.10766 1.90222,-0.8421 2.94095,-0.89078 1.19406,-0.056 2.48437,0.0205 3.66732,0.19983 0.56296,0.0854 1.06119,0.37485 1.64762,0.35434 0.82034,-0.0287 1.68506,-0.20135 2.49804,-0.31887 0.89789,-0.1298 1.75745,-0.0861 2.65751,-0.17716 0.61993,-0.0627 1.21182,-0.27631 1.82479,-0.37207 2.37317,-0.37073 4.80783,-0.18994 7.19291,-0.31888 0.78717,-0.0426 1.42086,-0.18298 2.19683,-0.15945 0.73334,0.0222 1.46399,0.16916 2.19687,0.17715 0.45529,0.005 0.80988,-0.1243 1.25788,-0.15945 0.62439,-0.049 1.17352,0.0879 1.78936,-0.0177 0.65244,-0.11182 1.12708,-0.36664 1.77164,-0.37204 0.66605,-0.006 1.35553,0.14126 2.01968,0.15942 0.76337,0.0209 1.44346,-0.0977 2.19687,-0.10629 1.28513,-0.0147 2.61032,0.0184 3.89765,0.0563 0.86087,0.0253 1.84869,0.0918 2.72833,0.0146 0.46252,-0.0406 0.91925,-0.17587 1.3819,-0.19488 1.19342,-0.049 2.31109,0.35406 3.47244,0.46572 1.05563,0.10154 2.30161,-0.0963 3.189,0.61499 0.54101,0.43369 0.79702,1.35453 1.03967,1.93869 0.12289,0.29578 0.32382,0.56101 0.43078,0.86054 0.4841,1.35547 0.14173,3.03973 0.14173,4.43109 0,1.94251 0.26474,3.83301 0.21258,5.79132 -0.05,1.87799 -0.32528,3.76239 -0.43121,5.63385 -0.12531,2.21387 -0.077,4.41321 -0.26825,6.62598 -0.0931,1.07666 0.18301,2.1889 0.28217,3.25989 0.19976,2.15759 0.40307,4.37024 0.47045,6.53735 0.0233,0.74756 -0.14614,1.52875 -0.0886,2.28546 0.0459,0.60419 0.24027,1.20087 0.26575,1.80707 0.0519,1.23657 -0.33417,2.40661 -0.20145,3.66736 0.2237,2.12481 0.2403,4.12805 -0.005,6.2539 -0.1153,0.99903 -0.25238,2.17102 -0.98056,2.95868 -0.23673,0.25611 -0.65564,0.34296 -0.97074,0.43866 -1.06924,0.32459 -1.74929,0.46271 -2.85601,0.48261 -1.62427,0.0292 -3.24439,-0.10797 -4.87207,-0.17719 -0.67319,-0.0286 -1.09974,0.0766 -1.78934,0.10633 -0.71054,0.0306 -1.93204,-0.19507 -2.39176,-0.25245 -0.86029,-0.10754 -1.70941,0.0504 -2.56887,0.0753 -1.13312,0.0327 -1.8483,-0.13861 -2.97641,-0.15942 -0.49988,-0.009 -0.90445,0.15338 -1.39957,0.17718 -1.57388,0.0756 -3.1727,-0.46924 -4.74805,-0.52759 -1.1123,-0.0411 -2.44629,0.0669 -3.55999,0.0669 -2.6641,0 -5.31443,0.0637 -7.97349,0.30121 -1.45028,0.12957 -2.87518,0.50665 -4.32281,0.63775 -0.50482,0.0458 -1.01852,-0.008 -1.52362,0.0355 -0.98261,0.0851 -1.88956,0.46064 -2.88782,0.46064 -0.0177,0 -0.20227,-0.23865 -0.33661,-0.24805 -0.15176,-0.0106 -0.25317,0.0988 -0.34253,0.19934 -0.0118,0.0133 -0.23611,-0.004 -0.34838,-0.0107 -0.33072,-0.0195 -0.66144,-0.0389 -0.99216,-0.0584 -0.51712,-0.0304 -0.85468,0.0454 -1.17548,0.44025 -0.0115,0.0142 -0.13913,0.0688 -0.20639,0.0668 -0.15356,-0.005 -0.3071,-0.009 -0.46066,-0.014 -0.40207,-0.0122 -0.80335,-0.0467 -1.20471,-0.0718 l 1.66537,0.0858 z" />
      <path
         transform="matrix(0.75000002,0,0,-0.75000002,0,842.00005)"
         inkscape:connector-curvature="0"
         id="path955"
         d="m 406.58138,447.57101 c -1.96228,-0.0853 -8.11673,-0.49029 -13.67655,-0.89998 -5.55982,-0.4097 -13.05219,-0.75263 -16.64972,-0.76208 l -6.54096,-0.0172 -1.18927,-2.37854 c -1.13747,-2.27493 -1.19557,-3.72519 -1.33406,-33.29943 -0.0796,-17.0065 -0.008,-31.51958 0.1581,-32.25131 0.1666,-0.73172 0.94588,-1.7517 1.73175,-2.26662 1.30441,-0.85468 2.19691,-0.84239 10.24797,0.14114 7.18656,0.87792 13.29846,1.07736 33.01646,1.07736 19.05189,0 24.36262,0.16428 24.97458,0.77258 0.59537,0.59179 0.77724,4.00083 0.77724,14.5685 0,7.58776 -0.12382,15.66902 -0.27515,17.95835 -0.15134,2.28934 -0.0447,10.10714 0.23713,17.37288 0.46086,11.88445 0.40868,13.48175 -0.51991,15.91322 -0.56771,1.48652 -1.60214,3.00779 -2.29873,3.38059 -1.19236,0.63814 -19.63906,1.0826 -28.65888,0.69052 z m -17.30309,-10.2365 c 0.75846,-0.83809 1.15578,-2.91984 1.56049,-8.17621 0.29863,-3.87851 0.81413,-9.5939 1.14555,-12.70085 0.33141,-3.10696 0.60721,-7.58541 0.61288,-9.95212 l 0.0103,-4.30311 -2.15383,-0.89993 c -1.36998,-0.57241 -4.06049,-0.89993 -7.39284,-0.89993 -6.26428,0 -6.19409,-0.0952 -5.60031,7.59312 0.22052,2.85532 0.086,9.81137 -0.29885,15.45789 -0.38489,5.64652 -0.52043,11.08306 -0.3012,12.08119 0.50423,2.29575 1.85581,2.83903 7.18135,2.88661 3.41374,0.0305 4.41313,-0.17689 5.23646,-1.08666 z m 16.14086,-0.3352 c 1.18359,-1.1836 1.45881,-2.05491 1.45562,-4.60841 -0.004,-3.50631 0.98222,-11.52436 1.81861,-14.7798 0.29912,-1.16425 1.19193,-2.72566 1.98403,-3.4698 1.35611,-1.274 1.5249,-1.29747 2.89152,-0.40203 2.42372,1.58809 2.82331,3.38051 2.83266,12.70626 0.0115,11.48387 0.0994,11.65963 5.94591,11.89358 5.94436,0.23787 7.03475,-0.10827 8.05838,-2.55816 1.19413,-2.85795 1.14475,-17.05827 -0.0818,-23.52411 -1.87385,-9.87807 -5.3036,-13.50598 -12.17892,-12.88254 -1.85057,0.1678 -4.79778,0.99095 -6.54935,1.82922 -1.75157,0.83827 -3.20771,1.46922 -3.23586,1.40209 -0.0282,-0.0671 -0.37964,-0.88515 -0.78108,-1.81785 l -0.72988,-1.69581 -4.89087,0.42129 c -6.13856,0.52876 -7.17006,1.29133 -6.81671,5.03941 0.13937,1.4784 0.006,9.18984 -0.29728,17.13655 -0.4127,10.82819 -0.37704,14.65779 0.14233,15.2836 0.39739,0.47882 2.13048,0.92592 4.06275,1.04811 1.85335,0.11719 3.71638,0.26368 4.14005,0.32552 0.42368,0.0618 1.42712,-0.54437 2.22988,-1.34712 z m -16.8159,-42.488 c 2.15863,-2.01354 2.49065,-2.65544 2.49065,-4.81514 0,-2.11533 -0.3336,-2.7976 -2.20762,-4.51502 -2.39585,-2.19564 -4.29589,-2.51482 -8.31913,-1.3975 -1.4599,0.40543 -2.5194,1.18072 -3.07084,2.2471 -1.30213,2.51803 -1.73416,5.75938 -0.96036,7.20522 1.06941,1.99822 4.18699,3.5939 7.02644,3.59637 2.14528,0.002 2.94569,-0.36667 5.04086,-2.32103 z"
         style="fill:#007bb6;fill-opacity:1;stroke:none;stroke-width:0.44948623;stroke-linecap:round;stroke-miterlimit:4;stroke-dasharray:none" />
    </g>
  </g>
</svg>
