<?xml version="1.0" encoding="UTF-8" standalone="no"?>
<!-- Created with Inkscape (http://www.inkscape.org/) -->

<svg
   xmlns:dc="http://purl.org/dc/elements/1.1/"
   xmlns:cc="http://creativecommons.org/ns#"
   xmlns:rdf="http://www.w3.org/1999/02/22-rdf-syntax-ns#"
   xmlns:svg="http://www.w3.org/2000/svg"
   xmlns="http://www.w3.org/2000/svg"
   xmlns:sodipodi="http://sodipodi.sourceforge.net/DTD/sodipodi-0.dtd"
   xmlns:inkscape="http://www.inkscape.org/namespaces/inkscape"
   width="9.0318165mm"
   height="6.6276045mm"
   viewBox="0 0 9.0318165 6.6276045"
   version="1.1"
   id="svg1278"
   inkscape:version="0.92.4 (5da689c313, 2019-01-14)"
   sodipodi:docname="logo_youtube.svg">
  <defs
     id="defs1272" />
  <sodipodi:namedview
     id="base"
     pagecolor="#ffffff"
     bordercolor="#666666"
     borderopacity="1.0"
     inkscape:pageopacity="0.0"
     inkscape:pageshadow="2"
     inkscape:zoom="1.979899"
     inkscape:cx="-67.927209"
     inkscape:cy="18.371258"
     inkscape:document-units="mm"
     inkscape:current-layer="layer1"
     showgrid="false"
     inkscape:window-width="1920"
     inkscape:window-height="1053"
     inkscape:window-x="0"
     inkscape:window-y="27"
     inkscape:window-maximized="1"
     inkscape:pagecheckerboard="true"
     fit-margin-top="0"
     fit-margin-left="0"
     fit-margin-right="0"
     fit-margin-bottom="0" />
  <metadata
     id="metadata1275">
    <rdf:RDF>
      <cc:Work
         rdf:about="">
        <dc:format>image/svg+xml</dc:format>
        <dc:type
           rdf:resource="http://purl.org/dc/dcmitype/StillImage" />
        <dc:title></dc:title>
      </cc:Work>
    </rdf:RDF>
  </metadata>
  <g
     inkscape:label="Ebene 1"
     inkscape:groupmode="layer"
     id="layer1"
     transform="translate(12.075432,-67.656434)">
    <g
       id="g1838"
       transform="matrix(0.4462531,0,0,0.4462531,-98.10042,126.94428)"
       style="display:inline;stroke:#000000;stroke-width:0.10308052;stroke-miterlimit:4;stroke-dasharray:none;stroke-opacity:1">
      <g
         id="g1819"
         inkscape:label="WCM0135"
         transform="matrix(0.35277777,0,0,-0.35277777,106.33437,-41.196002)"
         style="stroke:#000000;stroke-width:0.29219675;stroke-miterlimit:4;stroke-dasharray:none;stroke-opacity:1">
        <path
           d="m 268.42126,247.58362 c 0,0 0.19037,-0.0835 0.2677,-0.15058 0.12555,-0.10882 0.19639,-0.27642 0.2584,-0.42517 0.007,-0.0178 0.22708,0.18744 0.36169,0.24799 0.2569,0.11566 0.59726,0.0659 0.84357,-0.0446 1.05655,-0.47363 2.04108,-1.14355 3.04108,-1.72686 0.578,-0.33716 1.21102,-0.5611 1.76693,-0.93921 0.88986,-0.60517 1.66397,-1.36432 2.58661,-1.93109 0.83109,-0.5105 1.6854,-0.97138 2.51831,-1.49201 0.41181,-0.25732 1.09302,-0.73382 1.55649,-0.89972 0.48325,-0.17297 1.2088,-0.0964 1.31103,-0.77954 0.1568,-1.04748 -1.77877,-1.46442 -2.36209,-1.76752 -1.49386,-0.77636 -2.82519,-1.63269 -4.28161,-2.44903 -0.61273,-0.34339 -1.26352,-0.62348 -1.86023,-0.99207 -0.99179,-0.61261 -1.87009,-1.3836 -2.88394,-1.96655 -0.83985,-0.48297 -1.88401,-1.82794 -2.96253,-1.64764 -0.82901,0.13855 -0.79605,1.05688 -0.73346,1.6831 0.0796,0.79566 0.064,1.6272 0.10761,2.42713 0.0572,1.04815 0.34637,2.07824 0.36011,3.13586 0.0129,0.9942 0.006,2.09009 -0.0886,3.08264 -0.0769,0.80518 -0.29754,1.53693 -0.38977,2.32086 -0.0681,0.57941 -0.0124,1.17243 -0.084,1.75397 -0.07,0.56915 -0.28687,1.47247 -0.0932,2.07282 0.20102,0.62316 0.83514,0.58673 1.18255,0.13513 l -0.42273,0.35205 z m 0.67521,-1.49701 c 0,0 0.002,-0.16559 0.008,-0.24811 0.0421,-0.57873 0.0842,-1.15741 0.12631,-1.73614 0.0744,-1.02265 0.2579,-2.013 0.41632,-3.02955 0.10339,-0.66345 0.0183,-1.3988 0.0343,-2.07287 0.0525,-2.20532 -0.28448,-4.38959 -0.44165,-6.59052 -0.001,-0.0178 0.46274,0.36188 0.69473,0.55176 0.17624,0.14417 0.3815,0.2489 0.57584,0.3667 0.76154,0.46155 1.46716,0.87714 2.1983,1.41242 1.06723,0.78137 2.17115,1.29156 3.31528,1.95654 1.49674,0.86981 2.91251,1.7605 4.50134,2.49048 0.0164,0.008 -0.82476,0.46148 -1.22512,0.72143 -0.84513,0.54883 -1.81705,1.01111 -2.63669,1.59833 -0.84754,0.60718 -1.67096,1.30634 -2.53519,1.8866 -0.86874,0.58331 -1.89328,1.00866 -2.79541,1.5401 -0.55515,0.32696 -1.0881,0.74652 -1.68686,0.95794 -0.1896,0.067 -0.3996,0.033 -0.53656,0.19739 l -0.0127,-0.002 z"
           style="fill:#000000;fill-opacity:1;fill-rule:evenodd;stroke:#000000;stroke-width:0.29219675;stroke-miterlimit:4;stroke-dasharray:none;stroke-opacity:1"
           id="path1821-3"
           inkscape:connector-curvature="0" />
        <path
           d="m 286.12207,259.67401 c 0,0 0.47241,-0.0301 0.70865,-0.0452 0.29507,-0.0189 0.59045,-0.0698 0.88583,-0.0544 1.15525,0.06 2.29376,0.11603 3.45471,0.0797 0.41205,-0.0128 1.43311,0.027 1.87796,-0.0321 0.82932,-0.11017 1.5593,-0.65131 2.32087,-0.93897 1.22439,-0.4624 2.08172,-0.54968 3.13583,-1.43505 0.7955,-0.66816 1.36493,-1.84809 1.80707,-2.76374 0.73242,-1.51684 0.98007,-3.33764 1.15158,-4.99609 0.12622,-1.22052 -0.0858,-2.48718 0.0259,-3.70276 0.20148,-2.19421 0.44369,-4.36023 0.52334,-6.55511 0.0315,-0.8675 0.22419,-1.77655 0.23032,-2.65748 0.004,-0.51361 -0.0878,-1.02752 -0.0886,-1.54132 -0.003,-1.75787 0.21911,-3.16076 -0.0705,-4.92437 -0.38269,-2.33106 -0.54019,-5.20533 -1.94922,-7.21149 -0.72915,-1.03815 -2.06631,-1.83179 -3.13583,-2.46259 -1.43619,-0.8471 -3.16141,-1.04791 -4.76575,-1.34869 -4.42074,-0.8288 -8.95157,-0.69214 -13.4291,-0.84814 -1.30954,-0.0457 -2.60318,0.0266 -3.91538,-0.0178 -2.48532,-0.0839 -5.03815,-0.47418 -7.52954,-0.30114 -0.83032,0.0576 -1.60712,0.35693 -2.44486,0.38977 -0.65292,0.0255 -1.24105,-0.13916 -1.89569,-0.14173 -0.5169,-0.002 -1.05322,0.1402 -1.55905,0.20942 -1.35638,0.1856 -2.73199,0.38806 -4.0925,0.51696 -1.11483,0.10559 -1.58032,-0.0178 -2.79922,0.24805 -1.88603,0.41138 -3.37047,1.14032 -4.97713,2.17444 -0.80823,0.5202 -1.34096,0.81958 -1.93233,1.59912 -0.96934,1.27783 -1.27287,2.72668 -1.54132,4.25195 -0.175,0.99433 -0.35174,1.45954 -0.44291,2.51581 -0.10381,1.20264 -0.0287,2.01776 -0.0709,3.1181 -0.0386,1.00824 -0.26544,1.99732 -0.30119,3.01178 -0.11652,3.30634 -0.28572,6.57038 0.11123,9.86811 0.0963,0.79962 -0.17085,2.42083 0.46015,3.05169 0.0133,0.0133 0.01,0.16785 0.0221,0.2436 0.0266,0.15942 0.0531,0.3189 0.0797,0.47833 0.0549,0.32959 0.20887,0.69043 0.30306,0.97821 0.28291,0.86438 0.36641,1.79407 0.63164,2.66778 0.22931,0.75531 0.43602,1.6059 0.94325,2.2359 0.25967,0.32251 0.60384,0.51117 0.96184,0.70679 1.27783,0.69818 2.25001,1.18878 3.64445,1.56098 1.77335,0.47326 3.64603,0.86639 5.47443,1.00982 0.55261,0.0433 1.11304,-0.0106 1.66534,0.0355 2.03891,0.16968 4.06308,0.36646 6.09452,0.5492 0.64807,0.0583 1.24166,-0.0653 1.89566,-0.0532 1.08099,0.02 2.16488,0.23315 3.24212,0.28344 0.53061,0.0248 1.06623,-0.0958 1.59449,-0.0709 0.93969,0.0444 1.80178,0.26276 2.76376,0.23029 0.52029,-0.0175 1.11145,-0.20154 1.62991,-0.19483 0.50437,0.006 1.10349,0.17017 1.61221,0.19483 1.24247,0.0604 2.4816,-0.013 3.72046,0.001 1.80716,0.0208 3.62037,0.1261 5.4213,-0.016 l -1.45276,0.10229 z m 0,-1.41717 c 0,0 -0.69647,-0.0471 -1.04529,-0.0543 -0.98608,-0.0202 -1.97235,-0.0212 -2.95865,-0.0322 -1.28708,-0.0143 -2.59204,0.10797 -3.87994,-0.001 -0.37433,-0.0317 -0.74173,-0.14746 -1.11612,-0.17718 -0.68759,-0.0546 -1.35617,0.20703 -2.03741,0.17163 -0.89805,-0.0466 -1.81299,-0.20179 -2.71064,-0.22474 -0.48327,-0.0124 -0.96994,0.0883 -1.45272,0.0709 -1.08872,-0.0394 -2.18546,-0.258 -3.27759,-0.28351 -0.55698,-0.0129 -1.14035,0.10779 -1.70081,0.0709 -1.3475,-0.0887 -2.67306,-0.2915 -4.02164,-0.38977 -1.95867,-0.14276 -4.01709,-0.0615 -5.95274,-0.44293 -0.98541,-0.19422 -2.09947,-0.46454 -3.06497,-0.70862 -1.13788,-0.28772 -2.00984,-0.70361 -3.04187,-1.26038 -0.27223,-0.14691 -0.59155,-0.25927 -0.82033,-0.45819 -0.29742,-0.25854 -0.43748,-0.73932 -0.54471,-1.09454 -0.32032,-1.06116 -0.5475,-2.10699 -0.78296,-3.19464 -0.1118,-0.5163 -0.36273,-0.97254 -0.40855,-1.50409 -0.12718,-1.4754 0.20476,-3.05481 -0.11157,-4.51776 -0.0875,-0.40479 -0.15309,-1.14209 -0.57938,-1.35529 -0.0177,-0.009 -0.0612,-0.82385 -0.0829,-1.23126 -0.0129,-0.2417 0.004,-0.48517 0.01,-0.72644 0.0305,-1.22015 0.24679,-2.63892 0.2118,-3.87994 -0.0397,-1.40882 0.20206,-2.76783 0.26876,-4.16333 0.089,-1.86243 0.13728,-3.60376 0.47833,-5.43903 0.28972,-1.5589 0.62645,-3.35913 1.96654,-4.41138 1.51568,-1.19012 3.4693,-2.08227 5.3504,-2.49804 1.09866,-0.24286 1.65413,-0.11921 2.69292,-0.21259 1.38965,-0.12494 2.79394,-0.35046 4.18112,-0.51861 0.43256,-0.0524 0.86102,-0.1952 1.29327,-0.20777 0.68457,-0.0199 1.32987,0.17285 2.01972,0.14173 0.80935,-0.0366 1.5599,-0.31269 2.35626,-0.38978 2.44803,-0.23693 5.06894,0.22016 7.51181,0.30121 0.99731,0.0331 1.83725,-0.0569 2.79922,-0.0532 1.58909,0.006 3.18085,0.13288 4.76578,0.21265 3.26431,0.16418 6.44544,0.0868 9.67151,0.71112 1.20859,0.23395 2.4133,0.3789 3.56271,0.8479 0.52216,0.21307 0.97873,0.54986 1.43271,0.87707 0.27552,0.19867 1.37705,0.88086 1.79169,1.37293 0.98352,1.16717 1.14801,3.026 1.4003,4.46295 0.25507,1.4527 0.51407,2.64587 0.56625,4.11182 0.0332,0.93268 -0.12625,1.89587 -0.12402,2.81695 10e-4,0.51386 0.0946,1.02796 0.0886,1.54138 -0.0104,0.88117 -0.20025,1.78937 -0.23031,2.65748 -0.0178,0.51428 0.055,1.0437 0,1.55902 -0.17893,1.67724 -0.46964,3.36981 -0.5315,5.06695 -0.11001,3.01801 0.10764,6.07373 -1.46142,8.78949 -0.26487,0.45838 -0.51728,1.07788 -0.9303,1.46839 -0.85031,0.80389 -1.84564,0.9024 -2.88782,1.31097 -0.52185,0.20459 -1.27249,0.71472 -1.91339,0.815 -1.69879,0.26587 -3.51913,-0.0704 -5.22638,-0.0532 -1.1044,0.0112 -2.18649,0.0588 -3.29526,0.0362 l 1.77167,0.0691 z"
           style="fill:#000000;fill-opacity:1;fill-rule:evenodd;stroke:#000000;stroke-width:0.29219675;stroke-miterlimit:4;stroke-dasharray:none;stroke-opacity:1"
           id="path1823-6"
           inkscape:connector-curvature="0" />
      </g>
      <path
         transform="matrix(0.26458333,0,0,0.26458333,72.3006,-187.61608)"
         inkscape:connector-curvature="0"
         id="path1828"
         d="m 472.19021,259.42698 c -6.76248,-1.04591 -10.14468,-2.48717 -11.81349,-5.03409 -2.62499,-4.00624 -3.03897,-28.6767 -0.618,-36.82898 0.87177,-2.93556 1.41095,-3.58532 3.75269,-4.5223 6.06584,-2.42707 16.03127,-3.25532 40.86636,-3.39651 22.45291,-0.12766 22.85404,0.16206 24.30483,17.55409 0.88644,10.62673 0.55581,22.175 -0.73624,25.71428 -1.00442,2.75143 -4.42824,4.95372 -9.35247,6.01576 -5.9607,1.28558 -39.01723,1.64016 -46.40368,0.49775 z m 18.41984,-15.18979 c 1.36326,-1.03981 5.41146,-3.54847 8.99599,-5.5748 3.58453,-2.02633 6.4803,-3.9764 6.43504,-4.3335 -0.0453,-0.35709 -0.68777,-0.98235 -1.4278,-1.38948 -0.74002,-0.40712 -3.91728,-2.37932 -7.06056,-4.38266 -7.50044,-4.78033 -8.51218,-5.28613 -10.57357,-5.28613 h -1.73814 l 0.26993,10.53571 c 0.14847,5.79464 0.26664,10.9375 0.26261,11.42857 -0.0121,1.47077 2.19784,1.01489 4.8365,-0.99771 z"
         style="opacity:1;vector-effect:none;fill:#fe0000;fill-opacity:1;stroke:#000000;stroke-width:0.38959566;stroke-linecap:butt;stroke-linejoin:miter;stroke-miterlimit:4;stroke-dasharray:none;stroke-dashoffset:0;stroke-opacity:1" />
      <path
         transform="matrix(0.26458333,0,0,0.26458333,72.3006,-187.61608)"
         inkscape:connector-curvature="0"
         id="path1830"
         d="m 488.23652,234.30635 c -0.0163,-4.49823 0.0457,-8.17859 0.13775,-8.17859 0.51153,0 11.99651,7.26294 12.96402,8.19826 0.1182,0.11427 -1.97108,1.46932 -4.64286,3.01121 -2.67177,1.54189 -5.66134,3.3309 -6.64349,3.97557 l -1.78571,1.17213 z"
         style="opacity:1;vector-effect:none;fill:#ffffff;fill-opacity:1;stroke:#000000;stroke-width:0.38959566;stroke-linecap:butt;stroke-linejoin:miter;stroke-miterlimit:4;stroke-dasharray:none;stroke-dashoffset:0;stroke-opacity:1" />
    </g>
  </g>
</svg>
