<?xml version="1.0" encoding="UTF-8" standalone="no"?>
<!-- Created with Inkscape (http://www.inkscape.org/) -->

<svg
   xmlns:dc="http://purl.org/dc/elements/1.1/"
   xmlns:cc="http://creativecommons.org/ns#"
   xmlns:rdf="http://www.w3.org/1999/02/22-rdf-syntax-ns#"
   xmlns:svg="http://www.w3.org/2000/svg"
   xmlns="http://www.w3.org/2000/svg"
   xmlns:sodipodi="http://sodipodi.sourceforge.net/DTD/sodipodi-0.dtd"
   xmlns:inkscape="http://www.inkscape.org/namespaces/inkscape"
   width="18.681074mm"
   height="19.775593mm"
   viewBox="0 0 18.681074 19.775593"
   version="1.1"
   id="svg3844"
   inkscape:version="0.92.3 (2405546, 2018-03-11)"
   sodipodi:docname="Icon Xing.svg">
  <defs
     id="defs3838" />
  <sodipodi:namedview
     id="base"
     pagecolor="#ffffff"
     bordercolor="#666666"
     borderopacity="1.0"
     inkscape:pageopacity="0.0"
     inkscape:pageshadow="2"
     inkscape:zoom="0.35"
     inkscape:cx="46.73139"
     inkscape:cy="-185.48594"
     inkscape:document-units="mm"
     inkscape:current-layer="layer1"
     showgrid="false"
     fit-margin-top="0"
     fit-margin-left="0"
     fit-margin-right="0"
     fit-margin-bottom="0"
     inkscape:window-width="1920"
     inkscape:window-height="1025"
     inkscape:window-x="0"
     inkscape:window-y="27"
     inkscape:window-maximized="1" />
  <metadata
     id="metadata3841">
    <rdf:RDF>
      <cc:Work
         rdf:about="">
        <dc:format>image/svg+xml</dc:format>
        <dc:type
           rdf:resource="http://purl.org/dc/dcmitype/StillImage" />
        <dc:title></dc:title>
      </cc:Work>
    </rdf:RDF>
  </metadata>
  <g
     inkscape:label="Ebene 1"
     inkscape:groupmode="layer"
     id="layer1"
     transform="translate(-93.468986,-79.981253)">
    <g
       id="g2968"
       transform="matrix(0.35277777,0,0,-0.35277777,-3.9805422,308.68839)">
      <path
         inkscape:connector-curvature="0"
         id="path12"
         style="fill:#000000;fill-opacity:1;fill-rule:evenodd;stroke:none"
         d="m 326.32089,648.30371 c 0,0 0.35855,-0.0112 0.52576,-0.0685 0.50772,-0.17413 1.12064,-0.33612 1.58249,-0.56793 0.75375,-0.3783 0.87503,-1.15705 0.67322,-1.91339 -0.61527,-2.3061 -2.20661,-4.07056 -3.49015,-6.00586 -0.48654,-0.73365 -0.85479,-1.61011 -1.27557,-2.35633 -0.28497,-0.50537 -0.83212,-1.2406 -1.06299,-1.82483 -0.11337,-0.28686 -0.12555,-0.61267 -0.23032,-0.9035 -0.22772,-0.63208 -0.66922,-1.18793 -0.97442,-1.77167 -0.88202,-1.68701 -1.53241,-3.47741 -2.62204,-5.06689 -0.49158,-0.7171 -1.26062,-1.22009 -1.68308,-1.98425 -0.79501,-1.43818 -1.76687,-2.8053 -2.51574,-4.26972 -0.35215,-0.68866 -0.53727,-1.39343 -0.92032,-2.07751 -0.53684,-0.95868 -1.08368,-2.11512 -1.63086,-3.07801 -0.32617,-0.57391 -1.00772,-1.11541 -1.16931,-1.75396 -0.0722,-0.2854 0.15494,-1.04395 0.17364,-1.13575 0.17346,-0.85156 0.64798,-1.56335 0.87836,-2.3927 0.19745,-0.71087 0.44012,-1.20562 0.70196,-1.89282 0.14292,-0.37512 0.18009,-0.83801 0.33661,-1.20471 0.31775,-0.74445 1.08756,-1.28015 1.50589,-1.98425 0.7247,-1.21967 1.16867,-2.56433 1.96656,-3.75586 0.87057,-1.30023 1.9245,-2.41773 2.76004,-3.73694 0.70544,-1.11389 1.21985,-2.31873 1.5162,-3.61548 0.21619,-0.9458 0.20648,-1.87646 -0.83923,-2.21454 -0.34754,-0.11236 -0.99988,-0.30774 -1.3642,-0.35431 -0.6535,-0.0835 -1.3154,0.1388 -1.96652,0.17713 -1.11124,0.0655 -1.5806,-0.0309 -2.63977,-0.0709 -0.69754,-0.0263 -1.25665,0.10852 -1.93112,0.10632 -0.65973,-0.002 -1.40076,-0.12573 -2.05512,-0.21259 -0.58288,-0.0774 -1.03775,-0.25134 -1.59448,0.0177 -1.38104,0.66736 -1.8443,2.69159 -2.7106,3.84449 -0.74433,0.99054 -1.7717,1.54956 -2.55121,2.48034 -0.61783,0.73767 -1.29971,1.62458 -1.75394,2.48029 -0.22098,0.41626 -0.30911,0.91608 -0.47833,1.34649 -0.32004,0.81397 -0.69644,1.69239 -1.06299,2.48029 -0.64599,1.38855 -1.63559,2.57849 -2.25,4.00397 -0.3634,0.84302 -0.50775,1.73352 -0.8504,2.58655 -0.45078,1.12225 -1.26099,2.00976 -1.09842,3.29528 0.19827,1.56806 1.22861,2.66089 2.05511,3.91535 0.41242,0.62597 1.03321,1.93158 1.29718,2.43878 1.98761,3.81927 3.77112,7.75647 6.14377,11.36243 0.66767,1.01477 1.60413,1.77673 2.39054,2.68481 0.72119,0.83264 1.59976,1.74646 2.23349,2.70099 0.56189,0.84637 0.95327,1.76385 1.50589,2.60431 0.58981,0.89709 1.29779,1.72882 1.90249,2.62207 0.69504,1.02673 0.84006,1.21362 1.64478,2.21954 0.27374,0.34223 0.56527,0.70935 1.04132,0.73914 0.52856,0.033 0.729,-0.44672 0.54922,-0.8858 -0.19687,-0.4809 -1.23993,-1.67573 -1.33319,-1.79383 -0.60516,-0.76654 -1.03372,-1.6532 -1.60779,-2.44043 -0.30102,-0.41278 -0.68905,-0.76459 -0.97439,-1.18701 -0.80222,-1.18774 -1.33225,-2.54504 -2.28473,-3.64185 -1.21548,-1.39965 -2.82184,-2.80822 -3.86292,-4.36602 -2.49325,-3.7309 -4.36715,-7.86542 -6.38928,-11.85797 -0.31338,-0.61878 -0.6907,-1.41846 -1.08706,-2.0141 -0.54657,-0.82129 -1.1557,-1.38733 -1.54136,-2.32087 -0.12289,-0.29748 -0.28839,-0.80572 -0.30117,-1.15161 -0.0325,-0.87762 0.75018,-1.65673 1.04525,-2.44482 0.31052,-0.82929 0.46552,-1.66937 0.81498,-2.48035 0.60077,-1.3941 1.45163,-2.61651 2.19683,-3.9281 0.65445,-1.15185 0.93891,-2.55346 1.50592,-3.74316 0.98661,-2.06995 2.98114,-3.15625 4.28739,-4.94287 0.58993,-0.80689 0.92541,-1.4574 1.36816,-2.31427 0.15879,-0.30744 0.39789,-0.789 0.72241,-0.98102 0.20807,-0.12311 0.62977,0.0261 0.77952,0.0522 0.57077,0.0999 1.2871,0.18757 1.86022,0.21937 0.72144,0.0401 1.41877,-0.0879 2.14371,-0.0767 1.02683,0.0158 1.98957,0.095 3.02954,0.0731 0.51929,-0.0109 1.06794,-0.25256 1.59449,-0.19708 0.35189,0.0371 0.73794,0.2171 1.09841,0.29724 0.0177,0.004 -0.0208,0.42182 -0.0872,0.61884 -0.17597,0.52258 -0.35193,1.0451 -0.5279,1.56762 -0.45999,1.36609 -1.42248,2.42304 -2.26547,3.55445 -1.01092,1.35675 -1.23688,1.59436 -1.97378,2.90869 -0.45804,0.81695 -0.78498,1.7041 -1.24015,2.51575 -0.48742,0.86908 -1.35409,1.45752 -1.7008,2.40942 -0.40982,1.12537 -0.71085,2.2948 -1.11612,3.41931 -0.42533,1.1803 -1.20578,2.39649 -1.02756,3.72046 0.1203,0.8938 0.87598,1.52698 1.311,2.2677 0.71943,1.22504 1.45078,2.56598 2.03742,3.86224 0.20016,0.44233 0.31909,0.93427 0.54919,1.3642 0.6547,1.2229 1.51511,2.33795 2.19687,3.54327 0.26209,0.46338 0.38855,0.8122 0.68076,1.24286 0.5025,0.74054 1.22027,1.26569 1.67554,2.05243 0.87319,1.50904 1.44793,2.91016 2.23229,4.41144 0.26191,0.50128 0.67673,1.00232 0.88584,1.54132 0.13653,0.35199 0.15506,0.74787 0.30115,1.09845 0.51178,1.22797 1.39355,2.50104 2.03741,3.64954 1.23456,2.20227 3.20139,4.01623 3.78726,6.55517 0.004,0.0177 -0.60293,0.25196 -0.90643,0.36914 -0.42502,0.16401 -0.65677,0.12806 -1.10916,0.0847 -1.60559,-0.15399 -3.16571,0.0566 -4.76578,-0.0348 -1.08554,-0.062 -2.73282,-0.17663 -3.52557,-0.52539 -0.32431,-0.1427 -0.6442,0.17322 -0.69095,0.47839 -0.19739,1.28833 1.91928,1.22101 2.63977,1.34571 1.74356,0.30182 3.42053,-0.0229 5.15552,0.0361 1.03595,0.0353 1.74554,0.27826 2.73025,-0.0594 l -1.01175,0.23517 z" />
      <path
         inkscape:connector-curvature="0"
         id="path14"
         style="fill:#000000;fill-opacity:1;fill-rule:evenodd;stroke:none"
         d="m 282.36615,642.12048 c 0,0 0.44882,-0.0399 0.67325,-0.0599 0.30221,-0.0269 0.60785,-0.0881 0.90353,-0.13446 0.72397,-0.11359 1.37433,-0.54822 2.12796,-0.54822 0.68949,0 1.38236,-0.007 2.07086,0.0354 1.15351,0.0707 2.52155,0.28326 3.59647,-0.28345 0.78,-0.41119 0.8349,-1.24243 1.40442,-1.81189 0.0129,-0.0129 0.28146,0.0167 0.40265,-0.0306 0.22168,-0.0864 0.38739,-0.22546 0.48804,-0.42675 0.008,-0.0161 0.23834,-0.22449 0.35348,-0.32868 0.22763,-0.20593 0.41824,-0.47259 0.5788,-0.73639 0.61377,-1.00836 0.96463,-1.98523 1.39392,-3.10376 0.2027,-0.52807 0.63717,-1.01086 0.90622,-1.5166 0.58249,-1.09479 1.1405,-2.29291 1.65649,-3.4281 0.5979,-1.31537 1.13034,-2.14819 0.75296,-3.60535 -0.39267,-1.51635 -1.28497,-2.68518 -2.10827,-3.9685 C 296.50024,620.5105 295.7132,618.69 294.69687,617 c -0.54065,-0.89905 -1.24741,-1.66443 -1.6138,-2.65088 -0.51026,-1.37372 -0.88156,-3.02624 -1.76297,-4.22107 -0.3923,-0.53174 -0.87653,-1.39117 -1.54843,-1.68518 -1.025,-0.44836 -2.09796,-0.0305 -3.13584,-0.0177 -0.3067,0.004 -0.61404,-0.10394 -0.92123,-0.10626 -0.88477,-0.007 -1.75946,0.30139 -2.6575,0.23028 -0.49649,-0.0393 -0.83536,-0.21228 -1.32874,-0.15942 -0.39544,0.0424 -0.78561,0.20996 -1.18701,0.23029 -1.20883,0.0611 -2.14786,-0.21784 -3.33069,0.21258 -0.58371,0.21246 -0.93106,0.66571 -0.96194,1.29334 -0.0693,1.4082 0.10635,2.52844 0.88141,3.72326 0.83645,1.28955 2.03949,2.33637 2.98602,3.54053 0.44482,0.56586 0.7359,1.16858 1.15158,1.75391 0.38852,0.54712 0.88611,1.01403 1.2756,1.55908 0.48002,0.67175 1.23984,1.98315 1.67823,2.65692 0.62051,0.9538 1.81299,2.18719 1.98907,3.41986 0.0798,0.55859 -0.29214,1.12256 -0.51947,1.58624 -0.32464,0.6623 -0.63263,1.33222 -0.94165,2.00177 -0.33554,0.72699 -0.79739,1.44599 -1.29602,2.07758 -0.28396,0.35968 -0.57495,0.71417 -0.84994,1.08081 -0.11863,0.1582 -0.70075,0.88806 -0.99921,1.33234 -0.50766,0.75555 -0.69116,1.33606 -1.07425,2.23974 -0.26099,0.61566 -0.7023,1.14905 -0.89227,1.79962 -0.33472,1.14624 0.28573,2.54834 1.41733,2.99408 0.39343,0.15497 0.77212,0.17823 1.18701,0.21967 0.54785,0.0548 1.23651,-0.11243 1.77163,-0.19641 z m 0.15945,-1.41687 c 0,0 -0.44262,-0.008 -0.65551,-0.0609 -0.45572,-0.11389 -0.83692,-0.42383 -0.90354,-0.93011 -0.0816,-0.62043 0.57102,-1.42524 0.79724,-1.8957 0.24402,-0.50732 0.40564,-1.05487 0.65549,-1.55902 0.55856,-1.12701 1.48813,-2.04406 2.2323,-3.04724 0.75385,-1.01611 1.27557,-2.10821 1.8374,-3.23187 0.5355,-1.07105 1.35559,-2.27393 1.10355,-3.53589 -0.27643,-1.38409 -1.30634,-2.49438 -2.04236,-3.63318 -0.6315,-0.97699 -1.20279,-2.05212 -1.89072,-2.9928 -0.36267,-0.49585 -0.82644,-0.91894 -1.18701,-1.41729 -0.63394,-0.87616 -1.16003,-1.76068 -1.86184,-2.59308 -0.94111,-1.11621 -2.30249,-2.19251 -2.77988,-3.60767 -0.23197,-0.6878 -0.21036,-1.29028 -0.16068,-2.00201 0.001,-0.0177 0.35746,-0.12653 0.53562,-0.18097 0.17398,-0.0532 0.36508,-0.0807 0.54632,-0.0848 0.73523,-0.0165 1.47782,0.20795 2.21231,0.0483 0.26981,-0.0587 0.75953,-0.20697 1.08295,-0.19 0.39832,0.0209 0.7638,0.17022 1.16931,0.17718 0.83289,0.0142 1.66062,-0.2276 2.48032,-0.23034 0.38187,-10e-4 0.74179,0.14526 1.13385,0.0918 0.77545,-0.10571 1.98401,-0.46844 2.60434,0.13855 1.58597,1.5517 1.64978,3.95417 2.71063,5.79328 0.38651,0.6701 0.94757,1.2912 1.34644,1.94879 1.02539,1.69067 1.80377,3.51843 2.87008,5.19098 0.83899,1.31598 2.00605,2.70501 2.09055,4.34051 0.0201,0.38941 -0.20365,0.65753 -0.37204,1.00989 -0.30609,0.64044 -0.60733,1.28149 -0.91452,1.92139 -0.37396,0.77917 -0.73944,1.68469 -1.1406,2.41919 -0.27475,0.50299 -0.6405,0.94958 -0.88583,1.47046 -0.3613,0.76702 -0.56143,1.67846 -0.9567,2.44482 -0.26516,0.51428 -0.62927,0.90753 -0.99835,1.3504 -0.0115,0.0138 -0.23883,-0.0108 -0.34408,0.0242 -0.24304,0.0811 -0.49207,0.17493 -0.65732,0.38642 -0.50507,0.64648 -0.68646,1.62585 -1.57898,1.76458 -1.60202,0.24903 -3.21545,-0.24334 -4.81891,-0.0355 -1.44443,0.18726 -2.71756,0.94611 -4.19879,0.57581 l 0.93896,0.13177 z" />
      <path
         transform="matrix(0.75000002,0,0,-0.75000002,0,842.00005)"
         inkscape:connector-curvature="0"
         id="path933"
         d="m 372.69354,309.13713 -2.46906,-0.12763 0.24697,-1.52191 c 0.13584,-0.83704 0.82289,-2.19869 1.5268,-3.02588 4.79037,-5.6294 11.14876,-14.91624 11.59089,-16.92925 0.33951,-1.54577 -1.90795,-6.43437 -4.78127,-10.40005 -2.39908,-3.31115 -4.07235,-6.85086 -3.69875,-7.82446 0.21858,-0.5696 0.61564,-0.65551 2.05432,-0.44447 0.98086,0.14389 3.75443,0.37545 6.1635,0.51458 l 4.38012,0.25298 1.99026,1.99026 c 2.554,2.554 8.17024,13.78362 7.80554,15.60711 -0.12531,0.62658 -1.05953,2.52989 -2.07605,4.22958 -5.17039,8.64534 -6.62571,11.29202 -7.47936,13.60208 -1.67305,4.52751 -1.47658,4.41523 -7.52899,4.30255 -2.89073,-0.0538 -6.36694,-0.15529 -7.72492,-0.22549 z"
         style="fill:#005a5f;fill-opacity:1;stroke:none;stroke-width:0.31783476;stroke-linecap:round;stroke-miterlimit:4;stroke-dasharray:none" />
      <path
         transform="matrix(0.75000002,0,0,-0.75000002,0,842.00005)"
         inkscape:connector-curvature="0"
         id="path935"
         d="m 412.39049,330.28821 c -0.18247,-0.23126 -0.65501,-1.05653 -1.05009,-1.83394 -0.39508,-0.77741 -2.10302,-2.89413 -3.79543,-4.70382 -1.8583,-1.98708 -3.27869,-3.92537 -3.58605,-4.89357 -0.27991,-0.88176 -1.52839,-3.52342 -2.77438,-5.87035 -1.246,-2.34693 -2.26718,-4.52285 -2.26929,-4.83539 -0.002,-0.31254 -0.45979,-1.50984 -1.01704,-2.66068 -1.13832,-2.35082 -1.00023,-3.08498 1.18353,-6.29231 0.62059,-0.91148 2.66264,-4.6957 4.53788,-8.40938 4.21676,-8.35074 5.39633,-10.21491 8.95188,-14.1474 1.54977,-1.71405 3.11069,-3.6841 3.46873,-4.37787 0.35804,-0.69377 2.04476,-3.21272 3.74828,-5.59766 1.70352,-2.38494 3.09731,-4.5996 3.09731,-4.92146 0,-0.34065 0.65891,-0.71512 1.57675,-0.8961 1.99588,-0.39354 11.71019,-0.45319 12.09068,-0.0743 0.49087,0.48888 -0.15245,1.80327 -2.97647,6.08136 -1.50551,2.28068 -3.22792,5.18736 -3.82758,6.45928 -2.77497,5.88593 -4.95271,10.0038 -6.00388,11.35266 -1.63336,2.09596 -4.64297,7.15273 -6.88182,11.5629 -1.05659,2.08132 -2.3085,4.35185 -2.782,5.04562 -0.47351,0.69378 -0.86212,1.63983 -0.86357,2.10235 -0.005,1.47295 2.93495,9.1864 4.16625,10.93219 0.65241,0.92503 1.71051,2.72253 2.35132,3.99445 0.64081,1.27192 2.02259,3.42826 3.07062,4.79188 1.6501,2.14697 4.061,6.92432 3.68442,7.30091 -0.36484,0.36483 -13.80816,0.26051 -14.10005,-0.10942 z"
         style="fill:#d3d500;fill-opacity:1;stroke:none;stroke-width:0.31783476;stroke-linecap:round;stroke-miterlimit:4;stroke-dasharray:none" />
    </g>
  </g>
</svg>
