<?xml version="1.0" encoding="UTF-8" standalone="no"?>
<!-- Created with Inkscape (http://www.inkscape.org/) -->

<svg
   width="21.67605mm"
   height="18.543276mm"
   viewBox="0 0 21.67605 18.543276"
   version="1.1"
   id="svg3953"
   inkscape:version="1.3.2 (091e20e, 2023-11-25)"
   sodipodi:docname="logo_x.svg"
   xml:space="preserve"
   xmlns:inkscape="http://www.inkscape.org/namespaces/inkscape"
   xmlns:sodipodi="http://sodipodi.sourceforge.net/DTD/sodipodi-0.dtd"
   xmlns="http://www.w3.org/2000/svg"
   xmlns:svg="http://www.w3.org/2000/svg"
   xmlns:rdf="http://www.w3.org/1999/02/22-rdf-syntax-ns#"
   xmlns:cc="http://creativecommons.org/ns#"
   xmlns:dc="http://purl.org/dc/elements/1.1/"><defs
     id="defs3947" /><sodipodi:namedview
     id="base"
     pagecolor="#ffffff"
     bordercolor="#666666"
     borderopacity="1.0"
     inkscape:pageopacity="0.0"
     inkscape:pageshadow="2"
     inkscape:zoom="2.6748705"
     inkscape:cx="-9.346247"
     inkscape:cy="53.086683"
     inkscape:document-units="mm"
     inkscape:current-layer="layer1"
     showgrid="false"
     fit-margin-top="0"
     fit-margin-left="0"
     fit-margin-right="0"
     fit-margin-bottom="0"
     inkscape:window-width="1080"
     inkscape:window-height="757"
     inkscape:window-x="973"
     inkscape:window-y="1717"
     inkscape:window-maximized="1"
     inkscape:showpageshadow="2"
     inkscape:pagecheckerboard="0"
     inkscape:deskcolor="#d1d1d1" /><metadata
     id="metadata3950"><rdf:RDF><cc:Work
         rdf:about=""><dc:format>image/svg+xml</dc:format><dc:type
           rdf:resource="http://purl.org/dc/dcmitype/StillImage" /></cc:Work></rdf:RDF></metadata><g
     inkscape:label="Ebene 1"
     inkscape:groupmode="layer"
     id="layer1"
     transform="translate(-116.16198,-111.59145)"><path
       id="path7"
       style="fill:#000000;stroke:none;stroke-width:0.25;stroke-linejoin:bevel"
       d="m 123.22929,111.58348 c -0.0986,0.002 -0.19468,0.0625 -0.22571,0.16755 -0.0572,-1.9e-4 -0.11494,0.003 -0.174,0.0129 -0.42164,0.0392 -0.83851,0.10848 -1.25734,0.16903 -0.49582,0.0753 -0.99308,0.14153 -1.49149,0.19687 -0.6027,0.0598 -1.20742,0.10141 -1.81018,0.16109 -0.45169,0.0166 -0.90333,0.0108 -1.35527,0.0114 -0.25973,0 -0.32037,0.27953 -0.18346,0.41215 0.008,0.037 0.0238,0.0754 0.0522,0.11336 0.28449,0.34093 0.54544,0.70009 0.81983,1.04901 0.35528,0.44933 0.69013,0.91384 1.02664,1.37715 0.33182,0.49147 0.74048,0.92225 1.12807,1.3687 0.32438,0.41452 0.65653,0.82187 1.02316,1.20016 0.28169,0.2705 0.54135,0.56375 0.76713,0.88247 0.22048,0.35725 0.4651,0.6977 0.74874,1.00725 0.21409,0.2546 0.44019,0.49906 0.67018,0.73929 0.15089,0.20724 0.34163,0.38167 0.50064,0.58169 0.076,0.13907 0.21176,0.22634 0.31122,0.34353 0.038,0.0399 0.0562,0.0736 0.0606,0.0999 3.1e-4,0.005 3.3e-4,7.6e-4 5e-4,0.003 -0.0115,0.1412 0.0776,0.23291 0.18345,0.25704 -0.0662,0.0957 -0.13785,0.18691 -0.22472,0.26847 -0.14315,0.18035 -0.32978,0.3202 -0.47677,0.49767 -0.22978,0.24701 -0.43829,0.51208 -0.67963,0.74823 -0.29668,0.29283 -0.56394,0.61498 -0.84667,0.92124 -0.36038,0.40926 -0.73654,0.80381 -1.09526,1.21458 -0.40985,0.46802 -0.83125,0.92516 -1.26082,1.37516 -0.4506,0.46314 -0.88217,0.94132 -1.30356,1.43134 -0.24011,0.26121 -0.48469,0.52053 -0.68658,0.81337 -0.08,0.10673 -0.0692,0.21535 -0.0144,0.29232 -0.0551,0.11364 -0.0256,0.26827 0.1402,0.3346 v -9.6e-4 c 0.22987,0.0902 0.47955,0.0913 0.72287,0.0945 0.14005,9.6e-4 0.28009,-9.7e-4 0.42011,-0.003 0.11087,-9.6e-4 0.22173,-9.6e-4 0.3326,-9.6e-4 0.17289,0.006 0.34279,2.7e-4 0.51308,-0.0308 0.14864,-0.0328 0.29931,-0.0488 0.45093,-0.0587 0.0982,-0.006 0.19652,-0.006 0.29482,-0.007 0.0565,0 0.11307,3.4e-4 0.16953,4.9e-4 0.0462,9e-5 0.0926,-2e-5 0.13871,0 0.20025,1.1e-4 0.28256,-0.1666 0.24709,-0.30376 0.0997,-0.15207 0.21116,-0.29359 0.33409,-0.42856 0.17921,-0.21032 0.37388,-0.40822 0.57225,-0.60057 0.20549,-0.22153 0.4134,-0.4416 0.60704,-0.67367 0.17569,-0.1697 0.30235,-0.38015 0.45688,-0.56677 0.13108,-0.15602 0.27127,-0.303 0.40768,-0.4544 0.15898,-0.14022 0.29815,-0.29974 0.4564,-0.44049 0.15041,-0.15263 0.28972,-0.31583 0.43502,-0.4733 0.15454,-0.13664 0.27673,-0.30066 0.40271,-0.46286 0.13065,-0.17977 0.26806,-0.35417 0.4027,-0.53097 0.15632,-0.18731 0.30918,-0.37654 0.48424,-0.54689 0.1214,-0.1183 0.21507,-0.26087 0.28687,-0.41364 9.6e-4,-0.003 1e-5,-1.8e-4 9.6e-4,-0.003 0.0496,-0.003 0.0975,-0.0216 0.14219,-0.0482 0.0814,0.19923 0.18427,0.39038 0.28736,0.57869 0.14298,0.29617 0.27757,0.59551 0.44297,0.87999 0.15045,0.22365 0.31592,0.43475 0.4922,0.63836 0.12013,0.15756 0.25598,0.30202 0.38481,0.45242 0.14368,0.13176 0.29973,0.25206 0.43253,0.39525 0.15877,0.19867 0.31404,0.40098 0.47678,0.59659 0.15278,0.19669 0.28172,0.41017 0.40768,0.62495 0.15327,0.22208 0.2909,0.45423 0.44446,0.67613 0.10336,0.18766 0.27325,0.31029 0.42259,0.45591 0.0878,0.12279 0.18247,0.24072 0.27394,0.36094 0.0345,0.0448 0.0695,0.0896 0.10491,0.13374 0.007,0.009 0.0266,0.0333 0.0199,0.0248 -0.0429,-0.0542 -0.0307,-0.0431 0.005,0.0353 0.065,0.1087 0.15933,0.19193 0.24064,0.28686 0.0203,0.024 0.0396,0.0488 0.0576,0.0746 0.074,0.11738 0.18573,0.14272 0.2799,0.11286 0.2741,0.006 0.54686,-0.003 0.81983,-0.0284 0.33304,-0.0331 0.6611,-0.0974 0.99433,-0.13075 0.29103,-0.0102 0.57822,-0.0581 0.86705,-0.091 0.23894,-0.0493 0.4771,-0.0934 0.7204,-0.11337 0.23731,-0.0173 0.47563,-0.0175 0.71343,-0.0184 0.23407,0.0122 0.46343,-0.008 0.69404,-0.0457 0.1673,-0.0295 0.33666,-0.0392 0.50612,-0.0452 0.13802,-0.004 0.27609,-0.004 0.41414,-0.004 0.0829,1.4e-4 0.0425,-1.5e-4 0.1218,0 0.27902,5.5e-4 0.32918,-0.32232 0.15064,-0.43899 0.0546,-0.093 0.0503,-0.22071 -0.0686,-0.3162 -0.0863,-0.0686 -0.17861,-0.13161 -0.28139,-0.17301 -0.19651,-0.11096 -0.38331,-0.2384 -0.58467,-0.34106 -0.21408,-0.12642 -0.41692,-0.26927 -0.57671,-0.46285 -0.18699,-0.21554 -0.33974,-0.45576 -0.51307,-0.68211 -0.19369,-0.22056 -0.34178,-0.47512 -0.53098,-0.70002 -0.19135,-0.22501 -0.38482,-0.45007 -0.54986,-0.69504 -0.14418,-0.20777 -0.2883,-0.41689 -0.41762,-0.63338 -0.14279,-0.22917 -0.29439,-0.45274 -0.41016,-0.69752 -0.1392,-0.24744 -0.2627,-0.50356 -0.39078,-0.75669 -0.14844,-0.28898 -0.31102,-0.57076 -0.46683,-0.85563 -0.16728,-0.28302 -0.36227,-0.54547 -0.54589,-0.81734 -0.17239,-0.25569 -0.35737,-0.50197 -0.5434,-0.74773 -0.17383,-0.20963 -0.33696,-0.42796 -0.51706,-0.6324 -0.1896,-0.24063 -0.38343,-0.4783 -0.54439,-0.73978 -0.13769,-0.2287 -0.27646,-0.45907 -0.3858,-0.70299 0.20628,-0.21337 0.40744,-0.43132 0.612,-0.64632 0.37363,-0.3502 0.72828,-0.71947 1.08383,-1.08779 0.31988,-0.32263 0.654,-0.63006 0.98638,-0.93965 0.29666,-0.25533 0.57814,-0.52758 0.86756,-0.79099 0.28633,-0.25858 0.55047,-0.53995 0.81136,-0.8238 0.25434,-0.29612 0.49924,-0.60066 0.73034,-0.91528 0.1526,-0.19843 0.26672,-0.43088 0.43502,-0.61699 0.11304,-0.11888 0.23871,-0.22149 0.33211,-0.35696 0.0708,-0.0986 0.12945,-0.20542 0.20284,-0.30228 0.0564,-0.061 0.0964,-0.12996 0.12081,-0.2093 0.0448,-0.20395 -0.11507,-0.32119 -0.262,-0.30477 -0.14768,-0.0363 -0.084,-0.0284 -0.26798,-0.0273 -0.42283,0.0253 -0.8429,0.0299 -1.26479,-0.0218 -0.45813,-0.0204 -0.91534,-0.005 -1.37367,-0.008 -0.15178,-0.007 -0.23967,0.0855 -0.26051,0.19092 -0.0731,-0.0228 -0.15982,-0.0101 -0.24013,0.0612 -0.10797,0.0957 -0.21593,0.19166 -0.32216,0.28935 -0.24588,0.22917 -0.48821,0.46048 -0.74724,0.67514 -0.28603,0.25518 -0.55338,0.53239 -0.79497,0.83027 -0.28106,0.33513 -0.55616,0.67497 -0.84469,1.00378 -0.37538,0.38867 -0.77045,0.75801 -1.13651,1.15591 -0.24564,0.26343 -0.47917,0.53744 -0.7214,0.80392 -0.0539,-0.0785 -0.10408,-0.16036 -0.15909,-0.23765 -0.17455,-0.23353 -0.32241,-0.48299 -0.48374,-0.72586 -0.19383,-0.25471 -0.40756,-0.49288 -0.62841,-0.72437 -0.29363,-0.32474 -0.58346,-0.65454 -0.84569,-1.00527 -0.34354,-0.45821 -0.63945,-0.94844 -0.94958,-1.42935 -0.24319,-0.38945 -0.52341,-0.76522 -0.71194,-1.18425 -0.0292,-0.14592 -0.13591,-0.20989 -0.24113,-0.20782 z m -0.17003,0.64532 c 0.0344,-5e-5 0.068,0.005 0.0994,0.0169 0.1784,0.34193 0.41215,0.6586 0.6155,0.98439 0.31625,0.49304 0.62203,0.99279 0.97246,1.46266 0.27115,0.36268 0.57096,0.70372 0.87451,1.03958 0.21045,0.22214 0.41711,0.44809 0.60157,0.69255 0.15754,0.24392 0.30785,0.49066 0.48176,0.72337 0.10779,0.17126 0.22165,0.3371 0.36193,0.48325 0.0488,0.0557 0.0255,0.0284 0.0706,0.083 0.1974,0.23785 0.51969,0.006 0.41415,-0.23516 0.26153,-0.28146 0.50822,-0.57638 0.7706,-0.85711 0.3645,-0.39554 0.75726,-0.76311 1.13105,-1.14945 0.29732,-0.33615 0.5792,-0.68588 0.86755,-1.02963 0.22778,-0.27805 0.4751,-0.54187 0.74526,-0.77906 0.26182,-0.21741 0.50662,-0.45162 0.75569,-0.6831 0.10342,-0.0951 0.20863,-0.18822 0.31371,-0.2814 0.0499,-0.0443 0.0774,-0.094 0.088,-0.14319 0.022,0.007 0.0458,0.0103 0.0721,0.0114 0.45811,0.006 0.91528,-0.0128 1.37318,0.008 0.38394,0.0464 0.76698,0.0478 1.15142,0.0298 -0.0214,0.0326 -0.0423,0.0655 -0.0647,0.0974 -0.0356,0.0974 -0.23138,0.20215 -0.28885,0.2993 -0.1712,0.20204 -0.30631,0.43252 -0.45987,0.64781 -0.22002,0.30074 -0.45482,0.591 -0.69653,0.87451 -0.25123,0.27334 -0.50571,0.5441 -0.78155,0.79298 -0.29075,0.26468 -0.5735,0.53839 -0.87153,0.79496 -0.33861,0.3154 -0.6785,0.62877 -1.00428,0.95755 -0.35636,0.36916 -0.71218,0.73892 -1.0863,1.09029 -0.30214,0.31755 -0.60661,0.63357 -0.90086,0.95803 -0.13581,0.22634 0.0823,0.42507 0.26847,0.36691 0.10359,0.20677 0.22357,0.40562 0.34254,0.60355 0.17092,0.27906 0.37662,0.53353 0.5787,0.79 0.18246,0.20763 0.3483,0.42855 0.52451,0.64135 0.1758,0.23361 0.35166,0.46733 0.51507,0.70995 0.17737,0.26446 0.36839,0.51735 0.52998,0.79248 0.15041,0.27676 0.31019,0.54923 0.45291,0.83027 0.13077,0.25879 0.258,0.5204 0.39972,0.77359 0.1194,0.25108 0.27457,0.48101 0.4211,0.71641 0.13527,0.2222 0.28242,0.43859 0.43104,0.65278 0.17466,0.25744 0.37731,0.49582 0.57871,0.73282 0.18651,0.22966 0.34125,0.48051 0.53495,0.70399 0.16778,0.22957 0.32558,0.46482 0.51108,0.68062 0.19387,0.23289 0.43762,0.40876 0.69603,0.56229 0.20396,0.10466 0.39393,0.23323 0.59312,0.34603 0.0209,0.008 0.0398,0.0194 0.0597,0.0293 -0.0589,5.5e-4 -0.11765,9.6e-4 -0.17649,0.003 -0.18972,0.007 -0.37945,0.0189 -0.56677,0.0517 -0.20573,0.0337 -0.40938,0.0516 -0.61848,0.0392 -0.25056,8.9e-4 -0.50119,9.6e-4 -0.75121,0.0199 -0.24801,0.021 -0.49233,0.0609 -0.73531,0.11485 -0.28671,0.0328 -0.57118,0.08 -0.86009,0.09 -0.33231,0.0336 -0.66042,0.0963 -0.99235,0.13076 -0.24349,0.0232 -0.48647,0.0306 -0.73083,0.0268 -0.006,-0.007 -0.0114,-0.0143 -0.0174,-0.0214 -0.0486,-0.0558 -0.11849,-0.14287 -0.17101,-0.19241 -0.003,-0.003 -3e-5,0.008 0,0.0119 -0.0573,-0.0967 -0.0982,-0.19624 -0.18048,-0.27692 -0.10708,-0.14042 -0.21364,-0.28087 -0.32465,-0.41811 -0.12973,-0.12148 -0.27148,-0.22051 -0.35845,-0.38133 -0.1469,-0.21197 -0.27752,-0.43429 -0.42508,-0.64582 -0.13943,-0.23702 -0.28332,-0.47273 -0.45342,-0.68906 -0.16947,-0.2034 -0.32903,-0.41464 -0.49666,-0.61947 -0.12944,-0.13471 -0.27259,-0.26097 -0.41713,-0.37785 -0.12963,-0.15133 -0.26595,-0.29632 -0.38679,-0.4549 -0.15756,-0.18036 -0.3029,-0.36797 -0.43949,-0.56479 -0.16374,-0.2807 -0.29341,-0.57777 -0.43702,-0.86904 -0.12504,-0.22747 -0.25003,-0.45884 -0.32911,-0.70697 0.0204,-0.16671 -0.14304,-0.34316 -0.35548,-0.24262 -0.0224,0.011 -0.0439,0.0232 -0.0651,0.0363 -0.0673,0.0418 -0.13711,0.0862 -0.1934,0.14269 -0.0413,0.006 -0.0822,0.0144 -0.12081,0.0308 -0.12545,0.0594 -0.17728,0.12537 -0.22919,0.24958 -0.0454,0.0978 -0.10544,0.18913 -0.18296,0.2645 -0.19006,0.18796 -0.36069,0.39244 -0.52998,0.59908 -0.13344,0.17572 -0.27044,0.34856 -0.40022,0.527 -0.11781,0.15191 -0.22897,0.30547 -0.37585,0.43154 -0.13468,0.14601 -0.26517,0.29621 -0.40172,0.44048 -0.17102,0.1528 -0.32342,0.3235 -0.49367,0.47729 -0.14173,0.15735 -0.28645,0.31105 -0.4231,0.4728 -0.15097,0.18773 -0.28138,0.39241 -0.4539,0.56279 -0.18177,0.21961 -0.37993,0.42557 -0.57224,0.63587 -0.20549,0.19949 -0.40691,0.40489 -0.59312,0.62246 -0.16154,0.17819 -0.3091,0.36754 -0.43104,0.57472 -0.0343,-1.4e-4 -0.0687,-5e-4 -0.10292,-5e-4 -0.10869,1.1e-4 -0.21713,6.2e-4 -0.32565,0.008 -0.1704,0.0112 -0.34044,0.029 -0.5076,0.0651 -0.14123,0.0268 -0.28179,0.0272 -0.42557,0.0234 -0.11304,1e-4 -0.22603,-2.2e-4 -0.33907,0.002 -0.13566,0.002 -0.27101,0.005 -0.40668,0.003 -0.13789,-0.002 -0.28025,0.002 -0.41663,-0.0239 0.18155,-0.25029 0.39307,-0.47713 0.60207,-0.70449 0.41863,-0.48643 0.84717,-0.96101 1.29462,-1.4209 0.43539,-0.45606 0.86232,-0.91921 1.27771,-1.39355 0.35862,-0.41029 0.73417,-0.80465 1.09427,-1.21358 0.277,-0.29511 0.53172,-0.61403 0.82231,-0.89589 0.24783,-0.24037 0.46071,-0.51172 0.69553,-0.76415 0.15901,-0.1814 0.34408,-0.3354 0.49766,-0.52152 0.15022,-0.14325 0.26314,-0.31369 0.37139,-0.48922 0.0305,-0.0498 0.0604,-0.0998 0.09,-0.15014 0.14947,-0.2545 -0.14303,-0.47127 -0.33558,-0.33261 -0.0324,-0.10835 -0.0881,-0.20264 -0.16656,-0.28636 -0.10014,-0.1043 -0.21427,-0.19207 -0.28935,-0.31918 -0.17017,-0.20889 -0.36468,-0.3971 -0.52749,-0.61251 -0.22822,-0.23745 -0.45181,-0.48057 -0.66421,-0.73232 -0.27173,-0.29309 -0.49875,-0.62158 -0.71046,-0.96003 -0.24096,-0.33795 -0.51428,-0.65119 -0.81385,-0.93865 -0.36129,-0.37112 -0.68508,-0.77438 -1.00528,-1.18076 -0.37853,-0.43588 -0.77833,-0.85591 -1.10221,-1.33589 -0.34016,-0.46828 -0.67845,-0.93793 -1.03758,-1.39207 -0.20739,-0.26349 -0.40695,-0.53262 -0.615,-0.79546 0.30723,2.4e-4 0.61462,-9.5e-4 0.92175,-0.0119 0.6128,-0.0593 1.22687,-0.10316 1.83951,-0.16357 0.50673,-0.0562 1.01277,-0.12281 1.51685,-0.19936 0.40963,-0.0588 0.81664,-0.12803 1.229,-0.16606 0.0582,-5.9e-4 0.12303,-0.0139 0.18544,-0.0139 z m -0.63835,1.0167 c -0.0344,9.6e-4 -0.0712,0.01 -0.10988,0.0273 0.0346,0.004 0.0177,8e-4 -0.0487,0.0134 -0.11687,0.0223 -0.23385,0.0452 -0.3505,0.0686 -0.0577,0.0116 -0.11528,0.0231 -0.17301,0.0348 -0.31848,0.067 -0.6376,0.11061 -0.96153,0.14168 -0.2071,0.0345 -0.25558,0.22817 -0.18395,0.35846 -0.12356,0.05 -0.20856,0.19484 -0.11186,0.35647 0.19634,0.36289 0.42783,0.70213 0.69553,1.01571 0.30172,0.31005 0.57341,0.64754 0.86159,0.96997 0.29274,0.29824 0.56439,0.61373 0.83723,0.9297 0.21109,0.29941 0.44884,0.57722 0.68907,0.85313 0.18757,0.22767 0.38001,0.4505 0.57522,0.67168 0.22866,0.20989 0.4454,0.43456 0.64134,0.67565 0.17961,0.21785 0.34325,0.44761 0.53247,0.65725 0.16915,0.21112 0.3221,0.43442 0.48822,0.6478 0.15415,0.21925 0.34192,0.41091 0.51705,0.61301 0.17777,0.25655 0.34341,0.52201 0.49766,0.79348 0.17122,0.24438 0.29267,0.51662 0.44397,0.77309 0.13641,0.24559 0.30742,0.46927 0.46883,0.69852 0.15472,0.21871 0.32627,0.42417 0.46634,0.65277 0.19796,0.28248 0.36428,0.58577 0.54241,0.88098 0.173,0.28924 0.39225,0.54357 0.60306,0.80491 0.17134,0.1861 0.3379,0.37807 0.48423,0.58467 0.1436,0.19361 0.30446,0.37123 0.44995,0.56279 0.13089,0.20607 0.29406,0.38359 0.4723,0.54887 0.1019,0.135 0.21924,0.26066 0.34454,0.37437 0.0178,0.0198 0.0352,0.0391 0.0527,0.0587 -0.10254,0.17499 0.0614,0.43713 0.31271,0.33658 0.008,-0.003 0.0163,-0.005 0.0243,-0.007 0.12774,0.22906 0.44166,0.12661 0.44993,-0.0965 0.10773,-0.0206 0.21486,-0.043 0.32068,-0.0746 0.11863,-0.0319 0.23113,-0.0836 0.34702,-0.1238 0.005,0.007 0.0103,0.0132 0.0154,0.0199 0.004,0.005 0.008,0.01 0.0114,0.0149 0.20572,0.27088 0.58903,-0.0199 0.38332,-0.29085 -0.004,-0.005 -0.008,-0.0102 -0.0119,-0.0154 -0.0637,-0.0836 -0.12757,-0.16717 -0.19339,-0.24908 -0.11361,-0.12379 -0.2438,-0.23128 -0.34305,-0.3684 -0.16377,-0.21755 -0.32586,-0.43383 -0.45889,-0.67266 -0.18336,-0.2757 -0.34753,-0.56374 -0.56925,-0.81238 -0.22039,-0.28351 -0.4452,-0.56311 -0.63388,-0.86954 -0.22999,-0.34843 -0.41448,-0.7248 -0.66223,-1.06194 -0.20039,-0.29498 -0.39726,-0.59226 -0.59809,-0.88694 -0.17886,-0.28434 -0.35677,-0.56959 -0.55583,-0.84021 -0.21432,-0.29374 -0.42392,-0.59097 -0.63339,-0.88794 -0.19496,-0.22819 -0.36889,-0.47293 -0.55484,-0.70846 -0.19408,-0.26693 -0.37348,-0.5442 -0.52848,-0.83573 -0.16727,-0.27994 -0.34206,-0.55479 -0.54539,-0.81039 -0.18047,-0.23136 -0.35457,-0.46915 -0.57373,-0.66669 -0.20737,-0.17199 -0.38266,-0.3766 -0.56379,-0.57523 -0.20097,-0.24749 -0.40046,-0.49683 -0.57721,-0.76264 -0.2498,-0.36701 -0.49587,-0.73986 -0.79994,-1.06493 -0.32619,-0.32871 -0.6132,-0.68969 -0.88246,-1.06642 -0.23127,-0.33947 -0.46603,-0.67653 -0.70399,-1.01124 0.11487,-0.15286 -9.6e-4,-0.3879 -0.19936,-0.38034 z m -0.25456,0.55087 c 0.01,0.026 0.0221,0.0519 0.0418,0.078 0.24321,0.34177 0.48222,0.68684 0.71841,1.0336 0.28548,0.40125 0.5918,0.78402 0.93814,1.13404 0.28165,0.3055 0.51112,0.65453 0.74426,0.99731 0.18434,0.27703 0.39211,0.53693 0.60157,0.79498 0.19901,0.22397 0.39903,0.44697 0.62792,0.64084 0.19109,0.17782 0.34398,0.3887 0.50363,0.59361 0.19127,0.23987 0.35462,0.49818 0.51159,0.76117 0.16188,0.30409 0.35031,0.59275 0.55234,0.87153 0.19222,0.24624 0.37596,0.49925 0.57771,0.7378 0.1995,0.28951 0.40375,0.57541 0.61102,0.85959 0.19279,0.26152 0.36447,0.53783 0.53744,0.81287 0.20358,0.29962 0.40402,0.60118 0.60753,0.90086 0.24486,0.33614 0.43092,0.70857 0.65825,1.05598 0.19601,0.3168 0.42757,0.6073 0.65576,0.90086 0.21387,0.23946 0.37258,0.51673 0.54837,0.78304 0.1381,0.2466 0.30596,0.47006 0.47479,0.69553 0.0529,0.0786 0.11826,0.1464 0.18545,0.2123 -0.0496,0.0183 -0.099,0.0363 -0.14965,0.0517 -0.15944,0.0504 -0.32523,0.0733 -0.48921,0.10341 -0.0129,-0.0122 -0.0273,-0.0221 -0.0393,-0.0358 -0.0505,-0.0431 -0.11153,-0.13655 -0.1745,-0.18693 -0.12852,-0.1023 -0.22535,-0.24486 -0.33509,-0.36541 -0.15836,-0.14626 -0.30094,-0.30322 -0.41613,-0.48673 -0.1429,-0.18761 -0.29875,-0.36301 -0.44099,-0.55136 -0.153,-0.21338 -0.32255,-0.41513 -0.50163,-0.60704 -0.19717,-0.24443 -0.40372,-0.48131 -0.56578,-0.75171 -0.17898,-0.29645 -0.34578,-0.60113 -0.5444,-0.88495 -0.14644,-0.23626 -0.32039,-0.45177 -0.48274,-0.67715 -0.1541,-0.21854 -0.31783,-0.43151 -0.44795,-0.6657 -0.15,-0.25425 -0.26969,-0.52464 -0.43999,-0.76663 -0.17033,-0.29847 -0.35094,-0.59262 -0.55235,-0.87104 -0.17013,-0.1958 -0.3518,-0.38098 -0.50115,-0.59361 -0.17423,-0.22162 -0.33191,-0.45664 -0.51108,-0.67465 -0.18449,-0.20303 -0.3407,-0.42834 -0.51656,-0.63886 -0.20097,-0.24432 -0.41837,-0.47782 -0.65327,-0.68957 -0.19462,-0.22022 -0.38639,-0.44232 -0.57324,-0.66918 -0.23993,-0.27544 -0.47571,-0.5535 -0.68757,-0.85165 -0.27484,-0.31781 -0.54795,-0.63615 -0.8427,-0.93616 -0.28619,-0.32005 -0.55585,-0.65491 -0.85562,-0.96251 -0.25175,-0.29023 -0.46108,-0.61016 -0.64532,-0.94711 0.31699,-0.0303 0.62968,-0.0756 0.94163,-0.14119 0.10779,-0.0277 0.21862,-0.0447 0.32862,-0.0642 z m 1.67894,7.64292 c -0.002,0.0109 -0.002,0.0209 -0.004,0.0314 1e-5,-0.003 -9e-5,-0.006 0,-0.008 9.6e-4,-0.008 0.002,-0.0159 0.004,-0.0239 z" /><path
       style="fill:#000000;stroke:none;stroke-width:0.944883;stroke-linejoin:bevel"
       d="M 53.009157,67.985823 C 52.434943,67.235988 51.445175,66.016303 50.809668,65.275411 50.17416,64.534516 48.765786,62.601805 47.679942,60.9805 46.594099,59.359196 44.411223,56.638873 42.829106,54.935344 40.797699,52.748046 39.483224,50.895107 38.355241,48.6288 c -0.976028,-1.961004 -1.755997,-3.111127 -2.005337,-2.95703 -0.532188,0.328914 -2.033815,2.050294 -4.022382,4.611039 -0.878207,1.130896 -2.959495,3.498834 -4.625085,5.26209 -5.381538,5.697091 -9.643714,10.582924 -9.961727,11.41936 -0.277758,0.730559 -0.67576,0.842677 -3.791623,1.068101 -1.91471,0.138522 -4.6589175,0.197063 -6.0982396,0.130088 -2.6056039,-0.121243 -2.6173816,-0.126634 -2.7167001,-1.24332 -0.083749,-0.941627 0.3960498,-1.67229 2.990799,-4.554553 4.8094167,-5.342337 13.1260047,-14.442909 17.6236657,-19.285012 3.664684,-3.945332 4.046744,-4.485496 3.701937,-5.233899 -0.211469,-0.45899 -1.93615,-2.600967 -3.832626,-4.75995 C 23.721448,30.926731 21.53126,28.228235 20.750839,27.089055 19.970418,25.949876 19.039078,24.774806 18.681195,24.47779 16.352073,22.54479 2.3579664,4.6995027 2.2817108,3.565164 2.2494333,3.0850208 3.1016947,2.949997 7.4769976,2.7420745 10.355642,2.6052759 14.813801,2.2166846 17.384019,1.8785381 19.954237,1.5403916 22.898305,1.1665572 23.926392,1.0477949 24.954479,0.92903265 26.030388,0.6458564 26.317301,0.41851432 26.716469,0.1022236 26.935929,0.16921851 27.251926,0.70382997 30.075344,5.4805566 33.76222,10.868973 35.797107,13.192719 c 1.388457,1.585554 3.310413,4.025403 4.271016,5.421886 l 1.746548,2.53906 4.048391,-4.283648 c 2.226616,-2.356007 4.868647,-5.265024 5.871185,-6.464484 2.073372,-2.480636 7.621113,-7.6016589 8.235079,-7.6016589 0.224086,0 0.407429,-0.1682325 0.407429,-0.3738499 0,-0.477041 11.190056,-0.4967637 11.941939,-0.021048 0.682815,0.4320132 0.252585,1.4590259 -1.517864,3.6233427 -0.695615,0.850366 -2.254782,2.8264673 -3.464822,4.3913361 -1.210036,1.564869 -4.490569,4.932904 -7.290072,7.484523 -4.86849,4.437407 -10.510827,10.171131 -10.510827,10.681067 0,0.508427 2.527752,4.401647 4.148462,6.38943 3.062612,3.756247 5.077102,6.823129 7.679475,11.691319 1.520298,2.843977 4.201957,6.967811 6.583063,10.12338 3.548942,4.703241 4.305674,5.492939 6.484901,6.767401 2.363086,1.381981 3.570629,2.893179 2.870939,3.592869 -0.164831,0.164831 -2.820742,0.476752 -5.902028,0.693167 -3.08129,0.21641 -7.368783,0.637642 -9.527766,0.936064 -2.158983,0.298421 -4.801474,0.547918 -5.872199,0.554434 -1.805556,0.01099 -2.022505,-0.08705 -2.990799,-1.351486 z m 10.896618,-0.884174 c 3.277478,-0.408812 7.094837,-0.743296 8.483024,-0.743296 1.388187,0 2.614508,-0.146485 2.725163,-0.325526 C 75.224614,65.853787 74.3345,65.102008 73.135934,64.362212 70.151124,62.51988 63.928905,54.278868 59.88361,46.810177 58.266777,43.825075 55.66369,39.748971 54.05873,37.689152 52.462787,35.640914 50.599396,33.136353 49.917856,32.123461 49.236313,31.11057 48.333899,30.004035 47.912484,29.664495 c -0.754081,-0.607578 -0.722378,-0.665964 2.003922,-3.690191 1.523573,-1.690065 4.96307,-5.088669 7.643327,-7.552452 C 63.899573,12.59406 66.26224,9.9925549 70.422838,4.2584634 70.919169,3.574428 70.768085,3.5517686 65.749715,3.5575928 l -5.186035,0.00602 -3.551574,3.4561165 C 52.183293,11.718754 43.078063,21.684168 42.713833,22.668781 c -0.291027,0.786717 -0.30898,0.78828 -1.08206,0.09418 C 41.199404,22.374759 40.212971,21.128189 39.4397,19.992802 38.666427,18.857414 36.8033,16.502219 35.299417,14.759035 33.795534,13.01585 31.18621,9.4733305 29.500917,6.8867697 L 26.43675,2.1839314 24.246946,2.4511162 C 23.042554,2.5980678 19.870121,2.9966779 17.197094,3.3369163 14.524068,3.6771549 10.526006,4.0749315 8.312512,4.2208649 L 4.2879779,4.4861985 8.0751263,9.5331719 C 11.873443,14.595028 18.584263,22.71884 19.802744,23.73009 c 0.357883,0.297017 1.286113,1.472086 2.062733,2.611265 1.836128,2.693314 8.54647,10.217903 9.421096,10.564274 1.495046,0.592067 1.476842,0.614498 -15.049381,18.542847 -6.5470155,7.102482 -9.6948191,10.686154 -9.6948191,11.037244 0,0.187894 2.1344024,0.268391 4.8625401,0.183392 4.62729,-0.144175 4.892966,-0.194944 5.491443,-1.049389 0.755476,-1.078594 5.510593,-6.392859 9.68032,-10.818617 1.663275,-1.765401 3.989786,-4.437217 5.170025,-5.93736 2.626027,-3.337818 4.56587,-5.310235 5.222537,-5.310235 0.271673,0 1.336279,1.724382 2.365788,3.831961 1.4385,2.944842 2.526227,4.539326 4.698504,6.887463 1.554666,1.680522 3.854935,4.540474 5.111706,6.355447 1.256771,1.814971 2.975778,4.183168 3.820013,5.262659 1.457768,1.863989 1.621652,1.962491 3.258229,1.958308 0.947788,-0.0022 4.404822,-0.338887 7.682297,-0.7477 z"
       id="path22"
       transform="matrix(0.26458333,0,0,0.26458333,116.16198,111.59145)" /><path
       style="fill:#000000;stroke:none;stroke-width:0.944883;stroke-linejoin:bevel"
       d="M 22.348483,2.8564467 C 16.6023,3.5541975 10.844041,4.4633537 5.0498941,4.4730554 c 0.6778505,2.1087164 2.8646152,4.0958104 4.1897985,6.1383436 3.7799444,5.12289 8.0427024,9.854585 12.1855034,14.66532 3.146705,3.995747 6.191793,8.255324 10.141023,11.482508 1.4184,0.789121 -0.401049,2.61532 -1.052071,3.422031 -7.722418,8.72179 -15.739546,17.177396 -23.509574,25.856549 1.8045647,0.782999 4.507528,0.275363 6.684027,0.474614 1.679415,0.332595 2.948049,-0.654036 3.753991,-2.028334 5.692039,-6.515063 11.69202,-12.777823 17.205698,-19.450512 0.787535,-0.82121 2.741263,-2.567287 3.471985,-0.911988 1.64909,6.153371 6.999357,10.304237 10.523288,15.359974 2.056122,2.636957 3.619375,5.861427 6.335735,7.880052 3.557376,0.927567 7.270927,-0.582948 10.873008,-0.638584 2.918235,-0.304811 5.848448,-0.464179 8.776014,-0.647983 C 74.406362,64.880502 72.304051,64.51939 71.489297,63.412824 65.388564,57.413931 61.26315,49.849554 57.072973,42.494218 54.057533,37.787101 50.485073,33.424404 47.132832,28.993811 52.486011,22.553518 59.045906,17.110202 64.762265,10.971844 66.71006,8.7276204 68.326684,6.2107643 70.38527,4.059776 68.462149,3.2858899 65.609012,3.9414809 63.323014,3.7253556 60.782364,2.9610262 59.414959,5.1295544 57.820804,6.663612 52.65929,11.875299 47.372361,17.058789 42.927021,22.899035 42.400375,24.275289 41.079601,22.530213 40.619666,21.933743 35.860255,15.725589 30.688336,9.8173614 26.655774,3.0781499 26.034286,1.4718787 23.598581,3.0628148 22.348483,2.8564467 Z m 1.187265,3.6085277 c 1.648277,-0.1071331 1.139211,2.1525939 2.200749,2.9214323 4.478525,6.2675323 9.297078,12.2937513 14.333733,18.1171743 6.170985,8.77729 12.330176,17.567132 18.242022,26.525813 1.627189,2.858422 4.278046,5.100011 5.607314,8.101973 -0.117531,0.927873 -1.992844,0.123991 -2.651997,0.498709 -1.171493,-0.167964 -1.750179,0.920792 -2.660761,1.222317 C 56.249404,63.568626 55.663364,60.628596 54.073755,59.274242 48.187537,52.269716 43.333799,44.496106 38.332025,36.857071 31.927359,28.237014 24.444091,20.497646 17.698025,12.164978 17.004189,11.095302 15.667446,9.6928682 16.757529,8.4744175 16.8862,6.5889613 19.609979,7.3529916 20.850893,6.7862516 21.740137,6.6445644 22.632831,6.4787036 23.535748,6.4649744 Z"
       id="path23"
       transform="matrix(0.26458333,0,0,0.26458333,116.16198,111.59145)" /></g></svg>
