<?xml version="1.0" encoding="UTF-8" standalone="no"?>
<!-- Created with Inkscape (http://www.inkscape.org/) -->

<svg
   xmlns:dc="http://purl.org/dc/elements/1.1/"
   xmlns:cc="http://creativecommons.org/ns#"
   xmlns:rdf="http://www.w3.org/1999/02/22-rdf-syntax-ns#"
   xmlns:svg="http://www.w3.org/2000/svg"
   xmlns="http://www.w3.org/2000/svg"
   xmlns:sodipodi="http://sodipodi.sourceforge.net/DTD/sodipodi-0.dtd"
   xmlns:inkscape="http://www.inkscape.org/namespaces/inkscape"
   version="1.1"
   id="svg2"
   xml:space="preserve"
   width="82.593018"
   height="81.336792"
   viewBox="0 0 82.593018 81.336789"
   sodipodi:docname="logo_location.svg"
   inkscape:version="0.92.4 (5da689c313, 2019-01-14)"><metadata
     id="metadata8"><rdf:RDF><cc:Work
         rdf:about=""><dc:format>image/svg+xml</dc:format><dc:type
           rdf:resource="http://purl.org/dc/dcmitype/StillImage" /><dc:title></dc:title></cc:Work></rdf:RDF></metadata><defs
     id="defs6" /><sodipodi:namedview
     pagecolor="#ffffff"
     bordercolor="#666666"
     borderopacity="1"
     objecttolerance="10"
     gridtolerance="10"
     guidetolerance="10"
     inkscape:pageopacity="0"
     inkscape:pageshadow="2"
     inkscape:window-width="1920"
     inkscape:window-height="1053"
     id="namedview4"
     showgrid="false"
     inkscape:snap-global="false"
     inkscape:zoom="3.3634202"
     inkscape:cx="123.13164"
     inkscape:cy="43.566762"
     inkscape:window-x="0"
     inkscape:window-y="27"
     inkscape:window-maximized="1"
     inkscape:current-layer="g4347"
     fit-margin-top="0"
     fit-margin-left="0"
     fit-margin-right="0"
     fit-margin-bottom="0"
     inkscape:pagecheckerboard="true" /><g
     id="g10"
     inkscape:groupmode="layer"
     inkscape:label="WCM0086"
     transform="matrix(1.3333333,0,0,-1.3333333,-287.71041,645.50092)"><g
       id="g4347"
       transform="matrix(2.068736,0,0,-2.068736,-46.449328,1166.8835)"><g
         transform="translate(-203.92665,58.532027)"
         id="g4208"><path
           d="m 346.50757,300.91517 c 0,0 -0.10781,0.0767 -0.17,0.0769 -0.07,2.2e-4 -0.15096,-0.056 -0.1875,-0.11247 -0.11615,-0.17971 0.0262,-0.37974 0.125,-0.52502 0,0 -0.003,-0.008 -0.004,-0.0125 -0.002,-0.006 -0.11591,-0.13225 -0.17282,-0.19527 -0.11373,-0.12592 -0.24655,-0.25914 -0.35341,-0.37132 -0.29688,-0.31173 -0.57937,-0.55031 -0.85236,-0.89155 -0.18656,-0.23319 -0.30873,-0.5314 -0.536,-0.72936 -0.30535,-0.26597 -0.61606,-0.45962 -0.88124,-0.77498 -0.31027,-0.36901 -0.62131,-0.80434 -0.93221,-1.1774 -0.13049,-0.1566 -0.21183,-0.34938 -0.33655,-0.51009 -0.42575,-0.54874 -0.97553,-0.99288 -1.3625,-1.57502 -0.37358,-0.56197 -0.5781,-1.2218 -0.89999,-1.8125 -0.13382,-0.24557 -0.2892,-0.38165 -0.46251,-0.61874 -0.20207,-0.27647 -0.40315,-0.58528 -0.575,-0.88126 -0.55026,-0.94778 -0.89039,-2.04173 -1.23196,-3.07679 -0.0856,-0.2595 -0.24097,-0.48419 -0.31804,-0.74821 -0.14194,-0.48625 -0.27895,-1.00312 -0.34375,-1.50624 -0.0226,-0.17576 -0.015,-0.34649 -0.0562,-0.51877 -0.0492,-0.20526 -0.13864,-0.4009 -0.1875,-0.60622 -0.16793,-0.70569 -0.21473,-1.4033 -0.29376,-2.11878 -0.0337,-0.30465 -0.10482,-0.66828 -0.12499,-0.97499 -0.0372,-0.56469 0.0902,-1.11648 0.0937,-1.675 0.003,-0.44939 -0.0612,-0.90195 0.025,-1.35 0.10628,-0.55219 0.33022,-1.02109 0.59374,-1.50624 0.26788,-0.49319 0.48114,-0.98629 0.81251,-1.44376 0.36214,-0.49997 0.71675,-1.0357 1.21874,-1.41251 0.27903,-0.20944 0.56021,-0.32452 0.85625,-0.49999 0.25657,-0.15208 0.48825,-0.33708 0.75626,-0.46875 0.51708,-0.25403 1.06843,-0.47555 1.60812,-0.67437 1.0215,-0.37636 2.03848,-0.69742 3.13563,-0.71938 0.35873,-0.007 0.66954,0.0688 1.025,0.10001 0.31676,0.0278 0.65455,-0.005 0.96249,0.0937 0.58553,0.18815 1.15829,0.45213 1.72226,0.68962 0.54638,0.23007 1.15173,0.34817 1.659,0.66663 0.60396,0.37913 1.28186,0.84241 1.75625,1.37498 0.66195,0.74315 1.09435,1.56113 1.5125,2.45627 0.19723,0.42222 0.46386,0.81661 0.59375,1.26874 0.1466,0.51026 0.1412,1.06656 0.16692,1.59375 0.0361,0.73918 0.0723,1.46597 0.0643,2.20625 -0.005,0.49309 0.0768,0.99663 0.0563,1.48749 -0.004,0.10667 -0.04,0.21211 -0.0438,0.31876 -0.0148,0.42056 0.077,0.83853 0.025,1.2625 -0.0494,0.40307 -0.21586,0.78449 -0.32016,1.17559 -0.16717,0.62694 -0.27921,1.27858 -0.54859,1.87441 -0.16655,0.36839 -0.36476,0.6682 -0.5125,1.04376 -0.0929,0.23625 -0.14283,0.48955 -0.2375,0.72498 -0.11311,0.28133 -0.25355,0.44952 -0.40625,0.71875 -0.19383,0.34175 -0.32127,0.72733 -0.525,1.06249 -0.0875,0.14405 -0.21398,0.26573 -0.30624,0.40626 -0.28107,0.42814 -0.54962,0.87372 -0.81775,1.31151 -0.0786,0.12831 -0.12115,0.27643 -0.19476,0.40725 -0.21831,0.38805 -0.50608,0.74091 -0.73125,1.125 -0.16869,0.28775 -0.28959,0.60362 -0.4875,0.87501 -0.0895,0.12275 -0.20535,0.22649 -0.29375,0.34998 -0.0985,0.13759 -0.151,0.29955 -0.2375,0.44377 -0.16627,0.27716 -0.38371,0.52154 -0.54999,0.79999 -0.22755,0.38103 -0.42795,0.78324 -0.66876,1.15624 -0.11104,0.17202 -0.27588,0.3264 -0.38125,0.49999 -0.28578,0.47086 -0.51643,1.00229 -0.86481,1.43265 -0.004,0.005 -0.007,0.11536 -0.0233,0.16738 -0.0266,0.0842 -0.12907,0.17497 -0.22226,0.17497 -0.008,0 -0.0139,0.008 -0.0167,0.0125 -0.004,0.006 -0.0467,0.0702 -0.0725,0.0984 -0.058,0.0632 -0.0932,0.0775 -0.18164,0.10406 l 0.1575,-0.0731 z m -1.08875,-28.90971 c 0,0 -0.2875,0.0416 -0.43125,0.0624 -0.25557,0.037 -0.51281,0.0358 -0.76875,0.0747 -0.3483,0.053 -0.70054,0.19338 -1.02685,0.30026 -0.33787,0.1107 -0.73775,0.23125 -1.06993,0.38366 -0.39957,0.18334 -0.83032,0.32958 -1.22197,0.52802 -0.2379,0.12056 -0.4707,0.30989 -0.69375,0.44375 -0.27101,0.16263 -0.58055,0.29094 -0.83125,0.4875 -0.83898,0.65785 -1.40021,1.69854 -1.85841,2.63486 -0.22822,0.46634 -0.46472,0.89083 -0.56034,1.41516 -0.0752,0.4122 -0.008,0.83087 -0.0125,1.24374 -0.006,0.55604 -0.13404,1.10796 -0.0937,1.66874 0.0164,0.22832 0.0731,0.45348 0.1,0.68127 0.0921,0.77863 0.12254,1.54443 0.30625,2.31248 0.0491,0.20528 0.13892,0.40088 0.1875,0.60627 0.0445,0.18821 0.0431,0.37756 0.0688,0.56874 0.0648,0.48272 0.19104,0.97811 0.33125,1.44375 0.0694,0.23037 0.19833,0.42694 0.2875,0.65 0.30492,0.76275 0.51068,1.56903 0.8375,2.32499 0.23198,0.53658 0.56231,1.06288 0.90625,1.53751 0.17983,0.24817 0.35029,0.40286 0.49375,0.66249 0.33707,0.61004 0.54703,1.29458 0.9375,1.87501 0.36568,0.5436 0.89242,0.96013 1.29375,1.475 0.42954,0.55104 0.80802,1.14603 1.2625,1.68125 0.28987,0.34137 0.69872,0.53806 0.98125,0.87501 0.26629,0.31757 0.45302,0.6804 0.73125,0.99374 0.31388,0.35346 0.68569,0.66555 1.01434,1.0079 0.004,0.005 0.0423,-0.0586 0.0603,-0.0908 0.0551,-0.0983 0.11045,-0.21359 0.17806,-0.31036 0.29408,-0.42094 0.50065,-0.85225 0.82363,-1.25246 0.28362,-0.35142 0.46719,-0.81668 0.69863,-1.20428 0.16809,-0.28153 0.3885,-0.53138 0.55626,-0.8125 0.0681,-0.11414 0.11183,-0.24301 0.18125,-0.35625 0.11854,-0.19337 0.30586,-0.33906 0.41905,-0.53258 0.13969,-0.23882 0.243,-0.47689 0.38094,-0.7174 0.30112,-0.52508 0.64629,-1.01889 0.9375,-1.55002 0.252,-0.4596 0.56036,-0.925 0.85,-1.36251 0.0881,-0.13311 0.21024,-0.25123 0.29375,-0.38749 0.11722,-0.19124 0.19609,-0.41731 0.29869,-0.61482 0.16219,-0.31221 0.31807,-0.54066 0.48256,-0.84769 0.16523,-0.30837 0.22783,-0.65002 0.35625,-0.97498 0.17213,-0.43563 0.43469,-0.82816 0.59375,-1.26876 0.22814,-0.63196 0.36475,-1.28431 0.53424,-1.93238 0.0487,-0.18606 0.13066,-0.36287 0.17826,-0.54887 0.10724,-0.41896 0.0307,-0.84467 0.0178,-1.26874 -0.005,-0.17874 0.0321,-0.3162 0.0384,-0.50001 0.0159,-0.46298 -0.0512,-0.97852 -0.0559,-1.44376 -0.007,-0.73382 -0.0365,-1.46015 -0.0643,-2.19375 -0.0188,-0.49484 -0.005,-1.02429 -0.15483,-1.49999 -0.13212,-0.41918 -0.38203,-0.79528 -0.5625,-1.19375 -0.37944,-0.83778 -0.81613,-1.63829 -1.43749,-2.32501 -0.44787,-0.49493 -1.09368,-0.93872 -1.66251,-1.28749 -0.43583,-0.26723 -0.95057,-0.36038 -1.41875,-0.54999 -0.16856,-0.0683 -0.31492,-0.17318 -0.48125,-0.24376 -0.27283,-0.11578 -0.73925,-0.24816 -1.02723,-0.36116 -0.17326,-0.068 -0.33043,-0.15322 -0.51652,-0.17634 -0.198,-0.0246 -0.40097,-0.007 -0.6,-0.025 -0.35195,-0.0324 -0.70632,-0.12281 -1.0625,-0.10626 -0.28398,0.0132 -0.65728,0.0806 -0.94375,0.0992 l 0.9375,-0.0983 z"
           style="fill:#000000;fill-opacity:1;fill-rule:evenodd;stroke:none;stroke-width:0.35277778"
           id="path4149"
           inkscape:connector-curvature="0" /><path
           d="m 346.32507,276.66703 c 0,0 0.0964,-0.0141 0.14375,-0.006 0.1187,0.0198 0.20148,0.0528 0.3191,0.0977 0.006,0.002 0.17673,0.035 0.26215,0.0513 0.12053,0.0231 0.24825,0.0737 0.35753,0.10824 0.33589,0.10606 0.66544,0.10374 0.84038,0.46457 0.0389,0.0802 0.0833,0.13324 0.0833,0.21562 0,0.006 0.29465,0.18116 0.42992,0.28559 0.41327,0.31911 0.80881,0.64321 1.13883,1.0519 0.29918,0.3705 0.5137,0.7368 0.70625,1.1625 0.0855,0.18899 0.20866,0.36017 0.29375,0.55002 0.251,0.55991 0.42461,1.185 0.47832,1.79373 0.0128,0.14534 0.073,0.55522 0.0529,0.78126 -0.0467,0.52649 -0.1805,1.05599 -0.32121,1.56381 -0.0535,0.19312 -0.0632,0.40047 -0.16004,0.57994 -0.092,0.1704 -0.22495,0.31837 -0.33125,0.48126 -0.0998,0.15292 -0.20357,0.36751 -0.33125,0.5125 -0.34949,0.3969 -0.91002,0.50794 -1.38333,0.67498 -0.57397,0.2026 -1.1712,0.28935 -1.76667,0.38127 -0.52685,0.0813 -1.01407,0.15309 -1.55,0.0812 -0.45534,-0.061 -0.85453,-0.29315 -1.2707,-0.46887 -1.06706,-0.45053 -2.06959,-1.13236 -2.79008,-2.04822 -0.38195,-0.48552 -0.79191,-1.0557 -0.92047,-1.67666 -0.11044,-0.53341 -0.0455,-1.18731 0.0875,-1.69998 0.0544,-0.2099 0.14289,-0.38258 0.1875,-0.59377 0.058,-0.27477 0.078,-0.5822 0.15,-0.85623 0.0986,-0.37541 0.29417,-0.75484 0.5125,-1.075 0.13912,-0.20401 0.34829,-0.32847 0.51313,-0.50938 0.19515,-0.2142 0.33366,-0.48177 0.54312,-0.67812 0.40815,-0.3826 0.73887,-0.51235 1.22815,-0.72765 0.16665,-0.0733 0.53606,-0.26883 0.78435,-0.31611 0.13099,-0.0249 0.26816,-0.0161 0.4,-0.0375 0.23514,-0.0382 0.45668,-0.11918 0.69375,-0.14999 0.2422,-0.0315 0.47433,0.0232 0.7125,-0.005 l -0.0937,0.011 z m -0.375,0.47564 c 0,0 -0.18874,0.0117 -0.28044,0.0328 -0.10433,0.0241 -0.38069,0.10763 -0.56331,0.12589 -0.10188,0.0102 -0.33226,0.0162 -0.45,0.0469 -0.23371,0.0608 -0.5437,0.24225 -0.73125,0.31874 -0.14148,0.0577 -0.34024,0.10343 -0.48125,0.18749 -0.51803,0.30881 -0.45429,0.41434 -0.775,0.78516 -0.2316,0.2678 -0.5694,0.48804 -0.75,0.78983 -0.1417,0.23681 -0.33792,0.58507 -0.4125,0.88753 -0.0705,0.28602 -0.0796,0.58812 -0.15,0.87499 -0.0466,0.18974 -0.14424,0.37362 -0.1875,0.56249 -0.0925,0.40381 -0.15638,1.01071 -0.0812,1.43125 0.0363,0.20336 0.15954,0.3804 0.24013,0.56611 0.48704,1.12231 1.55091,1.97544 2.60584,2.53927 0.30418,0.16259 0.4746,0.22161 0.80403,0.36962 0.31156,0.13998 0.61421,0.31518 0.9625,0.35 0.76238,0.0762 1.52435,-0.0716 2.26337,-0.24751 0.42417,-0.101 0.78805,-0.21312 1.19288,-0.34623 0.24537,-0.0807 0.49916,-0.1571 0.7,-0.33124 0.14224,-0.12336 0.26787,-0.38775 0.34335,-0.50816 0.0989,-0.15783 0.2417,-0.29359 0.31915,-0.46061 0.0597,-0.12874 0.0753,-0.32534 0.10625,-0.44999 0.0425,-0.17137 0.1084,-0.33788 0.13745,-0.51216 0.002,-0.0115 0.16729,-0.8414 0.17506,-0.9941 0.0288,-0.56596 -0.11145,-1.12911 -0.27501,-1.6625 -0.1323,-0.43143 -0.32896,-0.78201 -0.51249,-1.1875 -0.0818,-0.18072 -0.0998,-0.30894 -0.20626,-0.46875 -0.78348,-1.17607 -1.98392,-2.05368 -3.28167,-2.59134 -0.006,-0.002 -0.0679,-0.0162 -0.0989,-0.0232 -0.0986,-0.0223 -0.22149,-0.0623 -0.33195,-0.0689 -0.40276,-0.0242 -0.6734,0.0427 -1.08152,0.13692 l 0.80027,-0.15279 z"
           style="fill:#000000;fill-opacity:1;fill-rule:evenodd;stroke:none;stroke-width:0.35277778"
           id="path4151"
           inkscape:connector-curvature="0" /></g><path
         transform="matrix(0.26458333,0,0,0.26458333,0,118.40623)"
         inkscape:connector-curvature="0"
         id="path4210"
         d="m 536.31558,903.75024 c -1.45988,-1.60514 -3.96205,-4.28215 -5.56037,-5.9489 -1.59832,-1.66676 -3.67395,-4.05324 -4.6125,-5.30331 -0.93856,-1.25006 -2.81336,-3.5229 -4.16623,-5.05076 -1.35286,-1.52785 -3.34038,-4.51644 -4.41669,-6.64131 -1.07631,-2.12486 -2.82586,-5.10382 -3.88789,-6.61992 -1.06203,-1.51609 -2.31279,-3.6414 -2.77946,-4.72291 -2.18592,-5.06578 -5.37872,-14.42792 -5.68155,-16.65983 -0.18501,-1.36353 -0.54422,-3.16125 -0.79825,-3.99495 -1.11654,-3.6643 -1.8716,-13.22047 -1.50121,-18.9994 0.36544,-5.70167 0.44255,-5.99291 2.72016,-10.27437 1.28922,-2.4235 3.02932,-5.27159 3.86688,-6.32909 2.96342,-3.74163 14.06533,-9.3713 21.0518,-10.67518 4.17989,-0.78009 10.50882,-0.16817 14.39733,1.39202 1.75599,0.70456 4.40682,1.71173 5.89072,2.23816 6.48556,2.30081 11.25563,7.30867 15.52515,16.29907 l 1.82787,3.84897 0.26756,12.26035 0.26757,12.26036 -1.59005,5.47309 c -0.87452,3.01019 -1.94587,6.16119 -2.38078,7.00221 -0.43491,0.84103 -1.09228,2.38376 -1.46082,3.42831 -0.89462,2.53564 -7.81516,14.37441 -15.06144,25.76518 -1.32539,2.08344 -3.77228,5.94456 -5.43753,8.58027 -1.66525,2.6357 -3.20733,4.97178 -3.42683,5.19129 -0.21951,0.21951 -1.59356,-0.9142 -3.05344,-2.51935 z m 6.70115,-43.83105 c 9.38441,-1.6365 12.43949,-4.20327 13.96417,-11.73221 1.07655,-5.316 0.48559,-9.98907 -1.88906,-14.93798 -1.99297,-4.15345 -3.50765,-6.00139 -8.82692,-10.76898 -6.02556,-5.40065 -17.76048,-3.80124 -23.98386,3.26889 -3.25748,3.70068 -3.8132,4.85966 -5.19341,10.83111 -1.68387,7.28528 -0.93118,10.25002 3.95331,15.57148 2.70055,2.94213 6.41122,5.39569 11.0368,7.29771 3.44866,1.41808 5.09625,1.48887 10.93897,0.46998 z"
         style="opacity:1;vector-effect:none;fill:#ea4335;fill-opacity:1;stroke:none;stroke-width:21.47568321;stroke-linecap:butt;stroke-linejoin:miter;stroke-miterlimit:4;stroke-dasharray:none;stroke-dashoffset:0;stroke-opacity:1" /></g></g></svg>