<?xml version="1.0" encoding="UTF-8"?>
<!-- Created with Inkscape (http://www.inkscape.org/) -->
<svg width="76.075" height="76.511" version="1.1" viewBox="0 0 20.128 20.244" xmlns="http://www.w3.org/2000/svg">
 <g transform="translate(-155.59 -150.77)">
  <g transform="matrix(.76819 .022729 -.022727 .76814 45.667 37.09)">
   <g fill-rule="evenodd">
    <path d="m163.88 143.16s0.3181 0.0339 0.47716 0.0509c0.1391 0.0148 0.27408 0.0684 0.414 0.0674 0.63616-5e-3 1.2728 0.0141 1.9086 1e-3 0.15929-3e-3 0.31899 0.0411 0.47716 0.0222 0.54159-0.0647 1.0922-0.0349 1.635 5e-3 0.23515 0.0173 0.44358 0.1265 0.67303 0.16912 0.4181 0.0777 0.98298 0.13492 1.3549 0.35721 0.19231 0.11496 0.34389 0.29362 0.51224 0.4351 0.73218 0.61535 1.3542 1.4579 1.7332 2.3439 0.12423 0.29046 0.15159 0.60184 0.22455 0.90528 0.0981 0.40784 0.22164 0.71444 0.27366 1.1299 0.0523 0.41765 0.0518 0.84442 0.0772 1.2632 0.0465 0.76726 0.1566 1.5386 0.15437 2.3088-2e-3 0.67291 0 1.346-7e-3 2.0211-4e-3 0.39835-0.0553 0.80205-0.0484 1.2 9e-3 0.50551 0.05 1.0262 6e-3 1.5298-0.0269 0.30977-0.16096 0.60434-0.21755 0.90529-0.0438 0.23313-0.0327 0.42223-0.10524 0.64564-0.13601 0.4188-0.40648 0.8893-0.7017 1.2211-0.3342 0.37558-0.8389 0.6299-1.2876 0.83138-0.19873 0.0892-0.6889 0.33253-0.95786 0.4318-0.69199 0.25538-1.4512 0.31657-2.1753 0.40703-0.22796 0.0285-0.45233 0.0882-0.68064 0.11229-0.60803 0.0641-1.2416 0.038-1.8525 0.0698-7e-3 0 0.0152 0.0698 0.0215 0.10563 0.0141 0.0797 0.0314 0.15816 0.0383 0.23861 0.0221 0.2604 0.22354 0.83962 2e-3 1.0614-5e-3 5e-3 -3e-3 0.29535-6e-3 0.44036-8e-3 0.37665 0.0561 0.74029 0.065 1.1158 0.0196 0.8318-2e-3 1.5627-0.31676 2.3439-0.12215 0.30351-0.34285 0.55484-0.54848 0.80264-0.13094 0.15785-0.30054 0.33388-0.48302 0.43949-0.40213 0.23273-0.87067 0.28173-1.3122 0.38599-0.16381 0.0387-0.31979 0.11205-0.48416 0.14734-0.33194 0.0713-0.67477 0.0718-1.011 0.13907-0.34908 0.0698-0.64299 0.16432-1.0099 0.19779-0.15345 0.014-0.30961-5e-3 -0.46312 0.0116-0.37945 0.0416-0.70474 0.072-1.0806 0.17082-0.25831 0.0679-0.41781 0.14517-0.67363 0.18246-0.78342 0.11424-1.5729 0.14274-2.3577 0.21755-0.46007 0.0439-0.91957 0.15177-1.3823 0.17545-0.40862 0.0209-0.79708-0.11333-1.2069-0.0983-0.77018 0.0283-1.6847 0.22619-2.463 7e-3 -0.42493-0.11965-0.78512-0.47224-1.112-0.74882-0.23275-0.19698-0.43987-0.25184-0.59314-0.5284-0.16262-0.2934-0.2653-0.71088-0.37891-0.9895-0.23523-0.5769-0.50118-1.1013-0.63855-1.7123-0.0602-0.26767-0.0296-0.4934-0.0702-0.76493-0.0486-0.32488-0.19568-0.61574-0.23156-0.94739-0.12711-1.1753 4e-3 -2.3764 0.0702-3.551 0.0551-0.9768-0.0142-1.9891-0.014-2.9685 1.9e-4 -0.92624-0.17768-1.7946-0.25963-2.7089-0.0428-0.47752-0.0485-0.96163-0.10525-1.4386-0.0589-0.49497-0.17278-0.99324-0.17542-1.4948-3e-3 -0.51213 0.11413-0.94107 0.14034-1.4456 0.0323-0.62245-0.0502-1.1947 0.014-1.8246 0.059-0.57911 0.27203-1.1082 0.3719-1.6772 0.0497-0.28323 0.0205-0.60674 0.10525-0.89127 0.0815-0.27359 0.28357-0.51929 0.43349-0.75713 0.20566-0.32623 0.3525-0.65971 0.66116-0.90605 0.29983-0.23933 0.57626-0.21978 0.92623-0.31581 0.17146-0.047 0.3244-0.1528 0.49821-0.1965 0.26841-0.0675 0.56604-0.0166 0.84203-0.0448 0.25988-0.0265 0.51264-0.11034 0.77188-0.13763 0.38862-0.0409 0.82669 0.0408 1.1929 0.0491 0.49148 0.0112 0.9779-0.0566 1.4665-0.0702 0.16707-5e-3 0.3243 0.0207 0.49119 7e-3 0.3263-0.0267 0.72748-0.12283 1.0666-0.12632 0.17861-2e-3 0.36368 0.0612 0.5403 0.0561 0.14073-4e-3 0.2896-0.0649 0.42805-0.0772 0.32988-0.0294 0.65454 0.0325 0.98238 0.0281 0.24489-3e-3 0.50732-0.0624 0.75082-0.0772 0.86482-0.0526 1.7298-0.0572 2.5963-0.0772 0.43581-0.0101 0.90787-9e-3 1.3402-0.0842 0.14611-0.0255 0.28816-0.082 0.43505-0.0982 0.35493-0.0391 0.72667 0.0502 1.0736 0.1166l-0.83502-0.11586zm-0.17532 0.56214s-0.30688 0.075-0.46323 0.0952c-0.43585 0.0562-0.86583 0.0626-1.3052 0.0838-1.0111 0.0487-2.0312 7e-3 -3.0383 0.11898-0.43813 0.0487-0.8685-0.0332-1.3052 9e-3 -0.1789 0.0175-0.33766 0.0797-0.51925 0.0772-0.2437-3e-3 -0.42221-0.0606-0.6596-0.0421-0.79204 0.0618-1.5613 0.14565-2.3577 0.16842-0.50306 0.0144-1.0768-0.077-1.5578-0.0561-0.22734 0.01-0.71799 0.12272-0.84951 0.14677-0.24896 0.0455-0.51744-0.0268-0.75738 0.0287-0.18124 0.0419-0.35725 0.15808-0.54031 0.2035-0.32949 0.0818-0.57002 0.053-0.81396 0.32282-0.17048 0.18855-0.28646 0.45721-0.41401 0.66668-0.1355 0.22256-0.34279 0.44955-0.39295 0.71581-0.0458 0.24328-0.0256 0.49987-0.0702 0.74387-0.0986 0.54041-0.30085 1.0429-0.35788 1.593-0.0646 0.62357 0.0177 1.1925-0.014 1.8106-0.0245 0.47829-0.13857 0.91232-0.14035 1.3965-2e-3 0.4876 0.1095 0.97185 0.16841 1.4527 0.0588 0.47987 0.0666 0.96565 0.11227 1.4457 0.0884 0.93044 0.26035 1.8146 0.25963 2.7579-8.1e-4 0.97622 0.0675 1.9806 0.014 2.9545-0.0637 1.1599-0.19726 2.3325-0.0842 3.4948 0.0319 0.32826 0.17927 0.61661 0.22455 0.94037 0.0689 0.49247 0.0987 0.93842 0.25963 1.4176 0.11333 0.33739 0.31267 0.64704 0.43565 0.97999 0.0419 0.11347 0.2282 0.84854 0.44848 1.0411 0.0872 0.0763 0.20712 0.11403 0.30173 0.18247 0.27934 0.20208 0.52428 0.49015 0.84204 0.63859 0.15169 0.0709 0.44112 0.0838 0.56838 0.0999 0.57629 0.0731 1.4451-0.0784 1.9367-0.0859 0.36765-6e-3 0.71507 0.11405 1.0806 0.0982 0.46055-0.0199 0.91725-0.12605 1.3753-0.16843 0.83337-0.0771 1.7364-0.0609 2.5542-0.25966 0.4307-0.10471 0.59092-0.18497 1.0736-0.25965 0.36053-0.0558 0.58578-0.0383 0.93324-0.0702 0.34999-0.0321 0.63867-0.1267 0.97481-0.19031 0.33118-0.0627 0.6698-0.0666 0.99697-0.1325 0.16914-0.0341 0.33014-0.10688 0.49821-0.14737 0.41123-0.0991 0.93306-0.13492 1.2701-0.42809 0.61114-0.53164 0.93687-1.3683 0.96132-2.1685 0.0172-0.56246-0.0685-1.0825-0.0772-1.6351-4e-3 -0.25441 0.0379-0.51761 0.0281-0.77195-0.013-0.33864-0.0788-0.65456-0.0428-0.99652 1e-3 -7e-3 -8e-3 -0.16877-0.035-0.24378-0.0755-0.20764-0.1946-0.46239 0.0287-0.62641 0.11764-0.0864 0.30814-0.0881 0.43505-0.10627 0.33869-0.0484 0.80946-0.0279 1.1508-0.0396 0.83432-0.0288 1.664-0.10033 2.4832-0.27704 0.1807-0.039 0.68269-0.12424 0.93407-0.21565 0.25387-0.0923 0.75855-0.34406 0.92276-0.41779 0.3693-0.16583 0.78904-0.3534 1.0771-0.6489 0.27345-0.28052 0.54687-0.75358 0.65257-1.1228 0.0471-0.16443 0.0323-0.3462 0.0632-0.5123 0.0525-0.28281 0.18394-0.5582 0.2105-0.84914 0.0467-0.51216-0.0184-1.0369-7e-3 -1.5509 0.0158-0.7146 0.0927-1.4395 0.0632-2.1544-8e-3 -0.18149-0.043-0.34979-0.0421-0.53336 7e-3 -1.3116-0.0315-2.6531-0.18945-3.958-0.0472-0.38983-0.18385-0.73511-0.27367-1.1158-0.0621-0.26343-0.0824-0.51239-0.18244-0.76493-0.32439-0.81932-0.9134-1.6058-1.5858-2.1615-0.1353-0.1118-0.30095-0.33746-0.49118-0.41403-0.33685-0.13558-0.77566-0.19203-1.1303-0.25886-0.19307-0.0364-0.37786-0.13388-0.57479-0.1552-0.16166-0.0175-0.32812 0.0149-0.49118 7e-3 -0.19255-9e-3 -0.39594-0.0637-0.58944-0.0632-0.19581 1e-3 -0.39294 0.0549-0.58941 0.0561-0.49701 3e-3 -1.0042-0.0325-1.5016-0.0351-0.31089-2e-3 -0.62476 0.0342-0.93325 7e-3 -0.31563-0.0278-0.63271-0.14771-0.95431-0.11931-0.23833 0.0211-0.60812 0.11446-0.84906 0.14557l0.84215-0.14409z"/>
    <path d="m164.16 161.8c0.0493 0.0599 0.11676 0.1371 0.12091 0.22011 0.0164 0.32924 0.13857 0.62919 0.16436 0.95441 0.0578 0.72772 0.12758 1.4006 0.0408 2.1334-0.0401 0.33905-0.0593 0.67853-0.21253 0.9895-0.12006 0.24358-0.27562 0.44072-0.43526 0.65923-0.61892 0.84702-1.7375 1.1294-2.7294 1.1864-0.3978 0.0229-0.64552-2e-3 -1.0596 0.0421-0.43899 0.0471-0.79054 0.10353-1.2209 0.0899-0.23491-7e-3 -0.52402 0.019-0.72976-0.13198-0.29244-0.2146-0.27119-0.61397-0.29818-0.93337-0.0477-0.56414-0.088-1.1333-0.12697-1.6983-0.0529-0.76663-0.17039-1.5341-0.23075-2.3018-0.0131-0.16645-0.12498-0.67085 0.0314-0.88423 0.11814-0.16123 0.36057-0.19084 0.53421-0.22945 0.4222-0.0938 0.82139-1e-3 1.2341-0.0513 0.13216-0.016 0.26469-0.0991 0.39294-0.1263 0.22035-0.0466 0.56775-0.0557 0.75785-0.0632 0.26239-0.0103 0.5506-0.0482 0.81395-0.0421 0.29563 7e-3 0.41871 0.0567 0.71574 0.0211 0.22239-0.0267 0.44257-0.095 0.66661-0.11228 0.3661-0.0282 0.6171-0.0153 0.98939-0.0898 0.61915-0.0103 0.45188 0.24053 0.58114 0.36798zm-1.0232 0.27683s-0.0799 6e-3 -0.11996 6e-3c-0.0866 0-0.28979-0.015-0.42034 4e-3 -0.34603 0.0506-0.72298 0.1648-1.0736 0.12435-0.28711-0.0331-0.52199-3e-3 -0.80696 5e-3 -0.32382 9e-3 -0.66407-0.0128-0.98237 0.0562-0.11054 0.024-0.21235 0.0877-0.32278 0.11229-0.19097 0.0426-0.39121 4e-3 -0.58241 7e-3 -0.30617 6e-3 -0.57015 0.0261-0.85607 0.0897-7e-3 2e-3 -3e-3 0.14691 5e-3 0.21912 0.0309 0.28592 0.0622 0.5625 0.0744 0.84916 0.0344 0.80771 0.20161 1.6019 0.25354 2.407 0.0214 0.33173 0.0235 0.67319 0.0578 1.0036 0.0158 0.15201 0.0316 0.30408 0.0474 0.45612 1e-3 0.0128 1e-3 0.0671 0.0184 0.0702 0.68636 0.12114 1.386-0.0386 2.07-0.1014 0.66179-0.0608 1.3519-0.0223 1.9858-0.27757 0.19221-0.0774 0.39695-0.2071 0.55082-0.34387 0.31436-0.27945 0.61737-0.60432 0.77538-1.0036 0.0901-0.22768 0.093-0.54626 0.11929-0.76492 0.11477-0.95496-0.0417-1.8586-0.18837-2.8-0.2341-0.0726-0.36742-0.0734-0.5952-0.1123l-9e-3 -6e-3z"/>
    <path d="m156.14 161.61s0.0923 0.0183 0.13332 0.04c0.0974 0.0514 0.17639 0.16288 0.20957 0.26479 0.13233 0.40653 0.19557 0.84281 0.26742 1.2651 0.18797 1.1045 0.27939 2.1799 0.28083 3.2983 0 0.14129 9e-3 0.30204 0.0128 0.42809 1e-3 0.0282 2e-3 0.0561 5e-3 0.0842-0.0397 0.97623-0.0711 0.76384-0.44813 1.0941-0.0529 0.0467-0.11649 0.0672-0.18151 0.097-0.16731 0.0767-0.43969 0.0827-0.61587 0.078-0.80528-0.0218-1.5876 0.25958-2.3858 0.0822-0.40794-0.0907-0.8-0.25794-1.1999-0.38287-0.62969-0.19667-1.2011-0.42164-1.67-0.92633-0.66628-0.71706-0.96075-1.8465-1.0455-2.8001-0.0296-0.33274-8e-3 -0.66522-0.0219-0.99652-8e-3 -0.19925-0.0522-0.45997 0.057-0.64562 0.10676-0.18147 0.28863-0.21041 0.47667-0.25992 0.41668-0.10963 0.64359-0.12699 1.0881-0.13254 0.44855-6e-3 0.86875-0.18098 1.3052-0.25316 0.54511-0.0902 1.117-0.12786 1.67-0.14601 0.21657-7e-3 0.42975-0.0611 0.64556-0.0786 0.27721-0.0224 0.55928 4e-3 0.83502-0.0281 0.32348-0.0376 0.54992-0.1768 0.81677 0.04l-0.23436-0.1221zm-0.16139 0.56787s-0.18579 0.0486-0.28069 0.0616c-0.19494 0.0268-0.39295 0.0218-0.58942 0.0328-0.3325 0.0185-0.6649 0.0658-0.9964 0.0815-0.53776 0.0256-1.0981 0.0568-1.6279 0.14535-0.403 0.0674-0.69596 0.19243-1.0947 0.23861-0.26088 0.0302-0.5348-4e-3 -0.79291 0.0281-0.18737 0.0234-0.37001 0.0879-0.55452 0.1317-7e-3 2e-3 -3e-3 0.10456-1e-3 0.15601 4e-3 0.10268-8e-3 0.22441-0.0114 0.3158-0.01 0.23295-1e-5 0.55147 0.0271 0.77899 0.10334 0.86541 0.29536 1.8989 0.93945 2.5404 0.55884 0.55659 1.309 0.74001 2.0428 0.94299 0.36645 0.10138 0.65403 0.21909 1.0517 0.22194 0.36598 3e-3 0.80053-0.12606 1.1578-0.16533 0.34466-0.0379 0.81846 0.0297 1.1557-0.0624 0.24349-0.0463 0.11427-1.5103 0.11433-1.858 7e-3 1e-3 5e-3 -0.0454 3e-3 -0.0688-9e-3 -0.10912-0.0148-0.22074-0.0306-0.32984-0.0621-0.42864-0.0673-0.50526-0.09-0.9544-0.0375-0.74064-0.26772-1.5058-0.41474-2.2317l-8e-3 -5e-3z"/>
    <path d="m154.39 153.49s0.33585 0.0512 0.50523 0.0567c0.34552 0.0112 0.84584-0.20192 1.0806 0.16706 0.23698 0.37245 0.25382 1.1242 0.3097 1.5092 0.0292 0.20143 4e-3 0.4084 0.0271 0.6102 0.0724 0.6414 0.11357 1.2771 0.16472 1.9229 0.0635 0.80219 0.0342 1.5601-0.0161 2.365-0.11899 0.38299-0.46461 0.20784-0.73108 0.25599-0.11409 0.0198-0.23422-0.0191-0.35085-0.0164-0.25603 6e-3 -0.49026-0.0476-0.7438-0.0571-0.17727-7e-3 -0.35552 0.025-0.53328 0.0198-0.0147 0-0.7098-0.0497-0.91221-0.0128-0.18349 0.0334-0.36152 0.1325-0.54733 0.1684-0.51899 0.10033-0.95853 0.0735-1.4736 0.0632-0.2288-5e-3 -0.43642 0.0343-0.66662 0.0112-0.44935-0.045-0.97432 0.0494-1.1227-0.50248-0.13714-0.51005 0.0168-1.0227-0.0351-1.5298-0.022-0.21495-0.091-0.39106-0.10525-0.61055-0.0154-0.23842 6e-3 -0.484-0.014-0.72281-0.0187-0.21858-0.082-0.43995-0.0912-0.65967-0.0124-0.2967 0.0179-0.5721-3e-3 -0.87021-0.022-0.31541-0.0465-0.63146-0.0623-0.94739-9e-3 -0.17141-0.0709-0.49641 0.0512-0.66669 0.20443-0.28505 0.82832-0.15132 1.0525-0.14208 0.23932 0.01 0.52721-0.0291 0.76486-0.0327 0.48419-7e-3 1.0458-0.0671 1.5156-0.16206 0.28783-0.0582 0.53828-0.16286 0.828-0.18244 0.60031-0.0406 1.1788 8e-3 1.7753 0.0276zm-0.0491 0.56096s-0.39765 0.0216-0.59646 0.0324c-0.45248 0.0246-0.68875 0.047-1.1378 0.1668-0.39332 0.1049-0.80522 0.0944-1.2058 0.12322-0.59969 0.0431-1.1707 0.091-1.7753 0.0704-7e-3 0 4e-3 0.21963 9e-3 0.32961 0.0135 0.30485 0.0481 0.60758 0.0634 0.91229 0.0139 0.27839-0.0168 0.56685-2e-3 0.84213 0.0118 0.22174 0.0824 0.44497 0.0982 0.66667 0.0173 0.24281-0.0129 0.48644 7e-3 0.72985 0.0146 0.17822 0.0756 0.33634 0.0982 0.51229 0.052 0.40483-0.0226 0.8386-2e-3 1.2491 3e-3 0.0636 0.0198 0.26846 0.0442 0.2737 0.37234 0.0798 0.7691 0.0291 1.1438 0.0211 0.50639-0.0109 0.98205 0.0602 1.4876-0.0562 0.27738-0.0638 0.41948-0.16996 0.68767-0.18246 0.79858-0.0373 1.7695 0.0217 2.5638 0.0939 0.0541-0.20496-9e-3 -0.31854 0.0601-0.50995 0.07-0.24918 0.0548-0.84366 0.0847-1.1067 7e-3 0-0.01-0.29517-0.0255-0.44211-0.0512-0.48288-0.0494-0.59337-0.0646-1.1509-7e-3 -0.24678-0.0853-0.47192-0.11341-0.7158-0.072-0.62404-0.0898-1.2292-0.24388-1.8458-2e-3 -7e-3 -0.12791 0.0115-0.19117 0.0194-0.17987 0.0225-0.33646 0.0438-0.51926 0.022-0.50379-0.0602-0.98857-0.0202-1.4944-0.0202l1.0242-0.0347z"/>
    <path d="m163.34 152.86s0.13757-3e-3 0.20196 0.0174c0.14104 0.0449 0.24184 0.12113 0.30325 0.26302 0.19305 0.4461 0.10004 1.0118 0.21318 1.4939 0.19452 0.82894 0.27855 1.6351 0.38326 2.4781 0.0219 0.17639 0.0786 0.34957 0.0912 0.52633 0.0286 0.401-0.0421 0.8326-0.0421 1.2351 0 0.31179 0.086 0.87069-0.15439 1.1228-0.1821 0.191-0.47526 0.12967-0.7087 0.16142-0.16265 0.0221-0.32082 0.0748-0.48379 0.0969-0.82061 0.11089-1.6518 0.19948-2.4774 0.254-0.50389 0.0333-1.0006-0.0421-1.5021-0.0421-0.11487 0-0.38846-8e-3 -0.57489 0-0.42394 0.0189-0.95433 0.16103-0.95433-0.42073-0.0554-0.19859-0.11012-0.32277-0.1309-0.49859-0.0509-0.46403-0.0564-0.92552-0.10506-1.3895-0.11984-1.1432-0.0455-2.2751-0.15699-3.4176-0.017-0.17367-0.041-0.34725-0.0702-0.51932-0.0418-0.24676-0.17396-0.58844 0.014-0.81405 0.1769-0.21228 0.43435-0.10409 0.66662-0.0983 0.35093 9e-3 0.70678-0.0631 1.0596-0.0631 0.18889 0 0.35761-0.097 0.5403-0.12632 0.14505-0.0232 0.28371 0.0134 0.42804 7e-3 0.1716-8e-3 0.3406-0.0643 0.51225-0.0772 0.24297-0.0183 0.47394 0.0325 0.71572 0.0211 0.31651-0.015 0.62092-0.13789 0.94027-0.13336 0.19938 3e-3 0.46785 0.0748 0.68065 0.0561 0.33087-0.0291 0.58677-0.18745 0.91982-0.0814l-0.30934-0.0516zm-7e-3 0.57679s-0.2905 0.0674-0.43574 0.10105c-0.0695 0.0161-0.13761 0.016-0.20992 0.0208-0.20124 0.0134-0.4023-0.0435-0.60345-0.0533-0.22277-0.0109-0.37417 0.0336-0.61109 0.0767-0.62378 0.11342-1.2861 0.0224-1.915 0.0918-0.10975 0.0121-0.21306 0.0746-0.32278 0.0923-0.23167 0.0376-0.37432 0.0286-0.61749 0.041-0.31564 0.0161-0.6243 0.0882-0.94028 0.0431-7e-3 -1e-3 0.0335 0.20893 0.0478 0.31481 0.0402 0.29746 0.0788 0.57843 0.0948 0.87722 0.0463 0.86065-0.0114 1.7188 0.0742 2.5755 1e-3 7e-3 -5e-3 0.12972 0.0243 0.15648 0.0437 0.0406 0.0204 0.2286 0.0403 0.28516 0.0634 0.18064 0.0418 0.46344 0.0539 0.57105 0.0502 0.44653 0.21174 0.8656 0.18437 1.3032 0 7e-3 0.27056-0.02 0.40655-0.0215 0.49929-5e-3 0.98943 0.0356 1.4876 0.0356 0.75676 0 1.5363-0.0674 2.2875-0.15956 0.49411-0.0606 1.0153-0.20538 1.5154-0.20538 7e-3 0 0.0113-0.17777 0.0134-0.26667 3e-3 -0.12627 0.0167-0.25429 0.0259-0.37895 0.0173-0.23328-0.0177-0.46849-1e-3 -0.70179 6e-3 -0.0838 0.0611-0.40425 0.0322-0.58247-0.095-0.58586-0.11367-1.1744-0.20368-1.7614-0.084-0.54761-0.27503-1.0723-0.35085-1.6211-0.0378-0.27322-0.0405-0.5528-0.0694-0.82805l-8e-3 -5e-3z"/>
    <path d="m166.51 144.84s0.21509 0.0137 0.32278 0.0137c0.25801 0 0.52712 0.0685 0.77888 0.0537 0.26099-0.0153 0.51791-0.0472 0.77889-0.0115 0.19317 0.0264 0.38138 0.0881 0.57539 0.11001 0.38267 0.0432 0.88453 0.0281 1.242 0.24788 0.56468 0.34721 0.67533 0.93069 1.0174 1.4456 0.2439 0.36711 0.61771 0.64576 0.80696 1.0456 0.32089 0.6781 0.25294 1.5254 0.30873 2.2527 0.0198 0.25853 0.11126 0.60741 0.0772 0.89126-0.0571 0.47569-0.44097 0.49604-0.828 0.57544-0.2655 0.0545-0.49336 0.087-0.76485 0.12962-0.43509 0.0683-0.88728 0.14512-1.3262 0.17214-0.41542 0.0256-0.83525-0.0233-1.249-0.014-0.3692 8e-3 -0.72965 0.0983-1.1017 0.0983-0.2216 0-0.34424 0.0402-0.56838 0.0561-0.42517 0.0302-0.84803-0.17387-1.0974-0.50669-4e-3 -6e-3 -0.0964-0.12707-0.14044-0.18927-4e-3 -6e-3 -0.0354-0.11711-8e-3 -0.161 4e-3 -6e-3 -9e-3 -0.10453-0.0162-0.15359-1e-3 -7e-3 -0.0698-0.32087-0.10416-0.47778-0.0241-0.10999-0.0322-0.22643-0.0459-0.33629-0.057-0.45614-2e-3 -1.0797-0.0244-1.5649-0.0142-0.31301 0.0152-0.8379 0.0402-1.1439 0.0246-0.30111 0.10233-0.56493 0.0702-0.87021-0.0422-0.40075-0.28103-1.0522 0.0983-1.3965 0.42205-0.38322 1.1958-0.25265 1.7192-0.25265l-0.56136-0.0137zm-0.21041 0.56238s-0.3733 0.0627-0.55444 0.11594c-7e-3 2e-3 -0.0582 0.18955-0.0417 0.28219 0.0483 0.27136 0.12474 0.58944 0.11788 0.87079-6e-3 0.24899-0.0578 0.41403-0.0832 0.67368-0.0572 0.58529-0.021 1.1822-0.021 1.7685 0 7e-3 0.0622 0.12015 0.0652 0.18246 7e-3 0.14765 6e-5 0.29398-2e-3 0.44211-5e-3 0.35088 0.021 0.49672 0.0615 0.82107 0.0292 0.23379 0.0183 0.55539 0.2684 0.68072 0.30303 0.1519 0.42853 0.08 0.7438 0.0491 0.3732-0.0365 0.75446-0.0399 1.1297-0.074 0.48627-0.0442 0.97768 0.0136 1.4666-0.0102 0.80918-0.0394 1.5966-0.24713 2.3928-0.35692 7e-3 -1e-3 0.0173-0.14181 9e-3 -0.21151-0.0224-0.18947-0.0448-0.37895-0.0673-0.56842-0.0372-0.31466-0.0419-0.65949-0.0641-0.97547-0.0273-0.38937-0.0263-0.88073-0.25668-1.2141-0.21935-0.31738-0.50221-0.55713-0.71572-0.87722-0.21625-0.32419-0.302-0.72815-0.55435-1.0246-0.35034-0.41157-0.76133-0.34814-1.2981-0.40924-0.26219-0.0298-0.51234-0.13148-0.77889-0.13112-0.19793 0-0.38337 0.0448-0.58242 0.0351-0.61595-0.03-1.1747-0.13372-1.7823 0.045l0.54742-0.11388z"/>
    <path d="m163.54 144.65s0.0902 2e-3 0.13334 0.0133c0.092 0.0246 0.16985 0.0845 0.22455 0.16141 0.15298 0.21526 0.20117 0.58305 0.19554 0.84213-0.0108 0.49753 0.15291 0.9318 0.1974 1.4246 0.0435 0.48241-4e-3 0.98812 0.0421 1.4667 0.022 0.22615 0.0844 0.47191 0.11825 0.70175 1e-3 7e-3 0.0472 0.14633 0.0644 0.21757 0.0348 0.14433 0.0763 0.28801 0.0969 0.43509 0.042 0.30141 0.0253 0.62585 0.0713 0.9193 0.0362 0.23105 0.18093 0.48367-0.0281 0.68074-0.10937 0.10314-0.28245 0.11567-0.42102 0.13932-0.34889 0.0596-0.69507 0.0491-1.0455 0.10642-0.26675 0.0437-0.44581-8e-3 -0.72273 0-0.2573 7e-3 -0.57714 0.0166-0.83504 0.0421-0.44285 0.0717-0.93601 0.0919-1.3964 0.0702-0.41034-0.0143-0.68518 0.1226-1.0895 0.0759-0.29663-0.0342-0.71695-0.0298-1.0156 0.0153-0.28714 0.0433-0.67074 0.22136-0.82799-0.14738-0.0817-0.19156-0.052-0.57777-0.0551-0.70879-3e-3 -0.13245-0.0466-0.26128-0.0571-0.39299-0.0138-0.17293 0.0125-0.34669-0.014-0.5193-0.05-0.32533-0.19852-0.66405-0.21753-1.0035-0.0391-0.69733-0.068-1.3887-0.17592-2.0842-0.0422-0.27218 0.0227-0.45586 0.0496-0.72284 0.0274-0.27174-0.066-0.5555 0.17543-0.75791 0.33533-0.28112 0.87208-0.26575 1.2771-0.34385 0.29232-0.0564 0.55465-0.16178 0.84905-0.19652 0.6209-0.0732 1.2521-0.0831 1.8735-0.16141 0.35238-0.0444 0.61889-0.10183 0.97535-0.11928 0.20536-0.0101 0.41347 0.014 0.6175-0.0125 0.33418-0.0434 0.85496-0.22505 1.1866-0.0776l-0.24634-0.0636zm-0.0912 0.5834s-0.14403 0.0364-0.21752 0.0459c-0.18946 0.0244-0.37892 0.0489-0.56839 0.0733-0.38053 0.0491-0.74644-0.0109-1.1291 0.0547-0.77614 0.13307-1.5629 0.15402-2.3442 0.2385-0.27394 0.0296-0.5042 0.12881-0.77889 0.18247-0.34491 0.0674-0.68258 0.0962-1.0177 0.21512-7e-3 2e-3 -2e-3 0.17553 2e-5 0.26207 5e-3 0.18144-0.0334 0.32277-0.0744 0.49923-0.0233 0.10021 0.0167 0.20648 0.0318 0.30782 0.0631 0.42472 0.0772 0.56087 0.10985 0.99649 0.0267 0.35596 0.0252 0.74682 0.0663 1.1018 0.0354 0.3057 0.16892 0.62631 0.2105 0.92635 0.0588 0.42433 0.0702 0.8847 0.084 1.3123 0 7e-3 0.12653-0.0215 0.18968-0.0357 0.12504-0.0282 0.25763-0.0364 0.38593-0.0334 0.50017 0.13463 0.98571-0.0227 1.4385-0.0523 0.2081-0.0109 0.41642-0.0316 0.62452-5e-3 0.36877 0.015 0.73613-0.0218 1.0876-0.0772 0.15479-0.0225 0.30864 0.0132 0.46312 7e-3 0.14319-6e-3 0.28491-0.0516 0.42804-0.0561 0.1669-5e-3 0.33752 0.0387 0.50523 0.0281 0.17419-0.011 0.34508-0.0701 0.51924-0.0842 0.15952-0.0129 0.32925 0.0335 0.48418-5e-3 7e-3 -2e-3 -7e-3 -0.0998-6e-3 -0.14911 6e-3 -0.27136 0.0127-0.54269 0.0191-0.81406 5e-3 -0.21551-0.0182-0.43146-0.0404-0.64563-1e-3 -7e-3 -0.0469-0.0592-0.0584-0.0912-0.0217-0.0608-1e-3 -0.0929 0.0264-0.14791 3e-3 -6e-3 -8e-3 -0.11889-0.0187-0.17435l-0.0825-0.4362c-0.054-0.28574-0.0269-0.88593-0.028-0.9328-7e-3 -0.3194-0.0137-0.64036-0.0781-0.95442-0.0393-0.19141-0.11603-0.37601-0.14737-0.56844-0.0539-0.33084-0.012-0.64571-0.0759-0.98257l-8e-3 -5e-3z"/>
    <path d="m155.74 145.24s0.13481-0.01 0.19547 0.0148c0.14095 0.0564 0.25354 0.13062 0.32379 0.27269 0.17899 0.36188 0.23858 0.9351 0.23858 1.3334 0 0.5761 0.0559 1.1798 7e-3 1.7544-0.0211 0.2485-0.0962 0.50032-0.10524 0.75091-0.0101 0.27961 0.0468 0.60335 0.0561 0.87019-0.0624 0.40529 0.23414 1.2719 0.0211 1.3865-7e-3 3e-3 -0.0713 0.1264-0.12631 0.16443-0.24706 0.033-0.40514 3e-3 -0.66039 0.0729-0.10658 0.0293-0.21844 0.0524-0.32899 0.0541-0.86967 7e-3 -1.4802-0.0214-2.2735-0.0146-0.26607 0.0465-0.53733 0.0717-0.80695 0.0912-0.25106-0.019-0.80306 0.017-1.1788 0.014-0.25044-6e-3 -0.44265-0.0418-0.68767-0.0222-0.45281 0.0362-1.155 0.19734-1.2701-0.46202-0.0481-0.27539-7e-3 -0.59869-0.0421-0.87723-0.0759-0.61056-0.21482-1.2154-0.17542-1.8386 0.0546-0.86401 0.46588-1.5917 0.99107-2.2545 0.2988-0.37712 0.5409-0.69286 0.99474-0.88947 0.60774-0.26327 1.1648-0.19399 1.8034-0.24563 0.18851-0.0152 0.37212-0.0965 0.56135-0.11229 0.21636-0.0181 0.63605-1e-3 0.821-6e-3 0.20015-5e-3 0.40299-0.0541 0.60345-0.0502 0.14311 3e-3 0.2805 0.0587 0.42103 0.0632 0.31681 0.0102 0.61125-0.13585 0.91988-0.0124l-0.3024-0.0575zm7e-3 0.56179s-0.12185 0.0101-0.18246 0.018c-0.12161 0.016-0.24325 0.0319-0.36487 0.0479-0.1672 0.0219-0.33413-0.0532-0.49821-0.0595-0.17027-7e-3 -0.38164 0.0399-0.54731 0.0492-0.25554 0.0142-0.58882-0.019-0.85608 7e-3 -0.18372 0.0179-0.36173 0.0998-0.54732 0.11228-0.65189 0.0438-1.2817-0.0628-1.8595 0.32983-0.22148 0.15051-0.34105 0.36652-0.51096 0.5729-0.45374 0.55105-0.80564 1.151-0.88541 1.8763-0.093 0.84538 0.16019 1.7619 0.21009 2.6106 0.26599 0.15941 0.55246 0.0691 0.78631 0.0481 0.44389 0.069 0.89644-0.0638 1.2911-0.034 0.91342-0.087 1.6052-0.0993 2.4279-0.0327 0.60664 0.0414 1.1544 0.0193 1.7333-0.14086 7e-3 -2e-3 -0.0269-0.29619-0.0288-0.44403-6e-3 -0.46092-0.0513-0.91536-0.0623-1.3755-7e-3 -0.2782 0.0783-0.5612 0.0979-0.83509 0.0234-0.32769-0.0167-0.69273-0.0211-1.0176-4e-3 -0.25885 0.0375-0.60997 7e-3 -0.89125-0.0251-0.23095-0.13195-0.60223-0.181-0.83522l-8e-3 -6e-3z"/>
    <path d="m171.57 152.69s0.0942 0.0118 0.13232 0.0373c0.0927 0.0618 0.1826 0.12052 0.21678 0.23283 0.11232 0.36907 0.0814 0.7621 0.16274 1.1393 0.16756 0.77698-0.0131 1.6316 0 2.4134 6e-3 0.31889 0.10065 0.57607-0.014 0.89127-0.12859 0.35342-0.36119 0.64787-0.58882 0.94055-0.28339 0.36441-0.60374 0.84958-1.0181 1.1086-0.19423 0.12144-0.42508 0.1328-0.63853 0.20352-0.54805 0.18159-1.0872 0.25418-1.663 0.32066-0.44083 0.0509-0.8762 0.0624-1.3192 0.0394-0.46622-0.0387-0.87118-0.0621-0.90519-0.0723-0.0966-0.0322-0.10525-0.12809-0.10525-0.21406 0-0.0105-0.016-0.17427-0.024-0.25613-0.0109-0.11138 4e-3 -0.22696 0.0249-0.33688 0.0999-0.52962 0.0312-0.99027-0.048-1.5228-0.0509-0.34226-0.22728-0.73683-0.29681-1.0737-0.12151-0.58876-0.0296-1.1989-0.0883-1.7965-0.0319-0.32456-0.0221-0.58141-0.045-0.91232-9e-3 -0.12627-0.0642-0.29052-0.014-0.42105 0.11736-0.30497 0.4486-0.13693 0.67363-0.14037 0.17853-3e-3 0.45924-0.0355 0.63153-0.0628 0.32855-0.0522 0.46187-0.0372 0.7859-0.0705 0.16158-0.0166 0.31078-0.0855 0.47013-0.10528 0.15051-0.0187 0.28846 0.0456 0.43506 0.0351 0.13098-9e-3 0.28135-0.0906 0.40698-0.11229 0.12223-0.0211 0.24323-1e-3 0.36489-0.014 0.27012-0.0299 0.53036-0.14153 0.79993-0.18246 0.26276-0.0399 0.48227-0.0178 0.7438 3e-3 0.39244 0.0318 0.81157-0.19449 1.1598 0.0377l-0.24059-0.10945zm-0.16139 0.57498s-0.2105 0.0405-0.31575 0.0607c-0.11193 0.0215-0.23034 0.0215-0.34384 0.0114-0.58677-0.0525-0.87619 7e-3 -1.4817 0.14856-0.13961 0.0327-0.27556-3e-3 -0.4129 0.0166-0.15377 0.0216-0.2915 0.11173-0.44908 0.12632-0.14029 0.013-0.27607-0.0418-0.414-0.0351-0.1668 8e-3 -0.35194 0.0883-0.51926 0.10526-0.52031 0.0528-1.0692 0.12632-1.5929 0.12632-7e-3 0 0.01 0.2199 0.0179 0.32982 0.0104 0.13771 0.0151 0.27657 0.0221 0.41405 0.0231 0.45342 0.0513 0.7666 0.0513 1.2492 0.0948 0.0531 0.0749 0.448 0.0984 0.54667 0.0535 0.23545 0.16248 0.7783 0.2121 1.0214 0.16493 0.80817 0.27707 1.1839 0.13432 2.0525 0 7e-3 0.5773 0.0193 0.73402 0.0322 0.22326 0.0183 0.45113 4e-3 0.67361-0.0226 0.65481-0.0786 1.2604-0.15457 1.8876-0.34584 0.25324-0.0772 0.38216-0.0633 0.5824-0.2316 0.29189-0.24531 0.44144-0.4855 0.69653-0.80886 0.21532-0.27299 0.48769-0.5815 0.57354-0.93152 0.051-0.20785-0.0468-0.43938-0.0421-0.65265 0.0239-1.087 0.0203-2.1261-0.10444-3.2071l-8e-3 -6e-3z"/>
   </g>
   <g stroke-width=".055104">
    <path d="m149.85 151.41c-0.11142-0.0292-0.11134-0.0288-0.23444-1.0025-0.22341-1.767-0.10262-2.3103 0.7717-3.471 0.56761-0.7535 0.71002-0.82274 1.8888-0.91838 0.47648-0.0387 0.90352-0.0849 0.94899-0.10271 0.0455-0.0178 0.63077-0.0395 1.3007-0.048l1.218-0.0156 0.0971 0.47845c0.0832 0.40986 0.0916 0.64312 0.0588 1.6271-0.0581 1.7399-0.059 1.8139-0.0295 2.5533l0.0274 0.68832-0.35817 0.0701c-0.25759 0.0504-0.67542 0.0607-1.4878 0.0366-0.6213-0.0184-1.6132-6e-3 -2.2042 0.0267-1.7592 0.0986-1.8968 0.10392-1.9975 0.0776z" fill="#3fbe87"/>
    <path d="m157.86 151.31c-6e-3 -0.38192-0.12639-1.3704-0.21172-1.738-0.0598-0.25762-0.12475-0.77834-0.14435-1.1572s-0.0603-0.8496-0.0904-1.0461-0.0379-0.57369-0.0172-0.83812l0.0376-0.48078 0.42012-0.0878c0.23107-0.0483 0.6309-0.13575 0.8885-0.19434 0.25761-0.0586 0.90324-0.14449 1.4347-0.19089 0.53149-0.0464 1.1142-0.10858 1.2949-0.13818 0.18074-0.0296 0.52699-0.0544 0.76944-0.0552 0.24246-8.1e-4 0.60108-0.0246 0.79695-0.0529 0.19586-0.0283 0.36733-0.0403 0.38104-0.0265 0.0137 0.0137 0.0433 0.25434 0.0657 0.53473s0.0793 0.65371 0.12642 0.8296c0.0497 0.18554 0.0994 0.68292 0.11852 1.1847 0.0181 0.47572 0.0566 0.9711 0.0855 1.1008 0.0289 0.12976 0.038 0.29443 0.02 0.36595-0.0179 0.0715-6e-3 0.14659 0.0269 0.16684 0.0382 0.0236 0.0596 0.32174 0.0596 0.83257v0.79575l-0.17909 8.1e-4c-0.0985 0-0.58823 0.0255-1.0883 0.056-2.9935 0.18287-4.7934 0.23489-4.7949 0.13858z" fill="#6775f8"/>
    <path d="m166.08 151.14c-0.14434-0.14435-0.16887-0.22191-0.2334-0.738-0.0638-0.51053-0.087-2.5393-0.0428-3.7452 7e-3 -0.197-8e-3 -0.52173-0.033-0.72164-0.0415-0.32712-0.0358-0.36828 0.057-0.41149 0.13802-0.0642 2.2964-0.0727 2.6104-0.0102 0.13639 0.0272 0.46568 0.0722 0.73178 0.10011 0.53817 0.0565 0.85404 0.18716 1.02 0.42203 0.0594 0.084 0.20867 0.35115 0.33173 0.59362 0.12306 0.24245 0.3949 0.64511 0.60409 0.89479 0.21588 0.25766 0.40884 0.54906 0.44624 0.67389 0.0362 0.12096 0.0892 0.54574 0.11764 0.94396 0.0285 0.39822 0.068 0.93909 0.0878 1.2019l0.0361 0.47789-0.90248 0.15578c-0.72709 0.12551-1.1648 0.16431-2.2525 0.19966-0.74253 0.0241-1.5902 0.0619-1.8837 0.084l-0.53363 0.0401z" fill="#ff7575"/>
    <path d="m150.05 159.93c-0.1132-0.0439-0.12055-0.0891-0.14891-0.91762-0.0276-0.80627-0.094-1.8192-0.1672-2.5522-0.0166-0.16669-0.0423-0.68122-0.0571-1.1434l-0.0268-0.84034 0.3422-8e-4c0.65719-8.1e-4 2.4939-0.16588 2.8219-0.25355 0.4681-0.12514 2.6527-0.15264 2.6983-0.034 0.0168 0.0439 0.0679 0.39316 0.11341 0.77621 0.0456 0.38306 0.11873 0.94443 0.16264 1.2475 0.19541 1.349 0.14519 3.6658-0.0776 3.5802-0.0462-0.0177-0.63082-0.047-1.2991-0.0651-1.1446-0.0309-1.2376-0.0258-1.6032 0.0873-0.33201 0.10275-0.55074 0.12309-1.5138 0.14074-0.61911 0.0113-1.1792 0-1.2447-0.0255z" fill="#f39a4a"/>
    <path d="m158.95 159.9-0.69392-0.0209-0.1163-0.72854c-0.21358-1.338-0.24257-1.6565-0.292-3.2082-0.027-0.84859-0.0698-1.6579-0.0949-1.7985l-0.0458-0.25561 0.74195-0.0397c0.40807-0.0219 0.81906-0.0638 0.91332-0.0933 0.19373-0.0606 1.9412-0.16838 2.899-0.17887 0.34853-4e-3 0.7246-0.0271 0.83571-0.0518l0.20202-0.0448 0.0327 0.3221c0.0456 0.44919 0.11374 0.83115 0.27372 1.5344 0.25604 1.1256 0.38209 2.9059 0.27527 3.8884l-0.0333 0.30666-0.80682 0.12315c-1.4552 0.22212-2.5962 0.29062-4.0906 0.2456z" fill="#bd83cf"/>
    <path d="m166.49 158.94c0.022-0.44694-5e-3 -0.6694-0.19904-1.6464-0.20626-1.038-0.27881-1.6259-0.36182-2.9318l-0.0305-0.47964 0.17922-0.0274c0.0986-0.0151 0.40238-0.0419 0.67515-0.0597 0.27276-0.0178 0.64471-0.0588 0.82656-0.0913 0.18183-0.0325 0.4794-0.0656 0.66124-0.0736 0.39543-0.0175 1.0522-0.10688 1.4327-0.19496 0.15154-0.0351 0.60192-0.0692 1.0008-0.0758l0.72534-0.012 0.0396 0.44397c0.0218 0.24418 0.0564 1.0763 0.0769 1.8491 0.0438 1.6523 0.0531 1.6116-0.54756 2.3964-0.5919 0.77334-0.72438 0.88184-1.2676 1.0382-0.75358 0.21688-1.4563 0.3211-2.3759 0.3524l-0.86058 0.0293z" fill="#f2c94d"/>
    <path d="m152.91 167.56c-1.3948-0.40441-1.9647-0.78933-2.3478-1.5857-0.32816-0.68228-0.55667-1.9623-0.48717-2.7289 0.0303-0.33371 0.0338-0.33974 0.22977-0.39418 0.10946-0.0304 0.34781-0.0556 0.52965-0.0559 0.35423-8.1e-4 0.63454-0.0424 1.4602-0.21748 0.29971-0.0635 1.0653-0.14749 1.7909-0.19639 0.69707-0.047 1.4065-0.10463 1.5765-0.12812l0.30911-0.0427 0.17369 0.80208c0.21394 0.98798 0.34934 2.3254 0.35841 3.5405 5e-3 0.6757-0.0116 0.93855-0.0628 0.9899-0.0444 0.0445-0.32467 0.0839-0.77146 0.10832-0.38597 0.0211-0.83535 0.0654-0.9986 0.0984-0.52539 0.10619-0.86619 0.0694-1.7604-0.18982z" fill="#37c2e1"/>
    <path d="m158.44 167.39c-0.0173-0.0565-0.0561-0.49951-0.0863-0.98443-0.0301-0.4849-0.10397-1.2908-0.16407-1.7909-0.15838-1.3179-0.19894-2.0698-0.11446-2.1221 0.0375-0.0232 0.35643-0.0535 0.70869-0.0674 0.35225-0.0139 0.76274-0.0601 0.9122-0.10262 0.18448-0.0525 0.56493-0.0772 1.1847-0.0769 0.57837 0 1.125-0.0326 1.4916-0.09 0.50836-0.0796 0.6254-0.0813 0.96431-0.0143l0.38573 0.0762 0.0986 0.68881c0.10888 0.76091 0.10122 2.3848-0.013 2.7649-0.0854 0.28408-0.49723 0.82461-0.82676 1.0851-0.34552 0.27311-0.77777 0.43818-1.3205 0.50428-0.73057 0.089-1.7731 0.1741-2.4924 0.20352-0.64578 0.0264-0.69915 0.021-0.72833-0.0743z" fill="#88cfaf"/>
    <path d="m151.32 169.13c-0.13836-0.0312-0.36881-0.16772-0.60614-0.35917-0.21061-0.1699-0.46442-0.35837-0.56403-0.41884-0.21197-0.12869-0.28662-0.26043-0.51583-0.91029-0.0934-0.26473-0.2416-0.62374-0.32938-0.7978-0.19037-0.37744-0.29821-0.77023-0.37917-1.3811-0.0329-0.2483-0.11001-0.63744-0.17134-0.86474-0.16313-0.60465-0.18608-1.5148-0.0799-3.1685 0.11733-1.8268 0.0787-3.8309-0.10688-5.5379-0.0708-0.6516-0.14494-1.4203-0.16472-1.7082-0.0198-0.28792-0.0698-0.77145-0.11115-1.0745-0.13832-1.0135-0.14108-1.0991-0.0567-1.7633 0.0466-0.36722 0.0842-1.0906 0.0844-1.627 8.1e-4 -0.89069 0.0136-1.0191 0.16944-1.6531 0.093-0.37809 0.19257-0.91057 0.22138-1.1833 0.0482-0.45607 0.075-0.53347 0.33452-0.96431 0.58553-0.97219 0.56042-0.948 1.1468-1.105 0.19799-0.053 0.45918-0.13495 0.58041-0.18211 0.12122-0.0472 0.37538-0.0868 0.56479-0.0882 0.18941-1e-3 0.57078-0.0415 0.84751-0.0893 0.27672-0.0478 0.56086-0.0723 0.63142-0.0546 0.21054 0.0528 1.8762 0.0394 2.5574-0.0206 0.34853-0.0307 1.2412-0.0697 1.9837-0.0867 0.74253-0.0169 1.6574-0.0547 2.0331-0.0839 0.37567-0.0292 1.0328-0.0537 1.4603-0.0545 1.0076-2e-3 2.3776-0.087 2.6978-0.1676 0.19181-0.0483 0.341-0.0476 0.62587 3e-3 0.23335 0.0413 1.1832 0.0735 2.5254 0.0857 1.4096 0.0127 2.2074 0.0407 2.3138 0.0812 0.0894 0.034 0.36111 0.0985 0.60387 0.14329 0.80958 0.14951 0.89037 0.19243 1.5197 0.80727 0.8072 0.78866 1.3379 1.6264 1.49 2.3519 0.0353 0.16838 0.12137 0.51694 0.19127 0.77455 0.27262 1.0046 0.36526 2.5815 0.3619 6.16-2e-3 2.5345-0.01 2.7426-0.112 3.1149-0.0602 0.21943-0.1264 0.53464-0.14711 0.70046-0.0436 0.34948-0.2694 0.85997-0.53081 1.2003-0.241 0.31375-0.58758 0.53742-1.4545 0.93863-1.093 0.50587-2.3066 0.73114-4.3486 0.8072-1.0523 0.0392-1.271 0.0669-1.3787 0.17463-0.0933 0.0933-0.10691 0.38559-0.0276 0.59425 0.0507 0.13322 0.13944 2.6969 0.12528 3.6173-0.015 0.97808-0.5149 2.0026-1.1302 2.3165-0.27593 0.14077-1.5657 0.46971-2.035 0.519-0.19131 0.0201-0.55985 0.0824-0.81899 0.13857-0.25914 0.0561-0.77072 0.12629-1.1368 0.15594-0.36939 0.0299-0.89546 0.11591-1.182 0.19321-0.67302 0.18159-1.0518 0.23743-2.0867 0.30758-0.46976 0.0318-1.1517 0.098-1.5154 0.14702-0.55043 0.0742-0.75821 0.0787-1.2398 0.0266-0.40095-0.0433-0.73932-0.046-1.1021-9e-3 -0.63623 0.0652-1.4361 0.0626-1.7386-6e-3zm4.23-0.81434c0.80187-0.0565 0.99971-0.11496 1.2921-0.38198 0.14545-0.13284 0.17473-0.20716 0.20949-0.53174 0.0812-0.75863-0.0555-2.8392-0.27527-4.1886-0.24623-1.5118-0.32443-1.664-0.82412-1.6037-0.15185 0.0183-0.61086 0.0571-1.02 0.0861-2.2485 0.15956-2.3742 0.1736-3.047 0.34031-0.23626 0.0585-0.7074 0.12782-1.047 0.15395-0.76901 0.0592-1.0955 0.14136-1.2604 0.31719-0.12456 0.13287-0.12804 0.16287-0.11298 0.97269 0.0185 0.99192 0.0848 1.5069 0.27113 2.103 0.29937 0.95786 0.80129 1.6348 1.4784 1.9939 0.34798 0.18457 1.5495 0.62856 2.0647 0.76292 0.32023 0.0835 0.81934 0.0783 2.271-0.0239zm5.1995-0.32929c1.4503-0.0866 2.2118-0.33076 2.8174-0.90351 0.37684-0.35641 0.71111-0.85599 0.81484-1.2178 0.27553-0.96111 0.16188-3.3438-0.19518-4.0922-0.17154-0.35953-0.18976-0.36597-0.91848-0.32513-0.35691 0.02-0.77292 0.06-0.92445 0.0889-0.15154 0.0289-0.77146 0.0638-1.3776 0.0776-0.76774 0.0174-1.2024 0.0519-1.4327 0.11346-0.18185 0.0487-0.52064 0.0869-0.75288 0.085-0.43892-4e-3 -0.90474 0.0631-1.1573 0.16569-0.2871 0.11667-0.29707 0.24819-0.13667 1.8032 0.0803 0.77853 0.18444 1.9238 0.23139 2.5451 0.047 0.6213 0.10959 1.2066 0.1392 1.3006 0.0539 0.17117 0.22602 0.36403 0.38128 0.42723 0.0957 0.0389 1.2353 8e-3 2.5111-0.0681zm-7.8318-7.5564c0.36176-0.11407 0.44403-0.11852 1.5154-0.082 1.5433 0.0525 1.8891 0.0416 1.9686-0.0623 0.16436-0.21484 0.16203-1.9767-5e-3 -3.9052-0.19175-2.212-0.24369-2.5117-0.47861-2.7618-0.12298-0.13091-0.12569-0.13116-1.4148-0.13116-1.0963 0-1.3595 0.0164-1.7406 0.10854-0.74978 0.18125-1.2262 0.23118-2.3509 0.24632-1.1413 0.0154-1.2945 0.0463-1.3514 0.27308-0.0352 0.14019 0.0628 2.5006 0.14439 3.4773 0.0279 0.33337 0.0695 1.0401 0.0926 1.5705 0.0538 1.2354 0.08 1.2848 0.73079 1.3789 0.16669 0.0241 0.79901 0.0359 1.4052 0.0262 0.94871-0.0152 1.1553-0.0344 1.4846-0.13826zm9.2056-0.019c0.4243-0.0516 0.97176-0.13028 1.2166-0.17487 0.24482-0.0446 0.52541-0.0811 0.62354-0.0811 0.23332 0 0.373-0.0789 0.46614-0.26338 0.11871-0.23511 0.16044-2.0539 0.0622-2.7122-0.0429-0.28792-0.11684-0.80865-0.16419-1.1572-0.0474-0.34854-0.13303-0.88166-0.19038-1.1847-0.0573-0.30307-0.1194-0.75834-0.1379-1.0117-0.0392-0.5376-0.12961-0.78865-0.33147-0.92092-0.13332-0.0873-0.17979-0.0887-0.56204-0.0166-0.24766 0.0467-0.55267 0.0656-0.75185 0.0465-0.18432-0.0176-0.47281-9e-3 -0.64108 0.0187-0.16826 0.0279-0.5415 0.0588-0.82942 0.0686-0.53768 0.0184-1.4396 0.0985-2.1215 0.18842-0.21215 0.028-0.63605 0.0522-0.942 0.0537-0.81303 4e-3 -0.82742 0.0349-0.63226 1.3529 0.0314 0.21215 0.0826 1.0924 0.11373 1.9562 0.0711 1.9727 0.13843 2.8433 0.25781 3.3338 0.10351 0.42525 0.19014 0.56391 0.36814 0.5893 0.065 9e-3 0.86213 0.0149 1.7714 0.0126 1.195-3e-3 1.8669-0.0302 2.4246-0.098zm6.5023-0.47461c0.97335-0.1467 1.7806-0.38065 2.0339-0.58947 0.24414-0.20124 1.0046-1.1457 1.2545-1.558l0.1831-0.3021 0.0446-1.4349c0.0288-0.92798 0.0246-1.5712-0.0118-1.8206-0.031-0.21215-0.0716-0.5345-0.0902-0.71635-0.0858-0.8375-0.11367-0.85561-1.2585-0.81737-0.48852 0.0163-1.0308 0.065-1.2051 0.10818-0.43052 0.10669-1.0469 0.19767-1.4464 0.21349-0.18185 7e-3 -0.64059 0.0546-1.0194 0.1054s-0.90524 0.0924-1.1698 0.0925c-0.64048 0-0.669 0.0289-0.62144 0.62284 0.0196 0.24552 0.0568 0.96714 0.0826 1.6036 0.0407 1.0062 0.065 1.2133 0.18565 1.5874 0.21568 0.66859 0.27113 1.1683 0.22719 2.0474-0.0316 0.63211-0.0245 0.7894 0.0378 0.8411 0.17722 0.14708 1.8421 0.15718 2.7734 0.0168zm-14.713-7.9935c2.226-0.0618 2.43-0.0843 2.5789-0.28439 0.10518-0.14135 0.10714-0.17592 0.0415-0.73015-0.0379-0.31997-0.0642-0.89791-0.0585-1.2843 0.0526-3.531 0.0257-3.9077-0.30291-4.2391l-0.17372-0.17516-1.4007 0.0252c-0.7704 0.0139-1.4876 0.0475-1.5937 0.0747-0.10614 0.0272-0.46573 0.065-0.79911 0.0839-1.2567 0.0712-1.6652 0.27038-2.3237 1.133-0.37738 0.49437-0.67085 1.0172-0.82581 1.4711-0.12395 0.36312-0.14577 0.51955-0.14421 1.034 1e-3 0.33338 0.0419 0.84171 0.0909 1.1296s0.0891 0.70406 0.0892 0.92476c0 0.50708 0.10121 0.76156 0.34257 0.86375 0.19392 0.0821 0.65135 0.0793 4.4792-0.0269zm4.9318 0.0219c0.34853-6e-3 1.1172-0.0379 1.7082-0.0713 0.59098-0.0334 1.5705-0.0835 2.1766-0.11116 1.2754-0.0583 1.651-0.0993 1.8558-0.20277 0.19253-0.0972 0.23037-0.233 0.16326-0.58585-0.0302-0.15891-0.0706-0.48555-0.0897-0.72586s-0.0848-0.63706-0.14602-0.88167c-0.0745-0.29787-0.12639-0.76168-0.15706-1.4046-0.0252-0.52793-0.0844-1.2222-0.1316-1.5429s-0.10851-0.77504-0.13623-1.0097c-0.0908-0.76925-0.25143-0.88005-1.0745-0.74138-0.30777 0.0519-0.72074 0.0943-0.91775 0.0943-0.19699 2e-5 -0.50695 0.0237-0.68879 0.0526-0.18185 0.0289-0.78937 0.0916-1.35 0.13918-0.56068 0.0476-1.2178 0.1345-1.4602 0.19303-0.24246 0.0585-0.62506 0.13301-0.85023 0.1655-0.47066 0.0679-0.79795 0.22921-0.88324 0.43529-0.15233 0.36799-0.0461 2.9509 0.16231 3.9454 0.0572 0.27276 0.11855 0.74391 0.13644 1.047 0.0516 0.87485 0.0867 1.0765 0.20817 1.198 0.10042 0.10043 0.14771 0.10684 0.47616 0.0645 0.20056-0.0259 0.64983-0.0518 0.99836-0.0576zm8.1554-0.0796c0.28792-0.031 1.1186-0.0772 1.846-0.10256 1.413-0.0493 2.7879-0.23606 3.2587-0.44264 0.32218-0.14138 0.38018-0.33999 0.30347-1.039-0.0322-0.29315-0.073-0.80576-0.0907-1.1392-0.0575-1.0837-0.19167-1.4562-0.75998-2.1097-0.16568-0.19052-0.41869-0.56758-0.56226-0.83791-0.48545-0.91412-0.76801-1.1152-1.7035-1.2122-0.289-0.03-0.6315-0.0766-0.76111-0.10362-0.22961-0.0479-1.4535-0.0873-2.3195-0.0748-0.52121 8e-3 -0.87521 0.15306-1.0109 0.41552-0.0734 0.14195-0.0808 0.25645-0.0431 0.66937 0.025 0.27397 0.0348 0.6965 0.0218 0.93896-0.013 0.24245-0.0238 1.1351-0.024 1.9837-8e-4 1.865 0.0654 2.3429 0.36574 2.6553 0.18825 0.1959 0.40598 0.33158 0.65244 0.40655 0.18762 0.0571 0.22743 0.0567 0.82692-8e-3z" fill="#2d2d39"/>
   </g>
  </g>
 </g>
</svg>
