<?xml version="1.0" encoding="UTF-8" standalone="no"?>
<!-- Created with Inkscape (http://www.inkscape.org/) -->

<svg
   xmlns:dc="http://purl.org/dc/elements/1.1/"
   xmlns:cc="http://creativecommons.org/ns#"
   xmlns:rdf="http://www.w3.org/1999/02/22-rdf-syntax-ns#"
   xmlns:svg="http://www.w3.org/2000/svg"
   xmlns="http://www.w3.org/2000/svg"
   xmlns:sodipodi="http://sodipodi.sourceforge.net/DTD/sodipodi-0.dtd"
   xmlns:inkscape="http://www.inkscape.org/namespaces/inkscape"
   width="17.773129mm"
   height="21.042507mm"
   viewBox="0 0 17.773129 21.042507"
   version="1.1"
   id="svg13539"
   inkscape:version="0.92.3 (2405546, 2018-03-11)"
   sodipodi:docname="StackOverflow.svg">
  <defs
     id="defs13533" />
  <sodipodi:namedview
     id="base"
     pagecolor="#ffffff"
     bordercolor="#666666"
     borderopacity="1.0"
     inkscape:pageopacity="0.0"
     inkscape:pageshadow="2"
     inkscape:zoom="0.35"
     inkscape:cx="-49.702264"
     inkscape:cy="11.570968"
     inkscape:document-units="mm"
     inkscape:current-layer="layer1"
     showgrid="false"
     fit-margin-top="0"
     fit-margin-left="0"
     fit-margin-right="0"
     fit-margin-bottom="0"
     inkscape:pagecheckerboard="true"
     inkscape:window-width="1920"
     inkscape:window-height="1025"
     inkscape:window-x="0"
     inkscape:window-y="27"
     inkscape:window-maximized="1" />
  <metadata
     id="metadata13536">
    <rdf:RDF>
      <cc:Work
         rdf:about="">
        <dc:format>image/svg+xml</dc:format>
        <dc:type
           rdf:resource="http://purl.org/dc/dcmitype/StillImage" />
        <dc:title></dc:title>
      </cc:Work>
    </rdf:RDF>
  </metadata>
  <g
     inkscape:label="Ebene 1"
     inkscape:groupmode="layer"
     id="layer1"
     transform="translate(-118.98372,-130.85231)">
    <g
       transform="matrix(0.35277777,0,0,-0.35277777,74.263332,247.31251)"
       id="g13512">
      <path
         inkscape:connector-curvature="0"
         id="path13334"
         style="fill:#000000;fill-opacity:1;fill-rule:evenodd;stroke:none"
         d="m 172.90348,272.58737 c 0,0 0.82135,0.0603 1.15155,-0.14102 0.40219,-0.24527 0.47201,-0.78211 0.0856,-1.05264 -0.0147,-0.0104 0.0722,0.0194 0.0915,-0.0104 0.0778,-0.11978 -0.23401,-0.17578 -0.37201,-0.21258 -0.26819,-0.0715 -0.55511,0 -0.83267,0 -0.78821,0 -1.58337,-0.0664 -2.37405,-0.0715 -2.68979,-0.0174 -5.37162,-0.0243 -8.06104,-0.0855 -7.59881,-0.17276 -15.20166,-0.173 -22.80118,-0.30179 -3.12137,-0.0529 -6.28882,0.13495 -9.40747,-0.025 -0.28772,-0.0147 -2.96689,-0.58081 -2.95865,0.67868 0.006,0.97882 1.926,0.71439 2.48032,0.72443 2.7778,0.0504 5.58475,0.0858 8.36218,0.0539 8.06546,-0.0926 16.17139,0.093 24.23624,0.28723 2.72589,0.0657 5.44092,0.0683 8.1673,0.0854 1.05511,0.007 2.33526,0.27933 3.34845,-0.0584 l -1.11612,0.12921 z m -44.55713,-1.11542 c 0,0 0.0118,0.0354 0.0177,0.0532 z m -0.28345,0.3898 c 0,0 -0.0236,0.005 -0.0177,0.004 z" />
      <path
         inkscape:connector-curvature="0"
         id="path13336"
         style="fill:#000000;fill-opacity:1;fill-rule:evenodd;stroke:none"
         d="m 173.86017,292.85385 c 0,0 0.39423,-0.0393 0.51377,-0.17517 0.17511,-0.19907 0.16513,-0.56726 0.17715,-0.79724 0.0673,-1.28473 -0.0177,-2.49945 -0.0177,-3.77432 0,-3.68934 0.033,-7.38511 0.12149,-11.07215 0.0343,-1.42813 0.0385,-2.85892 0.0544,-4.28741 0.004,-0.34516 -0.17798,-0.91034 -0.61886,-0.93897 -0.65085,-0.0423 -0.79279,0.61597 -0.79859,1.08072 -0.0163,1.3056 -0.0189,2.60996 -0.0493,3.91532 -0.0895,3.85153 -0.22345,7.75296 -0.10556,11.60434 0.0156,0.50787 0.0311,1.01571 0.0467,1.52359 0.002,0.0711 0.002,0.14154 8.2e-4,0.21264 -0.0102,0.44879 -0.0204,0.89765 -0.0306,1.34644 -0.015,0.65982 0.36499,1.75689 1.18964,1.20727 l -0.4834,0.15494 z" />
      <path
         inkscape:connector-curvature="0"
         id="path13340"
         style="fill:#000000;fill-opacity:1;fill-rule:evenodd;stroke:none"
         d="m 132.46842,294.17966 c 0,0 0.44162,-0.12375 0.56692,-0.2963 0.20932,-0.28821 0.10407,-0.75766 -0.17718,-0.95666 -0.28391,-0.20093 -1.08032,-0.18811 -1.25788,-0.20343 -0.43203,-0.0372 -0.95202,0.0134 -1.32873,0.0234 -0.55331,0.0148 -2.50736,-0.48388 -2.56891,0.62293 -0.0326,0.58706 0.93347,0.69873 1.31104,0.73413 0.83511,0.0783 1.64639,0.0111 2.48031,0.0277 0.67227,0.0134 1.01584,0.17242 1.51337,-0.22568 l -0.53894,0.27393 z" />
      <path
         inkscape:connector-curvature="0"
         id="path13342"
         style="fill:#000000;fill-opacity:1;fill-rule:evenodd;stroke:none"
         d="m 127.60337,293.79477 c 0,0 0.33557,0.0176 0.4418,-0.0886 0.18677,-0.18668 0.19312,-0.70758 0.19507,-0.90357 0.0121,-1.22244 0.0272,-2.44485 0.036,-3.66733 0.0281,-3.9096 0.0192,-7.82086 0.10797,-11.72833 0.0356,-1.569 0.0856,-3.16275 0.0672,-4.73031 -0.002,-0.14652 0.23395,-2.31235 -0.68967,-2.19681 -1.01959,0.12753 -0.72641,1.58493 -0.72641,2.21451 0,1.06317 -0.0523,2.10989 -0.0369,3.17129 0.0602,4.15582 -0.11063,8.33264 -0.14096,12.4902 -0.005,0.73816 -0.0108,1.47635 -0.0162,2.21451 -0.006,0.80747 -0.47793,3.2244 1.0257,3.2244 h -0.26355 z" />
      <path
         inkscape:connector-curvature="0"
         id="path13344"
         style="fill:#000000;fill-opacity:1;fill-rule:evenodd;stroke:none"
         d="m 133.07666,294.04196 c 0,0 0.32264,0.01 0.43561,-0.0856 0.24875,-0.21048 0.31897,-0.49225 0.34394,-0.81705 0.0536,-0.69794 0.003,-2.4425 0.0156,-3.06494 0.0451,-2.30112 0.0418,-4.76022 0.14877,-7.03348 0.0445,-0.94549 0.041,-1.8548 0.069,-2.79922 0.0156,-0.52558 0.0312,-1.05118 0.0469,-1.57675 0.004,-0.14423 -0.15979,-0.68345 -0.12308,-0.38978 0.002,0.0177 -0.25781,-0.34753 -0.4584,-0.38974 -0.40784,-0.0859 -0.72449,0.25116 -0.81497,0.62006 -0.19248,0.78473 -0.0143,2.07028 -0.0587,2.92325 -0.13571,2.61172 -0.18469,5.233 -0.20804,7.84842 -0.005,0.59054 -0.0105,1.18109 -0.0158,1.77161 -6.4e-4,0.0709 -0.002,0.14175 -0.003,0.21264 -0.0102,0.43109 -0.0203,0.86215 -0.0305,1.29328 -0.0147,0.62619 0.35876,2.01922 1.21057,1.29855 l -0.55756,0.18878 z m 0.40747,-0.72552 c 0,0 0,0 0,0 z m -0.69094,0.14175 c 0,0 0,0 0,0 0,0 0,0 0,0 z" />
      <path
         inkscape:connector-curvature="0"
         id="path13346"
         style="fill:#000000;fill-opacity:1;fill-rule:evenodd;stroke:none"
         d="m 169.70267,278.91061 c 0,0 0.23621,-0.0308 0.35434,-0.0462 0.20697,-0.027 0.45209,-0.23856 0.53149,-0.42987 0.2439,-0.58753 -0.33526,-1.02557 -0.86813,-0.95886 -0.0177,0.002 -1.25784,-0.0425 -1.87793,-0.0648 -0.77911,-0.0281 -1.55902,-0.0303 -2.33862,-0.0407 -3.02219,-0.0403 -6.04682,0.0558 -9.07086,0.0375 -5.35468,-0.0325 -10.71714,-0.10467 -16.06888,-0.24673 -1.66495,-0.0443 -3.34836,-0.006 -5.0138,-0.0188 -0.55233,-0.004 -1.1065,0.0835 -1.64764,-0.0324 -0.0177,-0.004 -0.28705,-0.19431 -0.4429,-0.19867 -0.21973,-0.006 -0.48853,0.12598 -0.60236,0.31888 -0.24942,0.42267 0.0102,0.94018 0.38977,1.16931 0.58368,0.35232 1.29752,0.15567 1.93109,0.16019 0.75593,0.005 1.51182,0.0108 2.26774,0.0162 2.08981,0.0149 4.1831,-0.0101 6.27163,0.0387 6.87729,0.16058 13.78012,0.3685 20.65747,0.16018 1.18631,-0.0359 2.48075,0.002 3.64963,0.0547 0.76862,0.0346 1.78662,0.28543 2.5372,-0.11203 l -0.65924,0.19354 z" />
      <path
         inkscape:connector-curvature="0"
         id="path13348"
         style="fill:#000000;fill-opacity:1;fill-rule:evenodd;stroke:none"
         d="m 168.59565,292.72223 c 0,0 0.13656,-0.058 0.17984,-0.11444 0.082,-0.10703 0.0809,-0.33499 0,-0.44294 -0.12842,-0.17117 -0.47394,-0.17117 -0.60236,0 -0.32101,0.42804 0.46692,0.849 0.66144,0.26575 z" />
      <path
         inkscape:connector-curvature="0"
         id="path13350"
         style="fill:#000000;fill-opacity:1;fill-rule:evenodd;stroke:none"
         d="m 169.18302,293.73724 c 0,0 0.34381,-0.10733 0.44287,-0.24362 0.17053,-0.23462 0.13257,-0.63861 0.11825,-0.90356 -0.0747,-1.3823 -0.0606,-2.76181 -0.0812,-4.14563 -0.0512,-3.42508 0.0633,-6.89222 0.22873,-10.31104 0,0 0.002,-0.27072 -0.0532,-0.38977 -0.0856,-0.18545 -0.28967,-0.37094 -0.49603,-0.40747 -0.35953,-0.0637 -0.73019,0.21658 -0.8327,0.54922 -0.22394,0.72648 -0.13046,1.80503 -0.14383,2.48032 -0.0532,2.69357 -0.15839,5.42014 -0.12042,8.11417 0.006,0.4021 0.0186,0.81558 0.0157,1.22238 -3e-4,0.0472 -0.12313,2.22482 0.0183,2.99411 0.12635,0.68725 0.66062,1.33624 1.31723,0.82019 l -0.41366,0.2207 z m -0.34552,-0.26132 c 0,0 -0.0226,0.008 -0.0265,0 0.0177,-0.0177 0.0332,0 0.0265,0 z" />
      <path
         inkscape:connector-curvature="0"
         id="path13352"
         style="fill:#000000;fill-opacity:1;fill-rule:evenodd;stroke:none"
         d="m 152.91919,283.05789 c 0,0 0.66315,-0.01 0.99213,-0.0467 1.27408,-0.14356 1.1568,-0.12961 2.51575,-0.0969 2.22894,0.0537 4.43771,-0.16248 6.66143,-0.22727 0.0177,-5.2e-4 0.20026,0.10471 0.30118,0.10581 0.17948,0.002 0.43683,-0.0603 0.58463,-0.15949 0.19119,-0.1282 0.18796,-0.48465 0,-0.62009 -0.30881,-0.22253 -1.12525,-0.10739 -1.48819,-0.13391 -1.35043,-0.0987 -2.71823,0.10157 -4.0748,0.11515 -1.38419,0.0139 -2.54639,-0.13746 -3.87991,-0.21149 -0.57218,-0.0318 -1.11103,0.0485 -1.68308,0.0531 -2.55154,0.0204 -5.11957,-0.15637 -7.67126,-0.24432 -1.7984,-0.062 -3.63623,0.009 -5.43897,-0.0234 -0.34939,-0.006 -1.8457,-0.16699 -1.87796,0.56891 -0.0187,0.42691 1.09921,0.55905 1.15531,0.57437 0.72644,0.19815 1.94509,0.14352 2.67147,0.15347 1.9704,0.027 3.96524,-0.0309 5.93503,0.0694 2.45712,0.12515 4.95508,0.22696 7.40552,-0.0492 l -2.10828,0.17248 z" />
      <path
         inkscape:connector-curvature="0"
         id="path13354"
         style="fill:#000000;fill-opacity:1;fill-rule:evenodd;stroke:none"
         d="m 163.35422,289.25384 c 0,0 0.23624,-0.0535 0.31754,-0.13482 0.21454,-0.21457 0.3789,-0.36948 0.462,-0.67462 0.12338,-0.45313 -0.14975,-0.94358 -0.62008,-1.04526 -0.65857,-0.1424 -1.34674,-0.0496 -2.01969,-0.0833 -1.61859,-0.0809 -3.14288,-0.079 -4.76575,-0.0949 -3.87686,-0.0381 -7.74768,-0.22242 -11.62203,-0.33258 -1.7602,-0.05 -3.51969,-0.0375 -5.27955,-0.1052 -0.46551,-0.0179 -1.36261,-0.0229 -1.47045,0.61597 -0.10245,0.60666 0.60229,0.82669 1.06298,0.83444 1.48844,0.0251 2.97635,0.0239 4.46457,0.0496 5.10245,0.088 10.20398,0.24844 15.30707,0.35614 1.2565,0.0265 2.53137,0.15946 3.78958,0.15946 0.0195,0 0.1666,0.44473 0.35611,0.46063 0.24191,0.0203 0.45822,-0.26331 0.59415,-0.39932 l -0.57645,0.39379 z m -24.39566,-1.25235 c 0,0 -0.0236,-0.0236 -0.0177,-0.0178 z m 24.44882,0.77955 c 0,0 0,0 0,0 z" />
      <path
         inkscape:connector-curvature="0"
         id="path13356"
         style="fill:#000000;fill-opacity:1;fill-rule:evenodd;stroke:none"
         d="m 139.48987,294.80197 c 0,0 1.30167,-0.18014 1.94739,-0.30026 1.3718,-0.25522 2.75229,-0.52497 4.12817,-0.76032 4.40223,-0.75302 8.73285,-1.87112 13.12937,-2.63864 1.55536,-0.27154 3.12497,-0.60113 4.67883,-0.90188 0.31043,-0.0601 0.72302,-0.0678 0.95502,-0.32142 0.31399,-0.34317 0.28665,-0.93093 -0.19486,-1.0754 -0.0177,-0.005 -0.0271,-0.023 -0.0355,-0.023 -0.0177,0 -0.17166,-0.0542 -0.24801,-0.039 -0.0177,0.004 -0.10044,0.0242 -0.14176,0.0345 -0.0177,0.004 -0.36188,-0.007 -0.52988,0.0238 -0.81198,0.14988 -1.4432,0.25138 -2.26931,0.37253 -1.69361,0.24835 -3.41736,0.72275 -5.10086,1.06442 -4.1669,0.84555 -8.32694,1.70063 -12.50779,2.47849 -0.69201,0.12878 -1.38406,0.25754 -2.07608,0.38629 -0.68628,0.12769 -2.25311,10e-4 -2.58499,0.9053 -0.22772,0.62021 0.47321,0.85199 0.93799,0.78119 1.47107,-0.22418 2.50516,-0.40701 4.00549,-0.68612 l -4.09326,0.69949 z" />
      <path
         inkscape:connector-curvature="0"
         id="path13358"
         style="fill:#000000;fill-opacity:1;fill-rule:evenodd;stroke:none"
         d="m 141.16543,300.10501 c 0,0 0.44825,-0.0604 0.66763,-0.11349 0.44446,-0.10774 0.88891,-0.21543 1.33339,-0.32317 1.0364,-0.25118 2.08205,-0.47763 3.11673,-0.73368 4.11621,-1.01858 8.23285,-2.08877 12.39331,-2.91254 0.90899,-0.18001 1.80959,-0.40106 2.71891,-0.57935 0.67953,-0.13323 1.35904,-0.26655 2.03854,-0.39981 0.24903,-0.0488 0.79458,-0.61773 0.60824,-0.57673 -0.0175,0.004 0.007,-0.1978 0.002,-0.29874 -0.007,-0.13671 -0.0838,-0.27921 -0.1794,-0.38097 -0.14631,-0.15573 -0.4558,-0.13615 -0.64518,-0.12628 -1.29004,0.0671 -3.68658,0.73915 -4.88114,0.97806 -4.17163,0.83434 -8.30026,1.90505 -12.42772,2.93177 -1.38495,0.3445 -2.79759,0.73237 -4.20583,0.96761 -0.55296,0.0923 -1.12126,0.19162 -1.42972,0.71065 -0.11929,0.20069 -0.1766,0.56763 0.0664,0.71212 0.0183,0.0109 0.21175,0.079 0.30846,0.11313 0.17577,0.0619 0.41572,0.0478 0.60307,0.017 0.6872,-0.1127 1.27506,-0.26768 1.98232,-0.43907 l -2.07029,0.45346 z m -0.80524,-0.13373 c 0,0 0,0 0,0 z" />
      <path
         inkscape:connector-curvature="0"
         id="path13360"
         style="fill:#000000;fill-opacity:1;fill-rule:evenodd;stroke:none"
         d="m 142.29959,307.59915 c 0,0 0.22442,-0.0391 0.33661,-0.0586 0.2117,-0.0368 0.40777,-0.1644 0.60342,-0.24997 0.60803,-0.26599 1.28479,-0.59985 1.81592,-0.84808 1.20676,-0.56391 2.38287,-1.14127 3.59625,-1.70127 3.51761,-1.6235 7.02341,-3.26056 10.57642,-4.79959 2.02524,-0.87723 3.27142,-1.34259 5.19204,-2.10516 0.36652,-0.14557 1.80838,-0.49582 2.08014,-0.95279 0.35797,-0.60193 -0.081,-1.06299 -0.65551,-1.06299 -0.0177,0 0.0886,-0.0136 0.0886,-0.0532 0,-0.0498 -0.0945,0.0315 -0.14176,0.0472 -0.0177,0.006 -0.0419,0.002 -0.0531,0.006 -0.0178,0.0177 -0.48095,0.16391 -0.70868,0.24802 -0.44571,0.16458 -0.87518,0.37274 -1.32306,0.5318 -2.40396,0.85376 -2.14175,0.78711 -5.06314,2.04794 -4.28192,1.84796 -8.49804,3.82602 -12.72189,5.80801 -0.63599,0.2984 -1.25159,0.64096 -1.89593,0.92078 -0.63254,0.27466 -1.77356,0.60187 -2.31092,1.14423 -0.33273,0.33581 -0.27026,0.89074 0.21259,1.04525 0.44058,0.141 0.90994,-0.10022 1.29538,-0.26889 l -0.92334,0.30127 z" />
      <path
         inkscape:connector-curvature="0"
         id="path13362"
         style="fill:#000000;fill-opacity:1;fill-rule:evenodd;stroke:none"
         d="m 145.35422,311.25845 c 0,0 0.21259,-0.058 0.31888,-0.087 0.19553,-0.0533 0.44305,-0.18778 0.59286,-0.25434 0.37977,-0.16876 0.72773,-0.40268 1.10328,-0.58032 1.29095,-0.61078 2.71676,-1.39288 4.01904,-1.91223 2.68603,-1.07114 5.26248,-2.31967 7.90887,-3.48608 2.163,-0.9534 4.37177,-1.7865 6.52103,-2.77396 0.0164,-0.008 0.2948,0.18893 0.44156,0.15192 0.30554,-0.0771 0.47378,-0.47406 0.67325,-0.67325 0.0177,-0.0177 0.26358,-0.36899 0.24801,-0.56693 -0.022,-0.27984 -0.3114,-0.56643 -0.56692,-0.63781 -0.64206,-0.17936 -1.27063,0.40939 -1.88538,0.66723 -0.94854,0.39777 -1.88827,0.83707 -2.83514,1.23978 -2.7858,1.18472 -5.5448,2.39203 -8.28342,3.6737 -0.97632,0.45691 -2.02579,0.75495 -3.00201,1.21476 -1.78491,0.84073 -3.87189,1.55856 -5.50192,2.68289 -0.43073,0.29706 -0.76215,1.03137 -0.0886,1.2933 0.42865,0.16669 0.94742,-0.15927 1.31378,-0.32205 l -0.97717,0.37036 z" />
      <path
         inkscape:connector-curvature="0"
         id="path13364"
         style="fill:#000000;fill-opacity:1;fill-rule:evenodd;stroke:none"
         d="m 149.97206,317.39267 c 0,0 0.14405,-0.0295 0.20905,-0.062 0.0177,-0.009 0.31888,-0.17252 0.4631,-0.26483 0.28388,-0.1817 0.53016,-0.42694 0.78806,-0.64633 1.23691,-1.05231 2.50351,-2.06107 3.73486,-3.12061 0.48783,-0.41971 1.04648,-0.75174 1.55139,-1.1503 2.30158,-1.81698 4.50809,-3.75079 6.83448,-5.53937 1.0393,-0.79907 2.21804,-1.66732 3.29382,-2.53552 0.28125,-0.22699 0.56253,-0.45398 0.84381,-0.68097 0.32874,-0.26532 1.30994,-1.02154 0.68536,-1.53747 -0.77987,-0.64423 -2.13247,0.90374 -2.56478,1.23379 -3.39878,2.59473 -6.67011,5.32099 -10.01395,7.97879 -0.49994,0.39737 -1.0484,0.7348 -1.53384,1.15012 -1.40836,1.20489 -3.19788,2.24569 -4.38349,3.65109 -0.23721,0.28119 -0.47317,0.71237 -0.38977,1.09842 0.0652,0.30188 0.39121,0.51312 0.67325,0.37207 l -0.19135,0.0532 z" />
      <path
         inkscape:connector-curvature="0"
         id="path13366"
         style="fill:#000000;fill-opacity:1;fill-rule:evenodd;stroke:none"
         d="m 152.81287,320.93552 c 0,0 0.15356,-0.009 0.23035,-0.0136 0.15011,-0.009 0.29803,-0.067 0.4429,-0.1048 0.33627,-0.0878 0.76773,-0.45713 1.03009,-0.65003 0.96374,-0.70865 1.96307,-1.57553 2.87836,-2.34665 3.39166,-2.85733 6.90823,-5.5437 10.48422,-8.16613 1.30453,-0.95664 2.79645,-1.8198 3.90851,-2.99732 0.5921,-0.62695 0.55838,-1.64261 -0.51377,-1.43844 -0.0177,0.003 0.006,-0.008 0,-0.006 -0.0177,0.009 -0.0295,0.0207 -0.0354,0.0266 -0.0177,0.0177 -0.0295,0.0296 -0.0355,0.0354 -0.0177,0.0177 -0.0588,0.0411 -0.0753,0.0576 -0.0133,0.0133 -0.23361,0.22067 -0.34637,0.32154 -0.22052,0.19726 -0.44397,0.42858 -0.69302,0.60311 -1.57254,1.10209 -3.05579,2.25242 -4.5867,3.40473 -3.34684,2.51916 -6.61768,5.05456 -9.82526,7.75107 -0.65265,0.54867 -3.10983,1.80258 -3.19855,3.13357 -0.001,0.0177 0.15851,0.35315 0.31769,0.3898 0.19583,0.0451 0.49646,-0.0687 0.67325,-0.1148 l -0.65555,0.11377 z m -0.33658,-0.37104 c 0,0 -0.006,0.0177 0,0.0177 z" />
      <path
         inkscape:connector-curvature="0"
         id="path13370"
         style="fill:#000000;fill-opacity:1;fill-rule:evenodd;stroke:none"
         d="m 158.12726,326.99386 c 0,0 0.27091,-0.0812 0.32776,-0.19485 0.009,-0.0178 0.31052,-0.30823 0.46137,-0.45349 0.29498,-0.28409 0.53949,-0.62757 0.77865,-0.96176 1.19648,-1.672 1.52897,-2.11292 2.81366,-3.76261 2.25769,-2.89905 4.47721,-5.81247 6.73246,-8.71658 0.35016,-0.45081 0.7723,-0.84308 1.12823,-1.28867 0.61682,-0.77224 1.11368,-1.64639 1.69263,-2.44247 0.18167,-0.24985 1.43576,-1.4216 0.89401,-2.05753 -0.34833,-0.4089 -0.99921,-0.16467 -1.26971,0.19193 -0.85788,1.13086 -1.5517,2.44342 -2.48621,3.50256 -2.04648,2.31937 -3.84402,4.80356 -5.66931,7.28977 -1.17392,1.59903 -2.54578,3.05346 -3.7088,4.66375 -0.34928,0.48362 -0.69855,0.96723 -1.04782,1.45084 -0.18787,0.26013 -0.41193,0.5058 -0.61344,0.74762 -0.36538,0.43841 -1.29623,2.03149 -0.0335,2.03149 z m 0.23032,-0.63781 c 0,0 0,0 0,0 z" />
      <path
         inkscape:connector-curvature="0"
         id="path13372"
         style="fill:#000000;fill-opacity:1;fill-rule:evenodd;stroke:none"
         d="m 162.59241,329.93298 c 0,0 0.22626,-0.0686 0.31891,-0.13815 0.19986,-0.15003 0.39908,-0.32303 0.56,-0.51611 0.57455,-0.68949 0.79168,-1.01926 1.38092,-1.85947 0.92764,-1.32272 1.82086,-2.66101 2.81259,-3.93604 0.91589,-1.17752 1.89175,-2.31893 2.77603,-3.52108 1.97443,-2.68421 3.6145,-5.59882 5.57028,-8.29471 0.0104,-0.0144 0.40757,-0.1062 0.5065,-0.26239 0.1948,-0.30747 0.27985,-0.68796 0.41843,-1.02869 0.007,-0.0166 0.0884,-0.082 0.0599,-0.0963 -0.0177,-0.009 0.18689,-0.31195 0.14547,-0.46948 -0.0902,-0.34281 -0.33328,-0.69321 -0.74786,-0.63782 -0.77796,0.104 -2.1192,2.47989 -2.13428,2.50067 -0.0419,0.0576 -0.0822,0.11572 -0.12131,0.17526 -1.58487,2.40906 -3.10345,4.92221 -4.81329,7.24533 -1.17999,1.60324 -2.47775,3.13501 -3.69119,4.71686 -1.13468,1.47919 -2.24906,3.10935 -3.25098,4.68387 -0.21161,0.33252 -0.48309,1.67868 0.35163,1.40048 l -0.14176,0.0378 z" />
      <path
         inkscape:connector-curvature="0"
         id="path13374"
         style="fill:#000000;fill-opacity:1;fill-rule:evenodd;stroke:none"
         d="m 137.98209,288.22241 c 0,0 0.34201,-0.1933 0.40955,-0.36267 0.10159,-0.25488 0.0123,-0.74005 9.4e-4,-0.95666 -9.4e-4,-0.0177 0.0255,-0.14209 -9.4e-4,-0.19492 -0.0177,-0.0177 -0.0343,-0.20703 -0.0253,-0.30118 0.0405,-0.42517 0.081,-0.8504 0.12152,-1.27557 0.0909,-0.95447 0.6134,-2.02866 0.34674,-3.02954 -0.14557,-0.54633 -0.72928,-0.75598 -1.13767,-0.38471 -0.0139,0.0127 -0.0757,0.0406 -0.0926,0.0678 -0.01,0.0157 -0.01,0.0157 -0.01,0.0157 0,0.0177 -0.14218,0.23309 -0.13851,0.35434 0.0107,0.35403 0.051,0.74789 -0.0263,1.09613 -0.27023,1.21606 -0.7457,2.85971 -0.4375,4.13025 0.16843,0.69439 0.86694,1.18863 1.37836,0.50665 l -0.38831,0.33435 z" />
      <path
         inkscape:connector-curvature="0"
         id="path13376"
         style="fill:#000000;fill-opacity:1;fill-rule:evenodd;stroke:none"
         d="m 165.0019,283.07626 c 0,0 0,0.0354 0,0.0532 0,0.0177 0,0.0177 0,0.0177 0,-0.0177 -0.008,-0.0413 -0.0118,-0.0531 z m -0.0292,-0.0135 c 0,0 -0.3128,-0.34262 -0.52002,-0.34079 -0.24911,0.002 -0.57233,0.20502 -0.67325,0.4429 -0.3164,0.74601 -0.14166,1.75986 -0.24801,2.53348 -0.0986,0.71735 -0.49085,1.50592 -0.33661,2.25 0.0331,0.15961 0.0895,0.32889 0.19116,0.45597 0.72034,0.90042 2.00931,-0.068 1.2793,-0.98746 -0.0177,-0.0177 0.0947,-0.6684 0.15945,-0.9921 0.12909,-0.64535 0.11032,-1.28372 0.20987,-1.93109 0.003,-0.0177 0.14291,-0.23263 0.14447,-0.35437 0.002,-0.13785 -0.04,-0.84592 -0.15945,-1.04526 -0.0177,-0.0178 -0.0354,-0.0549 -0.0354,-0.0443 l -0.0115,0.013 z" />
      <path
         inkscape:connector-curvature="0"
         id="path13378"
         style="fill:#000000;fill-opacity:1;fill-rule:evenodd;stroke:none"
         d="m 164.77391,295.09832 c 0,0 0.18896,-0.0199 0.28348,-0.0298 0.10705,-0.0113 0.26687,-0.19531 0.31884,-0.2872 0.14853,-0.26257 0.0445,-0.60196 0.0509,-0.90353 0.024,-1.12531 -0.53022,-2.20444 -0.72415,-3.29529 -0.0764,-0.42959 -0.0157,-1.19223 -0.17719,-1.59448 -0.0988,-0.24616 -0.50308,-0.3765 -0.74408,-0.30118 -0.64169,0.20053 -0.54446,0.96127 -0.53339,1.47049 0.0215,0.99301 0.4155,1.95148 0.64963,2.90759 0.10755,0.43921 0.0728,0.92914 0.20267,1.36206 0.19519,0.65079 0.77692,0.85303 1.24982,0.3801 l -0.57657,0.29129 z m 0.23031,-1.46863 c 0,0 0,0 0,0 z" />
      <path
         inkscape:connector-curvature="0"
         id="path13380"
         style="fill:#000000;fill-opacity:1;fill-rule:evenodd;stroke:none"
         d="m 139.96041,299.70984 c 0,0 0.53604,-0.19424 0.53152,-0.42001 -0.0143,-0.71487 -0.26977,-1.40445 -0.38962,-2.10934 -0.11383,-0.66974 0.31315,-2.78269 -0.85055,-2.88672 -0.77905,-0.0696 -0.64966,1.07416 -0.61203,1.48816 0.0372,0.40936 0.0307,0.84384 0.0421,1.24017 0.0108,0.3786 0.12512,0.8277 0.17993,1.15158 0.10944,0.64664 0.6074,2.15018 1.53208,1.31784 l -0.43338,0.21832 z" />
      <path
         inkscape:connector-curvature="0"
         id="path13382"
         style="fill:#000000;fill-opacity:1;fill-rule:evenodd;stroke:none"
         d="m 144.80619,311.17931 c 0,0 0.16339,-0.0357 0.23032,-0.0823 0.15039,-0.10461 0.20846,-0.29061 0.18011,-0.4606 -0.003,-0.0177 -0.14938,-0.56463 -0.25625,-0.82592 -0.26096,-0.63788 -0.4487,-0.98694 -0.80097,-1.62101 -0.009,-0.0157 0.0891,-0.33441 0.009,-0.45861 -0.16439,-0.25489 -0.45297,-0.53052 -0.72638,-0.65549 -0.37368,-0.17081 -0.83605,0.17755 -0.92126,0.53149 -0.0645,0.2677 0.0259,0.57086 0.16007,0.80087 0.21218,0.36371 0.42434,0.72745 0.63653,1.09116 0.26306,0.45096 0.97376,2.50934 1.85581,1.43109 l -0.36698,0.2493 z m 0.40747,-0.56061 c 0,0 0,0 0,0 0,0 0,0.0177 0,0.0177 z" />
      <path
         inkscape:connector-curvature="0"
         id="path13384"
         style="fill:#000000;fill-opacity:1;fill-rule:evenodd;stroke:none"
         d="m 167.11014,301.97491 c 0,0 0.20893,-0.0352 0.30118,-0.0836 0.16067,-0.0843 0.29062,-0.27053 0.33664,-0.4429 0.0852,-0.31918 0.0166,-1.4938 -0.53149,-1.40258 -0.0177,0.003 -0.30234,-0.85093 -0.44471,-1.27784 -0.0702,-0.21051 -0.13717,-0.42196 -0.20532,-0.63311 -0.006,-0.0172 0.0516,-0.20792 0.0299,-0.30066 -0.0608,-0.26078 -0.20322,-0.5542 -0.37207,-0.76184 -0.3356,-0.41263 -0.96741,-0.28653 -1.18698,0.17718 -0.14252,0.301 -0.0209,0.64197 0.0658,0.93564 0.0895,0.30304 0.17887,0.60608 0.26831,0.90915 0.14545,0.49286 0.84323,3.79425 2.22418,2.64343 l -0.48544,0.23718 z" />
      <path
         inkscape:connector-curvature="0"
         id="path13386"
         style="fill:#000000;fill-opacity:1;fill-rule:evenodd;stroke:none"
         d="m 152.79297,321.47207 c 0,0 0.18597,-0.0501 0.26678,-0.10001 0.1395,-0.0862 0.26654,-0.2586 0.28345,-0.42523 0.0328,-0.32275 -0.23529,-0.57773 -0.53149,-0.55078 -0.0177,0.002 -0.10898,-0.0689 -0.15137,-0.10791 -0.14728,-0.13547 -0.29715,-0.2673 -0.43759,-0.40961 -0.71128,-0.72079 -1.14127,-1.06473 -1.64331,-1.80176 -0.29666,-0.43557 -0.47348,-0.99878 -0.85038,-1.34643 -0.28918,-0.26676 -0.81662,-0.11008 -0.99215,0.21258 -0.37705,0.69309 0.4928,1.62088 0.79104,2.07166 0.16083,0.24313 0.37363,0.45471 0.56183,0.67328 0.47782,0.5549 2.1167,2.4599 3.13703,1.53235 z m -0.15839,-0.49863 c 0,0 -0.0177,-0.002 -0.0177,-0.009 0.0177,-0.0177 0.0236,-0.006 0.0266,0 l -0.009,0.009 z" />
      <path
         inkscape:connector-curvature="0"
         id="path13388"
         style="fill:#000000;fill-opacity:1;fill-rule:evenodd;stroke:none"
         d="m 171.87592,306.44086 c 0,0 0.37665,-0.0826 0.47833,-0.22678 0.14469,-0.20517 0.11859,-0.43335 -0.007,-0.62186 -0.0106,-0.016 -0.0106,-0.016 -0.0106,-0.016 -0.0177,-0.0177 -0.17175,-0.26834 -0.25644,-0.38843 -0.28378,-0.40243 -0.56753,-0.8049 -0.85132,-1.20733 -0.38885,-0.55148 -0.97052,-1.53714 -1.50784,-1.97971 -0.23462,-0.19327 -0.5787,-0.40399 -0.89227,-0.21585 -0.91266,0.54761 0.25631,1.69818 0.57525,2.14478 0.0415,0.0581 0.0837,0.11529 0.12705,0.17206 0.31973,0.41906 1.70703,2.97094 2.79449,2.13446 l -0.44952,0.20462 z" />
      <path
         inkscape:connector-curvature="0"
         id="path13390"
         style="fill:#000000;fill-opacity:1;fill-rule:evenodd;stroke:none"
         d="m 176.46448,310.961 c 0,0 0.42639,-0.0585 0.5492,-0.21146 0.19412,-0.24188 0.0991,-0.63595 -0.0531,-0.86813 -0.28891,-0.44068 -0.87219,-0.72922 -1.25787,-1.00983 -0.85785,-0.62421 -1.76007,-1.23144 -2.60788,-1.86734 -0.0142,-0.0106 0.0518,-0.41083 -0.085,-0.50668 -0.17371,-0.12171 -0.4729,-0.0751 -0.67325,0 -0.41965,0.15738 -0.53778,0.63705 -0.38977,1.02752 0.25906,0.68354 1.17709,1.14496 1.68308,1.52366 0.48324,0.36169 0.93264,0.77151 1.43618,1.10461 0.61399,0.40619 1.21875,1.09729 1.91782,0.6167 l -0.51935,0.19095 z m -3.6142,-3.80792 c 0,0 0,0 0,0 0,0 -0.0177,0.0177 -0.0177,0.0177 z" />
      <path
         inkscape:connector-curvature="0"
         id="path13392"
         style="fill:#000000;fill-opacity:1;fill-rule:evenodd;stroke:none"
         d="m 161.55226,330.12341 c 0,0 0.32242,-0.17517 0.46292,-0.29144 0.10538,-0.0872 0.0697,-0.40811 0.0354,-0.53149 -0.0803,-0.28891 -0.39737,-0.52906 -0.61459,-0.7052 -0.78931,-0.63996 -1.70942,-1.1626 -2.32636,-1.97 -0.27045,-0.35395 -0.058,-1.01471 -0.46063,-1.24018 -0.30496,-0.17074 -0.47934,0.13141 -0.51142,0.37204 -0.002,0.0177 -0.0315,0.33695 -0.0504,0.49613 -0.0632,0.53061 -0.12384,0.9949 0.17209,1.47042 0.38922,0.62537 1.18014,1.09702 1.73935,1.53199 0.68478,0.53259 1.22406,1.23214 2.01657,0.57629 l -0.46292,0.29144 z" />
      <path
         d="m 173.54036,294.17966 c 0,0 0.44162,-0.12375 0.56692,-0.2963 0.20932,-0.28821 0.10407,-0.75766 -0.17718,-0.95666 -0.28391,-0.20093 -1.08032,-0.18811 -1.25788,-0.20343 -0.43203,-0.0372 -0.95202,0.0134 -1.32873,0.0234 -0.55331,0.0148 -2.50736,-0.48388 -2.56891,0.62293 -0.0326,0.58706 0.93347,0.69873 1.31104,0.73413 0.83511,0.0783 1.64639,0.0111 2.48031,0.0277 0.67227,0.0134 1.01584,0.17242 1.51337,-0.22568 l -0.53894,0.27393 z"
         style="fill:#000000;fill-opacity:1;fill-rule:evenodd;stroke:none"
         id="path13425"
         inkscape:connector-curvature="0" />
      <path
         style="fill:#bcbbbb;fill-opacity:1;stroke-width:0.26516503"
         d="m 128.59521,274.66716 c -0.0964,1.35866 -0.17534,5.89745 -0.17534,10.08619 v 7.61591 l 0.82864,0.16572 c 0.45575,0.0912 1.35068,0.16573 1.98874,0.16573 h 1.1601 l 0.0486,-5.10442 c 0.0781,-8.198 0.13203,-10.5465 0.24396,-10.62004 0.0578,-0.038 3.98321,0.0114 8.72304,0.10984 4.73982,0.0984 13.15815,0.19156 18.70739,0.20699 9.89617,0.0275 10.72593,0.0939 10.72593,0.85765 0,0.10625 -0.20882,0.40194 -0.46404,0.65708 -0.41144,0.4113 -0.47454,1.20565 -0.55666,7.00801 l -0.0926,6.54411 0.62295,0.16677 c 0.34262,0.0917 1.10025,0.16797 1.68361,0.16942 l 1.06066,0.003 0.0278,-9.91033 0.0278,-9.91033 -1.35368,-0.16044 c -0.74452,-0.0882 -10.73122,-0.24151 -22.19266,-0.34061 l -20.83899,-0.18018 z"
         id="path13427"
         inkscape:connector-curvature="0" />
      <path
         style="fill:#f48024;fill-opacity:1;stroke-width:0.26516503"
         d="m 138.77304,284.2762 c -0.54383,2.53581 -0.61243,2.4583 2.17564,2.4583 1.34916,0 6.88928,0.10634 12.31137,0.23632 l 9.85836,0.23631 0.13886,-0.89922 c 0.0764,-0.49458 0.18622,-1.43619 0.24412,-2.09247 l 0.10527,-1.19325 -12.27835,-0.0186 -12.27836,-0.0186 -0.27691,1.29117 z"
         id="path13429"
         inkscape:connector-curvature="0" />
      <path
         style="fill:#f48024;fill-opacity:1;stroke-width:0.26516503"
         d="m 162.36099,290.53698 c -0.3646,0.0496 -3.28804,0.62256 -6.49654,1.27323 -5.21767,1.05813 -11.98925,2.36851 -14.81877,2.86758 l -1.03019,0.18171 0.1667,1.59482 c 0.0917,0.87715 0.24079,1.7147 0.33135,1.86123 0.21283,0.34437 0.87226,0.21915 8.03684,-1.52616 5.62961,-1.37138 11.95526,-2.79256 14.14207,-3.17727 1.10071,-0.19364 1.12459,-0.26525 0.65779,-1.97207 -0.288,-1.05305 -0.40422,-1.18264 -0.98925,-1.10307 z"
         id="path13431"
         inkscape:connector-curvature="0" />
      <path
         style="fill:#f48024;fill-opacity:1;stroke-width:0.26516503"
         d="m 162.09384,298.91607 c -2.70319,1.09311 -10.82805,4.73178 -15.88215,7.11274 -1.37133,0.64602 -2.37683,1.24658 -2.23445,1.33457 0.14238,0.088 0.41996,0.64809 0.61685,1.24467 0.19689,0.59657 0.48644,1.03026 0.64345,0.96377 0.15701,-0.0665 1.59804,-0.72161 3.20229,-1.4558 1.60424,-0.73419 5.42262,-2.42409 8.48528,-3.75534 8.38859,-3.64626 8.61817,-3.75481 8.61384,-4.07268 -0.002,-0.16239 -0.15227,-0.79064 -0.33345,-1.39612 l -0.32943,-1.10088 z"
         id="path13433"
         inkscape:connector-curvature="0" />
      <path
         style="fill:#f48024;fill-opacity:1;stroke-width:0.26516503"
         d="m 165.37938,305.36994 c -3.11749,2.44569 -12.59898,10.08792 -14.1371,11.39472 l -0.90986,0.77302 0.88795,1.10494 c 0.48837,0.60771 0.99801,1.10493 1.13255,1.10493 0.13453,0 0.56202,-0.28991 0.94999,-0.64424 1.05303,-0.96174 8.14346,-6.52138 12.86174,-10.08495 2.28321,-1.72445 4.15129,-3.24261 4.15129,-3.37369 0,-0.27404 -1.65637,-2.58044 -1.85615,-2.58458 -0.0729,-0.002 -1.45911,1.03793 -3.08041,2.30985 z"
         id="path13435"
         inkscape:connector-curvature="0" />
      <path
         style="fill:#f48024;fill-opacity:1;stroke-width:0.26516503"
         d="m 171.27573,310.5272 c -0.80094,1.06057 -3.40294,4.43412 -5.78221,7.49677 -2.37927,3.06267 -4.79594,6.21182 -5.37037,6.99813 l -1.04442,1.42965 1.41509,1.24108 1.41508,1.24109 1.45584,-2.14041 c 0.80072,-1.17723 2.42726,-3.39331 3.61454,-4.92464 2.98676,-3.85224 3.22527,-4.18711 5.78887,-8.12757 l 2.26871,-3.48718 -1.15244,-0.82761 -1.15244,-0.82762 z"
         id="path13437"
         inkscape:connector-curvature="0" />
    </g>
  </g>
</svg>
