<?xml version="1.0" encoding="UTF-8" standalone="no"?>
<!-- Created with Inkscape (http://www.inkscape.org/) -->

<svg
   width="16.772112mm"
   height="16.496672mm"
   viewBox="0 0 16.772112 16.496672"
   version="1.1"
   id="svg8"
   inkscape:version="1.4.2 (ebf0e940, 2025-05-08)"
   sodipodi:docname="logo_miro.svg"
   xml:space="preserve"
   xmlns:inkscape="http://www.inkscape.org/namespaces/inkscape"
   xmlns:sodipodi="http://sodipodi.sourceforge.net/DTD/sodipodi-0.dtd"
   xmlns="http://www.w3.org/2000/svg"
   xmlns:svg="http://www.w3.org/2000/svg"
   xmlns:rdf="http://www.w3.org/1999/02/22-rdf-syntax-ns#"
   xmlns:cc="http://creativecommons.org/ns#"
   xmlns:dc="http://purl.org/dc/elements/1.1/"><defs
     id="defs2" /><sodipodi:namedview
     id="base"
     pagecolor="#ffffff"
     bordercolor="#666666"
     borderopacity="1.0"
     inkscape:pageopacity="0.0"
     inkscape:pageshadow="2"
     inkscape:zoom="4.8268418"
     inkscape:cx="53.658274"
     inkscape:cy="59.044819"
     inkscape:document-units="mm"
     inkscape:current-layer="layer1"
     showgrid="false"
     inkscape:snap-global="false"
     inkscape:window-width="1504"
     inkscape:window-height="1633"
     inkscape:window-x="0"
     inkscape:window-y="68"
     inkscape:window-maximized="0"
     fit-margin-top="0"
     fit-margin-left="0"
     fit-margin-right="0"
     fit-margin-bottom="0"
     inkscape:pagecheckerboard="true"
     inkscape:showpageshadow="0"
     inkscape:deskcolor="#d1d1d1" /><metadata
     id="metadata5"><rdf:RDF><cc:Work
         rdf:about=""><dc:format>image/svg+xml</dc:format><dc:type
           rdf:resource="http://purl.org/dc/dcmitype/StillImage" /></cc:Work></rdf:RDF></metadata><g
     inkscape:label="Ebene 1"
     inkscape:groupmode="layer"
     id="layer1"
     transform="translate(-108.51363,-142.85035)"><path
       id="path921"
       style="fill:#000000;fill-opacity:1;fill-rule:evenodd;stroke:none;stroke-width:0.352778"
       d="m 122.00428,142.85035 c -0.0271,-7e-5 -0.0533,0.004 -0.078,0.0109 -0.026,-0.007 -0.0543,-0.0104 -0.0853,-0.0103 -0.69444,10e-4 -0.36944,0.0109 -1.22008,0.0336 -1.29631,0.0346 -2.59224,-0.028 -3.88762,0.0294 -1.26247,0.0565 -2.53604,-0.0151 -3.79977,0.002 -0.25002,0.004 -0.50603,0.0355 -0.75654,0.0315 -0.1689,-0.002 -0.42442,-0.0622 -0.61805,-0.0103 -1.69838,0.11696 -3.0453,1.53689 -3.0453,3.2644 -2e-5,0.008 4.2e-4,0.0159 10e-4,0.0238 -0.003,0.12562 0.002,0.27088 0.0165,0.43666 0.002,1.43364 0.0553,2.87144 0.0362,4.30568 -0.016,1.25774 -0.007,2.52144 -0.007,3.77962 0,0.45943 10e-4,0.87845 -0.006,1.32808 -5.6e-4,0.0367 0.005,0.0833 0.0176,0.12299 0.0628,1.74712 1.46041,3.14865 3.22306,3.14865 0.0271,7e-5 0.0533,-0.004 0.078,-0.0108 0.026,0.007 0.0543,0.0104 0.0853,0.0103 0.69444,-0.001 0.36944,-0.0109 1.22008,-0.0336 1.29631,-0.0346 2.59223,0.0285 3.88761,-0.0289 1.26247,-0.0565 2.53604,0.0151 3.79977,-0.002 0.25002,-0.004 0.50604,-0.0355 0.75655,-0.0315 0.1689,0.002 0.42442,0.0617 0.61805,0.01 1.69838,-0.11696 3.04529,-1.53689 3.04529,-3.2644 2e-5,-0.008 -4.2e-4,-0.0159 -10e-4,-0.0238 0.003,-0.12562 -0.002,-0.27089 -0.0165,-0.43667 -0.002,-1.43364 -0.0553,-2.87144 -0.0362,-4.30568 0.016,-1.25774 0.007,-2.52091 0.007,-3.77909 0,-0.45943 -10e-4,-0.87898 0.006,-1.32861 5.6e-4,-0.0367 -0.005,-0.0833 -0.0176,-0.12298 -0.0628,-1.74712 -1.46041,-3.14865 -3.22306,-3.14865 z m -0.14366,0.50953 c 0.0419,0.0255 0.091,0.0404 0.14366,0.0403 1.50629,0 2.7218,1.2155 2.7218,2.72179 1e-4,0.0258 0.004,0.0507 0.0103,0.0744 -0.0163,0.33289 -0.0231,1.52627 -0.0248,1.72341 -0.008,0.9052 -0.0129,1.81136 -0.0129,2.71663 0,1.6328 0.0294,4.86708 0.0258,4.89892 -0.002,0.14373 0.005,0.27492 0.0186,0.39223 -0.006,0.0219 -0.008,0.0446 -0.008,0.0682 0,1.41605 -1.07394,2.57509 -2.45411,2.70888 -0.007,-0.002 -0.0142,-0.004 -0.0217,-0.004 -0.012,-0.001 -0.0259,0.003 -0.0403,0.0103 -0.0678,0.005 -0.1366,0.007 -0.20567,0.007 -0.0516,1.9e-4 -0.10209,0.0149 -0.14573,0.0424 -0.32629,10e-4 -0.6488,0.017 -0.9772,0.0217 -1.54518,0.0221 -3.09267,0.0167 -4.63745,0.0377 -1.7892,0.0246 -2.52312,-0.0344 -4.31033,0.0176 -10e-4,4e-5 -0.003,-5e-5 -0.004,0 -0.0419,-0.0255 -0.091,-0.0399 -0.14366,-0.0398 -1.50629,0 -2.7218,-1.21603 -2.7218,-2.72232 -1e-4,-0.0258 -0.004,-0.0502 -0.0103,-0.0739 0.0163,-0.33289 0.0231,-1.52627 0.0248,-1.72341 0.008,-0.9052 0.0129,-1.81136 0.0129,-2.71663 0,-1.6328 -0.0294,-4.86709 -0.0258,-4.89893 0.002,-0.14373 -0.005,-0.27491 -0.0186,-0.39222 0.006,-0.0219 0.008,-0.0446 0.008,-0.0682 0,-1.41605 1.07394,-2.57509 2.45411,-2.70888 0.007,0.002 0.0142,0.004 0.0217,0.004 0.012,0.001 0.0259,-0.003 0.0403,-0.0103 0.0678,-0.005 0.13661,-0.007 0.20568,-0.007 0.0516,-1.9e-4 0.10208,-0.0149 0.14572,-0.0424 0.32629,-0.001 0.64881,-0.017 0.97721,-0.0217 1.54518,-0.0221 3.09266,-0.0167 4.63744,-0.0377 1.7892,-0.0246 2.52312,0.0344 4.31033,-0.0176 10e-4,-4e-5 0.003,-4.7e-4 0.004,-5.2e-4 z" /><path
       style="fill:#ffd12b;fill-opacity:1;stroke:#000000;stroke-width:2.26771;stroke-linecap:round;stroke-linejoin:round;stroke-dasharray:none"
       d="M 12.860577,60.322784 C 12.826756,60.288963 12.329891,60.229026 11.756433,60.18959 6.9305339,59.857725 3.052868,56.35595 2.2680058,51.620947 2.157104,50.951886 2.1346126,49.984841 2.1547426,46.751046 2.1885532,41.319508 2.1865902,24.098223 2.1513697,17.160602 2.1270046,12.361232 2.1439551,11.43969 2.2684321,10.796328 3.1453312,6.2640567 6.8281244,2.9161704 11.395286,2.4994555 11.9898,2.445211 12.610041,2.3595109 12.773598,2.3090109 13.4159,2.1106929 49.308507,1.9496802 51.528187,2.1351596 c 3.496344,0.2921589 6.463011,2.1018725 8.209655,5.0080181 0.567579,0.9443625 0.988348,2.0172322 1.21846,3.1068033 0.169969,0.804807 0.17661,1.555642 0.184598,20.871003 l 0.0083,20.036163 -0.195929,0.81999 c -0.742249,3.106404 -2.767604,5.611726 -5.640518,6.977205 -1.504171,0.714925 -3.188015,1.010018 -6.567351,1.150927 -0.969342,0.04042 -8.295064,0.09967 -16.279382,0.131665 -7.984319,0.032 -15.648015,0.07824 -17.030438,0.102758 -1.382423,0.02452 -2.541168,0.01691 -2.574989,-0.01691 z"
       id="path7"
       transform="matrix(0.26458333,0,0,0.26458333,108.52397,142.85035)" /><g
       id="g7"><path
         id="path919"
         style="fill:#050039;fill-opacity:1;fill-rule:evenodd;stroke:none;stroke-width:0.352778"
         d="m 112.78049,157.18515 c 0.11603,0.027 0.24468,-0.0199 0.30549,-0.1837 0.21248,-0.58206 0.4587,-1.1709 0.69092,-1.74305 0.81016,-1.99553 2.28136,-5.77157 2.61999,-6.64197 0.10158,-0.12738 0.12782,-0.40743 0.005,-0.52452 -0.66739,-0.63621 -1.34541,-1.25972 -2.0097,-1.89962 -0.28399,-0.27311 -0.5722,-0.54766 -0.85524,-0.82424 -0.15155,-0.14901 -0.37896,-0.36604 -0.38396,-0.37104 -0.0845,-0.0973 -0.14959,-0.0754 -0.2005,-0.0941 l -1.30793,0.007 c -0.18194,0.002 -0.3644,0.19899 -0.25684,0.42323 h 5.2e-4 c 0.0926,0.19206 0.16301,0.40413 0.25063,0.59221 0.40659,0.88048 1.09537,2.45737 1.3932,3.14244 -0.0673,0.28011 -0.55832,2.32727 -0.77825,3.39618 -0.25474,1.23824 -0.55515,2.4761 -0.86145,3.70158 -0.051,0.20112 -0.0808,0.42242 -0.1359,0.62838 h -5.2e-4 c -0.0562,0.21146 0.10395,0.36075 0.26524,0.37176"
         sodipodi:nodetypes="ccccccccccccccccccc" /><path
         id="path2"
         style="fill:#050039;fill-opacity:1;fill-rule:evenodd;stroke:none;stroke-width:0.352778"
         d="m 116.4096,157.22381 c 0.11214,0.0144 0.22944,-0.0402 0.28109,-0.19832 0.18918,-0.59005 0.41133,-1.18848 0.62063,-1.7694 0.9012,-2.50049 2.67064,-7.61039 2.67064,-7.61039 l -0.46715,-0.35605 -1.39268,-1.11983 c -0.30119,-0.25404 -0.60647,-0.50879 -0.90692,-0.76636 -0.16094,-0.13883 -0.48335,-0.41513 -0.48835,-0.42013 -0.045,-0.0453 -0.10508,-0.073 -0.16691,-0.0791 -1.7e-4,-1e-5 -3.5e-4,2e-5 -5.2e-4,0 l -0.002,-0.002 c -0.16728,0.001 -0.56217,-0.0175 -0.72915,-0.0176 -0.14983,-7e-4 -0.40473,-0.004 -0.54467,-0.007 -0.0342,-0.015 -0.0706,-0.0228 -0.10697,-0.0238 -0.18957,-0.005 -0.37741,0.16991 -0.2496,0.40722 0.29684,0.5439 0.57629,1.11748 0.85266,1.66966 0.15478,0.29175 0.39181,0.7881 0.69557,1.38648 -0.0617,0.31056 -0.56548,2.85083 -0.78342,4.17029 -0.20598,1.24729 -0.4577,2.49605 -0.71572,3.73259 -0.043,0.20297 -0.0641,0.42506 -0.1111,0.63303 l -0.001,5.2e-4 c -0.048,0.21418 0.11905,0.35711 0.2811,0.36077 z"
         sodipodi:nodetypes="ccccccccccccccccccccccc" /><path
         d="m 119.86726,147.67973 c 0,0 -0.53461,3.18441 -0.7528,4.78509 -0.1707,1.2526 -0.38736,2.50774 -0.61037,3.75106 -0.0373,0.20411 -0.052,0.42688 -0.0931,0.6361 l -4.9e-4,2.5e-4 c -0.0536,0.0273 0.10258,0.33059 0.2514,0.35031 l 1.27209,-0.0231 c 0.12463,0.0328 0.26552,-0.0173 0.31939,-0.19731 0.17436,-0.5946 0.38201,-1.19842 0.57671,-1.78439 0.83837,-2.52226 1.6034,-5.06896 2.4443,-7.59127 0.0321,-0.0965 0.0888,-0.2695 0.1111,-0.33745 0.0798,-0.11516 0.0774,-0.28076 -0.0972,-0.38447 -0.0947,-0.0556 -0.18953,-0.11204 -0.28422,-0.1695 l -0.0196,-0.0264 c 0,0 -0.001,0.004 -0.004,0.0119 -0.43172,-0.26258 -0.86197,-0.54101 -1.28312,-0.80873 -0.30419,-0.19342 -0.81196,-0.51173 -1.12035,-0.70487 -0.19501,-0.14365 -0.40386,-0.29454 -0.42116,-0.29404 -0.26113,0.007 -0.50484,-0.004 -0.71365,-0.007 l 2.7e-4,7.9e-4 c -0.20745,-0.004 -0.42976,0.0173 -0.64286,0.0103 l -5.1e-4,-5.2e-4 c -0.0129,-3.9e-4 -0.0251,1.1e-4 -0.0372,0.001 -0.043,-0.004 -0.0876,0.004 -0.12971,0.0253 -0.0581,0.0298 -0.0841,0.0709 -0.0992,0.11937 -0.0446,0.0803 -0.0518,0.17953 -0.017,0.26045 0.0196,0.0455 0.0524,0.0852 0.0992,0.11214 0.0161,0.025 0.0288,0.0431 0.03,0.0455"
         style="fill:#050039;fill-opacity:1;fill-rule:evenodd;stroke:none;stroke-width:0.352778"
         id="path6"
         inkscape:connector-curvature="0"
         sodipodi:nodetypes="cccssccccccccccccccccccccccc" /></g></g></svg>
