<?xml version="1.0" encoding="UTF-8" standalone="no"?>
<!-- Created with Inkscape (http://www.inkscape.org/) -->

<svg
   xmlns:dc="http://purl.org/dc/elements/1.1/"
   xmlns:cc="http://creativecommons.org/ns#"
   xmlns:rdf="http://www.w3.org/1999/02/22-rdf-syntax-ns#"
   xmlns:svg="http://www.w3.org/2000/svg"
   xmlns="http://www.w3.org/2000/svg"
   xmlns:sodipodi="http://sodipodi.sourceforge.net/DTD/sodipodi-0.dtd"
   xmlns:inkscape="http://www.inkscape.org/namespaces/inkscape"
   width="16.761768mm"
   height="16.498047mm"
   viewBox="0 0 16.761768 16.498047"
   version="1.1"
   id="svg8"
   inkscape:version="0.92.4 (5da689c313, 2019-01-14)"
   sodipodi:docname="logo_slides_com.svg">
  <defs
     id="defs2" />
  <sodipodi:namedview
     id="base"
     pagecolor="#ffffff"
     bordercolor="#666666"
     borderopacity="1.0"
     inkscape:pageopacity="0.0"
     inkscape:pageshadow="2"
     inkscape:zoom="15.839192"
     inkscape:cx="49.360445"
     inkscape:cy="10.653867"
     inkscape:document-units="mm"
     inkscape:current-layer="layer1"
     showgrid="false"
     inkscape:snap-global="false"
     inkscape:window-width="1920"
     inkscape:window-height="1053"
     inkscape:window-x="0"
     inkscape:window-y="-10"
     inkscape:window-maximized="1"
     fit-margin-top="0"
     fit-margin-left="0"
     fit-margin-right="0"
     fit-margin-bottom="0"
     inkscape:pagecheckerboard="true" />
  <metadata
     id="metadata5">
    <rdf:RDF>
      <cc:Work
         rdf:about="">
        <dc:format>image/svg+xml</dc:format>
        <dc:type
           rdf:resource="http://purl.org/dc/dcmitype/StillImage" />
        <dc:title></dc:title>
      </cc:Work>
    </rdf:RDF>
  </metadata>
  <g
     inkscape:label="Ebene 1"
     inkscape:groupmode="layer"
     id="layer1"
     transform="translate(-108.52397,-142.85035)">
    <path
       d="m 109.12763,158.36209 c 0,0 0.0704,0.032 0.0792,0.065 0.0248,0.0931 0.009,0.13654 -0.0144,0.23749 -0.001,0.006 0.0526,0.0124 0.0798,0.0121 0.32536,-0.004 0.73585,-0.022 1.1,-0.0109 1.26258,0.0386 2.53591,0.0692 3.8,0.0547 1.61538,-0.0185 3.22821,0.0563 4.84375,0.0442 1.91883,-0.0144 3.84544,-0.011 5.7625,0.081 0.006,3e-4 0.13627,-0.005 0.2,0.006 0.006,0.001 0.0104,0.001 0.0125,0.001 0,0 0.0729,-0.001 0.0968,0.0214 0.0813,0.0778 0.16393,0.12539 0.15323,0.2474 -0.0128,0.14563 -0.15109,0.23927 -0.28751,0.2256 -0.006,-7e-4 -0.43124,-0.008 -0.64374,-0.0124 -0.39569,-0.007 -0.79351,-0.009 -1.1875,-0.0128 -1.18998,-0.0125 -2.37857,0.0102 -3.56876,-0.0124 -2.65831,-0.0504 -5.3175,-0.0212 -7.97499,-0.0692 -0.61739,-0.0111 -1.25546,-0.029 -1.875,-0.0181 -0.21251,0.004 -0.425,0.007 -0.6375,0.0112 -0.0622,10e-4 -0.15683,0.0253 -0.20625,-0.008 -0.006,-0.004 -0.16855,0.0678 -0.2125,0.0146 -0.0121,-0.0146 -0.0199,-0.11251 -0.0313,-0.11251 -0.01,0 -0.0433,-0.007 -0.075,-0.0937 -0.0658,-0.18072 0.0697,-0.32533 0.23126,-0.37916 0.006,-0.002 0.13567,-0.25117 0.25624,-0.29584 0.10472,-0.0388 0.17449,0.0543 0.19667,0.13752 l -0.0975,-0.13376 z"
       style="fill:#000000;fill-opacity:1;fill-rule:evenodd;stroke:none;stroke-width:0.35277778"
       id="path919"
       inkscape:connector-curvature="0" />
    <path
       sodipodi:nodetypes="cccsccsccccccsccsccccccccccccc"
       d="m 108.90436,142.96204 c 0,0 0.0743,0.0139 0.0984,0.0399 0.0634,0.0683 0.11518,0.13006 0.12423,0.22665 0.0307,0.32704 -0.004,0.6521 -0.004,0.98124 0,0.95429 -0.0386,1.68019 -0.007,2.63401 0.0309,0.94968 -0.0315,1.90666 -0.03,2.85625 0.002,1.56585 0.025,3.13352 0.025,4.70001 0,0.86851 -0.005,1.7378 -0.0128,2.60624 -0.002,0.22181 -0.0102,1.75824 -0.0325,1.73593 -0.005,-0.005 -0.0144,0.0828 -0.0193,0.12656 -0.006,0.0542 -0.0646,0.11221 -0.11667,0.13125 -0.11147,0.0408 -0.24443,-0.008 -0.30625,-0.10624 -0.0268,-0.0424 -0.0377,-0.112 -0.0369,-0.16251 0.007,-0.43137 0.006,-0.83395 0.006,-1.27473 0,-1.20708 -0.009,-2.41861 0.007,-3.62527 0.0183,-1.376 -0.0109,-2.75582 -0.013,-4.13124 -0.004,-2.1887 0.0438,-4.15058 0.0438,-6.34026 0,-0.006 -0.0549,-0.0636 -0.0563,-0.10001 -0.002,-0.0498 0.0365,-0.0913 0.07,-0.12062 0.005,-0.004 0.0661,-0.12703 0.12375,-0.15437 0.12682,-0.0602 0.22137,0.002 0.30395,0.0908 l -0.16682,-0.11357 z m -0.26214,0.19152 v 0 h 0.006 z m 0.0438,-0.0312 h 0.006 z"
       style="fill:#000000;fill-opacity:1;fill-rule:evenodd;stroke:none;stroke-width:0.35277778"
       id="path921"
       inkscape:connector-curvature="0" />
    <path
       sodipodi:nodetypes="ccccccccscccccccccccccccc"
       d="m 123.92764,142.86282 c 0,0 0.22911,0.0133 0.34375,0.0117 0.19399,-0.003 0.65603,-0.0797 0.8375,0.0568 0.15939,0.11988 0.0924,0.2972 -0.025,0.40625 h 0.006 c -0.0125,0 -0.12649,0.0278 -0.18125,0.014 -0.006,-0.001 -0.1479,0.01 -0.21875,0.0152 -0.13711,0.0108 -0.29459,0.006 -0.41875,0.008 -0.35708,0.005 -0.72422,0.0112 -1.08124,0.006 -0.92464,-0.0127 -0.79148,0.0199 -1.71667,0.0255 -0.36867,0.002 -0.73769,-0.0284 -1.10625,-0.0176 -1.78721,0.052 -3.57955,-0.007 -5.36875,0.0176 -1.54478,0.021 -3.09232,0.0154 -4.6375,0.0375 -0.41748,0.006 -0.82546,0.0299 -1.24376,0.0189 -0.006,-1.6e-4 -0.0804,0.066 -0.125,0.0623 -0.0474,-0.004 -0.0829,-0.0418 -0.10873,-0.0762 -0.004,-0.005 -0.11282,-0.10112 -0.12251,-0.16752 -0.0161,-0.11001 0.0706,-0.2312 0.1625,-0.28124 0.19701,-0.1073 0.51027,-0.0277 0.70625,-0.025 0.25051,0.004 0.50623,-0.0278 0.75625,-0.0313 1.26373,-0.0174 2.53752,0.0545 3.79999,-0.002 1.29538,-0.0576 2.5912,0.005 3.88751,-0.0296 2.54708,-0.0682 4.04236,-0.008 6.59167,-0.0436 l -0.7375,-0.006 z"
       style="fill:#000000;fill-opacity:1;fill-rule:evenodd;stroke:none;stroke-width:0.35277778"
       id="path923"
       inkscape:connector-curvature="0" />
    <path
       d="m 124.95472,142.95217 c 0,0 -0.0875,-0.001 -0.0875,0.0292 0,0.0564 0.12069,-0.042 0.16875,-0.0125 0.12967,0.0797 0.12865,0.24938 0.025,0.34374 -0.18784,0.17097 -0.44301,0.005 -0.32789,-0.22548 0.003,-0.006 0.001,-0.0105 0.003,-0.012 0.006,0 0.005,-0.004 0.006,-0.006 0.006,-0.006 0.0479,-0.0521 0.075,-0.0656 0.006,-0.003 0.14373,-0.10189 0.14375,-0.0531 0,10e-4 -0.0228,0.008 -0.025,0.008 -0.002,7.1e-4 -0.0688,0.0195 -0.0688,0.0229 0,0.0126 0.025,-0.004 0.0375,-0.005 0.0188,-0.003 0.0375,-0.005 0.0563,-0.008 0.008,-0.001 0.0166,-0.002 0.025,-0.004 l -0.0313,-0.0122 z"
       style="fill:#000000;fill-opacity:1;fill-rule:evenodd;stroke:none;stroke-width:0.35277778"
       id="path925"
       inkscape:connector-curvature="0" />
    <path
       d="m 124.92972,142.86455 c 0,0 0.12543,0.0505 0.16809,0.0997 0.0289,0.0333 -0.005,0.0985 0.0256,0.12961 0.006,0.006 0.0187,0.008 0.0187,0.0125 0,0.006 0.0262,0.0851 0.009,0.11876 -0.003,0.006 0.0112,0.34789 0.009,0.51876 -0.006,0.41057 -3.5e-4,0.75022 0.006,1.17498 0.0183,1.12457 -0.0186,2.2503 0.007,3.37502 0.0494,2.13507 0.0346,4.27087 0.0554,6.40625 0.0132,1.35248 0.10914,2.72568 0.0191,4.07498 -3.5e-4,0.006 -3.5e-4,0.0146 -3.5e-4,0.0188 0,0 0,0 0,0 0,0.006 0.002,0.015 0,0.0187 -0.006,0 -0.006,0.0667 -0.006,0.05 0,-0.0121 0,-0.0243 0,-0.0365 0,-0.007 -0.0878,0.13874 -0.16249,0.16146 -0.14026,0.0427 -0.24966,-0.0336 -0.27383,-0.16249 -0.001,-0.006 -0.0199,-0.047 -0.0199,-0.0687 0,-0.006 -0.0245,-0.1181 -0.026,-0.17501 -0.004,-0.14166 -0.007,-0.28332 -0.0106,-0.42499 -0.008,-0.31346 0.009,-0.64442 0.006,-0.95625 -0.008,-0.81923 -0.013,-1.63719 -0.0248,-2.45625 -0.0384,-2.65054 -0.063,-5.30551 -0.063,-7.95626 0,-1.0352 -0.0192,-2.07133 -0.007,-3.10625 0.002,-0.1961 -0.078,-0.42564 -0.006,-0.61875 0.0831,-0.22236 0.31791,-0.24281 0.4602,-0.0786 l -0.18519,-0.11941 z m -0.006,0.39178 c 0,0 0,0 0,0 0,0 -0.006,0 -0.006,0 z"
       style="fill:#000000;fill-opacity:1;fill-rule:evenodd;stroke:none;stroke-width:0.35277778"
       id="path927"
       inkscape:connector-curvature="0" />
    <path
       style="opacity:1;vector-effect:none;fill:#e5637c;fill-opacity:1;stroke:none;stroke-width:1.33333337;stroke-linecap:butt;stroke-linejoin:miter;stroke-miterlimit:4;stroke-dasharray:none;stroke-dashoffset:0;stroke-opacity:1"
       d="m 440.83965,599.8673 c -26.31774,-0.23475 -27.44497,-0.27186 -27.95303,-0.92022 -0.4601,-0.58715 -0.512,-4.312 -0.39637,-28.45085 0.0732,-15.27638 0.21313,-27.85533 0.31101,-27.95321 0.0979,-0.0979 13.21955,-0.28166 29.15928,-0.4084 l 28.98131,-0.23044 3.5e-4,9.07651 c 1.9e-4,4.99207 0.10686,18.11668 0.23705,29.16579 l 0.2367,20.08928 -1.57634,-0.0619 c -0.86698,-0.034 -13.91696,-0.17199 -28.99996,-0.30654 z"
       id="path1005"
       inkscape:connector-curvature="0"
       transform="scale(0.26458333)" />
    <g
       id="g1003">
      <path
         inkscape:connector-curvature="0"
         id="path929"
         style="fill:#000000;fill-opacity:1;fill-rule:evenodd;stroke:none;stroke-width:0.35277778"
         d="m 117.10473,147.0067 c 0,0 0.1875,0.0108 0.28125,0.0162 0.10098,0.006 0.20384,0.0291 0.29999,0.0584 0.2302,0.0701 0.44376,0.20522 0.65208,0.31806 0.19073,0.10332 0.43253,0.207 0.55417,0.4007 0.22409,0.35682 -0.12086,0.85132 -0.27643,1.15383 -0.0457,0.0889 -0.18913,0.29295 -0.31107,0.17116 0,-0.006 -0.0932,0.002 -0.13749,-0.0101 -0.11043,-0.0297 -0.22428,-0.075 -0.3375,-0.0879 -0.12084,-0.0138 -0.24168,-0.0276 -0.36252,-0.0414 -0.46614,-0.0533 -0.61592,-0.10264 -1.0625,-0.035 -0.15723,0.0238 -0.29579,0.15476 -0.26873,0.32443 0.0773,0.48503 0.57252,0.92347 1.01249,1.08125 0.2259,0.081 0.48359,0.0976 0.70284,0.20405 0.44083,0.21411 0.94358,0.44054 1.24717,0.84593 0.46647,0.62292 0.51776,1.64326 0.29999,2.36251 -0.056,0.18479 -0.16481,0.30435 -0.2784,0.46875 -0.35629,0.5157 -0.71672,0.70442 -1.31606,0.88823 -0.18942,0.0581 -0.34215,0.16667 -0.53679,0.21178 -0.2358,0.0547 -0.44004,0.003 -0.6875,0.025 -0.27999,0.0248 -0.46524,0.0446 -0.75,0.0292 -0.35121,-0.019 -0.77437,0.013 -1.10624,-0.12921 -0.3326,-0.14253 -0.54847,-0.61467 -0.50626,-0.96251 0.0123,-0.1015 0.0643,-0.19846 0.075,-0.3 0.0351,-0.33192 0.0112,-0.64244 0.40624,-0.76874 0.23197,-0.0742 0.40344,0.0563 0.61876,0.11248 0.13386,0.0349 0.27708,0.0326 0.41249,0.0625 0.35514,0.0784 0.67056,0.21707 1.04375,0.17726 0.29281,-0.0312 0.73552,-0.0128 0.75625,-0.40852 0.0153,-0.29244 -0.20924,-0.63704 -0.39408,-0.84037 -0.10578,-0.11635 -0.2746,-0.33375 -0.43092,-0.43461 -0.6678,-0.43096 -1.53936,-0.47167 -2.1125,-1.075 -0.3318,-0.34928 -0.25296,-0.94081 -0.225,-1.375 0.0286,-0.44429 0.0937,-0.89801 0.31875,-1.29377 0.56972,-1.00209 1.93644,-1.30287 2.9875,-1.07768 l -0.56874,-0.0719 z m -0.11876,0.50665 c 0,0 -0.34584,0.0423 -0.51875,0.0634 -0.37179,0.0454 -0.63286,0.14286 -0.93125,0.37333 -0.67315,0.51997 -0.7923,1.5717 -0.65625,2.3625 0.0277,0.16069 0.15995,0.25481 0.29523,0.33091 0.13537,0.0761 0.33188,0.2219 0.47353,0.29408 0.14484,0.0738 0.42787,0.14681 0.58899,0.20052 0.71942,0.23982 1.36481,0.75462 1.661,1.46824 0.0611,0.14715 0.12391,0.32365 0.13125,0.4875 0.047,1.05 -1.23555,1.06324 -1.96875,0.92579 -0.39453,-0.074 -0.81251,-0.16943 -1.18784,-0.31106 -0.006,-0.002 -0.0789,0.0271 -0.0872,0.0603 -0.013,0.0522 0.007,0.11948 0.005,0.175 -0.01,0.28406 -0.10169,0.4332 0.006,0.70203 0.0196,0.049 0.0803,0.14469 0.1267,0.15422 0.38784,0.0798 0.85629,0.1402 1.25624,0.125 0.12321,-0.005 0.25132,-0.0542 0.375,-0.0625 0.20845,-0.0139 0.41975,0.0338 0.625,-0.0188 0.15667,-0.0401 0.29399,-0.12377 0.44376,-0.18124 0.14669,-0.0563 0.30608,-0.0816 0.45,-0.14376 0.36662,-0.15826 0.6647,-0.49559 0.83123,-0.85625 0.0653,-0.14128 0.08,-0.33807 0.09,-0.4875 0.0319,-0.47873 -0.003,-1.02386 -0.2775,-1.43749 -0.36497,-0.54933 -1.13422,-0.7123 -1.70624,-0.90626 -0.38321,-0.12992 -0.78264,-0.39779 -1.025,-0.71874 -0.10897,-0.14429 -0.17693,-0.30208 -0.2518,-0.4643 -0.19938,-0.43204 -0.0664,-0.96704 0.40804,-1.14821 0.46506,-0.17758 0.87635,-0.0794 1.34375,-0.0125 0.26869,0.0385 0.52327,0.0362 0.77501,0.14114 0.006,0.002 0.013,-0.0339 0.0195,-0.0512 0.0636,-0.1676 0.12716,-0.33521 0.19073,-0.50282 0.002,-0.006 -0.13161,-0.10932 -0.20618,-0.14832 -0.13754,-0.0719 -0.45603,-0.26305 -0.62285,-0.33253 -0.48806,-0.20324 -1.09252,-0.0361 -1.58146,0.0601 l 0.9252,-0.14055 z" />
      <path
         transform="scale(0.26458333)"
         inkscape:connector-curvature="0"
         id="path972"
         d="m 437.31041,585.45068 c -1.43225,-0.11542 -2.85267,-0.36805 -3.08151,-0.54805 -0.36894,-0.29022 -0.52452,-0.96243 -0.43842,-1.89429 0.0413,-0.44664 0.0816,-1.01297 0.0896,-1.2585 0.0206,-0.63143 0.0238,-0.64531 0.16035,-0.6977 0.0676,-0.0259 0.55689,0.0906 1.08732,0.2589 1.32501,0.42049 3.62066,0.90185 4.89077,1.02551 1.68363,0.16393 3.30287,-0.0589 4.37581,-0.60225 1.38105,-0.69935 1.99909,-2.13907 1.63015,-3.79739 -0.33037,-1.48494 -1.58435,-3.48186 -2.87544,-4.57903 -1.30013,-1.10485 -2.29296,-1.63241 -4.44103,-2.35984 -1.32331,-0.44814 -1.69591,-0.61863 -2.65167,-1.21332 -1.78372,-1.10986 -1.81891,-1.16214 -1.96125,-2.91341 -0.15625,-1.9224 0.19311,-4.06554 0.89233,-5.47393 0.67856,-1.36679 1.5444,-2.2347 2.91017,-2.91714 0.63146,-0.31552 0.92567,-0.39511 2.36607,-0.6401 2.0106,-0.34196 3.22809,-0.3646 4.04043,-0.0751 0.5085,0.18119 2.36183,1.16043 3.02862,1.60023 0.18415,0.12146 0.33482,0.27216 0.33482,0.3349 0,0.0627 -0.16378,0.53667 -0.36396,1.05319 l -0.36396,0.93914 -0.35322,-0.12462 c -0.19427,-0.0685 -0.70348,-0.16832 -1.13157,-0.22173 -0.4281,-0.0534 -1.36095,-0.18139 -2.073,-0.2844 -2.69723,-0.3902 -4.24976,-0.18749 -5.32746,0.69561 -0.51258,0.42002 -0.92762,1.27275 -0.98848,2.03093 -0.0618,0.7701 0.0857,1.35002 0.62736,2.46708 0.37155,0.76619 0.58127,1.06772 1.16694,1.67777 1.23432,1.28569 2.04996,1.7384 4.70242,2.61003 3.92384,1.28941 5.23554,2.37342 5.89948,4.87543 0.2349,0.88525 0.32862,3.0418 0.18019,4.14671 -0.17879,1.3309 -1.08862,2.82075 -2.26062,3.70175 -0.70565,0.53045 -1.02672,0.69303 -1.85806,0.94088 -0.36771,0.10962 -1.11052,0.38209 -1.6507,0.60547 l -0.98215,0.40616 -1.51785,0.0693 c -0.83482,0.0381 -1.71875,0.10882 -1.96429,0.15715 -0.50953,0.10031 -0.90122,0.10119 -2.09821,0.005 z"
         style="opacity:1;vector-effect:none;fill:#ffffff;fill-opacity:1;stroke:none;stroke-width:1.33333337;stroke-linecap:butt;stroke-linejoin:miter;stroke-miterlimit:4;stroke-dasharray:none;stroke-dashoffset:0;stroke-opacity:1" />
    </g>
  </g>
</svg>
