<?xml version="1.0" encoding="UTF-8" standalone="no"?>
<!-- Created with Inkscape (http://www.inkscape.org/) -->

<svg
   xmlns:dc="http://purl.org/dc/elements/1.1/"
   xmlns:cc="http://creativecommons.org/ns#"
   xmlns:rdf="http://www.w3.org/1999/02/22-rdf-syntax-ns#"
   xmlns:svg="http://www.w3.org/2000/svg"
   xmlns="http://www.w3.org/2000/svg"
   xmlns:sodipodi="http://sodipodi.sourceforge.net/DTD/sodipodi-0.dtd"
   xmlns:inkscape="http://www.inkscape.org/namespaces/inkscape"
   version="1.1"
   id="svg2"
   xml:space="preserve"
   width="82.593018"
   height="81.336792"
   viewBox="0 0 82.593018 81.336789"
   sodipodi:docname="Link.svg"
   inkscape:version="0.92.3 (2405546, 2018-03-11)"><metadata
     id="metadata8"><rdf:RDF><cc:Work
         rdf:about=""><dc:format>image/svg+xml</dc:format><dc:type
           rdf:resource="http://purl.org/dc/dcmitype/StillImage" /><dc:title></dc:title></cc:Work></rdf:RDF></metadata><defs
     id="defs6" /><sodipodi:namedview
     pagecolor="#ffffff"
     bordercolor="#666666"
     borderopacity="1"
     objecttolerance="10"
     gridtolerance="10"
     guidetolerance="10"
     inkscape:pageopacity="0"
     inkscape:pageshadow="2"
     inkscape:window-width="1920"
     inkscape:window-height="1025"
     id="namedview4"
     showgrid="false"
     inkscape:snap-global="false"
     inkscape:zoom="3.3634202"
     inkscape:cx="162.82338"
     inkscape:cy="44.904686"
     inkscape:window-x="0"
     inkscape:window-y="27"
     inkscape:window-maximized="1"
     inkscape:current-layer="g10"
     fit-margin-top="0"
     fit-margin-left="0"
     fit-margin-right="0"
     fit-margin-bottom="0"
     inkscape:pagecheckerboard="true" /><g
     id="g10"
     inkscape:groupmode="layer"
     inkscape:label="WCM0086"
     transform="matrix(1.3333333,0,0,-1.3333333,-287.71041,645.50092)"><g
       id="g3770"><path
         inkscape:connector-curvature="0"
         id="path12"
         style="fill:#000000;fill-opacity:1;fill-rule:evenodd;stroke:none"
         d="m 261.14083,476.76803 c 0,0 0.16273,-0.0307 0.24402,-0.0464 0.13523,-0.0261 0.27761,-0.14335 0.38018,-0.23231 0.36302,-0.31495 0.63622,-0.73158 0.98019,-1.07125 1.30734,-1.29093 2.61805,-2.50793 3.99395,-3.72624 1.37862,-1.22078 2.6904,-2.55075 4.22407,-3.57576 1.82659,-1.22078 2.61984,-1.51738 4.21494,-2.85244 0.31563,-0.26418 2.48184,-1.59914 2.54743,-2.60511 0.0676,-1.03715 -1.62241,-1.60434 -2.28861,-2.0546 -0.77185,-0.52162 -1.69864,-1.51685 -2.3126,-2.03357 -1.24325,-1.04621 -2.58506,-1.98516 -3.81888,-3.03946 -1.20606,-1.03054 -2.20796,-1.95271 -3.33779,-3.11827 -0.64124,-0.66144 -1.28248,-1.32296 -1.92372,-1.98441 -0.16387,-0.16907 -0.32788,-0.36065 -0.44264,-0.56347 -0.16951,-0.2995 -0.23867,-0.86148 -0.51017,-1.14741 -0.48699,-0.5129 -1.23022,-0.0648 -1.24757,0.55814 -0.0146,0.52097 -0.0291,1.04194 -0.0437,1.5629 -0.01,0.34005 0.006,0.68654 -0.0584,1.0207 -0.24745,1.29047 -0.39788,2.08776 -0.47469,3.26711 -0.002,0.0181 -0.66218,0.12869 -0.98973,0.086 -0.71351,-0.0928 -1.47111,-0.1844 -2.20404,-0.28648 -2.1872,-0.30466 -4.07648,-0.99062 -5.99813,-2.06852 -2.24169,-1.25749 -4.61436,-2.40729 -6.47457,-4.22489 -0.99005,-0.96736 -1.68208,-2.16395 -2.67088,-3.14763 -1.84563,-1.83601 -3.74059,-3.77506 -4.87699,-6.16045 -0.26483,-0.55589 -0.44567,-1.28961 -0.61833,-1.84822 -0.005,-0.0169 0.0268,-0.26643 -0.028,-0.37134 -0.008,-0.0168 -0.0301,-0.27884 -0.0739,-0.4012 -0.006,-0.017 -0.006,-0.017 -0.006,-0.017 0,0 -0.0579,-0.13771 -0.0623,-0.099 -0.002,0.0181 -0.21977,-0.27919 -0.38483,-0.30624 -0.29657,-0.0486 -0.60407,0.1047 -0.75755,0.35102 -0.42894,0.68846 -0.25693,2.89301 -0.24551,3.39276 0.0416,1.82137 0.3194,3.89665 0.7175,5.65952 0.16167,0.71601 0.48197,1.39958 0.65627,2.11105 0.20453,0.83492 0.22806,1.72122 0.52132,2.53793 0.86536,2.40999 2.03285,4.96301 3.59152,7.01279 0.67348,0.88568 1.38448,1.4797 2.16531,2.30338 1.40594,1.48309 2.86334,2.78025 4.47124,4.05185 0.5533,0.43754 1.19547,1.02608 1.8155,1.42054 0.59856,0.38079 1.50952,0.8456 2.09399,1.19204 2.39071,1.4169 5.26675,3.02625 8.15568,3.03559 0.0178,-3.5e-4 0.10851,1.53696 0.15383,2.30539 0.0331,0.56118 0.0241,1.15136 0.0333,1.69348 0.006,0.33082 0.0661,0.65853 0.10015,0.98755 0.0774,0.74953 -0.39651,2.65739 0.98112,2.3955 0.15839,-0.0301 0.26744,-0.13032 0.40266,-0.22208 l -0.59441,0.2585 z m 0.6464,-2.40851 c 0,0 -0.008,-0.17755 -0.0193,-0.26552 -0.028,-0.21077 -0.0561,-0.42149 -0.0841,-0.63222 -0.0715,-0.53731 -0.0324,-1.26533 -0.0388,-1.67485 -0.001,-0.0712 -0.004,-0.14224 -0.008,-0.21347 -0.0154,-0.27106 0.25087,-2.95889 -0.61592,-3.49257 -0.38203,-0.23523 -0.86989,-0.11759 -1.29132,-0.16772 -0.52294,-0.0622 -1.0324,-0.20868 -1.54859,-0.31297 -1.33726,-0.27025 -2.79015,-0.95748 -3.95576,-1.56392 -3.64795,-1.89795 -6.87347,-4.38718 -9.68612,-7.37916 -0.76335,-0.81204 -1.45656,-1.38206 -2.10562,-2.25771 -0.55075,-0.743 -0.94568,-1.57626 -1.39318,-2.38166 -0.78345,-1.41007 -1.50624,-2.68542 -1.97344,-4.24785 -0.2239,-0.74886 -0.24534,-1.52362 -0.42909,-2.28425 -0.16953,-0.70149 -0.49157,-1.37078 -0.6516,-2.07589 -0.34826,-1.53434 -0.56656,-3.27418 -0.66624,-4.86204 -0.001,-0.0177 0.3345,0.71705 0.56014,1.04975 0.45486,0.67064 0.95182,1.26229 1.46192,1.90078 0.44252,0.55385 0.85332,1.13464 1.32754,1.66162 0.77764,0.86419 1.69255,1.5567 2.4369,2.46387 0.6508,0.79308 0.8878,1.26737 1.60228,1.96722 1.51566,1.48462 3.27153,2.46714 5.09536,3.50406 2.57493,1.46403 4.93671,2.77789 7.92359,3.15527 0.87339,0.11036 3.58816,0.84804 4.5558,-0.16917 0.4697,-0.49377 0.30129,-1.26203 0.37627,-1.87311 0.11407,-0.92968 0.39479,-1.77143 0.46065,-2.68858 0.002,-0.0181 0.0512,0.0324 0.0762,0.0577 0.63509,0.64189 2.30717,2.46843 3.53591,3.56454 1.77797,1.58603 3.69647,2.99641 5.51905,4.52791 1.29384,1.08722 2.34512,2.13518 3.79709,2.98671 0.0153,0.009 -0.20255,0.18118 -0.30827,0.27113 -0.5185,0.44125 -1.03702,0.8825 -1.55552,1.32375 -1.34125,1.14138 -2.31672,1.66288 -3.88105,2.60523 -1.24413,0.74949 -2.78814,2.28877 -3.62797,3.02203 -1.67668,1.46376 -3.29909,2.91601 -4.87566,4.48629 l -0.0133,-0.005 z" /><path
         inkscape:connector-curvature="0"
         id="path14"
         style="fill:#000000;fill-opacity:1;fill-rule:evenodd;stroke:none"
         d="m 258.65877,452.16667 c 0,0 0.18985,0.0138 0.26575,-0.0332 0.16067,-0.0996 0.18491,-0.3598 0.10632,-0.51376 -0.32419,-0.63492 -1.11075,-1.10065 -1.77166,-1.31104 -1.99535,-0.63519 -4.16233,-1.3703 -5.52756,-3.1004 -0.5775,-0.73181 -1.02211,-1.56607 -1.60115,-2.30673 -0.0111,-0.0141 0.0396,-0.15653 0.0244,-0.22675 -0.0414,-0.18979 -0.34101,-0.36206 -0.49605,-0.40744 -0.40099,-0.1174 -0.77208,0.21515 -0.74411,0.62009 0.0473,0.68497 0.80554,1.37762 1.11615,1.86023 0.39435,0.61273 0.53967,1.10321 1.02757,1.61218 0.83099,0.86688 1.97035,1.65012 3.02264,2.2001 1.01018,0.52802 1.83744,0.71998 2.92496,1.07508 0.39795,0.12994 1.62064,0.92874 2.0567,0.29883 l -0.40393,0.23285 z" /><path
         inkscape:connector-curvature="0"
         id="path20"
         style="fill:#000000;fill-opacity:1;fill-rule:evenodd;stroke:none"
         d="m 257.49609,474.47573 c 0,0 0.46314,-0.0233 0.62506,-0.16558 0.30941,-0.27186 0.24699,-0.73102 -0.0561,-0.97346 -0.26347,-0.21081 -0.57994,-0.19032 -0.8975,-0.27145 -0.56063,-0.14321 -1.53335,-0.42848 -2.03258,-0.6095 -1.19188,-0.43214 -2.9127,-1.06217 -3.87027,-1.9847 -0.45557,-0.4389 -1.07654,-1.18499 -1.48961,-1.60892 -0.29467,-0.30233 -0.75639,-0.48111 -0.97301,-0.82856 -0.0106,-0.0168 -0.01,-0.20192 -0.053,-0.27971 -0.0754,-0.13768 -0.35591,-0.28076 -0.49178,-0.30963 -0.41304,-0.0878 -0.66975,0.33069 -0.61051,0.69806 0.10977,0.68085 1.0308,1.32723 1.38968,1.7199 0.53719,0.58781 0.99977,1.30775 1.6306,1.82177 0.71943,0.58621 1.64171,0.95464 2.47903,1.33266 0.34205,0.15439 1.06452,0.54653 1.60284,0.70814 0.9252,0.27776 2.36703,1.07423 3.34013,0.60095 l -0.59303,0.15002 z m -9.31014,-6.27742 c 0,0 0,0 0,0 -0.002,-0.0176 -0.002,-0.0176 -0.002,-0.0176 0.002,0.0176 0.002,0.0176 0.002,0.0176 z" /><path
         inkscape:connector-curvature="0"
         id="path26"
         style="fill:#000000;fill-opacity:1;fill-rule:evenodd;stroke:none"
         d="m 250.33466,484.1257 c 0,0 1.59448,-0.0224 2.39172,-0.0337 1.32648,-0.0187 2.67578,0.0202 4.00397,0.033 0.0711,6.7e-4 0.14157,-5.2e-4 0.21258,-0.004 0.20078,-0.009 0.40158,-0.0175 0.60236,-0.0262 0.26965,-0.0118 1.39682,-0.25711 1.05707,-0.76641 -0.0118,-0.0177 -0.27213,-0.27103 -0.42771,-0.36112 -0.30041,-0.17392 -0.64728,-0.19842 -0.9837,-0.23096 -0.96085,-0.093 -2.43021,-0.0241 -2.97637,-0.0274 -2.28582,-0.0136 -4.57083,0.007 -6.85632,-0.0342 -6.69438,-0.1207 -13.39484,-0.0877 -20.09053,-0.12534 -2.76488,-0.0155 -5.5471,0.018 -8.30905,-0.0566 -0.58466,-0.0158 -1.1693,-0.0316 -1.75395,-0.0474 -0.49555,-0.0134 -1.2444,-0.13361 -1.39962,0.52863 -0.18045,0.76989 0.77831,0.87536 1.29332,0.88855 2.6827,0.0688 5.36031,0.0242 8.04332,0.0665 9.93818,0.15656 19.87861,0.097 29.81693,0.17853 l -4.62402,0.0177 z m 8.23819,-0.83243 c 0,0 0,0 0,0 0.0177,0.0177 0.0177,0.0177 0.0177,0.0177 z" /><path
         inkscape:connector-curvature="0"
         id="path28"
         style="fill:#000000;fill-opacity:1;fill-rule:evenodd;stroke:none"
         d="m 216.65476,483.72547 c 0,0 0.18583,0.0127 0.26481,-0.0278 0.13504,-0.0692 0.23595,-0.24103 0.24763,-0.38281 0.001,-0.0178 0.001,-0.0178 0.001,-0.0178 0.0169,-0.0184 0.0243,-0.0779 0.028,-0.10761 0.002,-0.0178 0.0239,-0.0888 0.0296,-0.12538 0.003,-0.0179 0.0312,-0.20737 0.0353,-0.3029 0.0118,-0.27611 0.0332,-0.55677 0.0299,-0.83468 -0.0137,-1.16097 -0.0383,-2.33991 -0.0406,-3.50934 -0.008,-3.8597 0.009,-5.63559 0.0616,-9.64889 0.11632,-8.8367 0.0948,-17.67656 0.0619,-26.51244 -0.0183,-4.92277 -0.0529,-9.84703 -0.0466,-14.769 9.1e-4,-0.68553 0.005,-1.3712 -0.009,-2.0566 -0.009,-0.45474 -0.0179,-0.90948 -0.0268,-1.36425 -7.2e-4,-0.0355 0.0333,-0.10779 -0.002,-0.10628 -0.0177,7.5e-4 -0.0204,0.35549 -0.0382,0.35624 -4.7e-4,2e-5 0.0352,-0.32898 0.0189,-0.39089 -0.05,-0.19173 -0.29371,-0.41148 -0.4804,-0.4585 -1.19399,-0.30077 -0.87056,1.86629 -0.86563,2.25303 0.0448,3.50999 0.0391,7.02077 0.0439,10.53113 0.0145,10.66893 0.0109,21.33581 0.0377,32.00517 0.01,3.82805 -0.0372,7.64444 0.0157,11.47218 0.003,0.24553 -0.0404,2.44629 0.0857,3.22363 0.0964,0.59436 0.53522,1.04682 1.02407,0.5149 l -0.47719,0.25887 z" /><path
         inkscape:connector-curvature="0"
         id="path30"
         style="fill:#000000;fill-opacity:1;fill-rule:evenodd;stroke:none"
         d="m 255.45474,425.3418 c 0,0 1.40552,-0.0558 2.10828,-0.0836 0.50738,-0.0201 1.98624,0.19128 1.66534,-0.89005 -0.16943,-0.57101 -1.09759,-0.5437 -1.50589,-0.52722 -1.80259,0.0728 -3.58296,0.0329 -5.38585,0.0145 -4.20471,-0.0428 -8.40988,-0.16937 -12.61418,-0.23142 -3.27176,-0.0482 -6.54768,-0.0309 -9.81497,-0.20688 -1.7599,-0.0947 -3.53776,0.0173 -5.29723,-0.0412 -1.99206,-0.0662 -2.95892,-0.11643 -5.36811,-0.15763 -0.63443,-0.0108 -1.36097,-0.1669 -2.00196,-0.055 -0.33215,0.058 -0.90315,0.46524 -0.47836,0.78397 0.0177,0.0133 0.13144,0.31707 0.24805,0.42077 0.16238,0.14432 0.44877,0.22165 0.6555,0.24802 1.07133,0.13654 2.17404,0.0327 3.25984,0.0554 2.98065,0.0621 5.98941,0.002 8.96457,0.16302 5.62683,0.3053 11.28348,0.23243 16.91928,0.31311 2.87419,0.0411 5.75401,0.19934 8.62798,0.19489 1.08394,-0.002 2.00441,-0.0981 3.04725,-0.0546 l -3.02954,0.0539 z m -38.71063,-1.46979 c 0,0 0.009,-0.003 0.0106,0 z" /><path
         inkscape:connector-curvature="0"
         id="path32"
         style="fill:#000000;fill-opacity:1;fill-rule:evenodd;stroke:none"
         d="m 258.27407,451.69734 c 0,0 0.23352,-0.003 0.33664,-0.0505 0.18518,-0.0851 0.30124,-0.28683 0.33657,-0.47836 0.10718,-0.58078 0.008,-2.47104 0.002,-2.78146 -0.042,-2.24494 0.0463,-4.72565 0.0848,-6.94489 0.0634,-3.66571 -0.0118,-7.3367 0.0387,-11.00198 0.0252,-1.82862 0.0474,-3.64487 0.0682,-5.4744 10e-4,-0.0943 -0.0283,-0.51379 -0.0519,-0.51379 -0.13007,-9e-5 0.14776,0.38965 0.0177,0.38974 -0.0651,6e-5 -0.008,-0.12995 -0.0115,-0.19486 -0.002,-0.0268 0.006,-0.083 -0.006,-0.10632 -0.0177,-0.0177 -0.0475,-0.14203 -0.0871,-0.18945 -0.14029,-0.16837 -0.31125,-0.37619 -0.56845,-0.35971 -0.30823,0.0197 -0.59549,0.27984 -0.67322,0.56689 -0.29025,1.07187 -0.0559,2.22034 -0.0696,3.33069 -0.0112,0.91537 -0.0461,1.83081 -0.0357,2.74609 0.0554,4.90662 0.008,9.81583 -0.0355,14.72241 -0.007,0.83222 -9.1e-4,1.66785 -9.1e-4,2.49729 0,0.4722 0.0211,0.94998 0.0328,1.41806 0.0158,0.63293 -0.32669,2.56698 0.87079,2.38733 0.13187,-0.0198 0.20746,-0.11521 0.30906,-0.20227 l -0.5571,0.2395 z m -0.0886,-1.06036 c 0,0 0,0 0,0 0,0 0,0 0,0 z" /><path
         sodipodi:nodetypes="cccccccccccccccc"
         inkscape:connector-curvature="0"
         id="path36"
         style="fill:#000000;fill-opacity:1;fill-rule:evenodd;stroke:none"
         d="m 249.37177,445.40429 c 0,0 0.21009,-0.0192 0.30117,-0.0669 0.16829,-0.0883 0.27326,-0.30564 0.31891,-0.47837 0.2,-0.75683 0.0419,-1.62207 0.055,-2.37402 0.0515,-2.95792 -0.0324,-1.41852 0.0361,-4.37601 l 0.0837,-3.6141 c 0.005,-0.19922 0.0115,-0.43582 -0.0507,-0.62012 -0.0297,-0.0879 -0.22877,-0.4036 -0.16653,-0.24808 0.007,0.0177 -0.26198,-0.24325 -0.43582,-0.26568 -0.31238,-0.0403 -0.65511,0.25061 -0.74411,0.53149 -0.31586,0.9968 -0.0664,2.09033 -0.0865,3.1358 -0.0578,3.00571 -0.0378,1.51178 -0.003,4.5177 0.0116,1.00953 -0.18411,2.15506 0.0721,3.1713 0.14077,0.55838 0.60534,0.90723 1.08832,0.4682 l -0.46824,0.21878 z" /><path
         sodipodi:nodetypes="cscccccccccccccccccc"
         inkscape:connector-curvature="0"
         id="path38"
         style="fill:#000000;fill-opacity:1;fill-rule:evenodd;stroke:none"
         d="m 248.55061,434.21583 h 0.38977 c 0.1429,0 0.26493,-0.0345 0.40747,-0.0655 0.44973,-0.0977 0.75449,-0.46909 0.94872,-0.85754 0.008,-0.016 0.0395,-0.1471 0.0257,-0.21082 -0.0362,-0.16641 -0.16372,-0.25876 -0.31888,-0.30118 -0.41596,-0.1138 -1.11983,-0.0312 -1.45278,-0.021 -1.44412,0.0444 -3.02797,-0.14728 -4.46455,-0.15683 -4.87372,-0.0325 -5.24603,-0.0848 -10.11615,-0.1785 -2.20857,-0.0425 -4.42511,0.0594 -6.62599,-0.10169 -0.53435,-0.0391 -2.10433,-0.40814 -2.32086,0.54663 -0.14879,0.65607 0.67761,0.75736 1.09841,0.78699 1.64432,0.11579 3.22268,0.11316 4.87206,0.13574 5.2915,0.0724 6.08015,0.16315 11.37402,0.21177 1.49588,0.0137 3.04773,0.0116 4.53543,0.0879 0.86055,0.0441 1.67666,0.22552 2.51575,0.0431 l -0.86812,0.0809 z m 1.75394,-0.939 z" /><path
         inkscape:connector-curvature="0"
         id="path40"
         style="fill:#000000;fill-opacity:1;fill-rule:evenodd;stroke:none"
         d="m 225.17376,476.09575 c 0,0 0.23874,-0.18857 0.27369,-0.32608 0.091,-0.35799 0.15127,-0.70089 0.13944,-1.0769 -0.0372,-1.18034 -0.0588,-2.17512 -0.0691,-3.35034 -0.0262,-2.98611 -0.01,-5.97357 -0.048,-8.96051 -0.11431,-8.9599 -0.0503,-17.91964 -0.19417,-26.87841 -2.8e-4,-0.0177 0.24087,-0.0932 0.29067,-0.19523 0.0301,-0.0618 0.0259,-0.21729 0.0142,-0.28481 -0.0336,-0.19427 -0.0356,-2.82704 -1.17891,-2.51967 -0.92045,0.24749 -0.54624,1.97431 -0.54128,2.39357 0.0189,1.60265 0.0457,3.20576 0.0288,4.80834 -0.051,4.84959 0.15221,9.69562 0.16778,14.54424 0.009,2.73374 -0.037,5.46645 -0.003,8.20039 0.0416,3.34609 0.0517,6.69377 0.11481,10.03915 0.0133,0.70381 -0.39542,3.11075 0.79404,3.61754 0.0168,0.007 0.31379,-0.0447 0.40662,-0.14965 z m -0.1941,0.0188 c 0,0 0.0118,-7.2e-4 0.0177,-0.001 z" /><path
         inkscape:connector-curvature="0"
         id="path42"
         style="fill:#000000;fill-opacity:1;fill-rule:evenodd;stroke:none"
         d="m 247.51586,476.46808 c 0,0 0.37416,-0.20236 0.4616,-0.38192 0.17048,-0.35001 0.12728,-0.77768 0.12272,-1.15155 -0.023,-1.88599 0.0688,-3.73322 0.20617,-5.61612 0.0328,-0.44953 0.34239,-1.90464 -0.50604,-1.96656 -0.98985,-0.0722 -0.87137,1.34348 -0.91122,1.89566 -0.1399,1.93857 -0.24939,3.87006 -0.22265,5.81104 0.004,0.32077 0.0112,0.70959 0.15946,1.00986 0.26388,0.53433 0.82283,0.47796 1.13072,0.0469 l -0.44076,0.35272 z m 0.17816,-0.87796 c 0,0 0,0.0315 0,0.0236 z m -0.70867,0.12403 c 0,0 -0.004,-0.0136 0,-0.0177 0.0177,0 0.0177,0 0.0177,0 z" /><path
         inkscape:connector-curvature="0"
         id="path44"
         style="fill:#000000;fill-opacity:1;fill-rule:evenodd;stroke:none"
         d="m 246.88259,476.51439 c 0,0 0.28346,-0.009 0.4252,-0.0138 0.21285,-0.007 0.48367,-0.13233 0.62009,-0.3046 0.25168,-0.3179 0.13553,-0.73093 -0.19489,-0.95667 -0.27223,-0.186 -0.74443,-0.13916 -1.04527,-0.14318 -0.82086,-0.0108 -1.64176,-0.0217 -2.46262,-0.0326 -0.0709,-9.4e-4 -0.14171,-0.002 -0.21258,-0.003 -4.0634,-0.0704 -8.12596,-0.0467 -12.18898,-0.10391 -1.68531,-0.0238 -3.34061,-0.0714 -5.03151,-0.0714 -0.32068,0 -1.80518,-0.24835 -1.84252,0.51377 -0.0406,0.82831 1.25431,0.92773 1.78937,0.91965 0.38776,-0.006 0.77985,-0.0184 1.1693,-0.0152 0.66141,0.005 1.32284,0.0106 1.98425,0.016 3.86035,0.0311 7.72672,0.0359 11.58661,0.10922 0.93132,0.0177 1.86616,0.0403 2.79921,0.0525 0.38457,0.005 2.54604,0.25916 3.40355,-0.0939 l -0.79921,0.12738 z m -21.1181,-0.88529 c 0,0 0,-0.0118 0,-0.0177 0,0 0.0177,0.009 0.0177,0.0177 z" /><path
         d="m 257.9651,483.95395 c 0,0 0.21009,-0.0192 0.30117,-0.0669 0.16829,-0.0883 0.27326,-0.30564 0.31891,-0.47837 0.2,-0.75683 0.0419,-1.62207 0.055,-2.37402 0.0515,-2.95792 -0.0324,0.31799 0.0361,-2.6395 l 0.0837,-3.6141 c 0.005,-0.19922 0.0115,-0.43582 -0.0507,-0.62012 -0.0297,-0.0879 -0.22877,-0.4036 -0.16653,-0.24808 0.007,0.0177 -0.26198,-0.24325 -0.43582,-0.26568 -0.31238,-0.0403 -0.65511,0.25061 -0.74411,0.53149 -0.31586,0.9968 -0.0664,2.09033 -0.0865,3.1358 -0.0578,3.00571 -0.0378,-0.22473 -0.003,2.78119 0.0116,1.00953 -0.18411,2.15506 0.0721,3.1713 0.14077,0.55838 0.60534,0.90723 1.08832,0.4682 l -0.46824,0.21878 z"
         style="fill:#000000;fill-opacity:1;fill-rule:evenodd;stroke:none"
         id="path3749"
         inkscape:connector-curvature="0"
         sodipodi:nodetypes="cccccccccccccccc" /><path
         transform="matrix(0.75000002,0,0,-0.75000002,0,842.00005)"
         inkscape:connector-curvature="0"
         id="path3751"
         d="m 289.92347,518.01957 v -38.33243 l 1.56091,-0.17361 c 0.8585,-0.0955 12.76606,-0.20546 26.46124,-0.24438 l 24.90032,-0.0708 -8e-5,5.36982 -7e-5,5.36982 -1.54389,0.39568 c -0.84914,0.21763 -2.84451,1.0468 -4.43415,1.8426 -2.26576,1.13428 -3.16882,1.77965 -4.17946,2.98683 l -1.28919,1.53992 -0.18781,-0.87345 c -0.10329,-0.4804 -0.20568,-2.41206 -0.22754,-4.29259 -0.0218,-1.88052 -0.16661,-3.61982 -0.3217,-3.86511 -0.24543,-0.3882 -2.10338,-0.43469 -14.34096,-0.35884 -7.73245,0.0479 -14.61953,0.16225 -15.30462,0.25405 -2.25267,0.30186 -2.18514,-0.03 -2.32787,11.44126 -0.49937,40.13251 -0.49594,46.24478 0.0263,46.76698 0.27615,0.27614 0.70248,0.42518 0.94741,0.33119 0.24493,-0.094 0.5956,-0.0535 0.77928,0.0899 0.1901,0.14846 5.13681,0.16007 11.48333,0.027 6.13215,-0.12861 13.22315,-0.26145 15.75777,-0.2952 2.53462,-0.0338 4.94288,-0.11364 5.35169,-0.17753 l 0.7433,-0.11616 -0.092,-8.01081 -0.092,-8.0108 1.19091,-1.75369 c 1.83289,-2.69906 3.04595,-3.58853 6.70563,-4.91693 l 1.95024,-0.70789 v 16.57787 16.57787 l -12.41296,0.17628 c -6.82713,0.0969 -16.9619,0.3156 -22.52172,0.4859 -5.55982,0.17031 -12.0153,0.3074 -14.34552,0.30465 l -4.23675,-0.005 z"
         style="opacity:1;fill:#000080;fill-opacity:1;stroke-width:0.2973164" /><path
         transform="matrix(0.75000002,0,0,-0.75000002,0,842.00005)"
         inkscape:connector-curvature="0"
         id="path3753"
         d="m 316.83942,532.41802 c 0.11817,-0.98115 0.47655,-2.78734 0.79641,-4.01377 0.31985,-1.22643 0.76528,-3.09953 0.98984,-4.16243 0.23408,-1.108 1.19874,-3.51825 2.26092,-5.64901 1.82271,-3.65644 1.92255,-3.78638 6.18257,-8.04649 4.61383,-4.61392 7.75405,-6.95988 12.52068,-9.35383 2.64093,-1.32635 5.48644,-2.22257 7.05671,-2.22257 0.48973,0 1.19514,-0.24674 1.56757,-0.54832 0.61652,-0.49922 0.69268,-0.87086 0.85056,-4.15025 l 0.17341,-3.60193 4.75706,4.30914 c 2.61639,2.37003 5.76051,4.93234 6.98694,5.69404 2.45872,1.52703 4.04029,2.6743 5.71128,4.14294 l 1.10289,0.96933 -0.95423,0.66877 c -0.52482,0.36781 -2.16499,1.67754 -3.64482,2.91049 -1.47983,1.23296 -4.0467,3.3527 -5.70416,4.71054 -1.65747,1.35784 -3.81266,3.32303 -4.78932,4.36708 l -1.77575,1.89828 -0.32464,-1.86424 c -0.17855,-1.02534 -0.32464,-2.22122 -0.32464,-2.65751 0,-1.37717 -0.93323,-1.98307 -3.0475,-1.97863 -3.59685,0.008 -7.16239,0.97858 -11.37235,3.09707 -5.91494,2.97646 -7.88046,4.40416 -11.76316,8.54443 -1.89107,2.01651 -4.2817,4.73673 -5.31251,6.04492 -1.03081,1.30819 -1.93819,2.44543 -2.01641,2.52719 -0.0782,0.0818 -0.0455,-0.6541 0.0727,-1.63524 z"
         style="opacity:1;fill:#000080;fill-opacity:1;stroke-width:0.2973164" /></g></g></svg>