<?xml version="1.0" encoding="UTF-8" standalone="no"?>
<!-- Created with Inkscape (http://www.inkscape.org/) -->

<svg
   xmlns:dc="http://purl.org/dc/elements/1.1/"
   xmlns:cc="http://creativecommons.org/ns#"
   xmlns:rdf="http://www.w3.org/1999/02/22-rdf-syntax-ns#"
   xmlns:svg="http://www.w3.org/2000/svg"
   xmlns="http://www.w3.org/2000/svg"
   xmlns:sodipodi="http://sodipodi.sourceforge.net/DTD/sodipodi-0.dtd"
   xmlns:inkscape="http://www.inkscape.org/namespaces/inkscape"
   width="21.67605mm"
   height="18.543276mm"
   viewBox="0 0 21.67605 18.543276"
   version="1.1"
   id="svg3953"
   inkscape:version="0.92.3 (2405546, 2018-03-11)"
   sodipodi:docname="Logo Twitter.svg">
  <defs
     id="defs3947" />
  <sodipodi:namedview
     id="base"
     pagecolor="#ffffff"
     bordercolor="#666666"
     borderopacity="1.0"
     inkscape:pageopacity="0.0"
     inkscape:pageshadow="2"
     inkscape:zoom="0.35"
     inkscape:cx="-39.037387"
     inkscape:cy="-70.671892"
     inkscape:document-units="mm"
     inkscape:current-layer="layer1"
     showgrid="false"
     fit-margin-top="0"
     fit-margin-left="0"
     fit-margin-right="0"
     fit-margin-bottom="0"
     inkscape:window-width="1920"
     inkscape:window-height="1025"
     inkscape:window-x="0"
     inkscape:window-y="27"
     inkscape:window-maximized="1" />
  <metadata
     id="metadata3950">
    <rdf:RDF>
      <cc:Work
         rdf:about="">
        <dc:format>image/svg+xml</dc:format>
        <dc:type
           rdf:resource="http://purl.org/dc/dcmitype/StillImage" />
        <dc:title></dc:title>
      </cc:Work>
    </rdf:RDF>
  </metadata>
  <g
     inkscape:label="Ebene 1"
     inkscape:groupmode="layer"
     id="layer1"
     transform="translate(-116.16198,-111.59145)">
    <g
       id="g2972"
       transform="matrix(0.35277777,0,0,-0.35277777,20.659307,278.90304)">
      <path
         inkscape:connector-curvature="0"
         id="path24"
         style="fill:#000000;fill-opacity:1;fill-rule:evenodd;stroke:none"
         d="m 311.59845,474.25696 c 0,0 1.0748,-0.0548 1.61218,-0.0823 1.00803,-0.0514 2.2945,-0.0315 3.22443,-0.50146 0.90243,-0.45615 1.87393,-1.13178 2.63974,-1.7894 1.23819,-1.06323 2.15426,-2.43784 3.45834,-3.44385 0.0141,-0.0109 0.56983,0.29196 0.85691,0.42444 0.64508,0.29776 1.28927,0.41928 1.95642,0.64542 1.2095,0.40997 2.31662,1.10238 3.48147,1.62014 0.62573,0.27811 1.52722,0.7154 2.22324,0.38184 0.51175,-0.24524 0.50952,-0.85104 0.24438,-1.27869 -0.76492,-1.23373 -1.42087,-2.36596 -2.37643,-3.4736 -0.0116,-0.0135 0.40134,0.0322 0.60843,0.0476 0.53259,0.0395 2.91769,0.4238 2.60434,-0.94687 -0.1156,-0.50574 -0.7945,-0.78967 -1.13385,-1.06299 -0.45154,-0.36362 -1.26078,-1.05554 -1.71851,-1.47049 -0.82974,-0.75217 -0.97381,-1.20907 -1.46774,-2.13156 -0.47333,-0.88394 -1.02368,-1.73087 -1.42005,-2.65189 -0.5,-1.16183 -0.36474,-2.65429 -0.51379,-3.87991 -0.2374,-1.95224 -0.67648,-3.96725 -1.20471,-5.8642 -0.3877,-1.39215 -0.9046,-2.75171 -1.29331,-4.14563 -0.22943,-0.82269 -0.30737,-1.46051 -0.62008,-2.2323 -0.96479,-2.38137 -2.32514,-4.69113 -3.89765,-6.71456 -0.50564,-0.65067 -1.10904,-1.22559 -1.61218,-1.87797 -0.34991,-0.45367 -0.62759,-0.97393 -0.99216,-1.41732 -0.40219,-0.4892 -0.91403,-0.88895 -1.311,-1.38187 -0.35611,-0.44211 -0.55408,-0.94867 -1.00986,-1.31103 -0.56857,-0.45203 -1.37842,-0.84302 -1.94882,-1.20475 -0.61124,-0.38763 -1.20258,-0.83163 -1.82477,-1.20468 -1.45587,-0.87289 -2.7384,-1.36856 -4.29849,-1.96948 -2.035,-0.78388 -4.01654,-1.47611 -6.13437,-1.98883 -2.10083,-0.50858 -4.25531,-1.21759 -6.39786,-1.49838 -0.96753,-0.12677 -1.98092,0.0852 -2.95868,0.0532 -0.81778,-0.0268 -2.11551,-0.23548 -3.04724,-0.19492 -0.47842,0.0208 -0.91061,0.20963 -1.38189,0.26575 -0.67487,0.0804 -1.23951,-0.0551 -1.87793,0.12402 -0.79621,0.2233 -1.54487,0.60926 -2.33353,0.86557 -0.16339,0.0531 -1.3624,0.47791 -2.02475,0.65805 -0.62637,0.17035 -1.3743,0.24283 -2.00198,0.47837 -1.9643,0.73703 -3.30527,2.0036 -4.78974,3.42208 -0.62552,0.59772 -0.95614,1.17984 -1.49896,1.81565 -0.36758,0.4306 -1.04218,1.09396 -0.4967,1.68942 0.30975,0.33823 0.78042,0.21936 1.16928,0.16132 0.97329,-0.14527 1.62814,-0.20383 2.58572,-0.0565 2.82782,0.435 5.74066,0.95379 8.46939,1.82626 0.77948,0.24924 1.27905,0.56766 2.05512,0.90357 0.64498,0.27917 1.30288,0.35342 1.94986,0.59607 0.0167,0.006 -0.33765,0.0851 -0.51484,0.12439 -0.19366,0.0431 -0.36859,0.12515 -0.55563,0.19754 -0.61337,0.23742 -1.39749,0.60443 -1.96613,0.90341 -0.64019,0.33658 -1.63983,0.79992 -2.29711,1.27899 -1.17048,0.85309 -1.97294,2.03644 -2.85239,3.1535 -0.56052,0.71195 -1.38791,1.4043 -1.57675,2.33863 -0.24857,1.22976 1.06265,0.99984 1.78937,1.02752 0.8699,0.0331 1.73007,0.39386 2.51699,0.73694 0.0164,0.007 -0.29696,0.20438 -0.43631,0.3252 -0.3005,0.2604 -0.60104,0.52084 -0.90155,0.78128 -0.58929,0.51071 -0.95453,0.76785 -1.66357,1.02566 -0.47986,0.17453 -0.8324,0.60044 -1.18668,0.9433 -0.36956,0.35761 -0.82638,0.69888 -1.18124,1.05966 -0.49399,0.50223 -0.77316,1.16684 -1.22702,1.69739 -0.38498,0.4501 -1.19776,1.26251 -1.53677,1.93451 -0.30866,0.61169 -0.38923,1.44214 -0.51072,2.0563 -0.13272,0.6709 -0.51669,1.42743 -0.44598,2.14255 0.11511,1.16364 1.22842,0.50308 1.8071,0.30118 0.41067,-0.14331 0.87756,-0.1152 1.28857,-0.26813 0.29141,-0.10846 0.58274,-0.21588 0.87284,-0.32742 0.0177,-0.007 -0.52243,0.83096 -0.79252,1.24988 -0.41748,0.64749 -0.84985,1.37695 -1.03228,2.14489 -0.26899,1.13233 -0.18906,2.25455 -0.23032,3.40155 -0.0256,0.71134 -0.21423,1.51288 -0.12402,2.25 0.0601,0.49048 0.25747,0.9629 0.31891,1.45273 0.0556,0.44376 0.002,0.89981 0.0459,1.3465 0.0403,0.40747 0.0805,0.81491 0.12073,1.22241 0.058,0.58747 -0.13037,1.54563 0.50656,1.93112 0.85462,0.51728 1.38639,-0.64239 1.78937,-1.15158 0.22818,-0.28827 0.62494,-0.70468 0.76132,-0.85849 0.57288,-0.64596 1.16394,-1.40878 1.86075,-1.9407 0.78205,-0.59699 1.46704,-0.94467 2.21457,-1.59451 1.13419,-0.986 2.28888,-1.88276 3.6496,-2.56888 0.89688,-0.45227 1.9129,-0.74439 2.85235,-1.08075 2.48136,-0.88831 4.99207,-1.78052 7.60041,-2.24997 0.93606,-0.16849 2.14636,-0.22852 3.08267,-0.0532 0.85766,0.16058 1.18298,0.4985 1.88025,0.0801 0.0154,-0.009 -0.16315,0.36514 -0.26969,0.54269 -0.37307,0.62177 -0.74426,1.10184 -0.70703,1.83978 0.0245,0.4859 0.20362,0.94162 0.28348,1.41733 0.11035,0.6575 0.0813,1.10278 0.28345,1.71851 0.33215,1.01159 0.91946,2.02514 1.45276,2.94091 1.81167,3.11103 5.14172,5.65363 8.71652,6.25394 1.19736,0.20108 2.43936,-0.0128 3.63193,-0.15518 l -2.87009,0.22516 z m -0.0709,-1.41895 c 0,0 -0.55835,-0.0604 -0.82935,-0.13034 -1.11008,-0.28647 -1.3616,-0.27789 -2.16839,-0.7543 -2.09778,-1.23868 -3.88022,-2.55002 -5.16956,-4.69354 -0.56381,-0.93732 -1.25845,-2.04154 -1.47049,-3.13584 -0.0639,-0.33008 -0.0383,-0.67663 -0.0886,-1.00985 -0.0545,-0.36121 -0.29584,-0.95044 -0.30115,-1.32874 -0.005,-0.35812 0.34982,-0.73151 0.49603,-0.9921 0.41193,-0.73422 1.0152,-1.58288 1.22245,-2.40945 0.068,-0.27103 0.072,-0.97067 -0.42521,-0.815 -0.10824,0.0339 -0.21255,0.31286 -0.26574,0.21264 -0.0102,-0.0192 0.13455,-0.12295 0.12402,-0.14175 -0.0844,-0.15024 -0.28378,0.19574 -0.42569,0.29361 -0.40341,0.2782 -0.71399,0.72787 -0.92963,1.15915 -0.009,0.0177 -0.0169,-0.21463 -0.062,-0.31891 -0.0859,-0.19879 -0.32843,-0.34515 -0.51379,-0.42517 -0.69156,-0.29855 -1.49188,-0.38855 -2.23227,-0.4516 -2.02014,-0.172 -4.19604,0.48843 -6.11438,1.00806 -2.10889,0.57119 -4.17404,1.30523 -6.16321,2.17187 -0.41839,0.18231 -0.8696,0.2612 -1.27557,0.47833 -1.4205,0.7598 -2.64896,1.66172 -3.84451,2.71064 -0.85489,0.75006 -1.91105,1.24728 -2.72834,2.03741 -0.73779,0.71323 -1.40152,1.53613 -2.07873,2.30744 -0.0118,0.0134 -0.0752,-0.5889 -0.10694,-0.89008 -0.0598,-0.56787 0.0447,-1.19125 -0.0893,-1.75241 -0.33789,-1.41504 -0.2298,-1.60196 -0.15213,-3.15512 0.052,-1.03992 -0.0371,-2.00876 0.15945,-3.04721 0.23981,-1.26706 1.28931,-2.69132 2.10236,-3.63977 0.38336,-0.44724 1.48062,-0.85788 0.89172,-1.6575 -0.27765,-0.37702 -0.80542,-0.2276 -1.18698,-0.20679 -1.28564,0.0701 -2.35718,0.57745 -3.6142,0.80597 -0.0177,0.003 0.0859,-0.41953 0.12598,-0.63327 0.1373,-0.73224 0.16809,-1.07831 0.36514,-1.66953 0.23648,-0.70962 1.1781,-1.47314 1.51084,-1.91055 0.34042,-0.44754 0.62692,-1.05917 1.02759,-1.48816 0.50058,-0.53595 1.20477,-1.24402 1.82476,-1.64764 0.44162,-0.28751 0.98398,-0.35514 1.41733,-0.67325 0.66367,-0.48722 1.21179,-1.18131 1.91339,-1.62992 0.56107,-0.35873 1.46552,0.27759 1.71851,-0.67324 0.1434,-0.53898 -0.30567,-1.03397 -0.75153,-1.25156 -1.39358,-0.68021 -2.65182,-1.21356 -4.2091,-1.42127 -0.0177,-0.002 0.15042,-0.30795 0.2669,-0.43557 0.21759,-0.23831 0.52802,-0.52799 0.73282,-0.82379 0.7923,-1.14444 1.69309,-2.30359 2.91565,-3.01267 1.08228,-0.62768 2.41196,-1.31842 3.59644,-1.77167 0.53192,-0.20355 1.13949,-0.22894 1.67935,-0.40561 0.53827,-0.17617 1.47998,-0.33898 1.42105,-1.11801 -0.0306,-0.4042 -0.41144,-0.66745 -0.75522,-0.80041 -1.08792,-0.42078 -2.1254,-0.70026 -3.2005,-1.09363 -0.81955,-0.29977 -1.4996,-0.74451 -2.33365,-1.01147 -1.77136,-0.56696 -3.44101,-0.83158 -5.22494,-1.22803 -1.75208,-0.38938 -3.58506,-0.86261 -5.38727,-0.73972 -0.0177,10e-4 0.17093,-0.27289 0.26324,-0.41134 0.17209,-0.25815 0.444,-0.43344 0.66877,-0.64725 0.73916,-0.7031 1.30477,-1.36749 2.13336,-1.94293 1.90063,-1.31989 4.15844,-1.67044 6.32895,-2.36811 0.74835,-0.24054 1.49368,-0.68979 2.28088,-0.82995 0.49554,-0.0883 1.02457,0.005 1.52362,-0.0532 0.3876,-0.0449 0.77759,-0.20292 1.16931,-0.23029 0.90726,-0.0634 2.26789,0.13379 3.01181,0.15942 0.90045,0.031 1.85477,-0.15676 2.74607,-0.0708 1.18859,0.11463 2.15368,0.48908 3.29525,0.77951 0.96686,0.24598 1.99341,0.46137 2.96088,0.70066 2.09409,0.51791 4.04437,1.18414 6.05798,1.96811 1.52375,0.59323 2.6976,1.01132 4.1268,1.88436 0.65964,0.40296 1.267,0.88395 1.93473,1.27671 0.15783,0.0928 1.37881,0.69229 1.75033,1.11502 0.24957,0.28403 0.41574,0.68027 0.65549,0.97442 0.37906,0.46506 0.8533,0.85178 1.24017,1.31104 0.37046,0.43973 0.65995,0.94571 1.00986,1.3996 1.25766,1.63144 2.68893,3.12799 3.70273,4.9429 1.67108,2.99151 2.5841,6.30374 3.5079,9.58465 0.51212,1.81888 0.91886,3.76169 1.15155,5.63388 0.15702,1.26322 0.11069,2.58573 0.46063,3.82676 0.28797,1.02115 1.54346,3.04293 1.68573,3.30764 0.27384,0.5095 0.44285,1.02823 0.81229,1.4758 0.64142,0.77698 1.39917,1.27433 2.11273,1.95389 0.0133,0.0127 -0.15258,0.01 -0.23474,-4.9e-4 -0.53741,-0.0665 -1.08252,-0.0871 -1.61221,-0.19943 -0.17127,-0.0364 -0.34888,-0.0897 -0.50022,-0.17828 -0.50466,-0.29547 -1.93646,-1.36096 -2.22811,-0.17606 -0.15332,0.62277 0.62777,1.04825 1.00805,1.31989 1.39554,0.99676 2.63813,2.13467 3.43058,3.67791 0.008,0.016 -0.10376,-0.0382 -0.16034,-0.064 -0.33646,-0.15335 -0.67292,-0.30679 -1.00937,-0.46015 -0.47269,-0.21545 -0.94348,-0.46209 -1.40186,-0.68838 -0.78958,-0.3898 -1.61053,-0.50092 -2.41632,-0.80887 -0.68597,-0.26218 -1.41641,-0.95929 -2.21454,-0.74414 -0.5036,0.13571 -0.96094,0.569 -1.31827,0.90646 -0.95303,0.90006 -1.74545,1.99619 -2.73883,2.84949 -0.71869,0.61734 -1.64962,1.35953 -2.53344,1.70075 -0.42362,0.16354 -0.85501,0.0694 -1.29331,0.11813 -0.83731,0.093 -1.9447,0.25427 -2.76379,0.21851 -0.7435,-0.0325 -1.7211,-0.35843 -2.35742,-0.52262 l 2.33969,0.52008 z" />
      <path
         transform="matrix(0.75000002,0,0,-0.75000002,0,842.00005)"
         inkscape:connector-curvature="0"
         id="path957"
         d="m 374.1739,556.10856 c -3.03717,-1.02366 -5.976,-2.4854 -7.36362,-3.66257 l -2.30923,-1.95902 6.32014,-1.32615 c 7.63982,-1.60304 15.83999,-4.61292 15.83999,-5.81407 0,-0.46895 -0.73585,-1.14298 -1.63524,-1.49784 -5.94,-2.34367 -8.75752,-3.9765 -10.36601,-6.00738 -1.62137,-2.04715 -1.68047,-2.27392 -0.68435,-2.62613 4.05869,-1.43509 4.95538,-2.00559 4.95538,-3.15274 0,-0.78437 -0.38742,-1.21961 -1.08561,-1.21961 -0.59709,0 -1.71407,-0.66896 -2.48219,-1.48658 -0.76811,-0.81762 -1.73588,-1.48659 -2.1506,-1.48659 -1.04699,0 -6.38241,-6.28686 -6.87634,-8.10257 -0.3832,-1.40866 -0.30399,-1.4677 1.48658,-1.10804 1.04024,0.20895 2.36094,0.51217 2.93489,0.67383 1.92181,0.5413 1.79861,-1.43482 -0.24814,-3.98004 -1.90415,-2.36791 -1.99296,-2.70685 -2.18905,-8.35484 -0.11863,-3.41707 0.0298,-5.88681 0.35382,-5.88681 0.307,0 1.05741,0.55162 1.66756,1.22583 3.08362,3.40737 9.40459,7.28166 15.26815,9.35825 5.05696,1.79094 7.00548,2.18045 11.34564,2.26803 2.88206,0.0582 5.40182,0.26745 5.59946,0.46509 0.19764,0.19764 0.71613,0.35935 1.1522,0.35935 1.13258,0 0.97519,-1.77488 -0.35014,-3.94837 -1.4461,-2.37157 -0.82174,-5.71097 1.77284,-9.48206 2.80912,-4.08293 6.65785,-6.40523 11.08222,-6.68695 4.28669,-0.27295 5.98585,0.54119 10.26448,4.91816 1.45805,1.49157 2.96098,2.71193 3.33985,2.71193 0.37886,0 2.06875,-0.57346 3.75531,-1.27436 1.68655,-0.7009 3.22205,-1.11878 3.41222,-0.92861 0.19016,0.19016 -0.61889,1.19273 -1.79791,2.22791 -3.47056,3.04719 -2.61262,4.3562 1.72146,2.62655 1.11178,-0.44369 1.12802,-0.40024 0.24927,0.66682 -2.58327,3.13685 -4.16226,6.93778 -4.72458,11.37292 -1.45658,11.48839 -4.72658,19.84275 -10.68702,27.30376 -4.9764,6.22923 -8.25571,8.70667 -14.81609,11.19321 -13.03399,4.94017 -23.40867,5.76991 -32.75534,2.61969 z"
         style="fill:#28a9e0;fill-opacity:1;stroke:none;stroke-width:0.44948623;stroke-linecap:round;stroke-miterlimit:4;stroke-dasharray:none" />
    </g>
  </g>
</svg>
