<?xml version="1.0" encoding="UTF-8" standalone="no"?>
<!-- Created with Inkscape (http://www.inkscape.org/) -->

<svg
   xmlns:dc="http://purl.org/dc/elements/1.1/"
   xmlns:cc="http://creativecommons.org/ns#"
   xmlns:rdf="http://www.w3.org/1999/02/22-rdf-syntax-ns#"
   xmlns:svg="http://www.w3.org/2000/svg"
   xmlns="http://www.w3.org/2000/svg"
   xmlns:sodipodi="http://sodipodi.sourceforge.net/DTD/sodipodi-0.dtd"
   xmlns:inkscape="http://www.inkscape.org/namespaces/inkscape"
   width="20.818403mm"
   height="21.073759mm"
   viewBox="0 0 20.818403 21.073759"
   version="1.1"
   id="svg390"
   inkscape:version="0.92.3 (2405546, 2018-03-11)"
   sodipodi:docname="Logo Medium.svg">
  <defs
     id="defs384" />
  <sodipodi:namedview
     id="base"
     pagecolor="#ffffff"
     bordercolor="#666666"
     borderopacity="1.0"
     inkscape:pageopacity="0.0"
     inkscape:pageshadow="2"
     inkscape:zoom="0.35"
     inkscape:cx="-40.658138"
     inkscape:cy="-5.8898572"
     inkscape:document-units="mm"
     inkscape:current-layer="layer1"
     showgrid="false"
     fit-margin-top="0"
     fit-margin-left="0"
     fit-margin-right="0"
     fit-margin-bottom="0"
     inkscape:window-width="1920"
     inkscape:window-height="1025"
     inkscape:window-x="0"
     inkscape:window-y="27"
     inkscape:window-maximized="1" />
  <metadata
     id="metadata387">
    <rdf:RDF>
      <cc:Work
         rdf:about="">
        <dc:format>image/svg+xml</dc:format>
        <dc:type
           rdf:resource="http://purl.org/dc/dcmitype/StillImage" />
        <dc:title></dc:title>
      </cc:Work>
    </rdf:RDF>
  </metadata>
  <g
     inkscape:label="Ebene 1"
     inkscape:groupmode="layer"
     id="layer1"
     transform="translate(-116.5908,-126.20122)">
    <g
       transform="translate(18.865003,-18.343602)"
       id="g266">
      <path
         inkscape:connector-curvature="0"
         id="path152"
         style="fill:#000000;fill-opacity:1;fill-rule:evenodd;stroke:none;stroke-width:0.35277778"
         d="m 116.9581,144.71769 c 0,0 0.21103,0.0377 0.31774,0.0393 0.12293,0.002 0.24584,0.004 0.36875,0.006 0.025,3.8e-4 0.05,4e-4 0.075,4.3e-4 0.12249,-7.3e-4 0.87828,0.0196 0.62714,0.36354 -0.13301,0.18216 -0.45887,0.13119 -0.62923,0.1358 -0.26164,0.007 -0.5004,-0.005 -0.75538,-0.0408 -0.33462,-0.0471 -0.84019,-0.0159 -1.16225,-0.0256 -0.82242,-0.0247 -1.6455,-0.0287 -2.46862,-0.0403 -3.21934,-0.0453 -6.43951,-0.0249 -9.65777,-0.089 -0.99026,-0.0197 -1.9806,-0.004 -2.97005,7.5e-4 -0.53024,0.002 -1.063462,0.001 -1.594365,-0.002 -0.326419,-0.002 -0.582205,-0.0361 -0.875665,0.01 -0.0063,8.8e-4 -0.07265,0.082 -0.115774,0.11034 -0.06202,0.0407 -0.184409,-0.0127 -0.229686,-0.0567 -0.149837,-0.14583 -0.07289,-0.39971 0.0835,-0.50401 0.190061,-0.12675 0.473384,-0.0562 0.676937,-0.0564 0.269708,-2.3e-4 0.555106,0.006 0.831651,-0.002 1.830282,-0.0481 3.663902,-0.006 5.495712,0.0133 3.42266,0.0357 6.84673,0.0527 10.27041,0.0931 0.80936,0.01 1.61646,0.0775 2.42342,0.0898 l -0.71149,-0.0453 z" />
      <path
         inkscape:connector-curvature="0"
         id="path154"
         style="fill:#000000;fill-opacity:1;fill-rule:evenodd;stroke:none;stroke-width:0.35277778"
         d="m 118.33614,144.87672 c 0,0 0.1196,0.0289 0.15285,0.0749 0.0365,0.0504 0.007,0.0985 -0.0118,0.1496 -0.002,0.006 0.0206,-0.036 0.037,-0.0295 0.0226,0.009 -0.0185,0.22631 -0.0196,0.30565 -0.005,0.44817 -0.0117,0.8963 -0.0171,1.34448 -0.0141,1.0763 0.0589,2.16034 0.0607,3.23788 0.006,3.45332 0.005,6.90807 0.006,10.36217 6.2e-4,1.44999 -0.0338,2.89718 -0.0453,4.34656 -1.5e-4,0.0251 -2.9e-4,0.05 5.9e-4,0.0751 0.003,0.18728 0.13723,0.89458 -0.29227,0.82841 -0.0483,-0.008 -0.0732,-0.0363 -0.11054,-0.0679 -0.005,-0.004 -0.0123,-0.002 -0.0136,-0.004 -0.004,-0.006 -0.008,-0.0108 -0.01,-0.013 0,0 -0.057,-0.0941 -0.0584,-0.14672 -0.005,-0.19838 -0.0106,-0.39678 -0.0159,-0.59517 -0.006,-0.23543 -0.005,-0.47154 0.006,-0.70679 0.059,-1.23189 0.0381,-2.46918 0.038,-3.70243 -2.2e-4,-3.4742 0.0169,-6.95162 -0.01,-10.42489 -0.0104,-1.36677 -0.056,-2.73975 -0.0173,-4.10553 0.003,-0.12677 -0.006,-0.25845 -0.0106,-0.38221 -0.008,-0.24133 0.15915,-0.73096 0.47233,-0.47938 l -0.14264,-0.0667 z" />
      <path
         inkscape:connector-curvature="0"
         id="path158"
         style="fill:#000000;fill-opacity:1;fill-rule:evenodd;stroke:none;stroke-width:0.35277778"
         d="m 118.28784,165.07685 c 0,0 0.14393,0.0715 0.17135,0.13998 0.0434,0.10832 0.0198,0.2381 -0.0716,0.31054 -0.18762,0.14868 -0.52174,0.0778 -0.73297,0.0481 -0.006,-8.9e-4 -0.43567,0.002 -0.6504,0.004 -0.41649,0.003 -0.83434,8.5e-4 -1.25057,0.001 -1.02696,9e-4 -2.05479,-0.013 -3.08107,-0.0511 -2.99828,-0.11147 -6.00256,0.0181 -9.00167,-0.0695 -1.53753,-0.0449 -3.08894,-0.0172 -4.626779,-0.0114 -0.175104,6.7e-4 -0.350236,0.002 -0.525325,0.003 -0.172286,0.001 -0.66448,0.25666 -0.781866,0.01 -0.05581,-0.11737 0.116078,-0.12284 0.117564,-0.17164 0.01367,-0.44359 0.838308,-0.3384 1.041622,-0.33982 0.172627,-0.001 0.346084,-0.004 0.519059,-0.003 2.036265,0.009 4.071845,0.0259 6.107795,0.0365 2.13597,0.0111 4.27179,0.009 6.40811,0.0301 1.17761,0.0116 2.35286,0.0663 3.53098,0.0607 0.62126,-0.003 1.24204,0.008 1.86324,0.002 0.23333,-0.002 0.9019,-0.14312 1.12562,0.1308 l -0.16309,-0.12986 z" />
      <path
         sodipodi:nodetypes="cccccccccccccccccccsccccccccccccccccccccc"
         inkscape:connector-curvature="0"
         id="path160"
         style="fill:#000000;fill-opacity:1;fill-rule:evenodd;stroke:none;stroke-width:0.35277778"
         d="m 98.101269,144.94055 c 0,0 0.06151,0.003 0.09227,0.004 0.04115,0.001 0.09965,0.0535 0.122605,0.0864 0.05208,0.0746 0.03799,0.19265 0.03072,0.27651 -0.05187,0.59842 -0.02725,1.19946 -0.03569,1.80003 -0.01866,1.33336 0.0059,2.67006 0.01352,4.00392 0.0183,3.19927 0.01698,6.39899 0.04831,9.59757 0.01223,1.25016 0.05959,3.0389 0.0083,4.28893 -2.53e-4,0.006 -0.0014,0.0354 -0.0021,0.05 l -5.13e-4,0.0125 c 0,0 -0.01521,0.0661 -0.02282,0.0991 0,0 -0.04313,0.0553 -0.0678,0.0801 -0.0045,0.005 -0.0032,0.009 -0.0047,0.0108 -0.0063,-2.7e-4 -0.09213,0.0488 -0.1397,0.0505 -0.105255,0.004 -0.228357,-0.08 -0.235674,-0.1848 -4.51e-4,-0.006 -0.0035,-0.0853 -0.0018,-0.12481 2.77e-4,-0.007 -0.01001,-0.2696 -0.01015,-0.40116 -4.71e-4,-0.41704 -10e-4,-1.3632 -0.0017,-1.78027 -0.0014,-0.86715 0.0027,-1.7361 -0.0094,-2.60259 -0.04737,-3.3844 -0.0503,-6.76975 -0.05802,-10.15468 -0.0027,-1.18376 -0.02503,-2.36949 -0.0079,-3.5533 0.0024,-0.16249 -0.0024,-0.32686 -0.004,-0.48808 -3.83e-4,-0.025 -4.08e-4,-0.05 -9.4e-5,-0.0751 0.0013,-0.16466 0.0027,-0.32932 0.0039,-0.49398 0.0022,-0.27039 0.189845,-0.66697 0.487517,-0.41935 l -0.205092,-0.082 z m 0.277688,20.11387 c 0,0 -0.0018,0.0454 -0.0028,0.0681 -7.71e-4,0.0188 0.0015,-0.0375 0.0023,-0.0562 2.53e-4,-0.006 -0.0014,0.0354 -0.0023,0.0562 -6.83e-4,0.0166 0.0014,-0.0333 0.0021,-0.05 l 7.47e-4,-0.0182 z m -0.11002,-19.78796 c 0,0 0.0024,-0.006 2.53e-4,-0.006 z m -0.242518,-0.035 -2.52e-4,0.006 v 0 z" />
      <path
         inkscape:connector-curvature="0"
         id="path162"
         style="fill:#000000;fill-opacity:1;fill-rule:evenodd;stroke:none;stroke-width:0.35277778"
         d="m 105.54383,149.10498 c 0,0 0.13927,0.0292 0.16633,0.0854 0.0833,0.17286 -0.0378,0.50607 -0.19319,0.61962 -0.0774,0.0565 -0.1676,0.0491 -0.25783,0.0504 -0.26272,0.004 -0.52544,0.007 -0.78816,0.0112 -0.30609,0.004 -0.61315,0.005 -0.91935,0.007 -0.2644,0.003 -0.69964,-0.007 -1.01331,0.0127 -0.12778,0.008 -0.26573,0.0445 -0.39413,0.007 -0.14064,-0.0408 -0.29181,-0.17457 -0.27789,-0.33326 0.008,-0.0928 0.10803,-0.23734 0.20564,-0.15447 0.005,0.004 0.33468,-0.0251 0.49993,-0.0256 0.33125,-9.5e-4 0.66305,0.006 0.99428,-0.004 0.59304,-0.0186 1.18908,-0.0184 1.78242,-0.014 0.0658,5.1e-4 0.0663,-0.11413 0.0916,-0.17488 0.0539,-0.12944 0.18325,-0.0868 0.26086,-0.0114 l -0.15721,-0.0765 z" />
      <path
         inkscape:connector-curvature="0"
         id="path164"
         style="fill:#000000;fill-opacity:1;fill-rule:evenodd;stroke:none;stroke-width:0.35277778"
         d="m 114.61368,149.46047 c 0,0 0.0874,0.006 0.13105,0.009 0.0517,0.003 0.0817,0.0339 0.12422,0.064 0.005,0.004 0.0133,0.008 0.0174,0.0102 0,0 0.0271,0.0226 0.0181,0.0205 -0.006,-0.002 0.0857,0.16832 0.0431,0.23761 -0.0754,0.12246 -0.17684,0.15107 -0.30481,0.15991 -0.4328,0.0299 -0.98995,-0.0159 -1.41281,-0.01 -0.54583,0.008 -0.92642,0.0177 -1.52615,0.0169 -0.14005,-1.8e-4 -0.3376,0.0412 -0.46124,-0.0499 -0.15268,-0.11261 -0.10331,-0.34586 0.0622,-0.41711 0.14461,-0.0623 0.32298,-0.0406 0.47577,-0.0361 0.007,2e-4 0.0188,-0.0143 0.0258,-0.0117 -1.8e-4,0.006 0.14569,-0.0449 0.17701,0.005 0.004,0.006 0.56691,0.0214 0.848,0.01 0.41204,-0.0173 0.81051,-0.005 1.22571,-0.006 0.17348,-4.7e-4 0.61351,-0.0693 0.8067,0.0678 l -0.25018,-0.0689 z" />
      <path
         inkscape:connector-curvature="0"
         id="path166"
         style="fill:#000000;fill-opacity:1;fill-rule:evenodd;stroke:none;stroke-width:0.35277778"
         d="m 105.59745,149.38686 c 0,0 0.098,0.0309 0.12931,0.0682 0.11187,0.13353 0.19692,0.26033 0.27402,0.41979 0.27768,0.5744 0.43199,0.93175 0.72634,1.59205 0.44354,0.99497 0.91404,1.98589 1.38789,2.96732 0.23719,0.49125 0.4476,0.98557 0.68815,1.47694 0.0611,0.12481 0.18092,0.35504 -0.002,0.42487 -0.006,0.002 -0.0834,0.045 -0.12613,0.0536 -0.006,10e-4 -0.0508,0.0327 -0.0759,0.0305 -0.0358,-0.003 -0.0605,-0.0387 -0.0907,-0.0581 -0.0739,-0.0473 -0.1116,-0.1416 -0.15014,-0.21984 -0.24235,-0.49204 -0.45219,-0.98454 -0.68799,-1.47712 -0.58354,-1.21895 -1.14783,-2.44873 -1.70942,-3.67805 -0.0784,-0.17167 -0.14177,-0.35008 -0.22025,-0.52166 -0.0743,-0.16243 -0.2083,-0.35919 -0.25034,-0.53757 -0.0241,-0.1022 -0.0867,-0.70227 0.19998,-0.5206 l -0.0932,-0.0203 z" />
      <path
         inkscape:connector-curvature="0"
         id="path168"
         style="fill:#000000;fill-opacity:1;fill-rule:evenodd;stroke:none;stroke-width:0.35277778"
         d="m 111.28483,149.69926 c 0,0 0.14298,0.0626 0.17167,0.12797 0.0376,0.0857 0.003,0.20341 -0.0259,0.28529 -0.21297,0.61261 -0.42814,1.22328 -0.64353,1.83505 -0.25143,0.71408 -0.55086,1.41153 -0.81752,2.11928 -0.23457,0.62258 -0.44271,1.24723 -0.7146,1.85537 -0.003,0.006 0.0594,0.11126 0.0428,0.16338 -0.0349,0.10993 -0.19487,0.38245 -0.30786,0.47871 -0.13322,0.1135 -0.33273,0.0717 -0.41013,-0.087 -0.0458,-0.0939 -0.0233,-0.21227 0.0168,-0.30335 0.12966,-0.29449 0.2581,-0.58146 0.39072,-0.87523 0.40701,-0.90171 0.69835,-1.87281 1.05299,-2.79737 0.0835,-0.21763 0.16695,-0.43524 0.25043,-0.65287 0.2205,-0.57487 0.36534,-1.20952 0.60998,-1.77283 0.0988,-0.2276 0.31088,-0.55163 0.54776,-0.25836 l -0.16363,-0.11801 z" />
      <path
         inkscape:connector-curvature="0"
         id="path170"
         style="fill:#000000;fill-opacity:1;fill-rule:evenodd;stroke:none;stroke-width:0.35277778"
         d="m 101.97529,149.24614 c 0,0 0.0659,0.0141 0.0868,0.0377 0.0243,0.0274 0.0286,0.0885 0.0174,0.11929 -0.002,0.006 0.0933,0.11737 0.13282,0.17884 0.0861,0.13391 0.17217,0.26783 0.25825,0.40172 0.14293,0.22234 0.2944,0.43763 0.44859,0.65195 0.004,0.005 0.10535,-0.002 0.14062,0.0279 0.0907,0.077 0.0971,0.34067 0.0883,0.40275 -0.0244,0.17136 -0.24332,0.23102 -0.37977,0.15772 -0.10557,-0.0567 -0.22464,-0.25595 -0.27362,-0.32215 -0.20369,-0.27546 -0.37982,-0.55765 -0.56514,-0.84678 -0.0924,-0.14414 -0.23896,-0.26058 -0.29635,-0.42741 -0.0378,-0.10982 -0.0199,-0.26152 0.0857,-0.32749 0.0536,-0.0335 0.0761,-0.0438 0.13797,-0.0497 0.0152,-0.001 0.0778,0.003 0.0686,0.007 -0.006,0.003 0.0447,-0.0141 0.0673,-0.004 0.0664,0.0288 0.072,0.038 0.094,0.10592 l -0.11141,-0.11345 z" />
      <path
         inkscape:connector-curvature="0"
         id="path172"
         style="fill:#000000;fill-opacity:1;fill-rule:evenodd;stroke:none;stroke-width:0.35277778"
         d="m 102.83394,150.85695 c 0,0 0.10571,0.009 0.1518,0.0324 0.0279,0.0142 0.10806,0.0622 0.0836,0.0427 -0.018,-0.0144 0.0534,0.0539 0.0603,0.0768 0.0192,0.0639 -0.0384,0.1552 -0.10453,0.15327 -0.006,-1.8e-4 0.005,0.24609 0.0113,0.36923 0.008,0.16236 -0.006,0.32508 -0.004,0.4876 0.007,0.5691 0.0292,1.13855 0.0231,1.70764 -0.0104,0.97016 0.0461,1.93882 0.0474,2.90889 3.5e-4,0.28138 8.5e-4,0.56276 0.001,0.84413 1.4e-4,0.18342 2.9e-4,0.36683 4.3e-4,0.55024 -10e-6,0.0125 0.0125,0.0379 -3e-5,0.0375 -2e-4,-1e-5 -7.4e-4,-0.0231 -6.8e-4,-0.025 -9.8e-4,-0.0271 0.0168,-0.10056 -0.002,-0.0814 -0.004,0.004 -9.7e-4,0.0333 -0.001,0.0398 -2.6e-4,0.009 -5.2e-4,0.0177 -7.8e-4,0.0265 -3.9e-4,0.0133 -7.7e-4,0.0266 -0.001,0.0398 0,0 -0.0498,0.13818 -0.11095,0.15934 -0.12576,0.0435 -0.26056,0.008 -0.32837,-0.10339 -0.03,-0.0494 -0.0454,-0.12386 -0.0465,-0.1827 -0.009,-0.44918 0.003,-0.90281 -0.011,-1.3509 -0.0424,-1.37047 -0.0462,-2.73923 -0.0636,-4.10984 -0.003,-0.25008 -0.002,-0.50094 -0.003,-0.75042 -0.001,-0.30245 -0.12373,-0.92708 0.38034,-0.86177 0.0535,0.007 0.0947,0.0341 0.14328,0.0589 l -0.22426,-0.0693 z m 0.13494,0.30345 c 0,0 0.0129,0.003 0.0187,5.5e-4 0.006,-0.006 -0.0102,-0.007 -0.0185,-0.007 z" />
      <path
         inkscape:connector-curvature="0"
         id="path174"
         style="fill:#000000;fill-opacity:1;fill-rule:evenodd;stroke:none;stroke-width:0.35277778"
         d="m 102.69326,157.8575 c 0,0 0.0822,0.0132 0.11783,0.0332 0.0712,0.0399 0.12491,0.12787 0.12517,0.21 1.1e-4,0.0688 -0.0297,0.36978 -0.0622,0.4171 -0.0379,0.0551 -0.1546,0.0465 -0.18367,-0.005 -0.004,-0.006 -0.021,0.0232 -0.0301,0.0378 -0.21416,0.34311 -0.42832,0.68624 -0.64248,1.02935 -0.10087,0.16163 -0.19936,0.32475 -0.2989,0.48719 -0.003,0.005 -0.0369,0.0754 -0.0537,0.11049 -0.0307,0.0639 -0.11407,0.14639 -0.18855,0.15673 -0.13706,0.019 -0.25926,-0.0845 -0.28135,-0.21454 -0.0164,-0.0968 0.0275,-0.20686 0.0774,-0.28658 0.23377,-0.37378 0.46753,-0.74756 0.70129,-1.12134 0.13436,-0.21482 0.49013,-1.13978 0.91882,-0.74574 l -0.19956,-0.10826 z" />
      <path
         inkscape:connector-curvature="0"
         id="path176"
         style="fill:#000000;fill-opacity:1;fill-rule:evenodd;stroke:none;stroke-width:0.35277778"
         d="m 104.81886,159.88718 c 0,0 0.0778,0.0139 0.1116,0.0329 0.0775,0.0435 0.1294,0.14723 0.12443,0.23498 -0.007,0.11757 -0.1223,0.19224 -0.22523,0.21853 -0.17569,0.0449 -0.55634,0.0105 -0.73188,0.0111 -0.7443,0.003 -1.48824,0.006 -2.23246,0.008 -0.006,2e-5 -0.0592,0.15621 -0.12326,0.15292 -0.0645,-0.003 -0.10949,-0.0702 -0.1597,-0.0985 -0.0859,-0.0483 -0.19111,-0.0267 -0.27966,-0.0582 -0.15847,-0.0565 -0.19659,-0.28119 -0.0883,-0.40274 0.15895,-0.17838 0.53199,-0.0922 0.72801,-0.0924 0.72745,-8e-4 1.45511,0.004 2.18249,-0.0104 0.26542,-0.005 0.66498,-0.0914 0.88134,0.10527 l -0.1874,-0.10179 z" />
      <path
         inkscape:connector-curvature="0"
         id="path178"
         style="fill:#000000;fill-opacity:1;fill-rule:evenodd;stroke:none;stroke-width:0.35277778"
         d="m 114.77079,160.0378 c 0,0 0.10808,0.01 0.16214,0.0146 0.0989,0.009 0.19761,0.0847 0.22597,0.18395 0.0702,0.24548 -0.19835,0.3255 -0.37792,0.30826 -0.006,-5.4e-4 -0.24361,-0.009 -0.36235,-0.0103 -0.34183,-0.004 -0.70557,-0.0178 -1.04989,-0.0189 -0.92643,-0.003 -1.858,0.0832 -2.78408,0.0562 -0.1075,-0.003 -0.32428,-0.016 -0.48105,-0.0141 -0.19076,0.002 -0.40522,0.0536 -0.57991,-0.0545 -0.079,-0.0489 -0.16814,-0.16546 -0.13602,-0.2666 0.0311,-0.098 0.11023,-0.18631 0.21034,-0.1103 0.005,0.004 0.12045,-0.034 0.17799,-0.0531 0.0804,-0.0266 0.17047,-0.0271 0.25491,-0.0238 0.4627,0.0185 0.88217,0.0148 1.3504,0.006 0.813,-0.0153 1.62638,-0.0359 2.43935,-0.0277 0.31818,0.003 0.91615,-0.0824 1.23675,0.0692 l -0.28664,-0.0591 z m -5.12642,0.18746 c 0,0 9e-5,-0.0131 -0.003,-0.0189 z" />
      <path
         inkscape:connector-curvature="0"
         id="path182"
         style="fill:#000000;fill-opacity:1;fill-rule:evenodd;stroke:none;stroke-width:0.35277778"
         d="m 111.12699,158.2933 c 0,0 0.0554,0.0261 0.0744,0.0489 0.0394,0.0472 0.0373,0.12084 0.0199,0.17566 -0.0667,0.21019 -0.19297,0.39656 -0.28946,0.59484 -0.15196,0.31229 -0.42259,0.52678 -0.59899,0.82127 -0.0775,0.12936 -0.26821,0.62064 -0.5229,0.44972 -0.16509,-0.1108 -0.0988,-0.37716 -0.0241,-0.51626 0.2829,-0.52674 0.78321,-1.03968 1.14831,-1.49672 0.0977,-0.12229 0.23921,-0.0944 0.2974,0.042 L 111.127,158.2933 Z m -1.05514,1.95418 c 0,0 0.007,-0.004 0.005,-0.006 z" />
      <path
         inkscape:connector-curvature="0"
         id="path184"
         style="fill:#000000;fill-opacity:1;fill-rule:evenodd;stroke:none;stroke-width:0.35277778"
         d="m 103.89338,158.22546 c 0,0 0.12007,0.0105 0.16627,0.0446 0.0341,0.0251 0.11477,0.0675 0.12064,0.17609 1.7e-4,0.006 0.11646,0.23579 0.18736,0.34274 0.24209,0.36511 0.25801,0.36946 0.59345,0.77109 0.0511,0.0612 0.12358,0.11931 0.15705,0.18913 0.0514,0.10722 0.0369,0.30831 -0.10978,0.33318 -0.006,0.001 -0.0847,0.0386 -0.12607,0.0351 -0.10929,-0.009 -0.20549,-0.12299 -0.26955,-0.1985 -0.30819,-0.36323 -0.63733,-0.73516 -0.85358,-1.16614 -0.11753,-0.23427 -0.007,-0.70936 0.32171,-0.46704 z m 0.1592,0.32947 c 0,0 0.0129,-0.003 0.0189,-0.006 z" />
      <path
         inkscape:connector-curvature="0"
         id="path186"
         style="fill:#000000;fill-opacity:1;fill-rule:evenodd;stroke:none;stroke-width:0.35277778"
         d="m 103.99428,153.13359 c 0,0 0,0 0,0 z m -0.15577,0.19554 c 0,0 0,0 0,0 0,0 0,0 0,0 z m 0.14971,-0.20197 c 0,0 0.037,0.0433 0.0417,0.07 0.008,0.0469 -0.0226,0.0871 -0.0547,0.11306 -0.005,0.004 -0.0123,0.18312 -0.0112,0.2727 0.004,0.30596 0.006,0.61303 0.0109,0.91946 0.0204,1.17433 0.0539,2.3477 0.0639,3.52211 5e-5,0.006 0.11719,0.0259 0.13567,0.0727 0.0457,0.11591 -0.12298,0.34366 -0.16144,0.3892 -0.10837,0.1283 -0.32009,0.12894 -0.41857,-0.0122 -0.12187,-0.17472 -0.0603,-0.65729 -0.0582,-0.80831 0.0115,-0.83191 -0.0318,-1.66447 -0.0471,-2.49618 -0.0106,-0.57507 -0.0867,-1.25921 -0.0381,-1.84565 0.0259,-0.31191 0.36115,-0.5219 0.54016,-0.19615 l -0.003,-7.9e-4 z" />
      <path
         inkscape:connector-curvature="0"
         id="path188"
         style="fill:#000000;fill-opacity:1;fill-rule:evenodd;stroke:none;stroke-width:0.35277778"
         d="m 103.97538,152.92325 c 0,0 0.14117,0.0275 0.19168,0.0737 0.10763,0.0985 0.19934,0.29729 0.25677,0.41393 0.19545,0.397 0.42896,0.9666 0.6124,1.37825 0.58319,1.30867 1.20111,2.60154 1.82363,3.8931 0.26339,0.54647 0.53017,1.07898 0.77248,1.63487 0.0547,0.12541 0.0736,0.31771 -0.0583,0.40768 -0.14974,0.10212 -0.32761,-0.0559 -0.38576,-0.18932 -0.23272,-0.53387 -0.49105,-1.03752 -0.74611,-1.56113 -0.7806,-1.60245 -1.52439,-3.21713 -2.24186,-4.84805 -0.11687,-0.26567 -0.37614,-0.59985 -0.40859,-0.90894 -0.0255,-0.24323 0.16824,-0.35304 0.36452,-0.22733 z m 0.12314,0.0654 c 0,0 0.008,0.003 0.0124,0.005 0.006,0.002 -0.0103,-0.004 -0.006,-0.002 l -0.006,-0.002 z" />
      <path
         inkscape:connector-curvature="0"
         id="path190"
         style="fill:#000000;fill-opacity:1;fill-rule:evenodd;stroke:none;stroke-width:0.35277778"
         d="m 111.25773,152.66093 c 0,0 0.0508,0.0239 0.0759,0.0365 0.0464,0.0233 0.0914,0.0834 0.0981,0.13536 0.0246,0.19194 -0.0627,0.35129 -0.13987,0.5247 -0.48375,1.08754 -0.39009,0.86681 -0.83426,2.06232 -0.28973,0.77985 -0.68088,1.48441 -1.0341,2.23761 -0.37696,0.8038 -0.70048,1.64015 -1.04006,2.46017 -0.085,0.20523 -0.23219,0.37554 -0.36416,0.55057 -0.27868,0.36961 -0.96239,0.0685 -0.96779,-0.36639 -0.002,-0.18505 0.24913,-0.42337 0.41337,-0.23802 0.0337,0.038 0.0373,0.0945 0.0559,0.14169 0.005,0.0118 0.005,0.0442 0.014,0.0354 0.004,-0.004 -0.0154,-0.0349 -0.0114,-0.0379 0.009,-0.006 0.10455,0.0908 0.12937,0.11231 0.005,0.004 0.0941,-0.11829 0.13878,-0.1795 0.053,-0.0726 0.10768,-0.14783 0.1413,-0.2313 0.17742,-0.44049 0.35689,-0.8799 0.54885,-1.3143 0.49525,-1.12073 1.07309,-2.20576 1.50629,-3.35283 0.29533,-0.78199 0.59844,-1.52743 0.93467,-2.29079 0.0854,-0.19388 0.21227,-0.34911 0.42839,-0.24045 l -0.0932,-0.0452 z" />
      <path
         d="m 111.45931,153.10997 c 0,0 0,0 0,0 z m -0.15577,0.19554 c 0,0 0,0 0,0 0,0 0,0 0,0 z m 0.14971,-0.20197 c 0,0 0.037,0.0433 0.0417,0.07 0.008,0.0469 -0.0226,0.0871 -0.0547,0.11306 -0.005,0.004 -0.0123,0.18312 -0.0112,0.2727 0.004,0.30596 0.006,0.61303 0.0109,0.91946 0.0204,1.17433 0.0539,2.3477 0.0639,3.52211 5e-5,0.006 0.11719,0.0259 0.13567,0.0727 0.0457,0.11591 -0.12298,0.34366 -0.16144,0.3892 -0.10837,0.1283 -0.32009,0.12894 -0.41857,-0.0122 -0.12187,-0.17472 -0.0603,-0.65729 -0.0582,-0.80831 0.0115,-0.83191 -0.0318,-1.66447 -0.0471,-2.49618 -0.0106,-0.57507 -0.0867,-1.25921 -0.0381,-1.84565 0.0259,-0.31191 0.36115,-0.5219 0.54016,-0.19615 l -0.003,-7.9e-4 z"
         style="fill:#000000;fill-opacity:1;fill-rule:evenodd;stroke:none;stroke-width:0.35277778"
         id="path233"
         inkscape:connector-curvature="0" />
      <path
         d="m 113.55901,151.2113 c 0,0 0.10571,0.009 0.1518,0.0324 0.0279,0.0142 0.10806,0.0622 0.0836,0.0427 -0.018,-0.0144 0.0534,0.0539 0.0603,0.0768 0.0192,0.0639 -0.0384,0.1552 -0.10453,0.15327 -0.006,-1.8e-4 0.005,0.24609 0.0113,0.36923 0.008,0.16236 -0.006,0.32508 -0.004,0.4876 0.007,0.5691 0.0292,1.13855 0.0231,1.70764 -0.0104,0.97016 0.0461,1.93882 0.0474,2.90889 3.5e-4,0.28138 8.5e-4,0.56276 0.001,0.84413 1.4e-4,0.18342 2.9e-4,0.36683 4.3e-4,0.55024 -10e-6,0.0125 0.0125,0.0379 -3e-5,0.0375 -2e-4,-10e-6 -7.4e-4,-0.0231 -6.8e-4,-0.025 -9.8e-4,-0.0271 0.0168,-0.10056 -0.002,-0.0814 -0.004,0.004 -9.7e-4,0.0333 -0.001,0.0398 -2.6e-4,0.009 -5.2e-4,0.0177 -7.8e-4,0.0265 -3.9e-4,0.0133 -7.7e-4,0.0266 -0.001,0.0398 0,0 -0.0498,0.13818 -0.11095,0.15934 -0.12576,0.0435 -0.26056,0.008 -0.32837,-0.10339 -0.03,-0.0494 -0.0454,-0.12386 -0.0465,-0.1827 -0.009,-0.44918 0.003,-0.90281 -0.011,-1.3509 -0.0424,-1.37047 -0.0462,-2.73923 -0.0636,-4.10984 -0.003,-0.25008 -0.002,-0.50094 -0.003,-0.75042 -10e-4,-0.30245 -0.12373,-0.92708 0.38034,-0.86177 0.0535,0.007 0.0947,0.0341 0.14328,0.0589 l -0.22426,-0.0693 z m 0.13494,0.30345 c 0,0 0.0129,0.003 0.0187,5.5e-4 0.006,-0.006 -0.0102,-0.007 -0.0185,-0.007 z"
         style="fill:#000000;fill-opacity:1;fill-rule:evenodd;stroke:none;stroke-width:0.35277778"
         id="path235"
         inkscape:connector-curvature="0" />
      <path
         d="m 113.71618,151.5617 c 0,0 0.0659,-0.0141 0.0868,-0.0377 0.0243,-0.0274 0.0286,-0.0885 0.0174,-0.11929 -0.002,-0.006 0.0933,-0.11737 0.13282,-0.17884 0.0861,-0.13391 0.17217,-0.26783 0.25825,-0.40172 0.14293,-0.22234 0.2944,-0.43763 0.44859,-0.65195 0.004,-0.005 0.10535,0.002 0.14062,-0.0279 0.0907,-0.077 0.0971,-0.34067 0.0883,-0.40275 -0.0244,-0.17136 -0.24332,-0.23102 -0.37977,-0.15772 -0.10557,0.0567 -0.22464,0.25595 -0.27362,0.32215 -0.20369,0.27546 -0.37982,0.55765 -0.56514,0.84678 -0.0924,0.14414 -0.23896,0.26058 -0.29635,0.42741 -0.0378,0.10982 -0.0199,0.26152 0.0857,0.32749 0.0536,0.0335 0.0761,0.0438 0.13797,0.0497 0.0152,0.001 0.0778,-0.003 0.0686,-0.007 -0.006,-0.003 0.0447,0.0141 0.0673,0.004 0.0664,-0.0288 0.072,-0.038 0.094,-0.10592 l -0.11141,0.11345 z"
         style="fill:#000000;fill-opacity:1;fill-rule:evenodd;stroke:none;stroke-width:0.35277778"
         id="path237"
         inkscape:connector-curvature="0" />
      <path
         d="m 113.64989,158.29633 c 0,0 0.12007,0.0105 0.16627,0.0446 0.0341,0.0251 0.11477,0.0675 0.12064,0.17609 1.7e-4,0.006 0.11646,0.23579 0.18736,0.34274 0.24209,0.36511 0.25801,0.36946 0.59345,0.77109 0.0511,0.0612 0.12358,0.11931 0.15705,0.18913 0.0514,0.10722 0.0369,0.30831 -0.10978,0.33318 -0.006,10e-4 -0.0847,0.0386 -0.12607,0.0351 -0.10929,-0.009 -0.20549,-0.12299 -0.26955,-0.1985 -0.30819,-0.36323 -0.63733,-0.73516 -0.85358,-1.16614 -0.11753,-0.23427 -0.007,-0.70936 0.32171,-0.46704 z m 0.1592,0.32947 c 0,0 0.0129,-0.003 0.0189,-0.006 z"
         style="fill:#000000;fill-opacity:1;fill-rule:evenodd;stroke:none;stroke-width:0.35277778"
         id="path239"
         inkscape:connector-curvature="0" />
      <path
         transform="scale(0.26458333)"
         inkscape:connector-curvature="0"
         id="path241"
         d="m 401.00745,623.47472 c -15.64884,-0.109 -28.56611,-0.31188 -28.70502,-0.45083 -0.13891,-0.13895 -0.33698,-16.99735 -0.44014,-37.46311 l -0.18756,-37.21046 33.35687,0.23883 c 18.34629,0.13136 34.9858,0.33635 36.97671,0.45554 l 3.61983,0.2167 0.25635,13.61471 c 0.141,7.4881 0.19957,24.10724 0.13017,36.93144 -0.10955,20.24426 -0.19677,23.36133 -0.6619,23.65525 -0.30318,0.19159 -3.86854,0.31065 -8.21428,0.27431 -4.22322,-0.0353 -20.48218,-0.15338 -36.13103,-0.26238 z m 7.50622,-16.39104 c 0.52111,-0.55786 1.49619,-2.36589 2.16684,-4.01786 0.67065,-1.65197 2.37505,-5.49464 3.78757,-8.53929 1.4125,-3.04464 2.95198,-6.54018 3.42105,-7.76785 0.46907,-1.22768 0.97421,-2.23215 1.12253,-2.23215 0.14832,0 0.26697,3.09375 0.26365,6.875 l -0.006,6.875 -2.13871,2.67104 c -1.17629,1.46907 -2.22905,2.95567 -2.33947,3.30357 -0.11041,0.34789 -0.43604,0.63254 -0.72361,0.63254 -0.72874,0 -1.02686,0.97284 -0.49463,1.61414 0.37496,0.45181 2.00225,0.52923 10.61446,0.50507 5.59438,-0.0157 10.39522,-0.11436 10.66852,-0.21924 0.66313,-0.25446 0.63558,-1.51204 -0.0388,-1.77082 -0.29464,-0.11307 -0.53571,-0.41425 -0.53571,-0.66929 0,-0.25504 -0.57404,-1.15079 -1.27564,-1.99054 -2.60376,-3.11651 -2.53514,-2.69718 -2.75053,-16.80746 l -0.19433,-12.73099 1.6374,-2.44758 c 0.90058,-1.34617 1.84139,-2.60829 2.09071,-2.80472 0.67957,-0.53542 0.98725,-2.19417 0.46666,-2.51591 -0.24242,-0.14982 -3.42475,-0.25315 -7.07186,-0.22961 -6.45954,0.0417 -6.6474,0.0639 -7.26078,0.85844 -0.6905,0.89444 -0.74947,1.04259 -3.80748,9.56565 -3.11649,8.68602 -4.753,12.85714 -5.04442,12.85714 -0.14232,0 -0.83132,-1.24553 -1.53112,-2.76786 -6.00993,-13.07379 -8.93094,-19.29723 -9.37631,-19.97695 -0.28883,-0.44082 -0.52515,-1.04821 -0.52515,-1.34977 0,-0.70554 -1.02968,-0.71549 -1.29942,-0.0126 -0.17117,0.44607 -1.18609,0.53571 -6.06507,0.53571 -3.91022,0 -6.08585,-0.14136 -6.53993,-0.42494 -0.53362,-0.33325 -0.80228,-0.32382 -1.24515,0.0437 -0.86893,0.72115 -0.70565,1.2646 1.221,4.06383 l 1.78571,2.59446 v 12.91181 c 0,7.32102 -0.13998,12.99833 -0.32328,13.11161 -0.55152,0.34086 -5.03386,7.96432 -5.03386,8.56148 0,0.67646 2.15771,1.66613 2.70414,1.24029 0.21049,-0.16403 3.01714,-0.34255 6.23699,-0.39668 l 5.85429,-0.0984 0.3144,-1.0975 c 0.28304,-0.98805 0.13297,-1.33718 -1.50486,-3.50106 -1.00059,-1.32195 -1.81925,-2.76469 -1.81925,-3.20607 0,-0.44138 -0.16406,-0.96658 -0.36458,-1.1671 -0.23108,-0.23107 -0.32916,-3.0863 -0.26786,-7.79702 l 0.0967,-7.43243 1.56384,3.52916 c 0.86011,1.94104 3.39136,7.39883 5.625,12.12843 2.23364,4.7296 4.06116,8.77853 4.06116,8.99761 0,0.547 1.43993,1.51026 2.25761,1.51026 0.36855,0 1.09646,-0.45643 1.61758,-1.01428 z"
         style="stroke-width:0.35714287" />
    </g>
  </g>
</svg>
