<?xml version="1.0" encoding="UTF-8" standalone="no"?>
<!-- Created with Inkscape (http://www.inkscape.org/) -->

<svg
   width="17.286436mm"
   height="19.056517mm"
   viewBox="0 0 17.286436 19.056517"
   version="1.1"
   id="svg9017"
   inkscape:version="1.2.1 (9c6d41e410, 2022-07-14)"
   sodipodi:docname="Mastodon.svg"
   xmlns:inkscape="http://www.inkscape.org/namespaces/inkscape"
   xmlns:sodipodi="http://sodipodi.sourceforge.net/DTD/sodipodi-0.dtd"
   xmlns="http://www.w3.org/2000/svg"
   xmlns:svg="http://www.w3.org/2000/svg">
  <sodipodi:namedview
     id="namedview9019"
     pagecolor="#ffffff"
     bordercolor="#000000"
     borderopacity="0.25"
     inkscape:showpageshadow="2"
     inkscape:pageopacity="0.0"
     inkscape:pagecheckerboard="true"
     inkscape:deskcolor="#d1d1d1"
     inkscape:document-units="mm"
     showgrid="false"
     inkscape:zoom="0.914906"
     inkscape:cx="101.64979"
     inkscape:cy="40.441313"
     inkscape:window-width="3840"
     inkscape:window-height="2091"
     inkscape:window-x="0"
     inkscape:window-y="32"
     inkscape:window-maximized="1"
     inkscape:current-layer="layer1" />
  <defs
     id="defs9014" />
  <g
     inkscape:label="Ebene 1"
     inkscape:groupmode="layer"
     id="layer1"
     transform="translate(-78.114328,-137.67038)">
    <g
       id="g8990"
       transform="translate(-44.020481,35.819408)">
      <path
         d="m 135.47558,101.85429 0.30776,0.0324 c 0.0898,0.009 0.18006,0.0406 0.26549,0.0624 0.30925,0.0792 0.61983,0.10718 0.92241,0.21852 0.67584,0.24872 1.09907,0.72407 1.51042,1.28112 0.1604,0.21726 0.32315,0.42559 0.44067,0.67021 0.43732,0.91019 0.4484,1.92372 0.47895,2.91159 0.0335,1.08238 0.0169,2.14989 0.007,3.23168 -0.007,0.78125 0.0137,1.53887 -0.11049,2.31425 -0.073,0.45555 -0.10735,1.08593 -0.30187,1.53914 -0.37882,0.8826 -1.26768,1.48916 -2.0846,1.92168 -0.31057,0.16444 -0.59647,0.33437 -0.94249,0.42702 -0.38218,0.10233 -0.90203,0.30884 -1.32445,0.31051 -0.2329,8.2e-4 -0.45337,-0.0615 -0.6832,-0.0923 -0.33563,-0.0449 -0.50809,-0.0219 -0.83706,-0.0369 -0.1851,-0.008 -0.36845,-0.0515 -0.55395,-0.0564 -0.35681,-0.009 -0.78727,-0.0545 -1.15097,-0.0545 -0.37504,0 -0.79752,0.0645 -1.16943,0 -0.29479,-0.0512 -0.95233,-0.18538 -1.19406,-0.24623 -0.18437,-0.0464 -0.37068,-0.13308 -0.56008,-0.16621 -0.24434,-0.0427 -0.49672,-0.0408 -0.74476,-0.0611 -0.007,-8.1e-4 -0.0495,0.0582 -0.0641,0.0914 -0.0291,0.0667 -0.0581,0.13339 -0.0872,0.20009 -0.0617,0.14159 -0.097,0.31978 -0.0827,0.47748 0.0549,0.60456 0.1856,1.09695 0.77553,1.38501 0.25304,0.12356 0.69044,0.32117 1.03403,0.38164 0.49089,0.0864 1.01037,-0.005 1.50178,-0.0308 0.64249,-0.0322 1.29438,-0.0525 1.93264,-0.1182 0.38283,-0.0394 0.74126,-0.15664 1.12636,-0.14058 0.006,0 0.19001,-0.002 0.26253,-0.004 0.14434,-0.003 0.20748,0.0156 0.24648,0.14562 0.002,0.006 0.0502,0.0764 0.0599,0.11697 0.0232,0.0973 0.0122,0.16123 0.01,0.2647 0,0.0123 0.0255,0.31986 0.0246,0.47398 -0.002,0.38575 -0.002,0.76464 -0.38775,0.9418 -0.46945,0.21559 -1.18549,0.49484 -1.71722,0.52322 -0.22856,0.0122 -0.42373,-0.0496 -0.65242,-0.0492 -0.27864,8.2e-4 -0.64202,0.11341 -0.88632,0.14775 -0.52788,0.0742 -1.10512,0.0243 -1.6372,0.006 -0.27875,-0.01 -0.49191,-0.14821 -0.75658,-0.19763 -0.77498,-0.14469 -1.51141,-0.38217 -2.24296,-0.67483 -0.19125,-0.0764 -0.38206,-0.0917 -0.56417,-0.19246 -0.26036,-0.14406 -0.50691,-0.36188 -0.75089,-0.52323 -0.38615,-0.25535 -0.8991,-0.38948 -1.21252,-0.74481 -0.2044,-0.23171 -0.16435,-0.55866 -0.27697,-0.831 -0.10453,-0.25278 -0.26378,-0.44351 -0.38777,-0.68328 -0.24748,-0.47858 -0.39905,-0.93524 -0.46777,-1.46503 -0.0776,-0.5984 0.0765,-1.21101 0.0246,-1.81589 -0.0881,-1.0274 -0.34127,-2.03916 -0.39392,-3.07164 -0.0211,-0.41419 0.0421,-0.87883 0.0486,-1.28652 0.004,-0.21574 -0.041,-0.41194 -0.024,-0.62786 0.0202,-0.25785 0.0892,-0.59838 0.0862,-0.88025 -0.004,-0.39489 -0.18187,-0.77519 -0.15386,-1.16956 0.018,-0.25267 0.21483,-0.41628 0.2462,-0.6525 0.0535,-0.40295 -0.001,-0.63556 0.0862,-1.07105 0.0689,-0.34591 0.36283,-0.80134 0.53546,-1.07109 0.37536,-0.58642 0.81908,-0.85749 1.4816,-1.07653 0.59604,-0.19706 1.17421,-0.38706 1.79899,-0.46396 0.16342,-0.0202 0.32984,-0.0171 0.49239,-0.0415 0.35189,-0.0527 0.69772,-0.17473 1.05249,-0.21545 0.63258,-0.0726 1.28531,-0.0411 1.92033,-0.0615 0.41723,-0.0134 0.83358,-0.0565 1.24945,-0.0801 0.7064,-0.04 1.41749,0.0139 2.12344,-0.0123 0.18715,-0.007 0.37296,-0.0461 0.56011,-0.0554 0.2991,-0.0148 0.53511,0.0352 0.83706,0.037 0.30802,0.002 0.45731,-0.0545 0.73859,-0.0862 0.2755,-0.031 0.54802,0.0277 0.81273,0.0954 l -0.5973,-0.10092 z m -0.0923,0.48645 c 0,0 -0.0949,0.01 -0.14157,0.0189 -0.0919,0.0184 -0.18331,0.0446 -0.27697,0.0503 -0.47873,0.0295 -0.42242,0.0316 -0.88631,-0.006 -0.3286,-0.0263 -0.60877,0.0401 -0.9417,0.0525 -0.41872,0.0156 -0.84262,-0.0241 -1.26175,-0.004 -0.7055,0.0331 -1.41156,0.0744 -2.1173,0.0968 -0.61462,0.0194 -1.24645,-0.0146 -1.85878,0.0554 -0.35227,0.0402 -0.69655,0.16309 -1.04635,0.21543 -0.27239,0.0408 -0.55315,0.0308 -0.82474,0.0801 -0.22137,0.0401 -0.4356,0.11279 -0.6534,0.16918 -0.79213,0.20513 -1.57246,0.43007 -1.98665,1.17439 -0.032,0.0575 -0.36629,0.56152 -0.4251,0.81703 -0.0889,0.38613 -0.0225,0.7777 -0.10465,1.15725 -0.0442,0.20422 -0.23797,0.36 -0.22773,0.57247 0.0183,0.37861 0.15724,0.7439 0.15388,1.12647 -0.002,0.31629 -0.0818,0.65107 -0.0923,0.96028 -0.007,0.18157 0.0329,0.36077 0.0302,0.54168 -0.002,0.17157 -0.0532,0.9437 -0.0487,1.2188 0.009,0.56507 0.12346,1.12932 0.20313,1.68663 0.0418,0.29213 0.053,0.58879 0.0985,0.88026 0.0259,0.1666 0.0786,0.33569 0.0923,0.50475 0.0617,0.76085 -0.11458,1.48454 0.0554,2.23448 0.13476,0.59456 0.51177,1.04008 0.73859,1.58813 0.0832,0.20106 0.0611,0.47095 0.17235,0.65249 0.14405,0.23506 0.54185,0.34842 0.76318,0.46785 0.41603,0.22444 0.77046,0.62167 1.21254,0.78789 0.10411,0.0392 0.22008,0.0456 0.3262,0.0801 0.38902,0.12613 0.75815,0.30361 1.15099,0.42474 0.43543,0.1343 0.69595,0.15061 1.11403,0.25853 0.14,0.0361 0.26769,0.11106 0.40623,0.14773 0.19542,0.0517 0.35075,0.01 0.55394,0.0123 0.34908,0.005 0.60957,0.0487 0.97247,0.0369 0.30088,-0.01 0.56258,-0.0884 0.86785,-0.13541 0.36086,-0.0555 0.70813,0.0535 1.0648,0 0.46314,-0.0694 0.96007,-0.29912 1.39134,-0.45344 0.006,-0.003 0.0283,-0.15762 0.0323,-0.236 0.0168,-0.33219 0.0211,-0.43961 0.0709,-0.73866 8.1e-4,-0.006 8.1e-4,-0.0225 8.1e-4,-0.0308 0,-0.006 -0.18054,-0.01 -0.27081,-0.0116 -0.13904,-0.003 -0.30853,0.0593 -0.43743,0.093 -0.33683,0.0882 -0.67556,0.0287 -1.01512,0.0601 -0.14232,0.0132 -0.28184,0.0546 -0.4247,0.0641 -1.01095,0.0674 -2.13175,0.27199 -3.09368,-0.10214 -0.52946,-0.20592 -1.22651,-0.43941 -1.47327,-1.02064 -0.0788,-0.18578 -0.11476,-0.41607 -0.15296,-0.61555 -0.0335,-0.17523 -0.0853,-0.37704 -0.0748,-0.56017 0.008,-0.14492 0.061,-0.31948 0.0959,-0.46263 0.0229,-0.0938 0.0744,-0.18809 0.11078,-0.27223 0.17317,-0.40109 0.43299,-0.42191 0.83352,-0.38852 0.45313,0.0378 0.67593,0.10899 1.10788,0.21851 0.22812,0.0578 0.46497,0.0803 0.69551,0.12927 0.17787,0.0378 0.39621,0.11942 0.59087,0.12927 0.32977,0.0167 0.69955,-0.0381 1.02788,-0.0247 0.69958,0.0287 1.40103,0.069 2.09882,0.10464 0.36894,0.0189 0.80262,0.17639 1.17559,0.12928 0.35212,-0.0445 0.68636,-0.18103 1.02902,-0.27351 0.29392,-0.0793 0.55983,-0.21733 0.82562,-0.3596 0.6555,-0.35086 1.29437,-0.77204 1.74599,-1.37977 0.19928,-0.26816 0.25387,-0.55077 0.30768,-0.87362 0.14698,-0.88207 0.28427,-1.73267 0.26389,-2.6289 -0.0136,-0.60043 0.0246,-1.19706 0.0311,-1.79744 0.006,-0.62154 -0.0238,-1.23835 -0.0486,-1.85898 -0.0302,-0.75381 -0.0134,-1.53451 -0.23416,-2.26527 -0.1334,-0.44174 -0.32862,-0.73981 -0.59562,-1.10441 -0.32039,-0.43751 -0.57245,-0.73461 -1.05389,-1.00078 -0.27299,-0.15094 -0.57348,-0.19578 -0.874,-0.25743 -0.40581,-0.0833 -0.72786,-0.15345 -1.13866,-0.0713 l 0.36929,-0.0644 z"
         style="fill:#000000;fill-opacity:1;fill-rule:evenodd;stroke:none;stroke-width:0.352778"
         id="path7968"
         sodipodi:nodetypes="cccsscscssssccccscscccccsscsccccccsscscscsssssscsccccsccsccssccccccccccccsccccccsssccccccccssscccccscccccccsccccscccscscssccsssssccccsscccc" />
      <path
         d="m 127.60343,104.93776 c 0,0 0.12311,0.004 0.18466,0.005 0.11295,0.004 0.22103,0.0578 0.33167,0.0828 0.15876,0.0359 0.34437,0.0889 0.51155,0.0903 0.21434,0.002 0.43372,-0.0811 0.64627,-0.0184 0.21345,0.0629 0.36942,0.23779 0.50349,0.40464 0.26934,0.3352 0.47743,0.73046 0.76623,1.0434 0.004,0.005 0.0353,-0.0633 0.0575,-0.093 0.0575,-0.0773 0.11406,-0.1653 0.18188,-0.23734 0.23225,-0.24679 0.49019,-0.54254 0.78675,-0.71138 0.76195,-0.43378 1.80546,-0.51315 2.58507,-0.0739 0.32099,0.18088 0.60574,0.4444 0.84258,0.7239 0.21496,0.25367 0.51683,0.49744 0.67768,0.79038 0.33738,0.61447 0.47368,1.34267 0.58449,2.02474 0.0707,0.43467 0.16388,0.87619 0.22181,1.31157 0.0247,0.1862 0.005,0.38049 0.037,0.56593 0.10767,0.62517 0.2081,1.09589 0.24196,1.70551 0.0129,0.2319 0.0692,0.52806 -0.0636,0.74483 -0.17731,0.2896 -0.48748,0.1828 -0.76322,0.16618 -0.39337,-0.0237 -0.79417,0.0413 -1.18175,0.0959 -0.18092,0.0255 -0.43121,-0.0183 -0.50469,-0.21285 -0.0517,-0.1367 0.002,-0.32152 0.015,-0.46167 0.0354,-0.37809 0.13751,-0.75465 0.15948,-1.13262 0.0605,-1.03993 -0.0485,-2.00733 -0.36529,-2.99778 -0.16296,-0.5095 -0.11362,-0.90936 -0.60054,-1.15284 -0.0722,-0.0361 -0.15234,-0.0586 -0.23038,-0.0782 -0.70696,-0.17825 -0.8075,0.91446 -0.85289,1.39115 -0.0119,0.12555 -0.0193,0.25981 -0.0391,0.38744 -0.0294,0.18919 -0.077,0.4236 -0.0962,0.63439 -0.022,0.24217 -0.10586,0.65763 -0.0932,0.8987 0.0148,0.28006 0.096,1.02249 -0.31583,1.08954 -0.16703,0.0271 -0.30675,-0.0813 -0.46779,-0.0923 -0.36743,-0.0251 -0.75028,0.1108 -1.12019,0.1108 -0.14059,0 -0.29675,-0.044 -0.37545,-0.17236 -0.0912,-0.14875 -0.0371,-0.38281 -0.0221,-0.53553 0.0277,-0.28195 0.0615,-0.63191 0.059,-0.92335 -0.002,-0.26318 -0.0668,-0.5592 -0.11063,-0.81298 -0.0739,-0.4281 -0.14095,-0.84339 -0.33867,-1.23682 -0.2454,-0.4883 -0.62329,-0.69758 -1.14482,-0.76829 -0.14455,-0.0196 -0.44504,-0.0996 -0.59703,0.005 -0.1839,0.1265 -0.30579,0.49221 -0.3816,0.71405 -0.0634,0.18551 -0.022,0.39414 -0.0398,0.58477 -0.0625,0.66688 -0.0246,1.33782 -0.0102,2.00672 0.0171,0.79109 0.0853,1.55754 0.0381,2.35145 -0.0168,0.17874 -0.0494,0.43749 -0.0681,0.49866 -0.16951,0.0162 -0.34057,0 -0.51086,0 -0.13662,0 -0.28225,0.0182 -0.41238,0.028 -0.2972,0.0222 -0.96463,0.11802 -1.07095,-0.29271 -0.0454,-0.17526 0.0111,-0.43064 0.0123,-0.58479 0.002,-0.2901 -0.0313,-0.5746 -0.066,-0.86178 -0.093,-0.77027 -0.22219,-1.5383 -0.2479,-2.31449 -0.0156,-0.47065 0.0426,-0.57236 0.0677,-1.00336 0.0151,-0.25926 -0.046,-0.50962 0,-0.76944 0.061,-0.34427 0.17411,-0.62913 0.28946,-0.95213 0.0786,-0.22014 0.15366,-0.46617 0.27064,-0.67295 0.49128,-0.86843 1.48874,-1.48816 2.48686,-1.21594 l -0.46805,-0.0765 z m 0.0493,0.49287 c 0,0 -0.18466,0.0177 -0.27699,0.0266 -0.0689,0.006 -0.1351,0.0244 -0.20311,0.0388 -0.23724,0.0504 -0.51729,0.29189 -0.67082,0.39368 -0.49138,0.32572 -0.69207,1.01956 -0.85559,1.54701 -0.0595,0.19194 -0.14659,0.45158 -0.15388,0.67094 -0.006,0.18285 0.0361,0.36433 0.0246,0.54787 -0.0254,0.40613 -0.0834,0.51015 -0.0677,0.94797 0.0326,0.90675 0.217,1.79388 0.29544,2.69614 0.0257,0.29621 0,0.53984 0,0.831 0,0.006 0.0486,0.10459 0.0729,0.0835 0.0426,-0.0369 0.11133,-0.0528 0.16715,-0.0558 0.26369,-0.0143 0.58304,-0.0892 0.84323,-0.0242 0.007,0.002 0.037,-0.47523 0.037,-0.6438 0,-0.41715 -0.0233,-0.8283 -0.0641,-1.24343 -0.0357,-0.36273 -0.0204,-0.90251 -0.0274,-1.22498 -0.01,-0.44397 0.004,-0.8695 0.0361,-1.31111 0.0165,-0.22909 -0.0121,-0.44289 0.0615,-0.65864 0.055,-0.16108 0.16799,-0.35784 0.24161,-0.50239 0.12456,-0.24455 0.23149,-0.45164 0.50927,-0.54408 0.26756,-0.089 0.54765,-0.0272 0.81861,0.007 0.19365,0.0249 0.38562,0.0562 0.56626,0.13399 0.77994,0.33625 1.07009,1.21382 1.21965,1.97531 0.0773,0.39359 0.16707,0.79814 0.17137,1.20098 0.004,0.36854 -0.0419,0.74701 -0.0734,1.11417 -8.2e-4,0.006 0.15129,-0.004 0.22721,-0.01 0.0846,-0.005 0.16878,-0.0219 0.25235,-0.0341 0.28909,-0.0423 0.54967,-0.088 0.82476,-8.1e-4 0.006,0.002 0.0346,-0.24388 0.0369,-0.36738 0.005,-0.26128 0.0311,-0.48463 0.0521,-0.75098 0.037,-0.4684 0.0509,-0.53724 0.13284,-1.05293 0.0239,-0.15051 0.0255,-0.30387 0.0428,-0.45519 0.0754,-0.65858 0.31576,-1.83806 1.21251,-1.76664 0.10819,0.008 0.22078,0.032 0.32437,0.0674 0.48886,0.16727 0.78669,0.40176 0.94355,0.90516 0.0603,0.19356 0.088,0.39721 0.14772,0.59094 0.27385,0.88837 0.43625,1.77854 0.42468,2.71462 -0.007,0.58907 -0.12948,1.1836 -0.20233,1.76665 -8.2e-4,0.006 0.20029,-0.0122 0.30081,-0.0213 0.10279,-0.009 0.20551,-0.0236 0.30776,-0.0359 0.31217,-0.0375 0.62028,-0.0265 0.92939,0.0192 0.006,8.2e-4 0.006,-0.21674 0,-0.32534 -0.0116,-0.21225 -0.0456,-0.506 -0.0582,-0.64634 -0.0406,-0.45122 -0.17399,-0.88959 -0.20968,-1.3419 -0.0437,-0.55382 -0.14216,-1.10624 -0.23661,-1.65587 -0.10478,-0.60968 -0.23017,-1.24688 -0.5049,-1.80972 -0.0731,-0.14984 -0.19866,-0.24234 -0.30988,-0.36628 -0.15634,-0.17421 -0.34317,-0.4251 -0.50257,-0.5817 -0.39454,-0.38752 -0.85948,-0.60998 -1.41564,-0.66479 -0.18264,-0.0181 -0.32845,0.0522 -0.50413,0.0873 -0.36804,0.0736 -0.67334,0.15972 -0.95176,0.41676 -0.20285,0.18728 -0.42894,0.37291 -0.57522,0.61012 -0.10776,0.17471 -0.17496,0.46533 -0.44317,0.43089 -0.19643,-0.0252 -0.35158,-0.24926 -0.46696,-0.37288 -0.31962,-0.34248 -0.4811,-0.77016 -0.81325,-1.10448 -0.214,-0.2154 -0.49566,-0.0564 -0.76936,-0.08 -0.29119,-0.0251 -0.57192,-0.17181 -0.8617,-0.17238 -0.17597,0 -0.34115,0.0352 -0.51087,0.0713 l 0.50473,-0.0706 z"
         style="fill:#000000;fill-opacity:1;fill-rule:evenodd;stroke:none;stroke-width:0.352778"
         id="path7970"
         sodipodi:nodetypes="ccsccscccsssscccscsscccssccccccssssccsscsccccscsccsscsscccccccsccccscccsccccscccscccccccscccsscccccccsscscccsssssscccc" />
      <path
         style="fill:#5946db;fill-opacity:1;stroke:none;stroke-width:1"
         d="m 489.7361,454.90233 c -1.68232,-0.0604 -2.31194,-0.13508 -2.73252,-0.32403 -0.30058,-0.13505 -1.59169,-0.48214 -2.86915,-0.77131 -1.51762,-0.34354 -3.07676,-0.81351 -4.49845,-1.35597 -1.1967,-0.4566 -2.39559,-0.87013 -2.66421,-0.91895 -0.75801,-0.13776 -1.86599,-0.74816 -3.35158,-1.84644 -0.74817,-0.55311 -2.03769,-1.34381 -2.86562,-1.7571 -1.74359,-0.8704 -2.0074,-1.16776 -2.26923,-2.55792 -0.22102,-1.1735 -0.35919,-1.50273 -1.50988,-3.59777 -1.68759,-3.07259 -1.91329,-4.21105 -1.79968,-9.07812 0.0569,-2.43635 0.0283,-3.21283 -0.15065,-4.09878 -0.12145,-0.60115 -0.28483,-1.70782 -0.36308,-2.45927 -0.0782,-0.75144 -0.28984,-2.34997 -0.47021,-3.55227 -0.18037,-1.20231 -0.36491,-2.64713 -0.4101,-3.21072 -0.0737,-0.91961 0.11885,-8.33963 0.28931,-11.14742 0.0478,-0.78777 -0.0141,-1.53369 -0.21565,-2.59589 -0.3725,-1.96353 -0.36029,-2.23375 0.14629,-3.23637 0.39479,-0.78137 0.44311,-1.02819 0.59845,-3.05632 0.18927,-2.47122 0.28639,-2.77271 1.59248,-4.94343 1.15826,-1.92503 2.53092,-3.05895 4.66354,-3.85248 1.86589,-0.69427 5.11209,-1.50765 6.5836,-1.64961 1.43804,-0.13872 3.21233,-0.44482 5.12347,-0.88389 0.63074,-0.14491 2.33312,-0.24013 5.87492,-0.32861 2.74277,-0.0685 6.18575,-0.18807 7.65106,-0.26567 1.46532,-0.0776 5.04409,-0.17139 7.95282,-0.20842 2.90874,-0.037 6.01357,-0.10495 6.89962,-0.15095 1.45446,-0.0755 1.80863,-0.0431 3.64475,0.33318 3.65552,0.74923 4.92988,1.61616 7.45359,5.07055 1.52083,2.08167 2.21659,3.8956 2.60133,6.78189 0.0815,0.61155 0.22923,3.53193 0.32824,6.48974 0.23937,7.15081 0.10003,15.49669 -0.30991,18.56224 -0.45845,3.42832 -0.91878,5.80253 -1.27627,6.58262 -1.31879,2.8777 -6.61745,6.49917 -11.54086,7.88782 -2.62816,0.74128 -2.93618,0.76798 -5.02816,0.43583 -2.3096,-0.3667 -9.62671,-0.74594 -12.02309,-0.62314 -1.53819,0.0788 -1.92257,0.0536 -2.86915,-0.18853 -0.60116,-0.15374 -1.52338,-0.35144 -2.04939,-0.43931 -0.52601,-0.0879 -1.69416,-0.33814 -2.5959,-0.55613 -1.95284,-0.47209 -3.85504,-0.70924 -4.68759,-0.58439 -1.18893,0.17829 -1.96298,1.28062 -2.43206,3.46351 -0.22642,1.05364 -0.22458,1.11748 0.0798,2.76294 0.41239,2.22949 0.7012,2.96325 1.51818,3.85715 1.07454,1.17572 4.3255,2.69047 6.79749,3.16723 1.7825,0.34377 8.04636,0.13687 10.80654,-0.35696 0.4083,-0.073 1.39617,-0.13282 2.19525,-0.13282 1.01351,0 1.75996,-0.0817 2.46834,-0.27003 0.5585,-0.14853 1.27931,-0.27149 1.60181,-0.27326 l 0.58636,-0.003 -0.091,1.05885 c -0.05,0.58237 -0.12947,1.42518 -0.17648,1.8729 l -0.0855,0.81404 -1.5712,0.59717 c -2.56365,0.97437 -3.30647,1.12188 -5.65768,1.12349 -1.44088,9.6e-4 -2.5295,0.0833 -3.61526,0.27326 -0.85446,0.14951 -1.89965,0.26008 -2.32264,0.2457 -0.423,-0.0144 -1.75279,-0.0615 -2.9551,-0.10462 z m -8.72107,-25.33023 c 0.0126,-0.0111 0.0964,-0.54272 0.18608,-1.18132 0.11984,-0.85324 0.13186,-2.30222 0.0453,-5.46482 -0.0648,-2.36705 -0.10982,-6.34053 -0.1001,-8.82995 0.0194,-4.95829 0.0427,-5.13397 0.90147,-6.77083 0.60517,-1.15354 0.98098,-1.29578 2.66981,-1.01045 1.71481,0.28971 2.72318,0.75309 3.55466,1.63349 1.14717,1.21465 1.65707,2.62892 2.29673,6.3703 0.37925,2.2183 0.38132,2.34482 0.10805,6.62636 -0.086,1.34661 -0.082,1.37142 0.27291,1.72475 0.49899,0.49671 1.19878,0.5721 2.92185,0.31474 1.3884,-0.20736 2.44911,-0.20164 3.9612,0.0214 0.42836,0.0632 0.67539,0.025 0.93364,-0.14419 0.62008,-0.40629 0.76378,-1.01736 0.8032,-3.41569 0.0226,-1.37181 0.14513,-2.90441 0.32814,-4.10264 0.16069,-1.05202 0.38327,-2.72766 0.49464,-3.72364 0.2519,-2.25285 0.53699,-3.40915 1.03359,-4.19221 0.49789,-0.78509 1.07526,-1.09028 1.85932,-0.98281 1.3043,0.17878 2.33421,1.05718 2.69844,2.30147 1.62747,5.55975 2.02599,7.83903 2.02538,11.58405 -2.7e-4,1.81739 -0.0716,2.81703 -0.29737,4.16709 -0.16334,0.97688 -0.331,2.26799 -0.37258,2.86915 -0.0679,0.982 -0.0465,1.12355 0.21114,1.39375 0.48968,0.51361 1.11801,0.59868 2.73204,0.3699 0.91795,-0.13011 2.2064,-0.19168 3.51012,-0.16775 2.30046,0.0422 2.5787,-0.0388 3.01206,-0.87677 0.31896,-0.61681 0.18084,-3.72631 -0.28684,-6.45743 -0.19302,-1.12716 -0.43852,-2.91013 -0.54555,-3.96215 -0.20324,-1.99767 -1.10443,-7.34233 -1.56241,-9.26614 -0.61467,-2.582 -1.43187,-4.33653 -2.63344,-5.65397 -4.15996,-4.56109 -5.62732,-5.40785 -9.3342,-5.38643 -2.78032,0.0161 -4.91525,0.83341 -6.80144,2.60388 -0.60604,0.56885 -1.36089,1.38503 -1.67744,1.81372 -0.67936,0.92002 -0.46683,1.05617 -2.17637,-1.39426 -2.17142,-3.11248 -2.44081,-3.29184 -4.88006,-3.24915 -1.41677,0.0248 -1.8506,-0.0207 -2.77259,-0.29063 -2.61665,-0.76614 -5.55752,0.15029 -7.855,2.44777 -1.30365,1.30365 -1.85864,2.27041 -2.73319,4.7611 -1.00632,2.86595 -1.09333,3.27419 -1.09333,5.12983 0,0.90033 -0.0697,2.32409 -0.15481,3.16392 -0.18521,1.82687 -0.049,3.82468 0.58369,8.56383 0.3202,2.39828 0.42858,3.75264 0.44174,5.5204 0.0159,2.13522 0.0416,2.36955 0.2907,2.64872 0.58209,0.65242 0.86186,0.69204 4.23541,0.5998 1.72832,-0.0473 3.15274,-0.095 3.16539,-0.10615 z"
         id="path8276"
         transform="scale(0.26458333)" />
      <path
         style="fill:#ffffff;fill-opacity:1;stroke:none;stroke-width:1"
         d="m 475.40441,427.74469 c -0.0453,-0.0453 -0.0824,-0.87242 -0.0824,-1.83804 0,-1.22867 -0.14846,-2.89308 -0.49457,-5.54474 -0.52541,-4.02533 -0.59358,-5.63763 -0.44323,-10.48374 l 0.072,-2.32264 0.68678,-2.04939 c 1.12915,-3.36941 1.74772,-4.3412 3.58202,-5.62741 1.25848,-0.88245 1.84338,-1.11096 3.11511,-1.21701 0.90811,-0.0757 1.33076,-0.0369 2.35679,0.21663 0.97431,0.24075 1.49736,0.29418 2.36997,0.24212 1.78015,-0.10621 1.9026,-0.0202 3.65287,2.56474 0.66315,0.97941 1.57418,2.13219 2.02452,2.56174 0.70953,0.67677 0.8899,0.781 1.35163,0.781 0.62827,0 0.87538,-0.2262 1.59272,-1.45788 0.58928,-1.01183 2.4466,-2.77706 3.42809,-3.25814 0.87372,-0.42826 3.27486,-1.02228 4.13225,-1.02228 1.48285,0 3.44379,0.80477 4.8169,1.97685 0.87683,0.74846 3.16365,3.34761 3.65095,4.1496 0.36601,0.60236 1.18768,3.11876 1.4743,4.51508 0.40932,1.9941 1.02341,5.85789 1.2293,7.73468 0.11541,1.05202 0.33477,2.55832 0.48746,3.34734 0.24131,1.247 0.66131,4.8213 0.66947,5.69748 0.003,0.29291 -0.0275,0.29862 -1.15819,0.21883 -0.63855,-0.0451 -1.90224,-0.004 -2.80819,0.0904 -0.90596,0.0948 -1.67007,0.14944 -1.69803,0.12148 -0.028,-0.028 0.10097,-1.09546 0.2865,-2.37222 0.56255,-3.87131 0.4367,-7.74453 -0.3662,-11.27039 -0.54846,-2.40847 -1.48994,-5.77971 -1.78338,-6.38588 -0.57913,-1.19632 -1.7169,-2.05135 -3.39043,-2.54789 -2.411,-0.71534 -4.06251,0.35138 -5.06781,3.27335 -0.41193,1.19728 -1.10352,6.06866 -1.36612,9.62258 -0.0805,1.08959 -0.17865,2.30387 -0.21808,2.6984 l -0.0717,0.71732 -0.70745,-0.0819 c -0.39826,-0.0461 -1.416,0.0166 -2.32865,0.14351 -0.89167,0.12398 -1.65018,0.19646 -1.68559,0.16105 -0.0354,-0.0354 0.008,-0.97935 0.0975,-2.09765 0.18141,-2.27822 0.0956,-3.37441 -0.49071,-6.26967 -1.11419,-5.50183 -2.92558,-7.75615 -6.68362,-8.31793 -2.39179,-0.35754 -3.39676,-0.24073 -4.23107,0.4918 -0.52467,0.46066 -1.91539,3.05849 -2.04019,3.81101 -0.0436,0.26301 -0.142,1.76931 -0.21862,3.34734 -0.13315,2.74193 -0.11557,3.65472 0.22917,11.90114 0.0443,1.06009 0.0383,2.26553 -0.0133,2.67875 l -0.0939,0.75132 -1.57066,0.0939 c -0.86385,0.0516 -1.71495,0.14877 -1.89133,0.21583 -0.17638,0.0671 -0.35775,0.0849 -0.40304,0.0396 z"
         id="path8915"
         transform="scale(0.26458333)" />
    </g>
  </g>
</svg>
