<?xml version="1.0" encoding="UTF-8" standalone="no"?>
<!-- Created with Inkscape (http://www.inkscape.org/) -->

<svg
   xmlns:dc="http://purl.org/dc/elements/1.1/"
   xmlns:cc="http://creativecommons.org/ns#"
   xmlns:rdf="http://www.w3.org/1999/02/22-rdf-syntax-ns#"
   xmlns:svg="http://www.w3.org/2000/svg"
   xmlns="http://www.w3.org/2000/svg"
   xmlns:sodipodi="http://sodipodi.sourceforge.net/DTD/sodipodi-0.dtd"
   xmlns:inkscape="http://www.inkscape.org/namespaces/inkscape"
   width="20.346344mm"
   height="15.606417mm"
   viewBox="0 0 20.346344 15.606416"
   version="1.1"
   id="svg4004"
   inkscape:version="0.92.3 (2405546, 2018-03-11)"
   sodipodi:docname="logo_gmail.svg">
  <defs
     id="defs3998" />
  <sodipodi:namedview
     id="base"
     pagecolor="#ffffff"
     bordercolor="#666666"
     borderopacity="1.0"
     inkscape:pageopacity="0.0"
     inkscape:pageshadow="2"
     inkscape:zoom="7.9195959"
     inkscape:cx="75.265819"
     inkscape:cy="24.655127"
     inkscape:document-units="mm"
     inkscape:current-layer="layer1"
     showgrid="false"
     fit-margin-top="0"
     fit-margin-left="0"
     fit-margin-right="0"
     fit-margin-bottom="0"
     inkscape:window-width="1920"
     inkscape:window-height="1025"
     inkscape:window-x="0"
     inkscape:window-y="27"
     inkscape:window-maximized="1" />
  <metadata
     id="metadata4001">
    <rdf:RDF>
      <cc:Work
         rdf:about="">
        <dc:format>image/svg+xml</dc:format>
        <dc:type
           rdf:resource="http://purl.org/dc/dcmitype/StillImage" />
        <dc:title></dc:title>
      </cc:Work>
    </rdf:RDF>
  </metadata>
  <g
     inkscape:label="Ebene 1"
     inkscape:groupmode="layer"
     id="layer1"
     transform="translate(-114.55897,-140.27417)">
    <g
       id="g2979"
       transform="matrix(0.35277777,0,0,-0.35277777,18.357709,279.93819)">
      <path
         inkscape:connector-curvature="0"
         id="path26"
         style="fill:#000000;fill-opacity:1;fill-rule:evenodd;stroke:none"
         d="m 280.73624,395.89624 c 0,0 0.41339,-0.0318 0.62005,-0.0477 0.37775,-0.029 1.07154,-0.21924 1.20621,-0.24771 0.91409,-0.19311 1.90692,0.0728 2.81546,0.0255 1.51788,-0.0791 3.08173,9.5e-4 4.58859,-0.20706 1.87619,-0.25894 3.7598,-0.39554 5.66928,-0.30121 0.52915,0.0261 1.04984,0.15482 1.57679,0.19489 1.13095,0.086 2.24023,0.066 3.38385,0.15945 0.74716,0.0611 1.73492,0.25907 2.55117,0.23032 1.4834,-0.0522 2.9487,-0.2898 4.42914,-0.37201 0.68378,-0.038 1.35321,0.0365 2.03739,-0.0355 0.56741,-0.0597 1.09295,-0.22397 1.66537,-0.24802 0.77551,-0.0326 1.52249,0.23605 2.28543,0.31891 1.26911,0.13785 2.53797,-0.13953 3.80905,-0.12399 1.79758,0.0219 3.61078,-0.0663 5.40354,-0.0355 1.44531,0.0249 2.75253,0.45904 4.0571,-0.33661 2.42248,-1.47745 3.17776,-4.02771 3.27755,-6.7677 0.0273,-0.74848 -0.0628,-1.46674 0.0177,-2.21457 0.0455,-0.42258 0.19242,-0.83506 0.23032,-1.25791 0.0534,-0.59597 -0.103,-1.08145 -0.15945,-1.68307 -0.11914,-1.26975 -0.237,-2.63114 -0.28345,-3.89762 -0.0712,-1.94033 0.1329,-3.89025 0.10629,-5.82873 -0.0158,-1.15003 -0.0886,-2.28342 -0.0886,-3.43521 0,-0.45749 0.15942,-0.88162 0.14172,-1.34827 -0.0666,-1.75632 -0.25122,-3.4769 -0.21478,-5.24405 0.0137,-0.66363 -0.14441,-1.32257 -0.19269,-1.98428 -0.17505,-2.39996 -0.33081,-5.06696 -1.89569,-7.06888 -1.0159,-1.29968 -2.67773,-2.0596 -4.30508,-2.21457 -1.36505,-0.13003 -2.7613,0.0738 -4.12799,0.0531 -1.11939,-0.0169 -2.22864,-0.31497 -3.33069,-0.31885 -1.47953,-0.005 -2.90192,0.48786 -4.35828,0.5846 -0.45825,0.0305 -0.92227,-0.0528 -1.38187,-0.0177 -1.20748,0.0922 -1.72915,0.26804 -3.02954,0.28342 -1.89459,0.0225 -3.8345,-0.1222 -5.72244,0.0709 -0.46176,0.0472 -0.86426,0.19144 -1.32873,0.21258 -1.01932,0.0464 -2.04426,-0.0451 -3.06498,-0.0177 -1.7001,0.0457 -3.38308,0.41117 -5.08465,0.4075 -2.14731,-0.005 -4.28375,-0.019 -6.43109,-0.18789 -1.76618,-0.13889 -3.11878,-0.29401 -4.83661,-0.15799 -0.68973,0.0546 -2.55084,-0.006 -3.43701,0.45221 -2.93552,1.51693 -2.54319,5.24722 -2.94333,7.99124 -0.22769,1.56152 0.01,3.05402 0.0201,4.60516 0.004,0.56079 -0.12757,1.1214 -0.14176,1.68308 -0.0462,1.83114 -0.12268,3.71502 -0.0177,5.54529 0.16291,2.84057 0.17588,5.6202 0.1063,8.4685 -0.0141,0.578 0.0646,1.15869 0.0289,1.73624 -0.13919,2.25018 -0.11606,4.50119 -0.30347,6.74997 -0.0808,0.96902 -0.66852,2.0448 -0.28171,3.01181 0.007,0.0178 -0.18024,-0.036 -0.27637,-0.0354 -0.17062,10e-4 -0.34542,0.0691 -0.51379,0.10275 -0.0177,0.004 -0.25092,0.228 -0.30118,0.37558 -0.0792,0.23257 0.19358,0.4581 0.35434,0.56696 0.42035,0.28463 1.58551,0.68808 2.16333,0.984 0.0158,0.008 0.36191,0.2103 0.5473,0.28449 0.0177,0.007 0.16898,0.0943 0.24802,0.1311 0.15891,0.074 0.32654,0.15265 0.49609,0.19489 0.46744,0.11654 1.34418,0.0414 1.68305,0.0369 0.83929,-0.0112 1.67328,0.18634 2.51575,0.17572 0.67172,-0.008 1.246,-0.17041 1.91388,-0.31149 l -1.89615,0.31012 z m -0.33442,-1.45142 c 0,0 -0.008,-0.22668 -0.0336,-0.33654 -0.004,-0.0177 -0.45917,-0.33231 -0.5781,-0.17365 -0.0106,0.0142 -0.66336,-0.0703 -0.98501,-0.0235 -0.753,0.10956 -1.64045,0.39826 -2.39176,0.16718 -0.0177,-0.005 -0.21786,-0.0963 -0.31888,-0.13959 -0.0177,-0.008 -0.31503,-0.24606 -0.44153,-0.38742 -0.22509,-0.25162 -0.48397,-0.64789 -0.53289,-1.00211 -0.0984,-0.71246 0.28372,-1.4024 0.34628,-2.09054 0.21683,-2.38535 0.29562,-4.79978 0.34467,-7.1929 0.012,-0.58396 -0.0687,-1.17087 -0.028,-1.75397 0.20642,-2.95807 -0.0194,-5.87433 -0.13144,-8.82279 -0.0641,-1.68783 -0.006,-3.43298 0.0354,-5.12011 0.0139,-0.56171 0.14285,-1.12207 0.14176,-1.68308 -0.002,-1.03833 -0.21228,-2.00668 -0.13388,-3.06494 0.13348,-1.80151 0.22012,-3.71429 0.6394,-5.47522 0.15485,-0.65033 0.0285,-1.14712 0.46887,-1.66452 0.81372,-0.95614 0.97916,-1.17563 2.07282,-1.26675 0.70868,-0.059 1.41735,-0.11811 2.126,-0.17713 2.31232,-0.19268 4.58115,0.31446 6.89173,0.34699 0.90112,0.0127 1.26083,-0.0587 2.12597,-0.0901 1.07273,-0.039 2.11002,0.10422 3.189,0.0354 1.32062,-0.0842 2.62674,-0.29852 3.95077,-0.33664 1.02649,-0.0295 2.05823,0.0717 3.08271,0.0177 1.34704,-0.0709 2.68234,-0.26904 4.03933,-0.31891 1.58115,-0.0581 3.14728,0.0273 4.73035,-0.0481 0.46475,-0.0221 0.91892,-0.17063 1.38187,-0.19992 0.4711,-0.0298 0.94473,0.0557 1.41733,0.0177 1.4233,-0.11444 2.80239,-0.62259 4.25195,-0.58463 0.3678,0.01 0.73059,0.15122 1.09845,0.19489 0.68594,0.0814 1.38171,0.11102 2.07281,0.12399 2.44315,0.0459 5.60733,-0.6489 7.38779,1.55905 0.30258,0.37525 0.54977,1.05414 0.71805,1.42673 0.76617,1.69647 0.79254,3.23483 0.92959,5.05755 0.14032,1.86582 0.0878,3.71399 0.23035,5.58072 0.0366,0.4794 0.14319,0.95536 0.15942,1.435 0.0343,1.01529 -0.18017,2.05322 -0.15942,3.0827 0.0506,2.51151 -0.0876,5.03617 0,7.54721 0.0589,1.68979 0.35306,3.3714 0.46063,5.04923 0.053,0.82678 -0.23785,1.69669 -0.27832,2.53348 -0.0938,1.93921 0.066,4.21502 -1.2099,5.86419 -0.43667,0.5644 -1.315,1.32319 -2.03738,1.4173 -0.89124,0.11615 -1.78739,-0.15076 -2.6752,-0.15945 -1.25107,-0.0122 -2.53934,0.0934 -3.79135,0.10531 -0.83045,0.008 -1.63321,-0.0963 -2.46259,-0.0457 -0.81995,0.0501 -1.93973,0.20257 -2.85236,0.0998 -0.79507,-0.0895 -1.53949,-0.33337 -2.33859,-0.31888 -0.66208,0.012 -1.19848,0.20557 -1.86023,0.26575 -0.63437,0.0576 -1.3114,-0.0264 -1.94882,0.0177 -1.50491,0.10422 -3.00833,0.35135 -4.5177,0.37201 -0.759,0.0104 -1.77438,-0.1926 -2.46262,-0.24802 -1.06985,-0.0861 -2.17071,-0.0523 -3.24212,-0.14172 -0.90528,-0.0755 -1.33725,-0.20416 -2.19687,-0.19492 -1.15833,0.0125 -2.38397,-0.0484 -3.54331,0.0177 -0.99984,0.0571 -1.94934,0.3305 -2.95864,0.37207 -0.94788,0.0391 -2.39594,0.12426 -3.34842,0.12402 -0.91816,-2.8e-4 -1.76459,-0.16174 -2.6752,-0.0532 -0.74271,0.0885 -1.38807,0.30114 -2.14322,0.30114 l -0.016,-0.0177 z m -7.40771,-1.29327 c 0,0 0,0 0,0 z m 7.37006,0.939 c 0,0 0,0 0,0 0,0 0,0 0,0 z m -0.70865,0.12402 c 0,0 0,0 0,0 0,-0.0178 0,0.006 0,0.0177 z" />
      <path
         sodipodi:nodetypes="csccccccccccccsccccccccccccccccccccccccccccccccccccccccccccccccscccsccccc"
         inkscape:connector-curvature="0"
         id="path28"
         style="fill:#000000;fill-opacity:1;fill-rule:evenodd;stroke:none"
         d="m 280.59451,386.61414 h 0.24802 c 0.15237,0 0.32617,-0.0549 0.46063,-0.12403 0.44122,-0.22659 0.80683,-0.64587 1.20288,-0.93042 1.5604,-1.12082 2.98926,-2.32373 4.44129,-3.5683 0.50915,-0.43637 0.987,-0.93386 1.4956,-1.36541 2.07047,-1.75681 4.43411,-3.14664 6.60828,-4.76578 1.04416,-0.77759 2.09451,-1.59625 3.18896,-2.30313 0.51599,-0.33328 0.97348,-0.42035 1.54132,-0.69095 0.53699,-0.25589 0.84867,-0.54065 1.3819,-0.68613 0.0177,-0.005 0.23917,0.0917 0.33295,0.16571 0.19168,0.15134 0.38336,0.30265 0.57504,0.45398 0.32889,0.25965 0.6467,0.57596 0.94379,0.845 0.96417,0.8732 2.47479,2.11133 3.4281,2.75376 0.8251,0.55612 1.74737,1.04638 2.55084,1.6055 0.42868,0.29831 0.7977,0.6567 1.24014,0.93896 0.72861,0.46485 1.58274,0.67896 2.28543,1.18701 0.70881,0.51242 1.26038,1.20475 2.00199,1.68308 1.22149,0.78784 2.54205,1.4505 3.78396,2.20703 0.95002,0.57873 1.69944,0.9393 2.63691,1.46915 0.55789,0.3153 1.20547,0.76742 1.81732,0.29229 0.7117,-0.55267 0.75467,-1.63394 0.92126,-2.42715 0.18454,-0.87888 0.45404,-1.60452 0.49607,-2.48032 0.056,-1.16726 -0.12369,-2.37018 -0.16309,-3.5256 -0.1185,-3.47525 0.0201,-6.96497 -0.17352,-10.43503 -0.0555,-0.99414 -0.21662,-1.92746 -0.28348,-2.90549 -0.0921,-1.3471 0.0959,-2.48715 0.10629,-3.86221 0.0119,-1.57837 0.0193,-4.68079 0.28052,-6.24802 0.003,-0.0177 0.0516,-0.34845 0.0759,-0.51379 0.0345,-0.23465 0.0132,-0.52005 -0.17923,-0.69098 -0.36206,-0.3215 -0.90549,-0.25864 -1.15158,0.15949 -0.34272,0.58227 -0.25055,3.74246 -0.279,4.1929 -0.14761,2.33697 -0.39462,4.71545 -0.2525,7.06888 0.0575,0.95309 0.21002,1.89798 0.26575,2.85238 0.1734,2.96988 0.0315,5.95563 0.12744,8.92914 0.0934,2.89557 0.48239,5.7677 -0.56372,8.55707 -0.007,0.0177 -0.94785,-0.48056 -1.41843,-0.72968 -0.50842,-0.26916 -1.0354,-0.62133 -1.49121,-0.89807 -1.40695,-0.85425 -2.93436,-1.5777 -4.25653,-2.55993 -0.56192,-0.41745 -1.01096,-0.96192 -1.59244,-1.35761 -0.69861,-0.47534 -1.50888,-0.69751 -2.21457,-1.15158 -0.42843,-0.2757 -0.81848,-0.63586 -1.24017,-0.92123 -0.80289,-0.5434 -1.83694,-1.04233 -2.61587,-1.67966 -0.85355,-0.69834 -2.25602,-1.72574 -3.16855,-2.53687 -0.70078,-0.62286 -1.44715,-1.53586 -2.38288,-1.8071 -0.85922,-0.24905 -1.72332,0.36448 -2.41601,0.75339 -0.34717,0.19489 -0.75205,0.27658 -1.10959,0.45133 -0.92639,0.45269 -1.87695,1.17312 -2.68881,1.80163 -2.12064,1.64176 -4.3722,3.09909 -6.52381,4.70035 -1.3807,1.02756 -2.55209,2.22189 -3.84445,3.34845 -1.33197,1.16104 -2.85477,2.07758 -4.20251,3.21259 -0.014,0.0118 -0.1558,-0.23389 -0.22663,-0.35672 -0.0929,-0.16105 -0.0841,-0.32419 -0.10986,-0.51731 -0.0623,-0.46741 0.0444,-0.94992 0.0921,-1.41733 0.16788,-1.64285 0.27707,-3.28085 0.43543,-4.9252 0.1856,-1.92727 0.22882,-3.85006 0.41498,-5.7756 0.11535,-1.19345 0.46008,-3.26212 0.51376,-4.55313 0.0866,-2.08353 0.10806,-4.18598 0.12402,-6.27164 0.009,-1.17996 0.0824,-1.83447 -0.0354,-3.02957 -0.10596,-1.07453 -0.281,-1.93186 -0.2641,-3.02954 0.009,-0.56314 0.18884,-2.55527 -1.01147,-2.3917 -0.22348,0.0305 -0.75583,0.17212 -0.4961,0.5492 0.0343,0.0498 0.32837,0.1488 0.31891,0.17718 -0.14319,0.43006 -0.12402,1.87198 -0.12402,2.49662 0,1.32458 0.29452,2.6214 0.24399,3.95221 -0.0952,2.50753 -0.0658,5.02487 -0.17313,7.52954 -0.0548,1.27777 -0.39941,3.3215 -0.51376,4.49997 -0.1222,1.25915 -0.11463,2.25021 -0.19489,3.5079 -0.12323,1.93103 -0.43368,3.80939 -0.49283,5.74014 -0.0129,0.42267 -0.0894,0.88214 -0.13314,1.27558 -0.0562,0.50592 -0.13965,1.01684 -0.13584,1.52362 0.009,1.21512 0.77142,2.91998 2.21619,2.43844 z" />
      <path
         inkscape:connector-curvature="0"
         id="path30"
         style="fill:#000000;fill-opacity:1;fill-rule:evenodd;stroke:none"
         d="m 279.66968,395.74524 c 0,0 0.1911,-0.0936 0.20315,-0.1842 0.0356,-0.26737 -0.0142,-0.44755 -0.0719,-0.72641 -0.004,-0.0177 0.0424,-0.34015 -0.0568,-0.44291 -0.1716,-0.17776 -0.50528,-0.11761 -0.62009,0.0886 -0.177,0.3179 -0.0638,1.07248 0.26575,1.25784 0.28708,0.16141 0.47974,-0.15195 0.50906,-0.37204 l -0.22915,0.37912 z" />
      <path
         inkscape:connector-curvature="0"
         id="path32"
         style="fill:#000000;fill-opacity:1;fill-rule:evenodd;stroke:none"
         d="m 280.04443,395.3602 c 0,0 0.20246,-0.0708 0.30371,-0.10626 0.18476,-0.0647 0.35856,-0.23102 0.49933,-0.3703 0.21125,-0.20893 1.05762,-1.16486 1.63916,-1.60102 1.89337,-1.41992 3.83487,-2.67132 5.84696,-3.91876 0.76187,-0.47232 1.37231,-1.08954 2.11224,-1.56741 0.52408,-0.33841 1.15024,-0.64533 1.66443,-0.98743 0.47443,-0.31561 0.87253,-0.74536 1.34644,-1.06299 0.68252,-0.45733 1.10012,-0.59741 1.7008,-1.11615 1.078,-0.93103 2.03223,-1.91235 3.14163,-2.82007 0.56018,-0.45834 1.08609,-0.98193 1.65567,-1.42727 0.34497,-0.26969 0.63098,-0.80835 1.06687,-0.76645 0.78714,0.0757 1.0426,0.5903 1.68307,1.09848 1.03775,0.82339 2.2403,1.40906 3.37964,2.07199 1.40833,0.81943 2.77655,1.24142 4.1676,2.00281 1.59931,0.87536 3.00037,2.10418 4.55317,3.04724 0.44439,0.2699 0.99975,0.45376 1.43502,0.74408 1.20285,0.80224 2.21433,1.92859 3.53318,2.58105 0.49691,0.24585 0.9938,0.49167 1.49072,0.73752 0.49948,0.2471 1.05307,0.63104 1.45813,0.87802 0.41882,0.25537 0.85736,0.61902 1.20947,0.87793 0.51697,0.3801 2.49283,1.25815 2.53095,-0.11389 0.007,-0.24097 -0.28391,-0.4761 -0.46064,-0.56692 -0.40301,-0.20716 -0.79986,-0.20313 -1.20471,-0.44291 -0.41665,-0.24682 -0.78143,-0.57229 -1.17212,-0.85846 -1.06054,-0.7767 -2.01376,-1.08569 -3.13302,-1.72818 -1.13666,-0.65246 -2.1156,-1.51837 -3.15354,-2.30316 -0.57586,-0.43542 -1.13446,-0.62024 -1.77163,-1.00982 -1.59589,-0.9758 -3.0438,-2.24265 -4.69489,-3.13581 -0.52838,-0.28582 -1.11871,-0.45498 -1.66537,-0.70868 -1.59351,-0.73944 -3.05298,-1.6213 -4.58313,-2.46395 -1.23853,-0.68207 -2.14576,-2.23786 -3.72593,-2.12464 -1.00695,0.0721 -1.7951,1.0307 -2.49032,1.66458 -0.76859,0.70075 -1.6182,1.29892 -2.39942,1.98502 -0.49029,0.4306 -0.9219,0.92978 -1.41305,1.35821 -1.28116,1.11759 -2.78906,2.00843 -4.20447,2.93491 -0.95416,0.62457 -1.78601,1.37659 -2.74472,1.99628 -0.93805,0.60635 -1.93115,1.13263 -2.87006,1.7362 -0.72598,0.46677 -1.22164,0.9458 -1.91339,1.47049 -0.49881,0.37833 -0.97812,0.65366 -1.43502,1.08069 -0.59699,0.55792 -1.10184,1.1933 -1.70508,1.74176 -0.0134,0.0122 -0.84873,-0.24625 -1.2536,-0.14728 -0.44153,0.10797 -0.29877,0.58713 0.0177,0.719 0.0177,0.007 0.22162,0.0958 0.31891,0.14914 0.18557,0.10177 0.34103,0.26379 0.53149,0.35434 0.53863,0.25598 0.96255,0.0601 1.40616,-0.26252 l -0.69837,0.38059 z" />
      <path
         transform="matrix(0.75000002,0,0,-0.75000002,0,842.00005)"
         inkscape:connector-curvature="0"
         id="path961"
         d="m 432.31192,650.27656 c -0.30728,-0.49719 -0.44781,-9.74406 -0.31228,-20.54859 0.28895,-23.0372 0.16527,-23.50013 -5.51224,-20.63237 -4.46246,2.25402 -16.74153,10.26601 -21.29288,13.89344 -2.39693,1.91035 -3.9923,2.6154 -5.04562,2.22984 -2.13197,-0.78038 -11.17647,-7.21543 -19.09913,-13.58878 -6.01952,-4.84237 -6.74743,-5.20985 -7.94587,-4.01142 -1.17564,1.17565 -1.20818,2.8087 -0.29884,14.99755 1.19735,16.04947 1.30091,27.55372 0.24803,27.55372 -0.41128,0 -1.64115,-0.72297 -2.73305,-1.60661 -1.98226,-1.60418 -1.98592,-1.64278 -2.4115,-25.43837 -0.23443,-13.10746 -0.0965,-24.30112 0.30645,-24.8748 0.91869,-1.30782 4.55691,-0.52786 6.84728,1.46792 0.92503,0.80605 4.89846,3.66064 8.82985,6.34352 3.93138,2.68288 9.34354,6.704 12.02702,8.93581 2.68347,2.23181 5.18679,4.05784 5.56292,4.05784 0.37613,0 1.58635,-0.70575 2.68939,-1.56833 1.10303,-0.86258 4.08684,-2.61507 6.63067,-3.89442 2.54384,-1.27934 7.27412,-4.08823 10.51173,-6.24197 3.23761,-2.15374 7.74568,-4.99438 10.01794,-6.31253 3.94329,-2.28753 4.18257,-2.32663 5.25586,-0.85882 1.25671,1.71866 1.3142,2.95776 1.12928,24.34216 -0.072,8.32529 -0.48854,17.02607 -0.92566,19.33508 -0.81901,4.32635 -3.44619,8.09181 -4.47935,6.42013 z"
         style="fill:#f14336;fill-opacity:1;stroke:none;stroke-width:0.63566953;stroke-linecap:round;stroke-miterlimit:4;stroke-dasharray:none" />
    </g>
  </g>
</svg>
