<?xml version="1.0" encoding="UTF-8" standalone="no"?>
<!-- Created with Inkscape (http://www.inkscape.org/) -->

<svg
   width="21.67605mm"
   height="18.543276mm"
   viewBox="0 0 21.67605 18.543276"
   version="1.1"
   id="svg3953"
   inkscape:version="1.3.2 (091e20e, 2023-11-25)"
   sodipodi:docname="logo_bluesky.svg"
   xml:space="preserve"
   xmlns:inkscape="http://www.inkscape.org/namespaces/inkscape"
   xmlns:sodipodi="http://sodipodi.sourceforge.net/DTD/sodipodi-0.dtd"
   xmlns="http://www.w3.org/2000/svg"
   xmlns:svg="http://www.w3.org/2000/svg"
   xmlns:rdf="http://www.w3.org/1999/02/22-rdf-syntax-ns#"
   xmlns:cc="http://creativecommons.org/ns#"
   xmlns:dc="http://purl.org/dc/elements/1.1/"><defs
     id="defs3947" /><sodipodi:namedview
     id="base"
     pagecolor="#ffffff"
     bordercolor="#666666"
     borderopacity="1.0"
     inkscape:pageopacity="0.0"
     inkscape:pageshadow="2"
     inkscape:zoom="6.318913"
     inkscape:cx="51.274642"
     inkscape:cy="36.082155"
     inkscape:document-units="mm"
     inkscape:current-layer="layer1"
     showgrid="false"
     fit-margin-top="0"
     fit-margin-left="0"
     fit-margin-right="0"
     fit-margin-bottom="0"
     inkscape:window-width="1080"
     inkscape:window-height="757"
     inkscape:window-x="973"
     inkscape:window-y="1717"
     inkscape:window-maximized="1"
     inkscape:showpageshadow="2"
     inkscape:pagecheckerboard="0"
     inkscape:deskcolor="#d1d1d1" /><metadata
     id="metadata3950"><rdf:RDF><cc:Work
         rdf:about=""><dc:format>image/svg+xml</dc:format><dc:type
           rdf:resource="http://purl.org/dc/dcmitype/StillImage" /></cc:Work></rdf:RDF></metadata><g
     inkscape:label="Ebene 1"
     inkscape:groupmode="layer"
     id="layer1"
     transform="translate(-116.16198,-111.59145)"><g
       id="g27"
       transform="matrix(1.0142791,0,0,1.0142791,-1.7506725,-1.6789852)"
       style="stroke-width:0.985922"><path
         id="path24"
         style="fill:#000000;stroke:none;stroke-width:0.24648;stroke-linejoin:bevel"
         d="m 118.70343,111.71961 c -0.15918,0.004 -0.31834,0.013 -0.47543,0.0408 -0.16441,0.0343 -0.32806,0.0769 -0.47077,0.1695 -0.13052,0.0849 -0.26382,0.16725 -0.38447,0.26613 -0.11078,0.0952 -0.20251,0.20334 -0.26045,0.339 -0.0551,0.13147 -0.10071,0.26656 -0.15348,0.39894 -0.05,0.14363 -0.0961,0.28904 -0.14004,0.4346 -0.0296,0.13124 -0.0437,0.26348 -0.0553,0.39739 -0.0207,0.17209 -0.0395,0.34495 -0.007,0.51729 0.0272,0.12676 0.0656,0.25135 0.0703,0.38188 0.0115,0.16387 -0.005,0.32898 -0.007,0.493 -0.007,0.17257 -0.0177,0.34573 0.009,0.51728 0.0148,0.14533 0.009,0.29246 0.0331,0.43718 0.0189,0.13466 0.0393,0.26893 0.0496,0.40463 0.0109,0.12108 5.8e-4,0.24341 0.003,0.36483 -0.002,0.13165 -0.005,0.26349 -0.015,0.39481 -0.0121,0.15567 -0.0301,0.31218 -0.005,0.46767 0.0211,0.15483 0.0524,0.30827 0.0827,0.46147 0.0417,0.16381 0.0874,0.32655 0.13953,0.48731 0.0381,0.15062 0.0809,0.29913 0.12867,0.447 0.048,0.13579 0.10283,0.26857 0.16175,0.39998 0.0553,0.12219 0.10737,0.24642 0.15296,0.37259 0.0455,0.10323 0.0853,0.20835 0.14056,0.30695 0.0445,0.0809 0.0707,0.17113 0.12299,0.24805 0.0576,0.0816 0.11334,0.16549 0.18345,0.2372 0.0711,0.079 0.138,0.16187 0.20102,0.24753 0.0885,0.11361 0.18194,0.22352 0.28422,0.32504 0.0991,0.10067 0.20248,0.19645 0.32453,0.26923 0.15152,0.0882 0.31139,0.16034 0.47077,0.23307 0.13901,0.061 0.27934,0.11883 0.41548,0.18603 0.1155,0.0578 0.23301,0.11126 0.35295,0.15916 0.11227,0.0471 0.2281,0.0869 0.34365,0.12506 0.10654,0.0272 0.21021,0.0637 0.31678,0.0909 0.13472,0.0279 0.2712,0.0473 0.40411,0.0837 0.002,4e-4 0.004,6.3e-4 0.006,0.001 -0.0495,0.0152 -0.0989,0.0299 -0.14779,0.047 -0.13536,0.0428 -0.26663,0.0972 -0.40515,0.1297 -0.13441,0.0314 -0.2688,0.067 -0.39532,0.12299 -0.11815,0.0493 -0.23411,0.10353 -0.35037,0.1571 -0.13399,0.0763 -0.26193,0.16364 -0.37827,0.2651 -0.10036,0.0895 -0.20377,0.17588 -0.29042,0.27957 -0.10664,0.104 -0.21559,0.20521 -0.32039,0.31109 -0.103,0.12082 -0.19297,0.25018 -0.231,0.40721 -0.0402,0.1477 -0.0586,0.3 -0.0579,0.4532 -1.3e-4,0.12594 -4.3e-4,0.25247 0.006,0.37828 0.0114,0.16863 0.03,0.33713 0.0718,0.50126 0.0402,0.15466 0.0868,0.30672 0.13384,0.4594 0.0521,0.1411 0.12316,0.27103 0.20877,0.39481 0.0883,0.11926 0.18206,0.2353 0.26097,0.36122 0.0842,0.11871 0.17314,0.23392 0.26251,0.34881 0.0774,0.10102 0.16052,0.19631 0.25167,0.28526 0.0877,0.0905 0.17915,0.17679 0.26716,0.26716 0.0978,0.10456 0.2044,0.20041 0.30748,0.29973 0.0884,0.0866 0.16689,0.18143 0.24908,0.27388 0.0827,0.10365 0.16484,0.20766 0.24546,0.31316 0.089,0.10188 0.18326,0.19857 0.27234,0.30024 0.10008,0.12304 0.19253,0.2529 0.31057,0.36019 0.10568,0.095 0.2129,0.18806 0.31936,0.28215 0.091,0.0678 0.18277,0.13496 0.28784,0.17983 0.11868,0.0622 0.24462,0.10948 0.37517,0.14056 0.14151,0.0303 0.28049,0.074 0.42582,0.0822 0.13999,0.0159 0.28013,0.03 0.42116,0.032 0.13165,0.007 0.26392,0.0129 0.39222,-0.0248 0.12334,-0.0253 0.24713,-0.0472 0.36587,-0.0909 0.12837,-0.0471 0.25546,-0.0993 0.37879,-0.15813 0.11727,-0.0663 0.24018,-0.12275 0.3545,-0.1943 0.11269,-0.0717 0.226,-0.14145 0.33486,-0.21911 0.13996,-0.1056 0.28137,-0.20941 0.41341,-0.32504 0.12599,-0.11432 0.24508,-0.23438 0.35502,-0.36432 0.12552,-0.11788 0.25029,-0.23579 0.37982,-0.34933 0.12301,-0.13127 0.23137,-0.27289 0.30541,-0.43822 0.076,-0.13395 0.16338,-0.26199 0.22014,-0.40618 0.0497,-0.14594 0.1006,-0.29305 0.11524,-0.44751 0.0242,-0.18295 0.0391,-0.36749 0.0925,-0.54519 0.0238,-0.11065 0.0485,-0.22142 0.0713,-0.33228 0.0409,0.11306 0.09,0.22242 0.13177,0.33538 0.0373,0.10833 0.0791,0.21526 0.11214,0.32504 0.0453,0.12898 0.0981,0.25461 0.15296,0.37983 0.0434,0.10684 0.0882,0.21345 0.13384,0.31936 0.0511,0.10042 0.0793,0.21243 0.13178,0.31264 0.0526,0.1104 0.0858,0.22979 0.14056,0.33951 0.0607,0.13692 0.12271,0.27455 0.21342,0.39481 0.0681,0.10733 0.13826,0.21323 0.20826,0.31936 0.0659,0.085 0.13205,0.16959 0.20309,0.25012 0.0657,0.0834 0.13185,0.16638 0.19792,0.24959 0.0727,0.0825 0.14129,0.16889 0.22014,0.24598 0.0945,0.0892 0.19983,0.15646 0.32659,0.19069 0.0842,0.0253 0.16867,0.0485 0.24805,0.0873 0.072,0.0221 0.14443,0.0401 0.21239,0.0744 0.0848,0.0275 0.17137,0.0484 0.25942,0.0625 0.0911,0.007 0.18139,0.0196 0.27233,0.0279 0.1146,0.002 0.22792,-0.01 0.34106,-0.0279 0.10781,-0.0146 0.21914,-7.9e-4 0.32712,-0.0176 0.11106,-0.0129 0.21895,-0.0362 0.32814,-0.0594 0.10487,-0.0251 0.20704,-0.0589 0.31109,-0.0868 0.11351,-0.0281 0.22063,-0.0728 0.33383,-0.1018 0.15498,-0.0515 0.29964,-0.12505 0.43977,-0.20878 0.10127,-0.0603 0.20747,-0.10937 0.30954,-0.16794 0.088,-0.0606 0.17602,-0.12055 0.26045,-0.18604 0.10726,-0.0907 0.19454,-0.19565 0.27337,-0.31161 0.026,-0.0399 0.0642,-0.0671 0.10439,-0.0899 0.0833,-0.0569 0.18021,-0.0946 0.25269,-0.16743 0.082,-0.0777 0.16197,-0.15701 0.23772,-0.24081 0.0698,-0.0764 0.13726,-0.15483 0.21187,-0.22686 0.0923,-0.0896 0.17571,-0.18788 0.262,-0.28319 0.0807,-0.0798 0.16382,-0.15523 0.25011,-0.22892 0.0859,-0.0778 0.17069,-0.15694 0.25012,-0.24133 0.0785,-0.0905 0.14784,-0.18922 0.18913,-0.30282 0.0489,-0.12456 0.0978,-0.24826 0.15245,-0.37052 0.0425,-0.11044 0.0768,-0.22277 0.108,-0.33694 0.0272,-0.0974 0.0745,-0.18447 0.11317,-0.2775 0.0348,-0.11342 0.0722,-0.2262 0.0692,-0.34675 -0.003,-0.13154 -0.008,-0.26325 -0.0258,-0.39377 -0.0188,-0.14402 -0.0364,-0.28855 -0.062,-0.4315 -0.0312,-0.13628 -0.0585,-0.27481 -0.11731,-0.40256 -0.0426,-0.10579 -0.0863,-0.21182 -0.13746,-0.31367 -0.0592,-0.12492 -0.114,-0.25296 -0.19482,-0.36587 -0.0696,-0.10522 -0.14391,-0.20815 -0.22737,-0.30283 -0.098,-0.0898 -0.20583,-0.16916 -0.31626,-0.24288 -0.10714,-0.0713 -0.22124,-0.1307 -0.32763,-0.2036 -0.11979,-0.079 -0.24547,-0.14865 -0.37155,-0.21704 -0.11991,-0.0599 -0.23473,-0.12997 -0.36019,-0.1788 -0.0913,-0.0391 -0.18325,-0.0752 -0.27698,-0.10646 0.078,-0.0135 0.15587,-0.0262 0.23357,-0.0418 0.0855,-0.0233 0.17045,-0.0497 0.2558,-0.0734 0.0995,-0.0273 0.19366,-0.0665 0.28991,-0.10283 0.11348,-0.0345 0.22036,-0.0833 0.33176,-0.12299 0.0977,-0.0284 0.1922,-0.0662 0.29197,-0.0878 0.12166,-0.0397 0.24071,-0.0873 0.36225,-0.12764 0.14347,-0.062 0.28646,-0.12916 0.41548,-0.21808 0.13067,-0.077 0.2587,-0.15844 0.38706,-0.23926 0.0966,-0.069 0.1953,-0.13599 0.28112,-0.21859 0.10874,-0.10359 0.20501,-0.21747 0.27595,-0.35088 0.0689,-0.12083 0.1435,-0.23754 0.21962,-0.35399 0.0683,-0.10782 0.12909,-0.21958 0.19172,-0.33073 0.0641,-0.13628 0.10915,-0.27932 0.15452,-0.42271 0.0421,-0.1478 0.0867,-0.29523 0.11937,-0.44545 0.0381,-0.13817 0.0893,-0.27053 0.14004,-0.40411 0.0383,-0.14286 0.0866,-0.28476 0.0951,-0.43356 0.01,-0.12437 0.007,-0.249 0.0212,-0.37311 0.0159,-0.12965 0.0506,-0.25461 0.0765,-0.3824 0.0237,-0.14656 0.0379,-0.29483 0.0388,-0.44339 0.006,-0.11434 0.0173,-0.22854 0.045,-0.34003 0.0261,-0.13645 0.0428,-0.27409 0.0496,-0.41289 0.0138,-0.16612 0.0312,-0.33225 0.0269,-0.4992 0.002,-0.10183 0.003,-0.2041 0.0196,-0.30489 0.0264,-0.14286 0.0636,-0.2846 0.0641,-0.43098 -2.1e-4,-0.15154 -4.9e-4,-0.30276 -0.005,-0.45424 -0.006,-0.1374 -0.0152,-0.2748 -0.032,-0.41134 -0.0116,-0.13368 -1.8e-4,-0.26854 -0.006,-0.40256 -0.003,-0.138 -0.006,-0.27624 -0.0227,-0.41341 -0.0146,-0.1132 -0.0265,-0.22584 -0.0367,-0.33952 -0.0252,-0.14986 -0.0669,-0.29383 -0.13694,-0.42943 -0.0636,-0.12156 -0.13148,-0.24093 -0.22169,-0.3452 -0.074,-0.0908 -0.14463,-0.18469 -0.2341,-0.26148 -0.0794,-0.0686 -0.16278,-0.13244 -0.23409,-0.2098 -0.10662,-0.0842 -0.21847,-0.15977 -0.35605,-0.18139 -0.12798,-0.0182 -0.25588,-0.0347 -0.38551,-0.0253 -0.13518,0.004 -0.27097,0.0111 -0.40359,0.0398 -0.14377,0.0296 -0.28906,0.0535 -0.42788,0.10284 -0.14298,0.047 -0.28964,0.0834 -0.4284,0.14262 -0.14069,0.0612 -0.28733,0.10855 -0.4315,0.16072 -0.153,0.0636 -0.30747,0.12598 -0.45268,0.20619 -0.11235,0.071 -0.21546,0.15451 -0.3266,0.22737 -0.12043,0.0799 -0.24268,0.15619 -0.36793,0.22841 -0.16283,0.10417 -0.32289,0.21241 -0.47698,0.32918 -0.18448,0.14325 -0.36464,0.29165 -0.51056,0.47594 -0.14136,0.1668 -0.27773,0.33865 -0.43305,0.49299 -0.14086,0.14201 -0.29182,0.27277 -0.43356,0.41393 -0.16208,0.15574 -0.31406,0.32167 -0.46871,0.48473 -0.14275,0.12791 -0.28137,0.26044 -0.41806,0.39481 -0.12503,0.12492 -0.25377,0.24676 -0.3607,0.38809 -0.1137,0.14297 -0.22757,0.2859 -0.34055,0.42943 -0.10539,0.13038 -0.21578,0.25684 -0.33073,0.37879 -0.14158,0.13915 -0.27545,0.285 -0.39016,0.44751 -0.0935,0.12469 -0.17954,0.25491 -0.29404,0.36226 -0.12625,0.12428 -0.25458,0.2475 -0.36845,0.38343 -0.12065,0.14525 -0.23918,0.29269 -0.34313,0.45062 -0.10938,0.15954 -0.23498,0.30768 -0.34107,0.46974 -0.0976,0.14018 -0.19187,0.28313 -0.27905,0.42995 -0.0454,0.0799 -0.0947,0.15732 -0.14366,0.23513 -0.005,-0.007 -0.0105,-0.0142 -0.0165,-0.0207 -0.038,-0.0578 -0.0777,-0.118 -0.12402,-0.17105 -0.0495,-0.0525 -0.0975,-0.10599 -0.14211,-0.16278 -0.0508,-0.0623 -0.0988,-0.12608 -0.14469,-0.19224 -0.0339,-0.0496 -0.0658,-0.0981 -0.0858,-0.15141 -0.0274,-0.10627 -0.0681,-0.20758 -0.10697,-0.31006 -0.0386,-0.11327 -0.0614,-0.23388 -0.13487,-0.33176 -0.0515,-0.0842 -0.10159,-0.17104 -0.17415,-0.23926 -0.066,-0.0643 -0.13422,-0.12668 -0.20567,-0.18501 -0.0577,-0.0426 -0.1041,-0.0973 -0.15297,-0.14934 -0.0534,-0.0566 -0.0923,-0.12465 -0.13745,-0.18759 -0.07,-0.10505 -0.14465,-0.20632 -0.231,-0.29869 -0.0761,-0.0909 -0.15115,-0.18239 -0.23254,-0.26871 -0.0553,-0.0599 -0.0977,-0.10329 -0.13746,-0.17932 -0.0467,-0.0663 -0.0764,-0.14476 -0.11886,-0.21394 -0.0398,-0.0999 -0.0868,-0.19555 -0.14004,-0.28887 -0.0644,-0.10995 -0.14396,-0.20816 -0.24081,-0.29146 -0.0833,-0.0864 -0.1695,-0.16982 -0.2527,-0.25631 -0.0753,-0.0825 -0.15561,-0.16136 -0.22169,-0.25167 -0.086,-0.11043 -0.16341,-0.22787 -0.26665,-0.32401 -0.11314,-0.1109 -0.23717,-0.20975 -0.35967,-0.31006 -0.0984,-0.0904 -0.1985,-0.17992 -0.26975,-0.29455 -0.0722,-0.0864 -0.12806,-0.18556 -0.19431,-0.27647 -0.094,-0.12026 -0.19612,-0.23398 -0.30437,-0.34158 -0.11828,-0.12631 -0.2449,-0.24524 -0.38499,-0.34727 -0.10108,-0.0674 -0.20321,-0.1358 -0.28784,-0.22376 -0.10682,-0.092 -0.21071,-0.18739 -0.32297,-0.27285 -0.113,-0.0947 -0.22792,-0.18716 -0.33435,-0.28939 -0.12986,-0.12751 -0.26598,-0.24887 -0.43305,-0.32608 -0.15884,-0.0776 -0.32254,-0.14495 -0.48782,-0.20773 -0.16203,-0.068 -0.32117,-0.14091 -0.4837,-0.20774 -0.16464,-0.0534 -0.32986,-0.10122 -0.50126,-0.12816 -0.16005,-0.0372 -0.32262,-0.0659 -0.48782,-0.0589 z m 0.0134,0.49971 c 0.12265,-0.006 0.24219,0.0189 0.3607,0.0465 0.15774,0.024 0.30918,0.0677 0.46044,0.11679 0.14775,0.0653 0.29503,0.12975 0.4439,0.19275 0.15447,0.0613 0.31168,0.11933 0.45992,0.19482 0.11983,0.0539 0.21226,0.14318 0.30438,0.23409 0.11568,0.11183 0.24064,0.21299 0.3638,0.31626 0.11061,0.084 0.21269,0.17817 0.31781,0.26872 0.0997,0.10135 0.21875,0.1816 0.33641,0.26045 0.10636,0.0819 0.20589,0.17342 0.29662,0.27233 0.0982,0.0975 0.19101,0.19923 0.27596,0.30851 0.0626,0.0961 0.12782,0.19079 0.19843,0.28112 0.0865,0.13473 0.20502,0.24283 0.32195,0.35037 0.11462,0.0996 0.23878,0.18903 0.34571,0.29714 0.0861,0.0817 0.15115,0.18021 0.22273,0.27388 0.0738,0.10166 0.16397,0.19031 0.24805,0.28319 0.0856,0.0903 0.17563,0.17606 0.26148,0.26613 0.0648,0.0581 0.12611,0.11711 0.16795,0.19379 0.0414,0.0722 0.0792,0.14544 0.10903,0.22324 0.0493,0.10194 0.10267,0.20214 0.16175,0.29869 0.0527,0.0919 0.12008,0.17068 0.19069,0.24908 0.0766,0.0807 0.14623,0.16687 0.21756,0.25218 0.0732,0.0788 0.13893,0.16302 0.1974,0.25322 0.0556,0.0844 0.11396,0.16622 0.17983,0.24288 0.0676,0.0764 0.13959,0.14786 0.21911,0.21187 0.0553,0.0473 0.11161,0.0943 0.16227,0.14676 0.0467,0.0457 0.0591,0.0788 0.0997,0.14521 0.0498,0.0675 0.0618,0.15166 0.0879,0.22996 0.0296,0.0913 0.0741,0.17747 0.0956,0.2713 0.0286,0.11032 0.0908,0.20804 0.15141,0.30335 0.0553,0.0809 0.11468,0.15896 0.17622,0.23512 0.0523,0.0663 0.10853,0.1292 0.1664,0.19069 0.03,0.0418 0.0577,0.0851 0.0873,0.12712 0.0158,0.0159 0.0447,0.0594 0.0186,0.0264 0.0488,0.18528 0.213,0.23173 0.33899,0.1819 0.11057,0.0989 0.30518,0.10226 0.39895,-0.0853 0.0782,-0.12975 0.16122,-0.25599 0.23719,-0.38705 0.0798,-0.13418 0.16618,-0.26526 0.2558,-0.39326 0.10779,-0.16165 0.23098,-0.31212 0.3421,-0.47129 0.0956,-0.14603 0.2049,-0.28143 0.31626,-0.41548 0.10373,-0.12226 0.21982,-0.23413 0.33434,-0.34623 0.13309,-0.12416 0.2347,-0.27438 0.34365,-0.41858 0.0995,-0.14286 0.21654,-0.26959 0.34055,-0.39119 0.12884,-0.13486 0.25187,-0.27586 0.36949,-0.42065 0.11398,-0.14462 0.2284,-0.28901 0.34313,-0.43305 0.0954,-0.12603 0.2106,-0.23402 0.32246,-0.34519 0.13042,-0.12811 0.26225,-0.25476 0.39842,-0.37672 0.16172,-0.16356 0.31358,-0.33729 0.48059,-0.49558 0.1452,-0.14393 0.29874,-0.27821 0.44287,-0.42323 0.16487,-0.16339 0.31004,-0.34463 0.45992,-0.52142 0.12339,-0.1582 0.2784,-0.28259 0.43563,-0.40462 0.14213,-0.10709 0.28964,-0.20731 0.43977,-0.30283 0.12801,-0.0734 0.25227,-0.15204 0.37517,-0.23357 0.10887,-0.0683 0.20596,-0.15265 0.31523,-0.22015 0.12319,-0.0623 0.25119,-0.11478 0.37879,-0.16743 0.14708,-0.0506 0.29404,-0.10235 0.43718,-0.1633 0.12564,-0.0515 0.25764,-0.0851 0.38654,-0.12712 0.12107,-0.0428 0.24829,-0.0626 0.37362,-0.0884 0.10457,-0.0227 0.21125,-0.0268 0.31781,-0.03 0.10104,-0.009 0.20061,0.006 0.30024,0.0207 0.0453,0.0153 0.0791,0.0497 0.11627,0.0791 0.0616,0.0728 0.14381,0.13097 0.21601,0.1943 0.0664,0.0585 0.118,0.13035 0.17311,0.19895 0.0687,0.0786 0.11953,0.16728 0.1664,0.25994 0.0463,0.0891 0.0725,0.18259 0.0879,0.28112 0.008,0.10818 0.0202,0.21537 0.0341,0.32297 0.0138,0.11893 0.0164,0.23852 0.0186,0.35812 0.003,0.14342 -0.002,0.28678 0.007,0.42995 0.0157,0.13124 0.0261,0.26328 0.0315,0.39532 0.004,0.14492 0.005,0.28963 0.005,0.4346 -0.004,0.11493 -0.0347,0.22649 -0.0558,0.339 -0.0223,0.12817 -0.0257,0.25783 -0.0279,0.38757 0.005,0.15596 -0.0125,0.31147 -0.0253,0.46664 -0.007,0.12005 -0.0176,0.23968 -0.0419,0.3576 -0.0322,0.13396 -0.0458,0.27105 -0.0537,0.40825 -0.002,0.1301 -0.01,0.26034 -0.0326,0.3886 -0.0306,0.13348 -0.0618,0.26602 -0.0796,0.40205 -0.0192,0.13084 -0.0109,0.26364 -0.0233,0.3948 -0.008,0.11857 -0.0495,0.23161 -0.0801,0.34572 -0.0547,0.12982 -0.10019,0.26285 -0.1385,0.39894 -0.0327,0.14915 -0.0767,0.29568 -0.11885,0.44235 -0.0402,0.11505 -0.0694,0.23477 -0.12402,0.34417 -0.0544,0.0931 -0.1052,0.18756 -0.1633,0.27853 -0.0805,0.12312 -0.15913,0.24687 -0.23203,0.37466 -0.0465,0.0914 -0.11172,0.16607 -0.18552,0.23564 -0.0694,0.0659 -0.1496,0.11933 -0.22737,0.17467 -0.11689,0.0707 -0.23101,0.14622 -0.34934,0.21446 -0.11164,0.0771 -0.23424,0.13786 -0.35915,0.19016 -0.10751,0.0316 -0.20964,0.0784 -0.31677,0.11059 -0.0951,0.0179 -0.18398,0.0586 -0.27699,0.0832 -0.11633,0.0337 -0.22271,0.0913 -0.339,0.12506 -0.0943,0.0297 -0.18238,0.0743 -0.27802,0.0997 -0.0851,0.0236 -0.16891,0.0503 -0.25424,0.0729 -0.0835,0.0136 -0.16671,0.0283 -0.25012,0.0429 -0.0878,0.0216 -0.17565,0.0448 -0.26562,0.0553 -0.0576,0.007 -0.11569,0.007 -0.17363,0.007 -0.065,8e-5 -0.12979,-4e-4 -0.19482,-5.2e-4 -0.0899,-0.007 -0.17743,0.0134 -0.2651,0.0295 -0.0612,0.009 -0.12241,0.0122 -0.18345,0.0222 -0.0358,0.007 -0.0727,0.0262 -0.10645,0.0305 -0.0175,7.9e-4 -0.0347,0.002 -0.0522,0.002 -0.0312,0 -0.0623,-4.2e-4 -0.0935,-5.1e-4 -0.0215,-6e-5 -0.0431,2e-5 -0.0646,0 -0.0831,-0.002 -0.15937,0.0498 -0.20825,0.11885 -0.2016,0.11309 -0.15473,0.46457 0.14211,0.46457 v 5.2e-4 c 0.16645,0.007 0.3326,0.0219 0.49919,0.03 0.14508,-0.004 0.28351,0.0382 0.42478,0.0636 0.13091,0.01 0.25468,0.0536 0.37982,0.0894 0.13481,0.0312 0.26143,0.0811 0.38809,0.1354 0.11443,0.046 0.22051,0.10837 0.3297,0.16484 0.10891,0.0602 0.21887,0.11891 0.32246,0.18811 0.0974,0.075 0.22399,0.12467 0.31988,0.19792 0.0877,0.0619 0.18162,0.1205 0.25838,0.19637 0.0503,0.0713 0.10419,0.1398 0.15193,0.2129 0.0673,0.0937 0.11117,0.20094 0.1602,0.3049 0.0462,0.0923 0.0874,0.18784 0.12454,0.28422 0.0489,0.10423 0.0698,0.21764 0.0951,0.32918 0.0206,0.12783 0.037,0.25653 0.0537,0.38498 0.0154,0.11262 0.0194,0.22654 0.0217,0.34004 -0.003,0.0663 -0.0282,0.1263 -0.0475,0.18913 -0.0516,0.0893 -0.086,0.18629 -0.11524,0.28474 -0.0275,0.10057 -0.0571,0.19941 -0.0946,0.29662 -0.055,0.12054 -0.1019,0.24393 -0.1509,0.3669 -0.0203,0.0602 -0.0579,0.10994 -0.0997,0.15658 -0.0672,0.0686 -0.13634,0.13569 -0.20826,0.19947 -0.0913,0.0796 -0.18117,0.15983 -0.26768,0.24495 -0.0881,0.0901 -0.16422,0.19139 -0.25632,0.2775 -0.0831,0.0783 -0.15631,0.16635 -0.23409,0.2496 -0.0676,0.076 -0.14014,0.14656 -0.21394,0.21652 -0.059,0.043 -0.12551,0.0744 -0.18655,0.11473 -0.0867,0.0483 -0.15608,0.11955 -0.21859,0.19533 -0.0636,0.0807 -0.11385,0.17253 -0.19741,0.23461 -0.0735,0.0574 -0.15108,0.10841 -0.22789,0.16123 -0.0952,0.0459 -0.18816,0.0958 -0.27957,0.14935 -0.10938,0.0612 -0.21767,0.1273 -0.33848,0.1633 -0.10181,0.0217 -0.19562,0.0693 -0.29714,0.0915 -0.10462,0.0263 -0.2061,0.0619 -0.31109,0.0868 -0.0897,0.0187 -0.17808,0.0389 -0.26924,0.0491 -0.10697,0.009 -0.21452,0.007 -0.32142,0.0165 -0.0882,0.004 -0.1791,0.038 -0.26769,0.0263 -0.0853,-0.0103 -0.17065,-0.0202 -0.25631,-0.0269 -0.0478,-0.0142 -0.0962,-0.0249 -0.14366,-0.0403 -0.0664,-0.0377 -0.14293,-0.0486 -0.21343,-0.0744 -0.0805,-0.0417 -0.1702,-0.0638 -0.25683,-0.0899 -0.0513,-0.0198 -0.0928,-0.0265 -0.11782,-0.0656 -0.0705,-0.0688 -0.13171,-0.14566 -0.19586,-0.22015 -0.0591,-0.0773 -0.12124,-0.1522 -0.18035,-0.22944 -0.0714,-0.0799 -0.13692,-0.16436 -0.20257,-0.24908 -0.0593,-0.0944 -0.12165,-0.18646 -0.18138,-0.2806 -0.0774,-0.0996 -0.12815,-0.21524 -0.1788,-0.3297 -0.0528,-0.11286 -0.0919,-0.23105 -0.14263,-0.34468 -0.0499,-0.10417 -0.0869,-0.214 -0.13488,-0.31884 -0.0413,-0.0976 -0.0821,-0.19533 -0.12195,-0.29353 -0.0503,-0.11785 -0.10268,-0.23474 -0.14418,-0.35605 -0.0328,-0.10933 -0.0745,-0.21511 -0.11162,-0.32297 -0.0419,-0.12587 -0.10608,-0.24357 -0.14573,-0.37001 -0.0287,-0.10646 -0.0503,-0.21495 -0.077,-0.32194 -0.0211,-0.11103 -0.0443,-0.22124 -0.0656,-0.33228 -0.0142,-0.0737 -0.0197,-0.14887 -0.0222,-0.22376 -0.01,-0.0928 -0.0328,-0.18154 -0.0661,-0.2682 -0.0168,-0.0242 -0.0184,-0.0295 -0.0233,-0.0382 -0.006,-0.0471 -0.0213,-0.0869 -0.0434,-0.11886 -0.0324,-0.26254 -0.43102,-0.30912 -0.49351,0.001 -0.026,0.16629 -0.0472,0.33301 -0.0615,0.50074 -0.0131,0.21635 -0.025,0.43271 -0.0506,0.64802 -0.0302,0.1939 -0.0751,0.38497 -0.11627,0.57671 -0.0566,0.19053 -0.0729,0.38902 -0.0992,0.58498 -0.0113,0.12141 -0.0528,0.23644 -0.0925,0.35088 -0.0519,0.11196 -0.12035,0.21394 -0.18139,0.32091 -0.0566,0.12998 -0.13758,0.24085 -0.23461,0.34262 -0.124,0.10433 -0.2398,0.2171 -0.35812,0.32763 -0.11088,0.12559 -0.2246,0.24671 -0.34881,0.35915 -0.12127,0.1051 -0.25078,0.1996 -0.37879,0.2961 -0.098,0.0684 -0.1984,0.13177 -0.29972,0.19482 -0.1081,0.0658 -0.22285,0.11979 -0.33332,0.18139 -0.10058,0.0436 -0.20157,0.0875 -0.30489,0.12454 -0.0957,0.0348 -0.19528,0.0508 -0.29455,0.0708 -0.0884,0.0293 -0.17626,0.0197 -0.26717,0.015 -0.13092,-0.001 -0.26028,-0.0141 -0.39016,-0.0289 -0.12876,-0.008 -0.25227,-0.0474 -0.37775,-0.0744 -0.0863,-0.0215 -0.1688,-0.0526 -0.24702,-0.0941 -0.0823,-0.0329 -0.15144,-0.0861 -0.22169,-0.1385 -0.0929,-0.0863 -0.18944,-0.1684 -0.2837,-0.25321 -0.0971,-0.0915 -0.17315,-0.20029 -0.25683,-0.30334 -0.0912,-0.10703 -0.19101,-0.20599 -0.28267,-0.31264 -0.0743,-0.10078 -0.15433,-0.1971 -0.23151,-0.29559 -0.0947,-0.1089 -0.18761,-0.21897 -0.29042,-0.3204 -0.0959,-0.0955 -0.19974,-0.18263 -0.29094,-0.28267 -0.0872,-0.0943 -0.1853,-0.17861 -0.27234,-0.27285 -0.0788,-0.076 -0.15058,-0.15765 -0.21704,-0.24443 -0.0844,-0.11008 -0.17092,-0.21834 -0.25011,-0.33228 -0.0803,-0.12909 -0.17808,-0.24614 -0.26717,-0.36897 -0.0572,-0.0857 -0.10717,-0.17267 -0.14159,-0.26975 -0.0419,-0.13791 -0.0836,-0.27492 -0.11989,-0.41444 -0.0334,-0.13377 -0.0481,-0.27143 -0.0568,-0.40876 -0.005,-0.11465 -0.005,-0.22995 -0.005,-0.34469 0.002,-0.10585 0.006,-0.21466 0.0382,-0.31625 0.0182,-0.0893 0.0732,-0.1529 0.13023,-0.21963 0.0972,-0.0917 0.19298,-0.18446 0.28887,-0.2775 0.0819,-0.0978 0.17824,-0.18003 0.27337,-0.26407 0.0902,-0.0754 0.18589,-0.14726 0.2899,-0.20257 0.10021,-0.0432 0.19833,-0.09 0.29921,-0.13178 0.10097,-0.0452 0.20871,-0.0731 0.31626,-0.0977 0.1514,-0.0333 0.29374,-0.0945 0.44131,-0.14005 0.15486,-0.0542 0.31373,-0.096 0.47026,-0.14469 0.13301,-0.0384 0.26857,-0.0679 0.40463,-0.0935 0.12249,-0.0161 0.23722,-0.0631 0.35656,-0.0915 0.053,-0.0113 0.10257,-0.0322 0.15142,-0.0543 0.009,-0.001 0.0176,-0.002 0.0263,-0.003 0.0507,-0.008 0.0916,-0.0268 0.12454,-0.0507 0.29164,-0.06 0.26066,-0.50207 -0.0718,-0.49351 -0.0208,6.9e-4 -0.01,2.3e-4 -0.0336,0.002 -0.0524,0.006 -0.1022,0.0216 -0.14986,0.0439 -0.0103,0.005 -0.0203,0.01 -0.0305,0.0145 -0.0808,0.01 -0.16216,0.0187 -0.2434,0.0145 -0.1278,-0.0153 -0.25523,-0.0383 -0.3824,-0.0594 -0.17194,-0.0439 -0.34887,-0.0598 -0.52193,-0.0977 -0.1342,-0.0369 -0.2717,-0.0567 -0.40773,-0.0847 -0.0976,-0.0287 -0.19457,-0.0596 -0.29301,-0.0853 -0.0914,-0.0332 -0.18439,-0.063 -0.27388,-0.10128 -0.10957,-0.0441 -0.21817,-0.0917 -0.32349,-0.14521 -0.1441,-0.0709 -0.29228,-0.13222 -0.43925,-0.19689 -0.14017,-0.0666 -0.28438,-0.12599 -0.41755,-0.20619 -0.0844,-0.0509 -0.15324,-0.11936 -0.22169,-0.18914 -0.0879,-0.0879 -0.17041,-0.18189 -0.24598,-0.2806 -0.0701,-0.0955 -0.14472,-0.18766 -0.22376,-0.27595 -0.056,-0.0572 -0.10087,-0.12351 -0.14625,-0.18914 -0.0291,-0.065 -0.0572,-0.13072 -0.0899,-0.1943 -0.0502,-0.0884 -0.0846,-0.18364 -0.12558,-0.27647 -0.0449,-0.12783 -0.099,-0.25213 -0.15451,-0.37569 -0.0524,-0.11854 -0.10386,-0.23763 -0.14624,-0.36018 -0.043,-0.13377 -0.0814,-0.26843 -0.11576,-0.40463 -0.0513,-0.16134 -0.0979,-0.3237 -0.13952,-0.48782 -0.0247,-0.13456 -0.0536,-0.26836 -0.0713,-0.40411 -0.0187,-0.12072 -10e-4,-0.24199 0.008,-0.36277 0.0107,-0.1417 0.015,-0.28378 0.0171,-0.42582 7.5e-4,-0.13667 0.005,-0.27338 -0.005,-0.40979 -0.0112,-0.14624 -0.0329,-0.29153 -0.0532,-0.43667 -0.0192,-0.13744 -0.018,-0.27594 -0.03,-0.41392 -0.0248,-0.1499 -0.013,-0.30131 -0.008,-0.45217 0.005,-0.18027 0.0151,-0.36084 0.006,-0.54105 -0.005,-0.15606 -0.048,-0.30579 -0.0801,-0.45734 -0.0177,-0.11839 -1.4e-4,-0.23545 0.014,-0.35295 0.0127,-0.11558 0.019,-0.23143 0.0465,-0.34468 0.0412,-0.12766 0.0802,-0.25579 0.12454,-0.38241 0.0496,-0.1225 0.0907,-0.24821 0.14211,-0.37 0.0286,-0.0627 0.0653,-0.10716 0.11989,-0.14883 0.1061,-0.0855 0.22287,-0.15683 0.33693,-0.23099 0.0905,-0.0551 0.1942,-0.0791 0.29714,-0.0987 0.12904,-0.0213 0.25963,-0.0276 0.39015,-0.031 z" /><path
         style="fill:#1185fe;fill-opacity:1;stroke:none;stroke-width:0.931581;stroke-linejoin:bevel"
         d="m 52.382427,67.077797 c -0.17408,-0.03438 -0.912106,-0.256736 -1.640055,-0.494129 -1.287915,-0.420006 -1.349932,-0.463598 -2.303632,-1.61925 -1.683532,-2.04003 -2.295808,-3.09572 -3.563417,-6.144065 -1.58491,-3.811393 -2.314552,-5.970317 -2.550189,-7.545711 -0.292898,-1.958221 -0.71849,-3.163951 -1.193129,-3.38021 -0.502526,-0.228966 -1.130949,-0.07929 -1.344802,0.320296 -0.09012,0.168388 -0.236407,1.175008 -0.325083,2.236931 -0.08868,1.061923 -0.302453,2.678524 -0.47506,3.592447 -0.172605,0.913923 -0.418958,2.263375 -0.547448,2.998781 -0.365136,2.089828 -1.057679,3.186662 -3.510867,5.560428 -2.256307,2.183262 -4.026036,3.395543 -5.916848,4.053102 -1.03489,0.359901 -1.330851,0.394095 -2.819316,0.325745 -2.862624,-0.131455 -4.033892,-0.814267 -6.489825,-3.78336 -0.739842,-0.894431 -2.309216,-2.625796 -3.487496,-3.84748 -2.003709,-2.077517 -3.712799,-4.221077 -4.333504,-5.435131 -0.812659,-1.589499 -1.160725,-5.015359 -0.624391,-6.145599 0.366136,-0.771575 2.766008,-2.943116 3.830736,-3.466269 1.036964,-0.509512 3.57142,-1.291733 8.017139,-2.47437 0.696322,-0.185233 1.460849,-0.433928 1.698949,-0.552654 0.800103,-0.398963 0.728326,-1.673916 -0.106026,-1.883325 -0.217816,-0.05467 -0.736545,-0.01247 -1.152732,0.09377 -0.674396,0.172158 -1.040722,0.140004 -3.36791,-0.295612 C 17.160075,38.627308 16.149874,38.304017 13.214298,36.963706 10.926563,35.919183 10.497558,35.591783 8.9486395,33.708329 7.9112022,32.446826 7.6732029,32.014692 6.6824972,29.593698 5.1393362,25.822665 4.6412439,23.593496 4.7767629,21.064748 4.8343485,19.990217 4.79529,18.46488 4.6821939,17.371575 4.5031904,15.641142 4.3525895,12.254203 4.3036598,8.85853 4.2857087,7.6127464 4.3506158,7.2390738 4.8122057,5.9308112 5.4018373,4.2596456 5.857897,3.666781 7.055007,3.015232 c 1.6950985,-0.9225881 3.877936,-0.6928865 7.306057,0.7688219 1.860697,0.7933779 2.115361,0.9589334 4.253894,2.765425 3.680146,3.1087451 3.934533,3.3500987 4.950111,4.6965121 0.533277,0.706997 1.520356,1.767708 2.193507,2.357136 0.673152,0.589427 1.223913,1.132056 1.223913,1.205842 0,0.07379 0.631571,0.795588 1.403491,1.604005 0.970663,1.016556 1.578793,1.81863 1.971925,2.600807 0.312638,0.622028 0.94854,1.583428 1.413117,2.136444 0.464576,0.553017 1.173002,1.432773 1.57428,1.955015 0.401278,0.522242 1.091496,1.302224 1.533817,1.733292 0.616716,0.601026 0.898801,1.043798 1.209875,1.899061 0.573426,1.576581 0.770051,1.938717 1.700705,3.132288 0.453496,0.58161 0.952488,1.238101 1.108871,1.458867 0.168782,0.238267 0.437933,0.401393 0.662284,0.401393 0.207869,0 0.560901,0.06956 0.784513,0.154577 0.650111,0.247171 1.069904,-0.06961 1.877011,-1.416409 1.175014,-1.960716 3.228527,-4.745386 4.808787,-6.520964 2.326522,-2.614074 3.708307,-4.213237 4.609562,-5.334716 0.462469,-0.575474 2.49209,-2.722516 4.51027,-4.771204 2.018181,-2.048688 4.105983,-4.1953952 4.639562,-4.7704605 0.879396,-0.9477703 4.388525,-3.4528745 6.013892,-4.2932093 1.820671,-0.9413096 5.475711,-2.0082915 6.879577,-2.0082915 0.89168,0 0.939753,0.022736 1.870945,0.8848551 0.620425,0.5744046 1.123698,1.2268071 1.434443,1.859497 0.464387,0.9455101 0.483852,1.0763418 0.651256,4.3771259 0.09491,1.8713663 0.129466,3.7941653 0.07679,4.2728873 -0.05268,0.478721 -0.157828,1.72498 -0.233676,2.769463 -0.153244,2.110284 -0.3945,4.180262 -0.738847,6.339309 -0.125739,0.78837 -0.228616,1.731114 -0.228616,2.094987 0,0.363873 -0.208287,1.321175 -0.462859,2.127337 -0.254573,0.806164 -0.617319,1.999863 -0.806101,2.652665 -0.376209,1.300912 -1.958622,4.047242 -2.763705,4.796501 -0.967392,0.900313 -3.016503,1.984142 -5.146129,2.721924 -3.845845,1.332345 -5.124598,1.653444 -6.646712,1.669013 -0.478722,0.0049 -1.53608,0.0952 -2.349685,0.20068 -1.364622,0.176912 -1.51545,0.232257 -1.945909,0.714023 -0.342133,0.382914 -0.438578,0.614407 -0.361497,0.867672 0.226371,0.743783 0.475321,0.851626 2.238565,0.969739 3.132231,0.209815 5.582434,1.090365 8.662696,3.113185 1.148362,0.754134 1.771522,1.563927 2.526091,3.282648 0.511251,1.164504 0.944707,3.431522 0.834489,4.364458 -0.07085,0.599668 -0.867561,2.943478 -1.428871,4.203519 -0.218289,0.490021 -2.762736,3.068735 -6.609447,6.698456 -1.457912,1.375672 -3.204385,2.303458 -5.364554,2.849835 -1.424185,0.360222 -3.821453,0.61458 -4.51027,0.478554 z"
         id="path27"
         transform="matrix(0.26458333,0,0,0.26458333,116.16198,111.59145)" /></g></g></svg>
